<?xml version="1.0" encoding="utf-8"?>
<!-- Generator: Adobe Illustrator 23.0.3, SVG Export Plug-In . SVG Version: 6.00 Build 0)  -->
<svg version="1.1" id="Layer_1" xmlns="http://www.w3.org/2000/svg" xmlns:xlink="http://www.w3.org/1999/xlink" x="0px" y="0px"
	 viewBox="0 0 30 25" style="enable-background:new 0 0 30 25;" xml:space="preserve">
<style type="text/css">
	.st0{fill:#3598DB;}
</style>
<g id="Rounded_Rectangle_18">
	<g>
		<path class="st0" d="M26.5,2h-23C2.7,2,2,2.7,2,3.5C2,4.3,2.7,5,3.5,5h23C27.3,5,28,4.3,28,3.5C28,2.7,27.3,2,26.5,2z"/>
	</g>
</g>
<g id="Rounded_Rectangle_18_copy">
	<g>
		<path class="st0" d="M26.5,11h-23C2.7,11,2,11.7,2,12.5C2,13.3,2.7,14,3.5,14h23c0.8,0,1.5-0.7,1.5-1.5C28,11.7,27.3,11,26.5,11z"
			/>
	</g>
</g>
<g id="Rounded_Rectangle_18_copy_2">
	<g>
		<path class="st0" d="M26.5,20h-23C2.7,20,2,20.7,2,21.5S2.7,23,3.5,23h23c0.8,0,1.5-0.7,1.5-1.5S27.3,20,26.5,20z"/>
	</g>
</g>
</svg>
