<?xml version="1.0" encoding="utf-8"?>
<!-- Generator: Adobe Illustrator 23.0.3, SVG Export Plug-In . SVG Version: 6.00 Build 0)  -->
<svg version="1.1" id="Layer_2" xmlns="http://www.w3.org/2000/svg" xmlns:xlink="http://www.w3.org/1999/xlink" x="0px" y="0px"
	 viewBox="0 0 405.9 322.6" style="enable-background:new 0 0 405.9 322.6;" xml:space="preserve">
<style type="text/css">
	.st0{fill:#E6F5FF;}
	.st1{clip-path:url(#XMLID_2_);fill:#2069A7;}
	.st2{fill:#CCE8FE;}
	.st3{fill:#49B7FA;}
	.st4{clip-path:url(#XMLID_3_);fill:#FF2C4B;}
	.st5{clip-path:url(#XMLID_4_);fill:#CCE8FE;}
	.st6{fill:#FFFFFF;}
	.st7{clip-path:url(#XMLID_5_);fill:#FF2C4B;}
	.st8{clip-path:url(#XMLID_6_);fill:#CCE8FE;}
	.st9{fill:none;stroke:#163460;stroke-width:2;stroke-linecap:round;stroke-linejoin:round;stroke-miterlimit:10;}
	.st10{fill:#163460;}
	.st11{fill:#F8767F;}
	.st12{fill:none;stroke:#49B7FA;stroke-width:3;stroke-linejoin:round;stroke-miterlimit:10;}
	.st13{fill:none;stroke:#F55C76;stroke-width:4.2857;stroke-linecap:round;stroke-linejoin:round;stroke-miterlimit:10;}
</style>
<g>
	<g>
		<path class="st0" d="M397.9,215.9c-0.5,1.4-0.9,2.6-1.3,3.8c-0.1,0.2-0.1,0.5-0.2,0.7C396.8,218.9,397.3,217.4,397.9,215.9z"/>
		<path class="st0" d="M402,166.4c0.1,1.9,0.2,3.7,0.3,5.3c0,0.4,0.1,0.9,0.1,1.3C402.3,170.7,402.1,168.5,402,166.4z"/>
		<path class="st0" d="M402.4,172.9c0.2,2.5,0.3,5,0.5,7.6C402.8,177.9,402.6,175.4,402.4,172.9z"/>
		<path class="st0" d="M402.3,171.6c-1.2-15.7-3.1-30.4-10.5-45.2c-7.9-16-16.7-26.7-29.8-38.6c-13.5-12.3-31.1-19.2-47-28.1
			c-2.6-1.9-5-4-7.4-6.2c-7.6-9.1-14.9-18.7-24.4-25.8c-16.1-12-34.5-20.5-54.8-21.8c-16.7-1.1-32.9,0-49.3,2.1
			c-6.1,0.8-12.3,1.7-18.3,2.9c-15.6,3.2-28.4,9.1-42.1,15.8c-13.6,6-27,13.1-38,23.3C67,62.8,56.2,76.8,49,94.2
			c-6.8,16.4-10,35.1-8.2,52.8c0.9,9.1,3.2,18.3,6.4,26.9c3.9,10.2,9.2,21.5,16.3,30.6c0.3,6.8,0.9,12.9,3.5,20.5
			c1.4,4.1,3.5,8,5.4,12c5.3,11.1,14.6,18.5,25.9,22.1c7.5,3.7,15,6.8,23.5,8.1c4.3,0.7,8.1,0.7,11.8,0.3c1,1,1.9,2,2.9,2.9
			c4,3.8,8.1,7.5,12.4,10.9c7.8,6.2,16,11.9,24.9,16.3c15,7.5,31,13,47.5,16.2c17.5,3.4,36.6,3.5,54.2,0.5
			c17.4-3,35.1-7.7,50.7-16.2c10.5-5.7,21.1-11.4,30.1-19.2c6.3-5.4,12-11.5,17.6-17.5c2.6-2.8,4.7-5.6,6.6-8.6c0,0,0,0.1-0.1,0.1
			c0,0,0-0.1,0.1-0.1c2.6-4.1,4.9-8.4,7.8-13.3c-0.4,0.7-0.8,1.3-1.1,2c4.2-7.4,5.7-11.2,9.4-21.9c2.9-8.8,3.7-12.8,5.1-23.6
			C402.9,186.5,403,182.4,402.3,171.6z"/>
		<path class="st0" d="M401.5,197.5c-0.3,2.7-0.7,5.4-1,8C400.9,202.4,401.3,199.8,401.5,197.5z"/>
		<path class="st0" d="M396.3,220.4c-1.1,3.2-2.1,6.4-3.2,9.5C394.4,226.1,395.5,223,396.3,220.4z"/>
		<path class="st0" d="M402.3,191.2c-0.2,1.8-0.4,3.4-0.6,4.9c-0.1,0.4-0.1,0.9-0.2,1.3C401.8,195.4,402.1,193.3,402.3,191.2z"/>
	</g>
	<path class="st0" d="M40.4,96.7c-1.8-5-7-8.4-12.1-7.7c-0.4-0.1-0.7-0.1-1.1-0.1c-3.6-0.3-7.2,1.5-9.2,4.5
		c-2.1,3.1-2.5,6.7-1.8,10.3c1,5.3,6.5,9.1,11.8,9.3c3.5,0.1,6.5-0.9,9.1-3.2C40.9,106.6,42,101.2,40.4,96.7z"/>
	<path class="st0" d="M338.4,41.5c-0.7-7.4-7-11.4-13.8-11.4c-6.8,0-12,7.5-11.4,13.8c0.7,7.4,7,11.4,13.8,11.4
		C333.8,55.3,339,47.8,338.4,41.5z"/>
	<path class="st0" d="M140.9,297.1c-1.3-2.6-4-4.3-6.9-3.9c-1.2-0.2-2.4-0.1-3.5,0.3c-2.8,0.8-4.9,3.2-5.5,6
		c-0.6,2.8,0.3,5.8,2.5,7.8c1.1,1,2.3,1.6,3.7,1.9c1.4,0.3,2.8,0.3,4.1-0.2c1.4-0.5,2.7-1.2,3.7-2.3c0.6-0.5,1.1-1.1,1.4-1.8
		c0.4-0.6,0.7-1.3,0.9-2C141.8,301,141.8,298.8,140.9,297.1z"/>
	<g>
		<defs>
			<path id="XMLID_85_" d="M242.2,58.1l10.3,4.2l14,5.5l9.8,4.8l6.1,4.3l6.1,5l15.1,15.9l1.6,3.3c0,0,2,2.6,2.3,3.1
				c0.3,0.4,5.9,8,5.9,8l3.1,6.6c0,0,6.5,17.8,7.2,21.5s1,32.3,0.4,34c-0.6,1.7-6.9,32.2-15,38.4l-3,6.3l-8.1,9.4
				c0,0-16.7,15.6-21.3,17.8c-4.6,2.3-24.8,11.9-24.8,11.9l-11.4,2.4c0,0,10.7,0.4,11,0.3c0.3-0.2,32.2-11.9,32.2-11.9l16.3-12
				l18.9-19.5l10.5-19.9l3-8.4l1.3-9.3c0,0,2.4-19.3,2.4-20.9c0-1.5-0.2-6.2-0.2-6.2s-2.1-17.6-3-19.8c-0.9-2.2-11.2-29.8-15.5-31.1
				c0,0-18.5-35.8-70.5-43.5"/>
		</defs>
		<use xlink:href="#XMLID_85_"  style="overflow:visible;fill:#49B7FA;"/>
		<clipPath id="XMLID_2_">
			<use xlink:href="#XMLID_85_"  style="overflow:visible;"/>
		</clipPath>
		<path class="st1" d="M319.6,159.1c0,0,19.8-4,22.4-34.5c2.6-30.5,14.2,67.6,14.2,67.6l-22.4,44.5L289,266.3l-51.3,11.4l-22.8-2.1
			l-19.6-2.1"/>
	</g>
	<polyline class="st2" points="36,244.4 83.5,122.3 90.2,126.4 91.2,128.2 120.1,222.6 120,224.8 97,227.6 107.7,255.8 56.5,271 
		46.5,269.5 40.2,259.3 	"/>
	<polyline class="st2" points="25.5,207.6 56.5,128.3 39.7,134 21.1,189.5 	"/>
	<polyline class="st3" points="107.1,180.3 60.9,269.8 105.2,256.1 107.7,255.1 97,227.9 120,223.9 	"/>
	<g>
		<defs>
			<ellipse id="XMLID_54_" cx="221.9" cy="159.6" rx="102.4" ry="100.9"/>
		</defs>
		<use xlink:href="#XMLID_54_"  style="overflow:visible;fill:#F8767F;"/>
		<clipPath id="XMLID_3_">
			<use xlink:href="#XMLID_54_"  style="overflow:visible;"/>
		</clipPath>
		<path class="st4" d="M132.2,228.8L311.9,64.5L394,69l0.3,124.1L326.9,248c0,0-29.7,22.4-49.6,28.3c-19.9,5.9-40.2,5.9-40.2,5.9
			l-53.1-1.4l-19.2-4.9"/>
	</g>
	<g>
		<defs>
			<ellipse id="XMLID_83_" cx="221.9" cy="159.6" rx="85.9" ry="84.6"/>
		</defs>
		<use xlink:href="#XMLID_83_"  style="overflow:visible;fill:#FFFFFF;"/>
		<clipPath id="XMLID_4_">
			<use xlink:href="#XMLID_83_"  style="overflow:visible;"/>
		</clipPath>
		<path class="st5" d="M138.5,225.5"/>
		<polyline class="st5" points="135.2,224.6 319.3,57.3 364.5,181.7 340.8,228.8 317,252.1 258.7,285.2 216.8,287.5 		"/>
	</g>
	<path class="st6" d="M122.7,138.8c0,0,23-84.8,113.8-79.5l-6.6-1.2L203.2,59l-25.7,9.1L152.8,84l-12.9,15.8l-7.9,11.5"/>
	<g>
		<defs>
			<ellipse id="XMLID_82_" cx="221.9" cy="159.6" rx="69.8" ry="68.7"/>
		</defs>
		<use xlink:href="#XMLID_82_"  style="overflow:visible;fill:#F8767F;"/>
		<clipPath id="XMLID_5_">
			<use xlink:href="#XMLID_82_"  style="overflow:visible;"/>
		</clipPath>
		<polyline class="st7" points="133.4,226.9 310.5,65.2 363.1,163.1 352.4,201.3 317,244.6 276.9,267 		"/>
	</g>
	<g>
		<defs>
			<ellipse id="XMLID_84_" cx="221.9" cy="159.6" rx="46.1" ry="45.4"/>
		</defs>
		<use xlink:href="#XMLID_84_"  style="overflow:visible;fill:#FFFFFF;"/>
		<clipPath id="XMLID_6_">
			<use xlink:href="#XMLID_84_"  style="overflow:visible;"/>
		</clipPath>
		<polyline class="st8" points="177.3,186.8 307.7,68 327.9,131.6 294.7,184.7 250,202.2 207.4,216.2 181.1,216.5 		"/>
	</g>
	<g>
		<circle class="st9" cx="222.4" cy="159.6" r="102.1"/>
		<circle class="st9" cx="222.4" cy="159.6" r="86"/>
		<circle class="st9" cx="222.4" cy="159.6" r="68.7"/>
		<circle class="st9" cx="222.4" cy="159.6" r="45.9"/>
		<g>
			<path class="st10" d="M233.6,56.5c-4.2,0-8.3,0.3-12.4,0.7c2.2,0.2,4.3,0.5,6.5,1.1c0.3,0.1,0.6,0.2,1,0.3c1.6-0.1,3.3-0.1,5-0.1
				c55.7,0,101.1,45.3,101.1,101.1c0,55.2-44.4,100.2-99.4,101c-1,0.8-2.2,1.5-3.5,2c0.6,0,1.2,0,1.9,0
				c56.8,0,103.1-46.2,103.1-103.1C336.6,102.7,290.4,56.5,233.6,56.5z"/>
		</g>
		<line class="st9" x1="220.8" y1="113.4" x2="220.8" y2="103.7"/>
		<line class="st9" x1="220.8" y1="216.1" x2="220.8" y2="206.4"/>
		<line class="st9" x1="176.4" y1="156.8" x2="166.5" y2="156.8"/>
		<line class="st9" x1="278" y1="156.8" x2="268" y2="156.8"/>
		<path class="st9" d="M224.1,158.5"/>
		<g>
			<path class="st10" d="M197.6,150v6.2h12.9v11.7v5.6H192v-5.6h12.9v-6.2H192v-17.3h18.5v5.6H197.6z"/>
			<path class="st10" d="M218.6,150v6.2h9.1v5.6h-9.1v6.2h12.9v5.6H213v-11.7V150v-5.6h18.5v5.6H218.6z"/>
			<path class="st10" d="M252.5,173.5h-12.9H234V150v-5.6h12.9h5.6V173.5z M246.9,167.9V150h-7.3v17.9H246.9z"/>
		</g>
		<g>
			<path class="st10" d="M108.7,254.5l-52.3,15.3c-2.8,0.8-5.8,0.5-8.4-0.9c-2.6-1.4-4.5-3.7-5.3-6.6L11.3,154.5
				c-1.7-5.8,1.7-11.9,7.5-13.6l59.5-17.4c1-0.3,2-0.4,3.1-0.4c1.8,0,3.6,0.5,5.3,1.4c2.6,1.4,4.5,3.7,5.3,6.6l27.8,95.2
				c0.4-1,0.8-2,1.2-2.9l-27.1-92.8c-1-3.3-3.2-6.1-6.2-7.7c-3.1-1.7-6.6-2.1-9.9-1.1l-59.5,17.4c-6.9,2-10.8,9.2-8.8,16.1
				l31.5,107.8c1,3.3,3.2,6.1,6.2,7.7c2,1.1,4.1,1.6,6.3,1.6c1.2,0,2.4-0.2,3.6-0.5l50.9-14.8C108,256,108.3,255.3,108.7,254.5z"/>
		</g>
		<polygon class="st9" points="119.9,224.6 107.7,255.8 97,227.6 		"/>
		<line class="st9" x1="17.8" y1="154.4" x2="80" y2="136"/>
		<line class="st9" x1="20.4" y1="161.2" x2="82.6" y2="142.8"/>
		<line class="st9" x1="22.5" y1="168" x2="84.7" y2="149.6"/>
		<line class="st9" x1="24.7" y1="174.6" x2="87" y2="156.2"/>
		<path class="st9" d="M47.3,215.6L47.3,215.6c-5.7,1.5-11.5-1.9-13.1-7.5l-3.9-14.3c-1.5-5.7,1.9-11.5,7.5-13.1h0
			c5.7-1.5,11.5,1.9,13.1,7.5l3.9,14.3C56.3,208.2,52.9,214,47.3,215.6z"/>
		<g>
			<path class="st11" d="M134.2,235.2c1.4,0,2.6,1.2,2.6,2.6v14.9c0,1.4-1.1,2.6-2.6,2.6h-7.6c-1.5,0-2.6-1.1-2.6-2.6v-14.9
				c0-1.4,1.2-2.6,2.6-2.6H134.2z M134.2,252.8v-14.9h-7.6v14.9H134.2z"/>
		</g>
		<g>
			<path class="st3" d="M88.8,85.8c1.4,0,2.6,1.2,2.6,2.6v14.9c0,1.4-1.1,2.6-2.6,2.6h-7.6c-1.5,0-2.6-1.1-2.6-2.6V88.4
				c0-1.4,1.2-2.6,2.6-2.6H88.8z M88.8,103.4V88.4h-7.6v14.9H88.8z"/>
		</g>
		<g>
			<path class="st11" d="M168.8,256c1.4,0,2.6,1.2,2.6,2.6v14.9c0,1.4-1.1,2.6-2.6,2.6h-7.6c-1.5,0-2.6-1.1-2.6-2.6v-14.9
				c0-1.4,1.2-2.6,2.6-2.6H168.8z M168.8,273.6v-14.9h-7.6v14.9H168.8z"/>
		</g>
		<g>
			<path class="st3" d="M330.3,229.1c1.4,0,2.6,1.2,2.6,2.6v14.9c0,1.4-1.1,2.6-2.6,2.6h-7.6c-1.5,0-2.6-1.1-2.6-2.6v-14.9
				c0-1.4,1.2-2.6,2.6-2.6H330.3z M330.3,246.7v-14.9h-7.6v14.9H330.3z"/>
		</g>
		<g>
			<path class="st11" d="M328.2,67.3c1.4,0,2.6,1.2,2.6,2.6v14.9c0,1.4-1.1,2.6-2.6,2.6h-7.6c-1.5,0-2.6-1.1-2.6-2.6V69.9
				c0-1.4,1.2-2.6,2.6-2.6H328.2z M328.2,84.8V69.9h-7.6v14.9H328.2z"/>
		</g>
		<g>
			<path class="st3" d="M146,280v-5.2c0-0.7,0.3-1.3,1.3-1.3c1,0,1.3,0.5,1.3,1.3v6.5c0,0.9-0.6,1.3-1.3,1.3h-10.2
				c-0.7,0-1.3-0.4-1.3-1.3c0-0.9,0.6-1.3,1.3-1.3h3.8v-14.9h-3.8c-0.7,0-1.3-0.4-1.3-1.3s0.6-1.3,1.3-1.3h6.4V280H146z"/>
		</g>
		<g>
			<path class="st11" d="M347.6,258.1v-5.2c0-0.7,0.3-1.3,1.3-1.3c1,0,1.3,0.5,1.3,1.3v6.5c0,0.9-0.6,1.3-1.3,1.3h-10.2
				c-0.7,0-1.3-0.4-1.3-1.3s0.6-1.3,1.3-1.3h3.8v-14.9h-3.8c-0.7,0-1.3-0.4-1.3-1.3c0-0.9,0.6-1.3,1.3-1.3h6.4v17.5H347.6z"/>
		</g>
		<g>
			<path class="st3" d="M347.2,104.7v-5.2c0-0.7,0.3-1.3,1.3-1.3c1,0,1.3,0.5,1.3,1.3v6.5c0,0.9-0.6,1.3-1.3,1.3h-10.2
				c-0.7,0-1.3-0.4-1.3-1.3s0.6-1.3,1.3-1.3h3.8V89.8h-3.8c-0.7,0-1.3-0.4-1.3-1.3s0.6-1.3,1.3-1.3h6.4v17.5H347.2z"/>
		</g>
		<g>
			<path class="st11" d="M111.4,118v-5.2c0-0.7,0.3-1.3,1.3-1.3c1,0,1.3,0.5,1.3,1.3v6.5c0,0.9-0.6,1.3-1.3,1.3h-10.2
				c-0.7,0-1.3-0.4-1.3-1.3c0-0.9,0.6-1.3,1.3-1.3h3.8v-14.9h-3.8c-0.7,0-1.3-0.4-1.3-1.3s0.6-1.3,1.3-1.3h6.4V118H111.4z"/>
		</g>
	</g>
	<circle class="st12" cx="130.6" cy="58.3" r="4.5"/>
	<g>
		<line class="st13" x1="157.5" y1="35.3" x2="157.5" y2="56.2"/>
		<line class="st13" x1="147" y1="45.7" x2="168" y2="45.7"/>
	</g>
	<circle class="st12" cx="346.1" cy="192.3" r="4.5"/>
	<circle class="st12" cx="18" cy="235.2" r="4.5"/>
	<g>
		<line class="st13" x1="364.2" y1="193.5" x2="364.2" y2="214.4"/>
		<line class="st13" x1="353.7" y1="204" x2="374.7" y2="204"/>
	</g>
	<path class="st10" d="M10.7,267.8"/>
	<path class="st2" d="M39.9,257.8"/>
	<path class="st3" d="M118.7,224.8"/>
</g>
</svg>
