<?xml version="1.0" encoding="utf-8"?>
<!-- Generator: Adobe Illustrator 23.0.3, SVG Export Plug-In . SVG Version: 6.00 Build 0)  -->
<svg version="1.1" id="Layer_2" xmlns="http://www.w3.org/2000/svg" xmlns:xlink="http://www.w3.org/1999/xlink" x="0px" y="0px"
	 viewBox="0 0 485.1 375" style="enable-background:new 0 0 485.1 375;" xml:space="preserve">
<style type="text/css">
	.st0{fill:#E6F5FF;}
	.st1{fill:#49B7FA;}
	.st2{fill:#CCE8FE;}
	.st3{fill:#F4AE0E;}
	.st4{clip-path:url(#XMLID_2_);fill:#40A8A0;}
	.st5{fill:#F8767F;}
	.st6{fill:#F79014;}
	.st7{fill:#FFFFFF;}
	.st8{clip-path:url(#XMLID_3_);fill:#CCE8FE;}
	.st9{clip-path:url(#XMLID_4_);fill:#CCE8FE;}
	.st10{fill:#163460;}
	.st11{fill:#FF2C4B;}
	.st12{fill:none;stroke:#163460;stroke-width:2;stroke-miterlimit:10;}
	.st13{fill:none;stroke:#163460;stroke-miterlimit:10;}
	.st14{fill:none;stroke:#F55C76;stroke-width:4.2857;stroke-linecap:round;stroke-linejoin:round;stroke-miterlimit:10;}
	.st15{fill:none;stroke:#49B7FA;stroke-width:3.3333;stroke-linecap:round;stroke-linejoin:round;stroke-miterlimit:10;}
	.st16{fill:none;stroke:#49B7FA;stroke-width:3;stroke-linejoin:round;stroke-miterlimit:10;}
	.st17{fill:none;stroke:#163460;stroke-width:2;stroke-linecap:round;stroke-miterlimit:10;}
	.st18{fill:#73DFD9;}
</style>
<g>
	<path class="st0" d="M397,250.3c-6.2,2.4-13.6,3.1-18.8,3.4c-4.2,0.2-8.4,0-12.5-0.6c0.8,0.7,1.4,1.7,1.7,2.8
		c2.9,3.6,3.9,8.3,3.8,13.1c2.4,2.3,1.9,7.4-1.6,9.2c0,0.1,0,0.2-0.1,0.2c-1.2,3.7-6.2,5.6-9.1,2.4c-0.2-0.3-0.5-0.6-0.7-0.8
		c-1.5-0.5-2.9-1.6-3.6-3.2c-0.3-0.4-0.5-0.9-0.7-1.4c-3.6-2.1-2.7-6.5,0.1-8.6c0-2.5,0.3-5,0.7-7.6c-0.1-0.6-0.1-1.1-0.2-1.6
		c-0.3-2.5,1.1-4,2.9-4.7c0.4-0.3,0.9-0.5,1.4-0.7c-10.2-1.9-20.1-5.6-29.3-10c-3.6-1.7-3.2-6.2-0.9-8.6c-5.5-2.5-2.5-11.8,3.9-10.1
		c0.8,0.2,1.7,0.4,2.6,0.5c-2.2-2.8-1.8-7.6,2.6-8.6c10.5-2.3,20.9,0.6,31.4,0.6c6,0,12.3,0.4,18.4-0.2c-1.8-4.5-4.1-8.9-8-14.4
		c-6.4-9.2-13.1-18.2-19.9-27.1c-3.5-4.5-6.1-9.6-9.4-14.3c-11.9-17.2-24-35.3-40-49.2c-7.2-6.3-15.2-11.8-23.8-15.9
		c-8.5-4.1-16.8-8.2-26.1-9.8c-13.9-2.3-23.7-2.3-37.7,0c-5.7,0.9-11.2,2.6-16.6,4.6c-9.4,3.4-18.4,7.6-28.1,9.9
		c-11.8,0.4-23.7-1.3-35.4,0.4c-14.2,2-23.7,5.4-36.2,12.4c-8.1,4.6-14.5,11-20.8,17.8C74.2,144.1,68,161.8,65.5,180
		c-1.3,9.8-0.2,20.2,2.3,29.7c-2.6,2.3-5.2,4.8-7.7,7.4c-9.1,9.6-15.2,23.5-17.1,36.5c-4.2,29.2,9.5,57.7,30.6,77.2
		c15.8,14.6,37.3,24.1,58.1,28.9c15.8,3.6,32.3,3.6,48.2,0.1c4.2-0.9,8.5-1.8,12.8-2.8c0.4,0.2,0.8,0.4,1.3,0.5
		c6.6,2.7,13.8,3.9,20.7,5.3c6.2,1.3,12.5,2.2,18.8,2.9c13,1.4,26.1,1.4,39.1,0.1c15.6-1.5,31.1-5.6,45.7-11.1
		c13.8-5.2,28-12.3,39.1-22c12-10.4,23.3-23.1,29.6-37.9c5.3-12.6,8.7-24.3,9.7-38C397.1,254.6,397.1,252.4,397,250.3z M174.2,276.2
		c-4.2,9.7-14.7,16.9-23.1,22.7c-11.5,7.9-23.5,9.4-37.1,8.6c-1.7-0.1-3-0.8-3.9-1.9c-7.5-0.1-14.8-1.1-21.6-5.8
		c-5.7-3.9-10.1-9.1-14.5-14.2c-0.9-0.3-1.8-0.7-2.4-1.4c-1.2-1.2-2.3-2.4-3.3-3.9c-0.4-0.5-0.6-1.2-0.7-1.8c-4.6-5,3-12.5,7.8-7.5
		c0.9,0.9,1.8,1.9,2.7,2.9c23,0.3,47.4,9.3,69.9,2.3c4.7-1.5,7.5,3.2,6.5,6.8c4.3-3.5,8.2-7.5,10.3-12.3
		C167.6,264.3,177,269.8,174.2,276.2z M234.7,274c0.5,3.3-1.6,5.7-4,6.5c-1.7,2.7-6.3,3.4-8.5,0.9c-1.3-1.6-2-2.9-2.8-4.8
		c-0.9-2.3-0.1-4.2,1.3-5.3c0.7-8.6,0.8-17.2,0.6-25.8c-1.1-0.1-2.3-0.6-3.3-1.7c-2.2-2.4-1.7-5.4-1.4-8.4c0.5-4.2,1-8.4,1.6-12.6
		c0.6-4.8,1.3-9.6,1.8-14.5c0.2-2.1,0.4-4.2,0.6-6.3c0-0.8-0.1-4.6,0.2-3c-0.3-1.7,0.2-3.2,1-4.3c0-2.2-0.1-4.4-0.1-6.6
		c-1.2-0.8-2.1-2.3-2.2-4.3c-0.2-4.8-0.1-9.6,0.4-14.3c-0.1-0.3-0.2-0.7-0.1-1c-0.2-0.1-0.4-0.3-0.4-0.4c-3.8-2.9-1.2-10.2,4.2-9.7
		c2.9-1.9,7.6-1.1,8.4,2.9c1.4,7.4,0.9,14.7,0.6,22.1c-0.2,5,0.1,10.1-0.2,15.1c0.1,0.1,0.2,0.3,0.3,0.5c2.7,4.2,2.6,9.6,2.4,14.4
		c-0.3,6.7,0.1,13.2,0.3,19.9c0.3,10.8-0.6,21.5-2.1,32.2C233.7,268.3,234.2,271.2,234.7,274z"/>
	<circle class="st1" cx="230.3" cy="98.5" r="44.7"/>
	<path class="st1" d="M179.5,272h-165c-4,0-7.3-3.3-7.3-7.3l0,0c0-4,3.3-7.3,7.3-7.3h165c4,0,7.3,3.3,7.3,7.3l0,0
		C186.8,268.7,183.5,272,179.5,272z"/>
	<path class="st1" d="M444.7,214.2h-165c-4,0-7.3-3.3-7.3-7.3v0c0-4,3.3-7.3,7.3-7.3h165c4,0,7.3,3.3,7.3,7.3v0
		C452,210.9,448.7,214.2,444.7,214.2z"/>
	<path class="st1" d="M16.6,273.1"/>
	<path class="st2" d="M177.4,275.4l-105,0.3c0,0,13.8,37.7,55,31.5c0,0-61.2,15.9-95.1-13.3c0,0-13.6-12.9-15-21.5l161.3-0.2"/>
	<path class="st2" d="M88.4,311l-0.1,24.3c0,0,1.6,5.3,4.6,6.7c3.1,1.4,9.6-1.3,9.6-1.3l2.8-7.8l-0.3-21.6"/>
	<polyline class="st2" points="104.7,328.5 219.8,304.1 215,323.5 106.8,334.4 	"/>
	<polyline class="st2" points="239.6,302.1 353.1,267.9 352.8,276.7 242.2,317.9 	"/>
	<path class="st2" d="M220,166.9c0,0,8.7,2.1,13.1,0v113.2c0,0,4.9,16.8,5,17.1s1.2,1.9,1.2,1.9l0.7-151.1l-20-0.6"/>
	<path class="st3" d="M65.2,160.8c0,0-29.7,26.9-36.7,56.3c0,0-7.7,25.5,19.7,40.5l84.4-0.2c0,0,13.3-8.4,14.7-14.9
		s3.3-10.3,3.3-10.3l0.2-7c0,0-7.2-43-38.3-65.4"/>
	<g>
		<defs>
			<polyline id="XMLID_44_" points="183.5,82.3 273.3,81.9 277,94.9 276.8,109 182.1,110.1 180.8,101.2 			"/>
		</defs>
		<use xlink:href="#XMLID_44_"  style="overflow:visible;fill:#65DFD9;"/>
		<clipPath id="XMLID_2_">
			<use xlink:href="#XMLID_44_"  style="overflow:visible;"/>
		</clipPath>
		<polyline class="st4" points="195.2,109.9 272.9,75.6 293.7,75.5 230.7,109.2 		"/>
		<polyline class="st4" points="286.1,90 248.8,108.9 296.5,111.5 		"/>
		<polyline class="st4" points="178.2,100.5 223.5,75.1 176.1,73.7 		"/>
	</g>
	<path class="st3" d="M63.9,151.9c0,0-2.7,2.3-2.4,4.1s2.6,4,2.6,4h47.8l4.7-3.1l0.1-2.9l-5.2-3.5l-4.7,0.9c0,0,11.2-14.1,12.7-18.8
		c1.5-4.7,1.2-6.4,1.2-6.4l-2.1-3.3h-8.2l-15.1,4.3L82,128.8l-17.9-7.2c0,0-4-0.7-4.6-0.1c-0.5,0.6-0.9,2.9-0.9,2.9l2.4,10.7
		l9.2,15.1"/>
	<path class="st5" d="M219.6,310.6c0,0-1.1,10.7,0.2,12.8c1.3,2.2,2.8,6.5,8.3,6.9s9-1.8,9-1.8l2.1-3.1l0.8-3.3l0.4-5l-0.1-7.9
		l-1.5-6.9l-3.4-16.9l-1.6-3.6c0,0-1.3-4.2-3.4-3.6c-2.1,0.6-5.5,2-5.5,2l-1.8,4.8"/>
	<path class="st6" d="M115.5,163.7"/>
	<path class="st6" d="M60.3,166.2c0,0,26.6-1.9,32.9,1.4c6.3,3.3,22.4,80.6-3.7,89.5h43.2c0,0,13-9.1,14.8-14.9
		c1.8-5.8,3.2-10,3.2-10l-1.3-17.9L139.2,192c0,0-19.5-27.3-20.7-27.6c-1.2-0.3-5.5-4.5-5.5-4.5s3.6-1.6,3.7-3.3s-1.3-3.4-1.3-3.4
		l-4.3-1.7l-46.6,0c0,0-1.7,0.8-2.1,1.8c-0.3,1-1.3,3.8,0.6,4.8c1.9,1.1,1.8,2,1.8,2l-2.2,3.4"/>
	<path class="st6" d="M81.2,151.3c0,0,16.1-3.3,17.6-8.4c1.5-5.1,1.3-9.3-1.2-10c-2.5-0.7-9.7-2.2-11.7-3.3s6.5-0.9,9-1.9
		c2.5-1,18.3-5.9,19.5-5.7c1.2,0.2,5.5,0.2,5.9,2.1s0.5,5.9,0.5,5.9l-2.6,5.8l-3.9,6.4l-3.8,5.7l-2.6,3"/>
	<polyline class="st6" points="97.4,254.3 43,254.3 45.4,257.1 100.1,257.1 	"/>
	<path class="st7" d="M71.6,160.5c0,0-33.9,24-38.3,56.2s26.2,40.7,26.2,40.7l-12.2,0.2l-12.5-11l-6.8-12.3l-0.7-10.1l2.1-13.2
		l13.2-24L53.1,174l11.6-12.6l1.7-1.9"/>
	<path class="st7" d="M17.7,271.8c0,0-6.5-1.7-7.3-5.9c-0.8-4.1,2.1-6.2,4.7-5.9c2.6,0.3,170,0,170,0l-4.3-2.7l-168.1-0.1
		c0,0-5.5,5.3-5.4,6.5c0.1,1.1,1.4,5.9,3.4,6.9s5.2,1.9,5.2,1.9"/>
	<path class="st1" d="M105.2,317.3H94v19.3c0,0,3.3,7,9.1,3l-3.6,2.7l-4.1,1.2l-5-3l-2.3-4V312l16.7-1"/>
	<polyline class="st1" points="105.8,331.8 212.2,316.8 218.8,304.3 215.4,323.2 104.9,335 	"/>
	<polyline class="st1" points="240.6,303.9 244.5,312.7 350,273.3 353.1,267.9 353.7,276 242.5,318.6 	"/>
	<path class="st1" d="M220.1,153.5c0,0,8.3,5.2,19.3-0.2l0.5-6.1l-14.2,0.9l-5.6-0.3"/>
	<path class="st1" d="M23.5,272.4c0,0,26.8,41.2,85.7,37.7l-33.7,0.4l-12.3-2.1l-13-3.8l-9.7-5.1l-7.8-5.1l-6.3-5.3l-3.1-4.5
		l-5.2-7.8l-0.9-4.5"/>
	<g>
		<defs>
			<ellipse id="XMLID_43_" cx="88.1" cy="210.2" rx="28.2" ry="27.6"/>
		</defs>
		<use xlink:href="#XMLID_43_"  style="overflow:visible;fill:#FFFFFF;"/>
		<clipPath id="XMLID_3_">
			<use xlink:href="#XMLID_43_"  style="overflow:visible;"/>
		</clipPath>
		<polyline class="st8" points="72.4,233.6 103,177.2 126.3,194.9 129.3,218.2 101.6,241.7 66.4,242.9 		"/>
		<path class="st8" d="M64.1,199.4c0,0,10.7-18.2,33.6-11.8c22.8,6.4,23-2.6,23-2.6l-18.1-11.7l-28.5-2l-16.4,1"/>
	</g>
	<path class="st7" d="M73.3,151.1c0,0-13.5-18.3-12.2-24.1c1.2-5.8,17.7,1.7,17.7,1.7l-10.5-5.4l-8.8-1.7l-1.7,2.8l0.5,4.1l4.9,10.7
		l6.3,11.4"/>
	<path class="st3" d="M342,102.7c0,0-29.7,26.9-36.7,56.3c0,0-7.7,25.5,19.7,40.5l84.4-0.2c0,0,13.3-8.4,14.7-14.9
		c1.4-6.5,3.3-10.3,3.3-10.3l0.2-7c0,0-7.2-43-38.3-65.4"/>
	<path class="st3" d="M340.8,93.9c0,0-2.7,2.3-2.4,4.1c0.2,1.7,2.6,4,2.6,4h47.8l4.7-3.1l0.1-2.9l-5.2-3.5l-4.7,0.9
		c0,0,11.2-14.1,12.7-18.8s1.2-6.4,1.2-6.4l-2.1-3.3h-8.2L372,69.2l-13.2,1.6l-17.9-7.2c0,0-4-0.7-4.6-0.1s-0.9,2.9-0.9,2.9
		l2.4,10.7l9.2,15.1"/>
	<path class="st6" d="M392.4,105.6"/>
	<path class="st6" d="M337.1,108.2c0,0,26.6-1.9,32.9,1.4c6.3,3.3,22.4,80.6-3.7,89.5h43.2c0,0,13-9.1,14.8-14.9
		c1.8-5.8,3.2-10,3.2-10l-1.3-17.9L416,134c0,0-19.5-27.3-20.7-27.6s-5.5-4.5-5.5-4.5s3.6-1.6,3.7-3.3c0.2-1.7-1.3-3.4-1.3-3.4
		l-4.3-1.7l-46.6,0c0,0-1.7,0.8-2.1,1.8c-0.3,1-1.3,3.8,0.6,4.8s1.8,2,1.8,2l-2.2,3.4"/>
	<path class="st6" d="M358,93.3c0,0,16.1-3.3,17.6-8.4c1.5-5.1,1.3-9.3-1.2-10c-2.5-0.7-9.7-2.2-11.7-3.3s6.5-0.9,9-1.9
		c2.5-1,18.3-5.9,19.5-5.7c1.2,0.2,5.5,0.2,5.9,2.1s0.5,5.9,0.5,5.9l-2.6,5.8l-3.9,6.4l-3.8,5.7l-2.6,3"/>
	<path class="st7" d="M348.4,102.5c0,0-33.9,24-38.3,56.2s26.2,40.7,26.2,40.7l-12.2,0.2l-12.5-11l-6.8-12.3l-0.7-10.1l2.1-13.2
		l13.2-24l10.4-12.9l11.6-12.6l1.7-1.9"/>
	<g>
		<defs>
			<ellipse id="XMLID_45_" cx="364.9" cy="152.1" rx="28.2" ry="27.6"/>
		</defs>
		<use xlink:href="#XMLID_45_"  style="overflow:visible;fill:#FFFFFF;"/>
		<clipPath id="XMLID_4_">
			<use xlink:href="#XMLID_45_"  style="overflow:visible;"/>
		</clipPath>
		<polyline class="st9" points="349.3,175.6 379.8,119.2 403.1,136.9 406.1,160.2 378.4,183.7 343.2,184.9 		"/>
		<path class="st9" d="M340.9,141.4c0,0,10.7-18.2,33.6-11.8c22.8,6.4,23-2.6,23-2.6l-18.1-11.7l-28.5-2l-16.4,1"/>
	</g>
	<path class="st7" d="M350.1,93c0,0-13.5-18.3-12.2-24.1s17.7,1.7,17.7,1.7l-10.5-5.4l-8.8-1.7l-1.7,2.8l0.5,4.1l4.9,10.7l6.3,11.4"
		/>
	<path class="st2" d="M370.2,253.9l0.4,20.6l-1.7,8.2l-4.9,3.1c0,0-4.6-0.3-6.2-1s-4.7-7.3-4.7-7.3l0.3-23.1"/>
	<path class="st1" d="M370.6,258.4l-12.5,0.9v18.6c0,0,6.1,8,10.9,2s-2.5,4.2-2.5,4.2l-4,1.6l-5.2-0.8l-3.3-4.5l-0.2-26l17.4-0.8"/>
	<path class="st3" d="M219.3,308.9l-4.1,13.9l-3.1,12.4l-4.7,5.9l-6.7,2.4l-6.2,1.1c0,0-3,2.2-3.8,3.8c-0.9,1.7-2,11.1-2,11.1
		l82.2,0.2c0,0,0.1-9.2-1.5-10.4s-6.2-4.4-6.2-4.4l-7.2-0.8l-6-2.7l-2.5-2.7l-6.7-26l-0.6,9.4l-3.5,5.5l-3.1,2.4l-3.7,0.6l-4.4-1
		l-3.1-2.3l-2.8-5.2"/>
	<path class="st7" d="M273.5,204.3h177.4c0,0-1.7-2.6-2.7-3.1s-5.2-1.8-5.2-1.8l-163.6,1.2l-4.3,0.5"/>
	<path class="st2" d="M441.4,219.3H328c0,0,6.8,32.3,55.7,32.3c0,0-35.3,7-68.5-4.5s0,0,0,0s-31-13.7-32.5-32s0,0,0,0l163.6-0.1"/>
	<path class="st1" d="M300,215.5c0,0,4.4,37,67.3,38.3s0,0,0,0s-65.4,7.7-84.9-36.7s0,0,0,0l0.7-2.4"/>
	<path class="st6" d="M244.8,329.4c0,0-10.9,8.3-18.7,6c0,0-13,9.7-3.1,24.2s0,0,0,0l-34-0.1c0,0-3.8-10.9,6-15.1
		c0,0,9.4-1.3,10.7-2.5c1.2-1.2,6.4-4.4,7.5-8.7c1.1-4.4,4.5-21,4.5-21l1.1-1.6c0,0,0.9,10.7,1,11.3c0.2,0.5,1.6,7.1,5.6,7.9
		c4,0.8,10,0.3,10.9-1.2c0.9-1.6,3.5-5.1,3.5-5.1v-5.8l0.5-3.8l3.9,12.8"/>
	<path class="st6" d="M220.7,340.5c0,0,14.6,5.7,25.8-3.9l-0.6-1.6l-0.1-1.3c0,0-6.3,5.3-8.3,5.3s-10.3,0.3-10.3,0.3l-5.2-0.5"/>
	<path class="st6" d="M264.8,346.4c0,0-6.4,3.7-3.4,9.6c0,0,7,1.4,8.6,0.5l0.2,2.8l-11.6,0.3c0,0-3.3-11.2,3.7-14.2"/>
	<path class="st6" d="M243.8,338.1c0,0,2,5.5,7.8,7.1c5.8,1.5,12.1,0.9,14.2,4c2,3.1,2.2,8.5,2.2,8.5l2.9,0l-1.4-6.8l-1.6-2.5
		l-3.8-3l-10.4-1.8c0,0-1.7,0.4-3.2-1c-1.5-1.4-4.5-8-4.5-8"/>
	<polyline class="st6" points="217,357.1 267.2,357.1 267.2,359.4 215.7,359.4 	"/>
	<path class="st7" d="M189.1,82.5c0,0-7.7,15.2-2.1,26.9l-4.1-0.3l-2.2-3.5l0.1-7.3l3.1-13.6l0.7-1.6l0.6-1"/>
	<polyline class="st7" points="201.2,63.3 212.9,82.1 214.7,81.3 202.5,60.9 	"/>
	<polyline class="st7" points="244.5,83 257.1,60.4 255.3,60.1 243.7,82.9 	"/>
	<polyline class="st7" points="187.9,80.2 273.3,80.2 273.3,83 187,83 	"/>
	<path class="st7" d="M272.4,82.8c0,0,5.1,16.2,1.5,26.3l2.4,0.1l-0.1-18.3l-1.4-2.8l-0.4-1.9l-0.7-2.3"/>
	<path class="st7" d="M209.2,110c0,0,3.6,11.5,20.4,12.3l-0.3-2l-8.6-2.5l-3.1-1.9l-4.9-5.8"/>
	<polyline class="st7" points="228.1,121.7 228.1,144.2 230.2,144.2 230.2,122.3 	"/>
	<path class="st7" d="M230.9,122c0,0,14,0.2,19.2-12h-2.1l-4.7,5.5l-12.6,4.9"/>
	<path class="st7" d="M191.6,359.2"/>
	<path class="st7" d="M190.5,359.3c0,0-1-8.4,2.2-11.1c3.2-2.7,9-2,13.3-4.4s7.4-5,8.1-7.3c0.7-2.3,5-22.8,5-22.8l-1.9-1.9
		l-4.3,22.3l-2.5,4l-4.9,3.1l-10.7,3c0,0-3.7,0.9-5,4s-1.8,11-1.8,11"/>
	<path class="st7" d="M196,346.3c0,0,4.2,1.4,5.8,8.3l0.8-1.7l-1.1-3.9l-2-2.9l-2.2-1.2"/>
	<path class="st7" d="M213.2,337.4c0,0,13.7,6.9,25.7,1.7l-11.6,0l-6.6-0.9l-4.6-2.3l-3.3-0.8"/>
	<path class="st7" d="M263.6,346.1c0,0-5.3,1.6-5.2,10.7c0,0-1.2-9.5,4.4-11.8"/>
	<path class="st7" d="M19.1,272.8c0,0,9.3,28.8,55.5,37l-0.2,0.5c0,0-44.2-3.1-57.5-36.6"/>
	<path class="st7" d="M285.4,215.3c0,0,7.3,26.2,45,35.9s0,0,0,0s-30.8-2.1-49-33.6"/>
	<path class="st10" d="M89.1,196.1c5.1,0,9.4,2.7,9.4,5.9c0,1.2,1,2.2,2.2,2.2c1.2,0,2.2-1,2.2-2.2c0-5.2-4.9-9.4-11.5-10.1v-2.6
		c0-1.2-1-2.2-2.2-2.2c-1.2,0-2.2,1-2.2,2.2v2.6c-6.6,0.8-11.5,4.9-11.5,10.1c0,5.7,6,10.2,13.7,10.2c5.1,0,9.4,2.7,9.4,5.9
		c0,3.2-4.3,5.9-9.4,5.9c-5.1,0-9.4-2.7-9.4-5.9c0-1.2-1-2.2-2.2-2.2c-1.2,0-2.2,1-2.2,2.2c0,5.2,4.9,9.4,11.5,10.1v2.6
		c0,1.2,1,2.2,2.2,2.2c1.2,0,2.2-1,2.2-2.2v-2.6c6.6-0.8,11.5-4.9,11.5-10.1c0-5.7-6-10.2-13.7-10.2c-5.1,0-9.4-2.7-9.4-5.9
		C79.7,198.8,84,196.1,89.1,196.1L89.1,196.1z M89.1,196.1"/>
	<path class="st10" d="M365.9,137.9c5.1,0,9.4,2.7,9.4,5.9c0,1.2,1,2.2,2.2,2.2c1.2,0,2.2-1,2.2-2.2c0-5.2-4.9-9.4-11.5-10.1v-2.6
		c0-1.2-1-2.2-2.2-2.2c-1.2,0-2.2,1-2.2,2.2v2.6c-6.6,0.8-11.5,4.9-11.5,10.1c0,5.7,6,10.2,13.7,10.2c5.1,0,9.4,2.7,9.4,5.9
		c0,3.2-4.3,5.9-9.4,5.9c-5.1,0-9.4-2.7-9.4-5.9c0-1.2-1-2.2-2.2-2.2c-1.2,0-2.2,1-2.2,2.2c0,5.2,4.9,9.4,11.5,10.1v2.6
		c0,1.2,1,2.2,2.2,2.2c1.2,0,2.2-1,2.2-2.2v-2.6c6.6-0.8,11.5-4.9,11.5-10.1c0-5.7-6-10.2-13.7-10.2c-5.1,0-9.4-2.7-9.4-5.9
		C356.5,140.6,360.8,137.9,365.9,137.9L365.9,137.9z M365.9,137.9"/>
	<path class="st11" d="M229.6,279.6c0,0-3.7,4.2-5.9,18.2c-2.3,14,0.5,30.8,14.9,23.8l1.3,1.9l-2.7,4.2l-1.6,1.7l-2.1,0.7l-5.3,0.3
		l-4.6-1.7l-3.1-3.7l-1.3-11.2l0.8-10.8l3.5-14.3l2.6-8.2C225.9,280.5,228,278.4,229.6,279.6z"/>
	<circle class="st11" cx="229.5" cy="306.4" r="8.2"/>
	<circle class="st2" cx="229.4" cy="306" r="5.9"/>
	<circle class="st7" cx="229.3" cy="305.9" r="2.6"/>
	<ellipse class="st7" cx="229.8" cy="282.8" rx="2.5" ry="2.1"/>
	<path class="st7" d="M280.2,203.4c0,0-8.5,4.8,1.9,11.4l-4.7-0.1l-2.6-1.9l-2.1-5.5c0,0,0.3-7.1,6.5-7.6"/>
	<polyline class="st7" points="236.7,147.9 236.7,293 240,300.6 240,147.2 	"/>
	<path class="st7" d="M392.2,95.2h-49.4c0,0-5.1,1.4-1.2,5.7l-3-1.1l-1.1-3.6l2.5-2.7l43.1-0.4l6.4,0.5"/>
	<path class="st7" d="M74.7,168c0,0-0.2,2.3,1.6,1.7c1.9-0.5,5.9-10.5,5.9-10.5L79,160"/>
	<path class="st7" d="M99.5,159.8l4.8,9.4c0,0,1.6,1,1.8-0.3c0.3-1.3-5-9.1-5-9.1"/>
	<path class="st7" d="M356.7,101.7c0,0-5.4,9.3-5.4,9.5s0.7,1,1.5,0.3c0.8-0.7,5.6-9.9,5.6-9.9"/>
	<path class="st7" d="M376.3,102.4c0,0,5,8.6,5.4,8.8c0.5,0.2,1.1-0.2,1.1-0.5c0-0.3-4.6-8.6-4.6-8.6"/>
	<g>
		<g>
			<path class="st10" d="M238.9,146.8v173.6c0,5.1-4.2,9.3-9.3,9.3s-9.3-4.2-9.3-9.3V146.5c-0.4,0.1-0.8,0.1-1.2,0.1
				c-0.3,0-0.5,0-0.8-0.1v173.8c0,6.2,5,11.3,11.3,11.3s11.3-5,11.3-11.3V146.6C240.2,146.8,239.5,146.8,238.9,146.8z"/>
		</g>
		<path class="st12" d="M179.4,272.3H14.8c-4.1,0-7.5-3.4-7.5-7.5v0c0-4.1,3.4-7.5,7.5-7.5h164.6c4.1,0,7.5,3.4,7.5,7.5v0
			C187,268.9,183.6,272.3,179.4,272.3z"/>
		<path class="st12" d="M16.8,272.8c0,0,10,39.3,79,38.4c69-0.9,82.5-38.6,82.5-38.6"/>
		<g>
			<path class="st10" d="M103.6,310.2c0.4,0.9,0.6,1.9,0.6,3v21.3c0,4.1-3.4,7.5-7.5,7.5s-7.5-3.4-7.5-7.5v-21.3
				c0-0.6,0.1-1.2,0.2-1.8c-0.7,0-1.4-0.1-2-0.4c-0.2,0.7-0.3,1.4-0.3,2.2v21.3c0,5.2,4.3,9.5,9.5,9.5s9.5-4.3,9.5-9.5v-21.3
				c0-1-0.2-2-0.5-2.9C105,310.2,104.3,310.2,103.6,310.2z"/>
		</g>
		<path class="st12" d="M444.6,214.9H280c-4.1,0-7.5-3.4-7.5-7.5v0c0-4.1,3.4-7.5,7.5-7.5h164.6c4.1,0,7.5,3.4,7.5,7.5v0
			C452.1,211.5,448.7,214.9,444.6,214.9z"/>
		<path class="st12" d="M281.9,215.5c0,0,10,39.3,79,38.4c69-0.9,82.5-38.6,82.5-38.6"/>
		<g>
			<path class="st10" d="M368.7,252.9c0.4,0.9,0.6,1.9,0.6,3v21.3c0,4.1-3.4,7.5-7.5,7.5s-7.5-3.4-7.5-7.5v-21.3
				c0-0.6,0.1-1.2,0.2-1.8c-0.7,0-1.4-0.1-2-0.4c-0.2,0.7-0.3,1.4-0.3,2.2v21.3c0,5.2,4.3,9.5,9.5,9.5s9.5-4.3,9.5-9.5v-21.3
				c0-1-0.2-2-0.5-2.9C370.2,252.9,369.4,252.9,368.7,252.9z"/>
		</g>
		<path class="st12" d="M188.6,359.5h81.8c0,0,1.2-12.2-6.7-14.1c-7.9-1.9-13.8-0.1-16.7-7.7c-2.5-6.7-9.8-43.8-11.6-52.9
			c-0.4-2.1-1.6-4-3.4-5.1c-1.3-0.8-2.9-1.1-4.7-0.3c-1.7,0.8-2.9,2.4-3.3,4.3l-11.5,51.8c0,0-4.1,7.8-16.1,8.8
			C186.6,345.1,188.6,359.5,188.6,359.5z"/>
		<circle class="st12" cx="229.4" cy="305.9" r="5.9"/>
		<path class="st12" d="M212.7,334.8c0,0,19.9,11.9,33.1-1.3"/>
		<path class="st12" d="M196.9,344.3c0,0,7.8,3.8,5.3,14.9"/>
		<path class="st12" d="M262,344.9c0,0-6.6,3.1-4.2,14.2"/>
		<line class="st12" x1="106.2" y1="334.5" x2="214.9" y2="322.9"/>
		<line class="st12" x1="105.2" y1="322.9" x2="221.7" y2="296.1"/>
		<line class="st12" x1="242.9" y1="317.8" x2="353.6" y2="276.3"/>
		<line class="st12" x1="237.3" y1="292.9" x2="353.3" y2="264.7"/>
		<circle class="st13" cx="229.3" cy="305.9" r="2.8"/>
		<g>
			<circle class="st5" cx="85.8" cy="80.8" r="18.1"/>
			<path class="st5" d="M68.9,86.8l16.4,35.9c1.1,2.3,4.4,2.2,5.3-0.2l13-37.3"/>
			<circle class="st7" cx="85.8" cy="80.8" r="14.9"/>
		</g>
		<g>
			<circle class="st1" cx="363" cy="23.1" r="18.1"/>
			<path class="st1" d="M346,29.2l16.4,35.9c1.1,2.3,4.4,2.2,5.3-0.2l13-37.3"/>
			<circle class="st7" cx="363" cy="23.1" r="14.9"/>
		</g>
		<g>
			<path class="st5" d="M83.3,87.2l-1,4.6H78l6-23.5h4.1l6,23.5h-4.4l-1-4.6H83.3z M86,73.9l-2,9.5h4L86,73.9z"/>
		</g>
		<g>
			<path class="st1" d="M369.8,28.4c0,2.4-0.5,4.1-1.5,5.2s-2.6,1.6-5,1.6H357V11.7h6.4c2.3,0,3.9,0.5,4.9,1.5c1,1,1.5,2.6,1.5,4.8
				c0,1.2-0.2,2.1-0.6,3c-0.4,0.8-1,1.4-2,1.9c1,0.5,1.7,1.1,2.1,2S369.8,27,369.8,28.4z M361.1,21.2h1.8c1,0,1.7-0.2,2-0.7
				c0.4-0.4,0.6-1.2,0.6-2.2c0-1-0.2-1.8-0.6-2.2c-0.4-0.4-1.1-0.6-2-0.6h-1.8V21.2z M365.6,28.1c0-1.2-0.2-2-0.6-2.6
				c-0.4-0.5-1.1-0.8-2.1-0.8h-1.7v6.7h1.7c1,0,1.8-0.3,2.1-0.8S365.6,29.4,365.6,28.1z"/>
		</g>
		<circle class="st12" cx="229.1" cy="99.9" r="48"/>
		<line class="st12" x1="181.6" y1="109.5" x2="276" y2="109.5"/>
		<line class="st12" x1="184.2" y1="82.5" x2="273.9" y2="82.5"/>
		<line class="st12" x1="202.6" y1="60.3" x2="215.2" y2="82"/>
		<line class="st12" x1="245.6" y1="82.1" x2="256.7" y2="61.5"/>
		<path class="st12" d="M211.8,109.1c0,0,4.6,10.5,18.3,10.7c12.1,0.2,16.7-8.5,17.3-10"/>
		<line class="st12" x1="230" y1="119.9" x2="230" y2="147.5"/>
		<path class="st13" d="M236.7,78.4h-14.2c-1.2,0-2.3-1-2.3-2.3v0c0-1.2,1-2.3,2.3-2.3h14.2c1.2,0,2.3,1,2.3,2.3v0
			C238.9,77.4,237.9,78.4,236.7,78.4z"/>
	</g>
	<g>
		<path class="st10" d="M112.3,160.6H65.5c-2.8,0-5.1-2.3-5.1-5.1s2.3-5.1,5.1-5.1h46.8c2.8,0,5.1,2.3,5.1,5.1
			S115.1,160.6,112.3,160.6z M65.5,152.4c-1.7,0-3.1,1.4-3.1,3.1c0,1.7,1.4,3.1,3.1,3.1h46.8c1.7,0,3.1-1.4,3.1-3.1
			c0-1.7-1.4-3.1-3.1-3.1H65.5z"/>
	</g>
	<g>
		<path class="st10" d="M69.8,152c-0.5-0.7-13.1-18.1-12.7-27.3c0.1-1.8,0.7-3,1.7-3.7c2.4-1.5,6.4,0.2,11.6,2.3
			c4.6,1.9,9.8,4,14.8,4.3c6.7,0.4,14.4-2,20.6-3.9c5.5-1.7,9.8-3,12.3-2.2c1.5,0.5,2.6,1.6,3.1,3.3c1.6,5.4-3.3,15.4-13,26.9
			l-1.5-1.3c10.9-12.9,13.7-21.4,12.6-25c-0.3-1-0.9-1.6-1.8-1.9c-1.9-0.6-6.4,0.8-11.1,2.2c-6.3,2-14.2,4.4-21.3,4
			c-5.3-0.3-10.7-2.5-15.4-4.4c-4.2-1.7-8.3-3.4-9.8-2.4c-0.2,0.1-0.7,0.5-0.8,2.1c-0.4,8.5,12.1,25.9,12.3,26L69.8,152z"/>
	</g>
	<g>
		<path class="st10" d="M45.7,257.4h3.1c-4.9-2.8-9.1-6.2-12.4-10.3c-7.4-9.1-9.8-20.5-6.8-32.1c7.2-27.5,37-54.1,37.3-54.4
			l-1.3-1.5c-0.3,0.3-30.5,27.3-37.9,55.4c-3.2,12.2-0.6,24.2,7.2,33.9c2.8,3.5,6.2,6.5,10.1,9.1C45.3,257.4,45.5,257.4,45.7,257.4z
			"/>
		<path class="st10" d="M148,215.7c3.2,11.9,1.9,22-3.9,29.8c-3.5,4.8-8.7,8.8-15.4,11.9h4.5c5.3-3,9.5-6.5,12.5-10.7
			c6.1-8.3,7.5-18.9,4.2-31.5c-8.5-32.3-36.6-56.1-36.9-56.4l-1.3,1.5C112,160.6,139.6,184.1,148,215.7z"/>
	</g>
	<g>
		<path class="st10" d="M74.5,169.4c-0.2,0-0.3,0-0.5-0.1c-0.5-0.3-0.6-0.9-0.4-1.4l5-8.7c0.3-0.5,0.9-0.6,1.4-0.4
			c0.5,0.3,0.6,0.9,0.4,1.4l-5,8.7C75.2,169.3,74.8,169.4,74.5,169.4z"/>
	</g>
	<g>
		<path class="st10" d="M104.2,169.6c-0.3,0-0.7-0.2-0.9-0.5l-5-8.7c-0.3-0.5-0.1-1.1,0.4-1.4c0.5-0.3,1.1-0.1,1.4,0.4l5,8.7
			c0.3,0.5,0.1,1.1-0.4,1.4C104.5,169.5,104.3,169.6,104.2,169.6z"/>
	</g>
	<circle class="st12" cx="88.5" cy="210.9" r="27.7"/>
	<g>
		<path class="st10" d="M389.2,102.6h-46.8c-2.8,0-5.1-2.3-5.1-5.1s2.3-5.1,5.1-5.1h46.8c2.8,0,5.1,2.3,5.1,5.1
			S392,102.6,389.2,102.6z M342.3,94.4c-1.7,0-3.1,1.4-3.1,3.1c0,1.7,1.4,3.1,3.1,3.1h46.8c1.7,0,3.1-1.4,3.1-3.1
			c0-1.7-1.4-3.1-3.1-3.1H342.3z"/>
	</g>
	<g>
		<path class="st10" d="M346.6,94c-0.5-0.7-13.1-18.1-12.7-27.3c0.1-1.8,0.7-3,1.7-3.7c2.4-1.5,6.4,0.2,11.6,2.3
			c4.6,1.9,9.8,4,14.8,4.3c6.7,0.4,14.4-2,20.6-3.9c5.5-1.7,9.8-3,12.3-2.2c1.5,0.5,2.6,1.6,3.1,3.3c1.6,5.4-3.3,15.4-13,26.9
			l-1.5-1.3c10.9-12.9,13.7-21.4,12.6-25c-0.3-1-0.9-1.6-1.8-1.9c-1.9-0.6-6.4,0.8-11.1,2.2c-6.3,2-14.2,4.4-21.3,4
			c-5.3-0.3-10.7-2.5-15.4-4.4c-4.2-1.7-8.3-3.4-9.8-2.4c-0.2,0.1-0.7,0.5-0.8,2.1c-0.4,8.5,12.1,25.9,12.3,26L346.6,94z"/>
	</g>
	<g>
		<path class="st10" d="M322.5,199.4h3.1c-4.9-2.8-9.1-6.2-12.4-10.3c-7.4-9.1-9.8-20.5-6.8-32.1c7.2-27.5,37-54.1,37.3-54.4
			l-1.3-1.5c-0.3,0.3-30.5,27.3-37.9,55.4c-3.2,12.2-0.6,24.2,7.2,33.9c2.8,3.5,6.2,6.5,10.1,9.1
			C322.1,199.4,322.3,199.4,322.5,199.4z"/>
		<path class="st10" d="M424.8,157.7c3.2,11.9,1.9,22-3.9,29.8c-3.5,4.8-8.7,8.8-15.4,11.9h4.5c5.3-3,9.5-6.5,12.5-10.7
			c6.1-8.3,7.5-18.9,4.2-31.5c-8.5-32.3-36.6-56.1-36.9-56.4l-1.3,1.5C388.8,102.6,416.4,126.1,424.8,157.7z"/>
	</g>
	<g>
		<path class="st10" d="M351.3,111.4c-0.2,0-0.3,0-0.5-0.1c-0.5-0.3-0.6-0.9-0.4-1.4l5-8.7c0.3-0.5,0.9-0.6,1.4-0.4
			c0.5,0.3,0.6,0.9,0.4,1.4l-5,8.7C352,111.2,351.6,111.4,351.3,111.4z"/>
	</g>
	<g>
		<path class="st10" d="M381,111.6c-0.3,0-0.7-0.2-0.9-0.5l-5-8.7c-0.3-0.5-0.1-1.1,0.4-1.4c0.5-0.3,1.1-0.1,1.4,0.4l5,8.7
			c0.3,0.5,0.1,1.1-0.4,1.4C381.3,111.5,381.1,111.6,381,111.6z"/>
	</g>
	<circle class="st12" cx="365.3" cy="152.8" r="27.7"/>
	<circle class="st14" cx="280.2" cy="255.5" r="4.5"/>
	<circle class="st14" cx="303.5" cy="338.4" r="4.5"/>
	<g>
		<line class="st15" x1="276.6" y1="315.4" x2="276.6" y2="336.3"/>
		<line class="st15" x1="287" y1="325.8" x2="266.1" y2="325.8"/>
	</g>
	<circle class="st16" cx="16.4" cy="165.8" r="4.5"/>
	<g>
		<line class="st14" x1="43.3" y1="142.7" x2="43.3" y2="163.7"/>
		<line class="st14" x1="32.8" y1="153.2" x2="53.8" y2="153.2"/>
	</g>
	<circle class="st16" cx="449" cy="174.7" r="4.5"/>
	<g>
		<line class="st14" x1="467" y1="175.9" x2="467" y2="196.9"/>
		<line class="st14" x1="456.6" y1="186.4" x2="477.5" y2="186.4"/>
	</g>
	<circle class="st14" cx="153.3" cy="178.3" r="4.5"/>
	<circle class="st16" cx="195.4" cy="288" r="4.5"/>
	<g>
		<line class="st15" x1="176.5" y1="176.9" x2="176.5" y2="197.9"/>
		<line class="st15" x1="166" y1="187.4" x2="187" y2="187.4"/>
	</g>
	<path class="st17" d="M22.8,293.7c0,0,15.4,20.7,47.1,21.8"/>
	<path class="st17" d="M307.3,135.2c0,0-15.7,24.1-6.2,44.9"/>
	<path class="st17" d="M396.7,253.6c0,0,30.8-4.5,44.4-24.3"/>
	<path class="st17" d="M112.3,118.9c0,0,11.4-4.8,12.5,5.5"/>
	<circle class="st7" cx="216.6" cy="97.3" r="3.7"/>
	<circle class="st5" cx="155.5" cy="279.4" r="3.7"/>
	<circle class="st3" cx="146.2" cy="279.4" r="3.7"/>
	<circle class="st18" cx="422.5" cy="223.4" r="3.7"/>
	<circle class="st1" cx="413.2" cy="223.4" r="3.7"/>
	<circle class="st7" cx="229.7" cy="97.3" r="3.7"/>
	<circle class="st7" cx="242.7" cy="97.3" r="3.7"/>
</g>
</svg>
