<?xml version="1.0" encoding="utf-8"?>
<!-- Generator: Adobe Illustrator 23.0.3, SVG Export Plug-In . SVG Version: 6.00 Build 0)  -->
<svg version="1.1" id="Layer_2" xmlns="http://www.w3.org/2000/svg" xmlns:xlink="http://www.w3.org/1999/xlink" x="0px" y="0px"
	 viewBox="0 0 373.8 313.1" style="enable-background:new 0 0 373.8 313.1;" xml:space="preserve">
<style type="text/css">
	.st0{fill:#E6F5FF;}
	.st1{clip-path:url(#XMLID_2_);fill:#F79014;}
	.st2{clip-path:url(#XMLID_2_);fill:#FFFFFF;}
	.st3{clip-path:url(#XMLID_2_);}
	.st4{clip-path:url(#XMLID_3_);fill:#CCE8FE;}
	.st5{clip-path:url(#XMLID_4_);fill:#2069A7;}
	.st6{clip-path:url(#XMLID_5_);fill:#F79014;}
	.st7{clip-path:url(#XMLID_6_);fill:#2069A7;}
	.st8{clip-path:url(#XMLID_7_);fill:#FFFFFF;}
	.st9{fill:#F79014;}
	.st10{fill:#2069A7;}
	.st11{fill:#CCE8FE;}
	.st12{fill:none;stroke:#49B7FA;stroke-miterlimit:10;}
	.st13{fill:#F8767F;}
	.st14{fill:#65DFD9;}
	.st15{fill:#49B7FA;}
	.st16{fill:#FFFFFF;}
	.st17{fill:none;stroke:#163460;stroke-width:2;stroke-linecap:round;stroke-linejoin:round;stroke-miterlimit:10;}
	.st18{fill:none;stroke:#163460;stroke-width:1.8095;stroke-linecap:round;stroke-linejoin:round;stroke-miterlimit:10;}
	.st19{fill:none;stroke:#163460;stroke-width:1.3942;stroke-linecap:round;stroke-linejoin:round;stroke-miterlimit:10;}
	.st20{fill:none;stroke:#163460;stroke-width:1.2451;stroke-linecap:round;stroke-linejoin:round;stroke-miterlimit:10;}
	.st21{fill:none;stroke:#163460;stroke-width:1.2645;stroke-linecap:round;stroke-linejoin:round;stroke-miterlimit:10;}
	.st22{fill:none;stroke:#163460;stroke-width:1.3566;stroke-linecap:round;stroke-linejoin:round;stroke-miterlimit:10;}
	.st23{fill:#163460;}
	.st24{fill:none;stroke:#163460;stroke-linecap:round;stroke-linejoin:round;stroke-miterlimit:10;}
	.st25{fill:none;stroke:#163460;stroke-miterlimit:10;}
	.st26{fill:#E7F5FF;}
	.st27{fill:none;stroke:#F55C76;stroke-width:4.2857;stroke-linecap:round;stroke-linejoin:round;stroke-miterlimit:10;}
	.st28{fill:none;stroke:#49B7FA;stroke-width:3.3333;stroke-linecap:round;stroke-linejoin:round;stroke-miterlimit:10;}
	.st29{fill:none;stroke:#49B7FA;stroke-width:3;stroke-linejoin:round;stroke-miterlimit:10;}
	.st30{fill:none;stroke:#163460;stroke-width:2;stroke-linecap:round;stroke-miterlimit:10;}
</style>
<g>
	<path class="st0" d="M149.8,282.3c0-0.4,0.1-0.7,0.3-1.1c3.5-10.8,1.8-23,2.8-34.2c0-0.4,0.1-0.8,0.1-1.2c-0.1-0.5-0.1-0.9-0.2-1.4
		c-0.7-6-1.2-11.9-1.5-17.9c-0.2-5.1,0.2-11.9-2.5-16.5c-0.1-0.1-0.1-0.2-0.1-0.3c3.5,17.3,0.6,35.4-2,53.2
		c0.9,6.2,1.6,13.2,0.6,19.4C148,282.3,148.9,282.3,149.8,282.3z"/>
	<path class="st0" d="M172,267.3c-0.4-0.5-0.7-1.2-0.9-1.9c-0.6-2.7-1.1-5.5-1.5-8.2c0.1,4.9,0,9.9-0.6,14.8c-0.4,3.1-1,6.4-2.4,9.2
		c1.6-0.2,3.2-0.4,4.7-0.6c0.7-0.1,1.3-0.2,2-0.3C172.9,275.9,172.4,271.6,172,267.3z"/>
	<path class="st0" d="M191.3,251.1c-0.4-11.6-1-23.3-1.9-34.9c-0.1,2.2-0.1,4.3-0.2,6.5c-0.3,8.1-0.8,16.3-1.6,24.4
		c-0.4,4.2-0.3,10.6-2.7,14.5c0.1,5.4,0.1,10.8,0.2,16.2c2.3-0.6,4.7-1.4,6.9-2.3c0,0,0,0,0.1,0
		C190.5,267.7,190.8,259.3,191.3,251.1z"/>
	<path class="st0" d="M219.2,244.4c0.3,5,0.8,9.9,1.1,14.9c0.7-0.5,1.3-1,2-1.5c0-0.8,0.1-1.6,0.1-2.3c0-0.1-0.1-0.2-0.1-0.2
		c-2-5.6-2.8-11.4-3.1-17.3C219.1,240,219.1,242.2,219.2,244.4z"/>
	<path class="st0" d="M366.1,121.5c-1.3-5.7-4.7-13.7-7.3-19C356,97,351.5,90,347.8,85.1c-4.5-5.8-10.6-12-15.7-16.3
		c-5.6-4.6-11.8-9.1-18.3-12.2c-5.2-2.4-12-4.8-17.5-6.5c-5.7-1.7-11.6-2.5-17.3-4c-5.1-3.1-9.3-7.3-13.8-11.2
		c-23.2-20.3-53.9-35.2-85.3-28.6c-10.3,2.1-19,5.1-27.9,10.4c-6.1,3.6-11.8,8-17.8,11.9c-3.4,2.2-6.8,4.6-10.1,7
		c25.4-0.4,51-2.2,76.4-0.9c0.2,0,0.4-0.1,0.6-0.1c1-0.1,2,0,3,0.3c5.1,0.3,10.1,0.8,15.2,1.4c1,0.1,1.8,0.4,2.5,0.9
		c4.5,0.1,9-0.1,13.4-0.8l0,0c0.3-0.1,0.6-0.1,1-0.1c4.2-0.5,5.1,6.6,1,7.3c-0.4,0.1-0.7,0.1-1.1,0.2c-1.1,0.3-2.1,0.6-3.1,1
		c0,0-0.1,0-0.1,0c-0.3,0.5-0.7,1-1.4,1.4c-11.7,6.7-24.5,11.2-37.2,15.6c-13.5,4.7-26.7,10-39.9,15.7c-10.4,4.5-21,8.9-31,14.3
		c-8.6,5.7-17.2,11.4-26,16.7c-0.2,0.1-0.4,0.2-0.7,0.3c-5.5,3.7-11.1,7.3-17.1,10.2c-3.6,1.8-7.8-2.9-4.5-5.8
		c0.5-0.4,0.9-0.9,1.4-1.4c0-0.2,0-0.4,0.1-0.6c2.3-8.7-1.3-18.8-2.2-27.5c-0.9-8.1-0.7-17.1,0.7-25.4c-1.3,0.3-2.7,0.5-4,0.8
		c-13.6,3-26.4,6.8-37.9,14.9c-9.3,6.5-17.9,15.7-22.5,26.2c-6.8,15.6-6.9,34.1,0.3,49.6c-1.8,9.9-4.4,19.4-3.5,29.8
		c0.9,10.1,4.8,20.6,11,28.6c4,5.2,8.8,10.7,14.6,14c3.4,2.1,7.1,3.2,11.1,3.3c1.5-0.3,2.9-0.4,4.4-0.5c0,0,0,0,0,0.1
		c3.4,5.8,7.1,11.4,11.4,16.6c5.3,6.4,11.2,12,17.7,17c1.5-20.2,3.7-40.4,0.8-60.5c-1-6.9,9.5-9.8,10.5-2.9c0.1,0.7,0.2,1.5,0.3,2.2
		c0.1,0,0.2,0.1,0.3,0.1c2.4,0.3,4.8,2,5,5.2c1.3,16,2.1,32.4,1.3,48.6c0.4,6.1,0.8,12.6,0.3,18.9c0.5,0.2,1,0.5,1.4,0.7
		c0.2-21.1,0.9-42.3,0.1-63.4c-0.3-1.1-0.7-2.2-1.1-3.3c-2.5-6.4,7.6-9.2,10.3-3.3c0.9,0.9,1.5,2.1,1.6,3.6c0,0.4,0,0.8,0,1.2
		c3.6,13,2.3,27.1,3.3,40.4c0.7,9.4,2.8,21.1,0.3,30.8c0.6,0.2,1.3,0.4,1.9,0.6c2.2-26.3,2.9-52.6,3.5-78.9c0.2-7,11-7,10.9,0
		c0,1.9-0.1,3.7-0.1,5.6c0.1,0.3,0.1,0.7,0.1,1.1c0.7,22.7,5.9,45.3,3.6,68.1c-0.4,4-4.2,5.7-7.2,5.1c0,0.3,0,0.6-0.1,0.9
		c0,0.4-0.1,0.7-0.2,1c3.1,0.7,6.3,1.1,9.5,1.5c-0.3-0.7-0.4-1.5-0.3-2.5c0.6-5.2,1.3-10.4,2.1-15.5c-0.4-3.3-0.8-6.6-1.2-10
		c-2.1-16.4-0.9-33.3-0.9-49.8c0-1.3,0.4-2.4,1-3.2c-1.4-5.9,7.1-10.4,9.8-4.4c1.6,3.6,2.8,7.2,3.7,10.8c0.1-2,1.6-3.7,3.4-4.5
		c-0.1-0.4-0.2-0.7-0.3-1.1c-0.8-2.8-1.1-3.9-2.3-5.8c-3.8-5.9,5.6-11.4,9.4-5.5c2.7,4.2,4.1,9.5,5.1,14.7c1.9,0.6,3.5,2.3,3.5,4.9
		c0,3.8-0.2,7.6-0.5,11.4c0.8,4.9,1.4,9.9,1.9,14.9c-0.1-6.7,0.1-13.5,0.4-20.2c0-1,0.3-1.8,0.7-2.5c0.1-0.3,0.1-0.7,0.2-1
		c-0.1-0.2-0.1-0.3,0-0.3c-5.6-4.1-0.1-13.6,5.5-9.4c1.5,1.1,2.7,2.4,3.7,3.9c0-0.4,0-0.7,0-1.1c0-2.5-0.1-5-0.3-7.5
		c-0.1-0.9-0.5-0.7-0.3-1.3c-0.3-0.2-0.4-0.5-0.3-0.7c-1.5-3.2,0-8,4.7-7.9c6.4,0.1,6.6,7.7,6.9,12.3c0,0.8,0.1,1.7,0.1,2.5
		c1-3,4.3-5.4,7.8-3.2c4.4,2.7,4.8,8.8,5.2,13.4c0.6,7,0.5,14.1,0.4,21.1c-0.1,7.3-0.3,14.5-0.5,21.8c0.2,4.8,0.3,9.7,0.4,14.5
		c1.9-1,3.8-2.1,5.6-3.2c-0.2-0.4-0.4-0.8-0.5-1.2c-0.8-2.4,0.1-4.3,1.6-5.5c-0.2-4.8-0.6-9.5-1-14.3c-0.4-5.8-0.1-11.4,0.3-17.1
		c0.2-2.6,0.3-5.2-0.2-7.7c-0.5-2.6-2.1-4.8-2.6-7.3c-0.4-2.1-0.1-4.5-0.2-6.6c0-0.8-0.2-1.7-0.2-2.5c0-0.2,0-0.5-0.1-0.6
		c-0.4-0.5-0.4-0.7-0.3-0.6c-2.5-5,4.3-10.9,8.7-6.3c3,3.2,2.7,8.5,2.8,12.6c0.1,4,2.3,8.3,2.9,12.9c0.3-4.3,0.8-8.6,1.1-12.9
		c-0.2-2.9-0.4-5.8-0.4-8.8c0-1.5,0.4-2.7,1.2-3.6c0-0.4,0-0.8,0-1.2c0-6.1,9.2-7.5,10.7-1.4c1.4,5.7,2.1,11.4,2.5,17.1
		c2.2,10.4,2.4,21.2,2,32c0,0.1,0,0.1,0,0.2c0.8-0.9,1.6-1.8,2.4-2.7c0.1,0,0.1,0,0.2,0c-0.3-10.4-0.3-20.9,1-31.3
		c0.2-1.9,1.1-3.3,2.3-4.2c0-0.6,0.1-1.2,0.1-1.9c0.6-6.9,10.9-7.1,10.9,0c0,6.7,0,13.4-0.3,20.1c0.4,5.4,1.1,10.9,2.3,16.2
		c13.4-0.5,26.8-0.8,39.9-4c9.9-2.4,19.5-7.1,28.3-12.2c4.7-2.7,9.1-5.6,13.3-9c9.7-7.7,16.7-17.9,22-29.1
		C368.3,166.8,371,142.6,366.1,121.5z M96.3,132.6c-1.2,1.6-2.5,3.1-3.6,4.8c-0.7,1-1.3,2-2,3c-3.5,5.5-5.6,10.8-7.1,16.7
		c-4.3-4.1-9.3-7.2-15.7-7.4c-1.1,0-2.2-0.1-3.3-0.1c0.8-3.2,1.7-6.4,2-9.7c0.3-4.2-0.4-8.4-1.1-12.6c0.7-0.5,1.4-0.9,2.1-1.4
		c1.6-0.7,3.3-1.3,5-1.8c7.7-1.5,15.6-2.2,23.4-3.2c4.3-0.6,8.5-1.3,12.7-2.3C104.5,122.8,100.5,127.3,96.3,132.6z"/>
	<g>
		<defs>
			<path id="XMLID_46_" d="M282.4,201.8H50.9c-6.6,0-12-5.4-12-12v-50.3c0-6.6,5.4-12,12-12h231.5c6.6,0,12,5.4,12,12v50.3
				C294.4,196.4,289,201.8,282.4,201.8z"/>
		</defs>
		<use xlink:href="#XMLID_46_"  style="overflow:visible;fill:#F0AD0A;"/>
		<clipPath id="XMLID_2_">
			<use xlink:href="#XMLID_46_"  style="overflow:visible;"/>
		</clipPath>
		<polyline class="st1" points="137.9,200.4 279.5,126.1 319.6,123.3 313.3,162.5 227.6,205.8 		"/>
		<polyline class="st1" points="38.8,203 177.7,125.6 102.4,124.2 18.8,174.8 		"/>
		<path class="st2" d="M52.9,201c0,0-9.7-0.5-11.3-10v-52.2c0,0,0.3-7.5,8.7-8.4c8.4-0.9,236.4-0.6,236.4-0.6l-2.2-1.8l-237.7-0.2
			L34.7,139l2.3,51.5l2.5,10.7l11.6,6.2"/>
		<polyline class="st2" points="69.6,187.2 69.6,201 68.2,201 68.2,187.6 		"/>
		<polyline class="st2" points="68.9,143.4 68.9,129.5 67.2,129.5 67.2,144.1 		"/>
		<polyline class="st2" points="106.7,129.2 111.5,133.9 111.5,149.3 110.1,149.3 110.1,135.1 104.2,129.2 		"/>
		<polyline class="st2" points="238.6,179 238.6,201.1 236.4,201.1 236.4,178.3 		"/>
		<g class="st3">
			<defs>
				<path id="XMLID_49_" d="M270.7,177.1H104.1c-6.6,0-12-5.4-12-12v-5.4c0-6.6,5.4-12,12-12h166.6c6.6,0,12,5.4,12,12v5.4
					C282.7,171.7,277.3,177.1,270.7,177.1z"/>
			</defs>
			<use xlink:href="#XMLID_49_"  style="overflow:visible;fill:#FFFFFF;"/>
			<clipPath id="XMLID_3_">
				<use xlink:href="#XMLID_49_"  style="overflow:visible;"/>
			</clipPath>
			<polyline class="st4" points="220.1,175.7 248.9,152 285.1,149.7 287.4,163.9 280.2,178.5 			"/>
		</g>
	</g>
	<g>
		<defs>
			<path id="XMLID_48_" d="M268.8,178.2h-163c-6.6,0-12-5.4-12-12V162c0-6.6,5.4-12,12-12h163c6.6,0,12,5.4,12,12v4.1
				C280.8,172.8,275.4,178.2,268.8,178.2z"/>
		</defs>
		<use xlink:href="#XMLID_48_"  style="overflow:visible;fill:#49B7FA;"/>
		<clipPath id="XMLID_4_">
			<use xlink:href="#XMLID_48_"  style="overflow:visible;"/>
		</clipPath>
		<polyline class="st5" points="285.1,150.6 89.7,174.7 92.5,183.1 284.6,188.7 		"/>
	</g>
	<g>
		<defs>
			<path id="XMLID_40_" d="M267.1,174.2H109.4c-5.3,0-9.6-4.3-9.6-9.6V163c0-5.3,4.3-9.6,9.6-9.6h157.7c5.3,0,9.6,4.3,9.6,9.6v1.6
				C276.7,169.9,272.4,174.2,267.1,174.2z"/>
		</defs>
		<use xlink:href="#XMLID_40_"  style="overflow:visible;fill:#E6F5FF;"/>
		<clipPath id="XMLID_5_">
			<use xlink:href="#XMLID_40_"  style="overflow:visible;"/>
		</clipPath>
		<path class="st6" d="M-523.2,149.9v64.3c0,0,20.3-0.5,23.8-6.4v-63l-4.3,2.1C-503.7,146.8-513.8,150.8-523.2,149.9z"/>
	</g>
	<g>
		<defs>
			<circle id="XMLID_47_" cx="67.4" cy="165.3" r="20.9"/>
		</defs>
		<use xlink:href="#XMLID_47_"  style="overflow:visible;fill:#49B7FA;"/>
		<clipPath id="XMLID_6_">
			<use xlink:href="#XMLID_47_"  style="overflow:visible;"/>
		</clipPath>
		<path class="st7" d="M45.3,183.8L88,149.6l3.4,22.4l-0.6,7.3c0,0-6.2,5.3-6.5,5.7c-0.3,0.3-6.5,3.8-6.5,3.8l-11,3.8"/>
	</g>
	<g>
		<defs>
			<circle id="XMLID_36_" cx="67.4" cy="165.1" r="15.7"/>
		</defs>
		<use xlink:href="#XMLID_36_"  style="overflow:visible;fill:#E6F5FF;"/>
		<clipPath id="XMLID_7_">
			<use xlink:href="#XMLID_36_"  style="overflow:visible;"/>
		</clipPath>
		<polyline class="st8" points="51.9,177.6 89.4,149.9 45.4,135.9 		"/>
	</g>
	<path class="st9" d="M38.9,115.7l0.3,18.9l6-5.6l4.9-1.5l233,0.8c0,0,5.9,1.7,6.8,2.7c0.9,1,3.9,6.6,3.9,6.6l0.3-18.9l-0.8-5.2
		c0,0-5.3-7.1-7.7-6.9c-2.4,0.2-28.8-1-28.8-1l0.3,14.2H77L76,106l-12.5-0.3l-0.4,3.6l-1.1,0.8l-3.9-0.1l-1.4-0.4l-0.3-3.5l-8.1-0.2
		C48.3,106,38.8,112.1,38.9,115.7z"/>
	<polyline class="st10" points="61.7,117.9 61.7,120.1 76.1,120.1 76.1,117.6 	"/>
	<polyline class="st10" points="257.3,118 272.8,118 272.8,120 256.9,120 	"/>
	<polyline class="st11" points="77.2,119.3 236.2,35.3 251.1,35.5 255.4,37 256.3,39.3 256.7,118.9 	"/>
	<path class="st11" d="M56.5,108.8l0.1-39.4c0,0,3.6,1.2,4.7,0.5c1.2-0.7,1.7-0.4,1.7-0.4l-0.2,40.2c0,0-0.8,0.4-1.9,0.5
		c-1,0.1-2.7-0.3-2.7-0.3"/>
	<circle class="st12" cx="67.4" cy="165.5" r="10.1"/>
	<circle class="st13" cx="257" cy="137.5" r="3.3"/>
	<circle class="st14" cx="267.2" cy="137.5" r="3.3"/>
	<circle class="st13" cx="59.8" cy="64" r="5.8"/>
	<polyline class="st10" points="55.8,201.9 63.5,201.6 63.5,203.8 62.4,205.3 60.3,206.1 58.7,205.8 	"/>
	<path class="st10" d="M269.6,202.2c0,0,0.4,3.2,2,3.4c1.6,0.2,4.1,0.1,4.1,0.1l0.3-3.3l0.2-0.3"/>
	<polyline class="st11" points="79.4,211.5 92.2,211.5 92.2,200.9 79.6,200.9 	"/>
	<polyline class="st11" points="96.9,211.5 109.7,211.5 109.7,200.9 97.1,200.9 	"/>
	<polyline class="st11" points="114.4,211.5 127.3,211.5 127.3,200.9 114.7,200.9 	"/>
	<polyline class="st11" points="133,211.5 145.8,211.5 145.8,200.9 133.2,200.9 	"/>
	<polyline class="st11" points="150.7,211.5 163.6,211.5 163.6,200.9 151,200.9 	"/>
	<polyline class="st11" points="168.9,211.5 181.7,211.5 181.7,200.9 169.2,200.9 	"/>
	<polyline class="st11" points="186.7,211.5 199.5,211.5 199.5,200.9 186.9,200.9 	"/>
	<polyline class="st11" points="204.9,211.5 217.7,211.5 217.7,200.9 205.2,200.9 	"/>
	<polyline class="st11" points="223.2,211.5 236,211.5 236,200.9 223.4,200.9 	"/>
	<polyline class="st11" points="241.4,211.5 254.3,211.5 254.3,200.9 241.7,200.9 	"/>
	<polyline class="st11" points="79.4,307.9 91.5,217.9 91.5,307.5 	"/>
	<polyline class="st11" points="97.6,307.9 109.7,217.9 109.7,307.5 	"/>
	<polyline class="st11" points="115.8,307.9 127.8,217.9 127.8,307.5 	"/>
	<polyline class="st11" points="134,307.9 146,217.9 146,307.5 	"/>
	<polyline class="st11" points="152.1,307.9 164.2,217.9 164.2,307.5 	"/>
	<polyline class="st11" points="170.3,307.9 182.4,217.9 182.4,307.5 	"/>
	<polyline class="st11" points="188.5,307.9 200.5,217.9 200.5,307.5 	"/>
	<polyline class="st11" points="206.7,307.9 218.7,217.9 218.7,307.5 	"/>
	<polyline class="st11" points="223.5,307.9 235.6,217.9 235.6,307.5 	"/>
	<polyline class="st11" points="241.5,307.9 253.5,217.9 253.5,307.5 	"/>
	<path class="st15" d="M50.1,106.1l-0.2,21.1c0,0-9.7,5.9-10.5,8.3c-0.8,2.4-0.5-19.8-0.5-19.8s5.3-9.1,9.8-9.9"/>
	<path class="st15" d="M282.7,105.7l0.2,22c0,0,8.9,3,10.7,8l0.6-12.9l-0.8-6.2l-1.1-3.7l-3.8-4.8"/>
	<path class="st16" d="M49.5,108.3c0,0-6.6,1.1-8.2,7.8V132l-1.7,2.3v-19.4c0,0,4.7-9.3,10-8.6"/>
	<path class="st16" d="M282.9,107.9c0,0,7.5,2,8.9,8.9v15.9l2.3,2l-0.7-17.9l-1-4.3l-3.8-3.6l-5.3-2.4"/>
	<path class="st16" d="M94.2,158.2"/>
	<polyline class="st16" points="102.6,170.8 127.8,153.5 116.1,153.5 99.2,164.7 	"/>
	<polyline class="st16" points="218.4,173.9 237.8,153.7 248.9,153.7 231.5,173.9 	"/>
	<g>
		<path class="st17" d="M281.9,201.3H51.1c-6.6,0-12-5.4-12-12v-49.4c0-6.6,5.4-12,12-12h230.8c6.6,0,12,5.4,12,12v49.4
			C293.9,195.9,288.5,201.3,281.9,201.3z"/>
		<path class="st18" d="M281.9,179.3"/>
		<path class="st17" d="M257.1,106h24.8c6.6,0,12,5.4,12,12v49.4"/>
		<line class="st18" x1="63.5" y1="106" x2="76.3" y2="106"/>
		<path class="st18" d="M39.1,167.3V118c0-6.6,5.4-12,12-12h5.1"/>
		<line class="st18" x1="49.7" y1="127.9" x2="49.7" y2="106"/>
		<line class="st18" x1="282.5" y1="127.9" x2="282.5" y2="106"/>
		<circle class="st18" cx="67.4" cy="165.3" r="21.3"/>
		<circle class="st19" cx="67.4" cy="165.3" r="16.4"/>
		<path class="st19" d="M268.7,178.5H105.6c-6.6,0-12-5.4-12-12v-5.1c0-6.6,5.4-12,12-12h163.1c6.6,0,12,5.4,12,12v5.1
			C280.7,173.1,275.3,178.5,268.7,178.5z"/>
		<path class="st20" d="M266.2,174.3H109.7c-5.8,0-10.5-4.7-10.5-10.5v0c0-5.8,4.7-10.5,10.5-10.5h156.6c5.8,0,10.5,4.7,10.5,10.5v0
			C276.7,169.6,272,174.3,266.2,174.3z"/>
		<line class="st20" x1="237.1" y1="201.6" x2="237.1" y2="178.4"/>
		<polyline class="st20" points="110.4,148.8 110.4,134.8 103.5,128 		"/>
		<polyline class="st21" points="256.9,114.6 273,114.6 273,120 61.8,120 61.8,114.6 76.5,114.6 		"/>
		<path class="st17" d="M256.8,119.6H76.5V41.2c0-3.3,2.7-6,6-6h168.3c3.3,0,6,2.7,6,6V119.6z"/>
		<rect x="79.4" y="200.9" class="st22" width="12.6" height="107"/>
		<rect x="97.4" y="200.9" class="st22" width="12.6" height="107"/>
		<rect x="115.3" y="200.9" class="st22" width="12.6" height="107"/>
		<rect x="133.3" y="200.9" class="st22" width="12.6" height="107"/>
		<rect x="151.2" y="200.9" class="st22" width="12.6" height="107"/>
		<rect x="169.1" y="200.9" class="st22" width="12.6" height="107"/>
		<rect x="187.1" y="200.9" class="st22" width="12.6" height="107"/>
		<rect x="205" y="200.9" class="st22" width="12.6" height="107"/>
		<rect x="223" y="200.9" class="st22" width="12.6" height="107"/>
		<rect x="240.9" y="200.9" class="st22" width="12.6" height="107"/>
		<g>
			<path class="st23" d="M143.2,61.6v40.3h-12.8h-13.2h-7.7V61.6h7.7v32.6h5.4V61.6h7.7v32.6h5V61.6H143.2z"/>
			<path class="st23" d="M180.5,61.6v40.3h-12.8h-13.2h-7.7V61.6h7.7v32.6h5.4V61.6h7.7v32.6h5V61.6H180.5z"/>
			<path class="st23" d="M217.8,61.6v40.3H205h-13.2H184V61.6h7.7v32.6h5.4V61.6h7.7v32.6h5V61.6H217.8z"/>
		</g>
		<g>
			<path class="st15" d="M138.1,159.8v3.1h6.4v5.9v2.8h-9.2v-2.8h6.4v-3.1h-6.4V157h9.2v2.8H138.1z"/>
			<path class="st15" d="M152.4,161.7v-1.9h-3.8v8.9h3.6v-1.9h2.8v4.7h-6.4h-2.8v-11.7V157h6.6h2.8v4.7H152.4z"/>
			<path class="st15" d="M165.7,171.5h-2.8v-5.9h-3.6v5.9h-2.8v-8.7V157h6.4h2.8v6l-1.2,1.2l1.2,1.2V171.5z M162.9,159.8h-3.6v3.1
				h3.6V159.8z"/>
			<path class="st15" d="M176.2,171.5h-2.8v-5.9h-3.6v5.9H167v-8.7V157h6.4h2.8V171.5z M173.4,162.9v-3.1h-3.6v3.1H173.4z"/>
			<path class="st15" d="M186.7,165.6h-6.4v5.9h-2.8v-8.7V157h6.4h2.8V165.6z M183.9,162.9v-3.1h-3.6v3.1H183.9z"/>
			<path class="st15" d="M191.4,171.5h-2.8V157h2.8V171.5z"/>
			<path class="st15" d="M202.6,171.5h-2.8v-11.7h-3.6v11.7h-2.8V157h6.4h2.8V171.5z"/>
			<path class="st15" d="M210.3,168.7v-3.1h-1.9v-2.8h4.7v2.8v5.9h-6.4h-2.8v-11.7V157h9.2v2.8h-6.4v8.9H210.3z"/>
		</g>
		<line class="st20" x1="252.2" y1="153.7" x2="252.2" y2="174.1"/>
		<circle class="st20" cx="257.3" cy="137.6" r="3.7"/>
		<circle class="st20" cx="267.2" cy="137.6" r="3.7"/>
		<line class="st24" x1="62" y1="118" x2="76.1" y2="118"/>
		<line class="st24" x1="257.6" y1="118" x2="273.2" y2="118"/>
		<path class="st22" d="M67.4,148.8"/>
		<line class="st22" x1="68.1" y1="186.4" x2="68.1" y2="201.1"/>
		<line class="st22" x1="67.4" y1="143.9" x2="67.4" y2="128.1"/>
		<g>
			<path class="st23" d="M62.5,201.5c0.1,0.3,0.2,0.6,0.2,0.9c0,1.4-1.2,2.5-2.6,2.5c-1.4,0-2.6-1.1-2.6-2.5c0-0.3,0.1-0.5,0.1-0.8
				c-0.6,0.1-1.2,0.2-1.7,0.3c0,0.2-0.1,0.3-0.1,0.5c0,2.3,1.9,4.2,4.3,4.2s4.3-1.9,4.3-4.2c0-0.3,0-0.6-0.1-0.9
				C63.7,201.5,63.1,201.5,62.5,201.5z"/>
		</g>
		<g>
			<path class="st23" d="M275.2,201.5c0.1,0.3,0.2,0.6,0.2,0.9c0,1.4-1.2,2.5-2.6,2.5c-1.4,0-2.6-1.1-2.6-2.5c0-0.3,0.1-0.5,0.1-0.8
				c-0.6,0.1-1.2,0.2-1.7,0.3c0,0.2-0.1,0.3-0.1,0.5c0,2.3,1.9,4.2,4.3,4.2s4.3-1.9,4.3-4.2c0-0.3,0-0.6-0.1-0.9
				C276.3,201.5,275.7,201.5,275.2,201.5z"/>
		</g>
		<path class="st23" d="M55.7,110.7"/>
		<ellipse class="st25" cx="59.7" cy="109.4" rx="3.2" ry="0.9"/>
		<g>
			<path class="st23" d="M62.4,69.7v39.7h1V69.2C63.1,69.4,62.8,69.6,62.4,69.7z"/>
		</g>
		<g>
			<path class="st23" d="M56,69v40.4h1V69.6C56.7,69.5,56.3,69.3,56,69z"/>
		</g>
		<circle class="st25" cx="59.9" cy="64.1" r="6.1"/>
	</g>
	<path class="st26" d="M56.4,109.5"/>
	<circle class="st27" cx="64.6" cy="44.6" r="4.5"/>
	<circle class="st27" cx="266.9" cy="220" r="4.5"/>
	<g>
		<line class="st28" x1="37.7" y1="21.5" x2="37.7" y2="42.5"/>
		<line class="st28" x1="48.2" y1="32" x2="27.2" y2="32"/>
	</g>
	<circle class="st29" cx="270.6" cy="84.2" r="4.5"/>
	<circle class="st29" cx="69" cy="231.2" r="4.5"/>
	<g>
		<line class="st27" x1="297.5" y1="61.1" x2="297.5" y2="82.1"/>
		<line class="st27" x1="287" y1="71.6" x2="308" y2="71.6"/>
	</g>
	<g>
		<line class="st27" x1="46.1" y1="209.2" x2="46.1" y2="230.1"/>
		<line class="st27" x1="35.6" y1="219.7" x2="56.5" y2="219.7"/>
	</g>
	<g>
		<line class="st28" x1="296.7" y1="204.6" x2="296.7" y2="225.6"/>
		<line class="st28" x1="286.2" y1="215.1" x2="307.1" y2="215.1"/>
	</g>
	<path class="st30" d="M237.4,30.9h16.8c3.9,0,7,3.1,7,7v9.6"/>
	<line class="st30" x1="261.1" y1="52" x2="261.1" y2="55.9"/>
	<line class="st30" x1="31.6" y1="141" x2="31.6" y2="177.6"/>
	<path class="st10" d="M257,240"/>
	<line class="st30" x1="257.5" y1="234.1" x2="257.5" y2="264.5"/>
	<line class="st30" x1="257.3" y1="268.2" x2="257.3" y2="273.4"/>
</g>
</svg>
