<?xml version="1.0" encoding="utf-8"?>
<!-- Generator: Adobe Illustrator 23.0.3, SVG Export Plug-In . SVG Version: 6.00 Build 0)  -->
<svg version="1.1" id="Layer_1" xmlns="http://www.w3.org/2000/svg" xmlns:xlink="http://www.w3.org/1999/xlink" x="0px" y="0px"
	 viewBox="0 0 484.5 284" style="enable-background:new 0 0 484.5 284;" xml:space="preserve">
<style type="text/css">
	.st0{fill:#E6F5FF;}
	.st1{fill:#CEE8FE;}
	.st2{fill:#49B7FA;}
	.st3{fill:#CCE8FE;}
	.st4{clip-path:url(#SVGID_2_);fill:#49B7FA;}
	.st5{fill:#F4AE0E;}
	.st6{fill:#73DFD9;}
	.st7{clip-path:url(#SVGID_4_);fill:#F79014;}
	.st8{clip-path:url(#SVGID_6_);fill:#163460;}
	.st9{clip-path:url(#SVGID_8_);fill:#163460;}
	.st10{clip-path:url(#SVGID_10_);fill:#163460;}
	.st11{clip-path:url(#SVGID_12_);fill:#163460;}
	.st12{clip-path:url(#SVGID_14_);fill:#163460;}
	.st13{clip-path:url(#SVGID_16_);fill:#163460;}
	.st14{clip-path:url(#SVGID_18_);fill:#163460;}
	.st15{clip-path:url(#SVGID_20_);fill:#163460;}
	.st16{clip-path:url(#SVGID_22_);fill:#163460;}
	.st17{clip-path:url(#SVGID_24_);fill:#163460;}
	.st18{clip-path:url(#SVGID_26_);fill:#49B7FA;}
	.st19{fill:#FFFFFF;}
	.st20{fill:#F79014;}
	.st21{fill:#ECAC05;}
	.st22{clip-path:url(#SVGID_28_);fill:#F79014;}
	.st23{clip-path:url(#SVGID_30_);fill:#F79014;}
	.st24{clip-path:url(#SVGID_32_);fill:#F79014;}
	.st25{clip-path:url(#SVGID_34_);fill:#F79014;}
	.st26{clip-path:url(#SVGID_36_);fill:#FFFFFF;}
	.st27{clip-path:url(#SVGID_38_);fill:#FFFFFF;}
	.st28{clip-path:url(#SVGID_40_);fill:#FFFFFF;}
	.st29{fill:#2069A7;}
	.st30{fill:#40A8A0;}
	.st31{fill:#163460;}
	.st32{fill:none;stroke:#163460;stroke-width:2.1459;stroke-linecap:round;stroke-linejoin:round;stroke-miterlimit:10;}
	.st33{fill:#F8767F;}
	.st34{fill:none;stroke:#163460;stroke-width:2;stroke-linecap:round;stroke-linejoin:round;stroke-miterlimit:10;}
	.st35{fill:none;stroke:#163460;stroke-width:1.7882;stroke-linecap:round;stroke-linejoin:round;stroke-miterlimit:10;}
	.st36{fill:none;stroke:#163460;stroke-width:1.5942;stroke-linecap:round;stroke-linejoin:round;stroke-miterlimit:10;}
	.st37{fill:none;stroke:#163460;stroke-linecap:round;stroke-linejoin:round;stroke-miterlimit:10;}
	.st38{fill:none;stroke:#F55C76;stroke-width:4.2857;stroke-linecap:round;stroke-linejoin:round;stroke-miterlimit:10;}
	.st39{fill:none;stroke:#49B7FA;stroke-width:3;stroke-linejoin:round;stroke-miterlimit:10;}
	.st40{fill:none;stroke:#49B7FA;stroke-width:3.3333;stroke-linecap:round;stroke-linejoin:round;stroke-miterlimit:10;}
</style>
<g>
	<path class="st0" d="M480.2,153.8c-0.5-6-2.2-12-3.5-17.7c-2.8-12.6-5.4-21.3-12.2-33.3c-3.9-7-9.1-13.7-14.6-19.5
		c-9.5-10.1-19.5-15.1-31.7-20.6c-8-3.6-17.3-5.1-26-5.7c-8.1-0.5-16.5,0.3-24.5,1.4c-4.5,0.6-8.9,1.7-13.3,2.9
		c-7.2,1.9-14.4,5.2-21.7,7.1c-2.1-0.3-4.1-0.8-6.1-1.3c-3.7-1.3-7.5-2.6-11.2-4c-6.9-3-13.7-6.3-20.9-8.2
		c-13.9-3.8-17.5-5.1-29.4-6.9c-6.7-1-13.6-2.6-20.4-2.8c-16-0.6-32.1,1.1-46.8,8.1C187,58.4,176.7,65.1,167,72.4
		c-5.5,4.1-11,8.2-16.9,11.8c-1.9,0.8-3.8,1.5-5.8,2.1c-7.2,1.1-14.4,1.7-21.7,2.6c-11.8,1.4-22.4,4-33.6,8.1
		c-20.9,7.5-39.1,24-49.3,43.7c-6.1,11.8-11.1,26.4-12,39.9c-1,15.5,2.8,31.1,9.4,45c7.1,15,22.3,28.4,36.4,36.4
		c14.8,8.3,31.3,12.1,48.2,12.6c6.1,0.2,12.3-0.1,18.3-0.9c5.3-0.8,9.5-1.9,13.8-3.7c1.6,0.5,3.2,0.9,4.9,1.2
		c1.3,0.2,2.7,0.4,4.1,0.5c-0.1,0.2-0.2,0.4-0.2,0.5l-6.1-1.4c2,0.5,4.1,1,6.1,1.4c0,0,0,0.1-0.1,0.1c1.8,0.4,3.6,0.7,5.4,1.1
		c-1-0.2-2-0.5-3-0.7c8,1.8,16.1,3.1,24.4,3.3c3,0.1,6,0.1,9,0.1c6-0.1,12-0.3,18-0.8c0.6-0.1,1.2-0.1,1.8-0.2
		c10.3,1.2,20.6,3,31,3.9c-3.3-0.3-6.5-0.6-9.8-0.9c17.1,2.9,33.7,3.6,50.9,2.9c5.1-0.2,10.2-0.6,15.3-1.3
		c9.5-1.3,19.3-3.6,27.7-8.5c13.4,3.4,27.1,5.2,40.8,5.1c13.5-0.2,26.3-3.4,39.1-7.7c3.8-1.3,7.6-2.8,11.3-4.5
		c6.5-3.2,12.7-7.8,18.3-12.2c1.4-1.1,2.7-2.2,4-3.4c6-5.8,12.1-12.3,16.6-19.4c2.1-3.3,3.8-7,5.5-10.4c2.2-4.3,4.6-8.5,6.1-13.2
		C480.7,188.3,481.8,171.6,480.2,153.8z"/>
	<polyline class="st1" points="290.1,97 353.1,54.4 336,54.4 290,83.1 	"/>
	<polyline class="st1" points="290.2,109.8 380,54.9 394.5,54.9 394.5,113 291,113 	"/>
	<rect x="295" y="62.1" class="st2" width="92.2" height="45.4"/>
	<g>
		<g>
			<polyline id="XMLID_52_" class="st3" points="88.3,232.3 229.3,232.3 259.7,220.9 259.7,195.6 229.6,206.1 89.5,205.7 			"/>
		</g>
		<g>
			<defs>
				<polyline id="SVGID_1_" points="88.3,232.3 229.3,232.3 259.7,220.9 259.7,195.6 229.6,206.1 89.5,205.7 				"/>
			</defs>
			<clipPath id="SVGID_2_">
				<use xlink:href="#SVGID_1_"  style="overflow:visible;"/>
			</clipPath>
			<polyline class="st4" points="229.6,206.1 229.6,237.3 265.1,223.9 265.5,192.8 			"/>
		</g>
	</g>
	<rect x="108.3" y="206.2" class="st2" width="97.2" height="21"/>
	<path class="st5" d="M142.8,200.2c0,0,14.6,3.5,30.8,2.7s26.1-2.7,26.1-2.7l0.2-67.7l-0.6-6.6l-3.1-6.1l-3.6-3.6l-4-1.7l-5.4-2.3
		l-8.5-1.2c0,0-4.7-0.2-5-0.2s-17.9,3-21,6.6c-3,3.6-6.4,9.3-6.4,9.3"/>
	<polyline class="st6" points="112.3,206 112.3,222.1 201.5,222.1 201.5,205.2 	"/>
	<g>
		<g>
			<polyline id="XMLID_51_" class="st5" points="89,232.2 229.5,232.2 259.7,220.9 259.7,235.8 230.2,248 90,246.9 			"/>
		</g>
		<g>
			<defs>
				<polyline id="SVGID_3_" points="89,232.2 229.5,232.2 259.7,220.9 259.7,235.8 230.2,248 90,246.9 				"/>
			</defs>
			<clipPath id="SVGID_4_">
				<use xlink:href="#SVGID_3_"  style="overflow:visible;"/>
			</clipPath>
			<polyline class="st7" points="229.9,231.1 230.3,246.7 262.4,233.8 263.4,220.5 262.3,218.2 			"/>
		</g>
		<g>
			<defs>
				<polyline id="SVGID_5_" points="89,232.2 229.5,232.2 259.7,220.9 259.7,235.8 230.2,248 90,246.9 				"/>
			</defs>
			<clipPath id="SVGID_6_">
				<use xlink:href="#SVGID_5_"  style="overflow:visible;"/>
			</clipPath>
			<polyline class="st8" points="116.8,246.3 131.6,231.3 140.8,231.3 126.2,246.3 			"/>
		</g>
		<g>
			<defs>
				<polyline id="SVGID_7_" points="89,232.2 229.5,232.2 259.7,220.9 259.7,235.8 230.2,248 90,246.9 				"/>
			</defs>
			<clipPath id="SVGID_8_">
				<use xlink:href="#SVGID_7_"  style="overflow:visible;"/>
			</clipPath>
			<polyline class="st9" points="98.9,246.3 113.7,231.3 122.9,231.3 108.2,246.3 			"/>
		</g>
		<g>
			<defs>
				<polyline id="SVGID_9_" points="89,232.2 229.5,232.2 259.7,220.9 259.7,235.8 230.2,248 90,246.9 				"/>
			</defs>
			<clipPath id="SVGID_10_">
				<use xlink:href="#SVGID_9_"  style="overflow:visible;"/>
			</clipPath>
			<polyline class="st10" points="82.8,246.3 97.6,231.3 106.8,231.3 92.1,246.3 			"/>
		</g>
		<g>
			<defs>
				<polyline id="SVGID_11_" points="89,232.2 229.5,232.2 259.7,220.9 259.7,235.8 230.2,248 90,246.9 				"/>
			</defs>
			<clipPath id="SVGID_12_">
				<use xlink:href="#SVGID_11_"  style="overflow:visible;"/>
			</clipPath>
			<polyline class="st11" points="136.9,246.3 151.7,231.3 160.9,231.3 146.2,246.3 			"/>
		</g>
		<g>
			<defs>
				<polyline id="SVGID_13_" points="89,232.2 229.5,232.2 259.7,220.9 259.7,235.8 230.2,248 90,246.9 				"/>
			</defs>
			<clipPath id="SVGID_14_">
				<use xlink:href="#SVGID_13_"  style="overflow:visible;"/>
			</clipPath>
			<polyline class="st12" points="157,246.3 171.8,231.3 181,231.3 166.4,246.3 			"/>
		</g>
		<g>
			<defs>
				<polyline id="SVGID_15_" points="89,232.2 229.5,232.2 259.7,220.9 259.7,235.8 230.2,248 90,246.9 				"/>
			</defs>
			<clipPath id="SVGID_16_">
				<use xlink:href="#SVGID_15_"  style="overflow:visible;"/>
			</clipPath>
			<polyline class="st13" points="177.2,246.3 192,231.3 201.2,231.3 186.5,246.3 			"/>
		</g>
		<g>
			<defs>
				<polyline id="SVGID_17_" points="89,232.2 229.5,232.2 259.7,220.9 259.7,235.8 230.2,248 90,246.9 				"/>
			</defs>
			<clipPath id="SVGID_18_">
				<use xlink:href="#SVGID_17_"  style="overflow:visible;"/>
			</clipPath>
			<polyline class="st14" points="197.3,246.3 212.1,231.3 221.3,231.3 206.7,246.3 			"/>
		</g>
		<g>
			<defs>
				<polyline id="SVGID_19_" points="89,232.2 229.5,232.2 259.7,220.9 259.7,235.8 230.2,248 90,246.9 				"/>
			</defs>
			<clipPath id="SVGID_20_">
				<use xlink:href="#SVGID_19_"  style="overflow:visible;"/>
			</clipPath>
			<polyline class="st15" points="232,246.7 239.2,226.9 246.4,223.7 238.4,244.5 			"/>
		</g>
		<g>
			<defs>
				<polyline id="SVGID_21_" points="89,232.2 229.5,232.2 259.7,220.9 259.7,235.8 230.2,248 90,246.9 				"/>
			</defs>
			<clipPath id="SVGID_22_">
				<use xlink:href="#SVGID_21_"  style="overflow:visible;"/>
			</clipPath>
			<polyline class="st16" points="246.4,241.9 253.5,222.1 260.8,218.9 252.7,239.7 			"/>
		</g>
		<g>
			<defs>
				<polyline id="SVGID_23_" points="89,232.2 229.5,232.2 259.7,220.9 259.7,235.8 230.2,248 90,246.9 				"/>
			</defs>
			<clipPath id="SVGID_24_">
				<use xlink:href="#SVGID_23_"  style="overflow:visible;"/>
			</clipPath>
			<polyline class="st17" points="229.2,234.1 216.6,246.8 226,246.8 230,243.1 			"/>
		</g>
		<g>
			<defs>
				<polyline id="SVGID_25_" points="89,232.2 229.5,232.2 259.7,220.9 259.7,235.8 230.2,248 90,246.9 				"/>
			</defs>
			<clipPath id="SVGID_26_">
				<use xlink:href="#SVGID_25_"  style="overflow:visible;"/>
			</clipPath>
			<path class="st18" d="M230.3,206.2"/>
		</g>
	</g>
	<path class="st1" d="M115.2,205.7l50.2-2.3c0,0-20.3-1-22-2.4s-1-4.7-1-4.7l-0.7-1.9l-20.6,0.3l-28.7,10.1"/>
	<polyline class="st1" points="210.1,204.8 243.8,195.2 251,194.9 220.6,205.5 	"/>
	<polyline class="st19" points="90,223.9 107.4,206.3 99,206.3 89.1,215.2 	"/>
	<polyline class="st19" points="106.2,207 106.2,228.7 208.2,228.7 208.2,206.5 206.5,206.5 206.5,226.2 109.5,226.2 109.5,206.3 	
		"/>
	<polyline class="st19" points="230.1,208.5 259.8,197.8 260.1,194.9 229.1,206 	"/>
	<polyline class="st19" points="246.2,201.8 246.2,221.5 245.6,222.1 245.6,201.6 	"/>
	<path class="st20" d="M153.3,114.9c0,0,12.9-4,20,1.7v86.1c0,0,22.3,1.3,26.6-2.1v-70.3c0,0,2.2-21.2-34.3-18.8"/>
	<path class="st19" d="M144.8,200.5v-72.1c0,0,1.7-17.8,35.4-15.8l-4.5-1.3l-16.4,1.3l-6.3,2l-5.9,5.1l-3.4,5.4l-1.4,4.1v71.1"/>
	<g>
		<g>
			<polyline id="XMLID_53_" class="st21" points="289.5,113 394.1,113 394.1,247.2 290,247.2 290,116.8 			"/>
		</g>
		<g>
			<defs>
				<polyline id="SVGID_27_" points="289.5,113 394.1,113 394.1,247.2 290,247.2 290,116.8 				"/>
			</defs>
			<clipPath id="SVGID_28_">
				<use xlink:href="#SVGID_27_"  style="overflow:visible;"/>
			</clipPath>
			<polyline class="st22" points="304.3,247.1 368.6,211.1 368.6,253.4 			"/>
		</g>
		<g>
			<defs>
				<polyline id="SVGID_29_" points="289.5,113 394.1,113 394.1,247.2 290,247.2 290,116.8 				"/>
			</defs>
			<clipPath id="SVGID_30_">
				<use xlink:href="#SVGID_29_"  style="overflow:visible;"/>
			</clipPath>
			<polyline class="st23" points="290.7,221.4 368.4,182.5 368.4,161.5 290.3,200.5 			"/>
		</g>
		<g>
			<defs>
				<polyline id="SVGID_31_" points="289.5,113 394.1,113 394.1,247.2 290,247.2 290,116.8 				"/>
			</defs>
			<clipPath id="SVGID_32_">
				<use xlink:href="#SVGID_31_"  style="overflow:visible;"/>
			</clipPath>
			<polyline class="st24" points="290.3,182.6 394.5,126.2 394.5,114.1 290.1,172.5 			"/>
		</g>
		<g>
			<defs>
				<polyline id="SVGID_33_" points="289.5,113 394.1,113 394.1,247.2 290,247.2 290,116.8 				"/>
			</defs>
			<clipPath id="SVGID_34_">
				<use xlink:href="#SVGID_33_"  style="overflow:visible;"/>
			</clipPath>
			<polyline class="st25" points="289.6,150.8 362,113.5 291.2,113.5 			"/>
		</g>
		<g>
			<defs>
				<polyline id="SVGID_35_" points="289.5,113 394.1,113 394.1,247.2 290,247.2 290,116.8 				"/>
			</defs>
			<clipPath id="SVGID_36_">
				<use xlink:href="#SVGID_35_"  style="overflow:visible;"/>
			</clipPath>
			<polyline class="st26" points="294,113.4 294,247.3 280.7,247.3 280.7,115.1 			"/>
		</g>
		<g>
			<defs>
				<polyline id="SVGID_37_" points="289.5,113 394.1,113 394.1,247.2 290,247.2 290,116.8 				"/>
			</defs>
			<clipPath id="SVGID_38_">
				<use xlink:href="#SVGID_37_"  style="overflow:visible;"/>
			</clipPath>
			<circle class="st27" cx="321.5" cy="218.8" r="25.6"/>
		</g>
		<g>
			<defs>
				<polyline id="SVGID_39_" points="289.5,113 394.1,113 394.1,247.2 290,247.2 290,116.8 				"/>
			</defs>
			<clipPath id="SVGID_40_">
				<use xlink:href="#SVGID_39_"  style="overflow:visible;"/>
			</clipPath>
			<polyline class="st28" points="293.2,115.1 394.8,115.1 395.9,114.1 395.9,111.7 271.7,111.7 			"/>
		</g>
	</g>
	<polyline class="st19" points="368.6,136.2 368.6,248 393.9,248 393.9,137 	"/>
	<polyline class="st19" points="296.3,117.4 296.3,176.4 322.3,176.4 322.3,117.6 	"/>
	<circle class="st2" cx="320.2" cy="219.5" r="24.3"/>
	<circle class="st19" cx="321.2" cy="219.5" r="18.9"/>
	<polyline class="st2" points="394.6,54.5 394.6,247.8 420.7,231.7 420,158 407.2,143.1 407.6,47.2 	"/>
	<polyline class="st21" points="393.9,248 393.9,236.6 420.9,224 420.9,231.7 	"/>
	<rect x="299.1" y="65.9" class="st6" width="84.2" height="38.1"/>
	<rect x="371.5" y="138.9" class="st2" width="19.1" height="11.9"/>
	<circle class="st2" cx="309" cy="164.5" r="8.9"/>
	<polyline class="st1" points="368.7,234.4 393.7,215 393.7,248.7 368.3,248.7 	"/>
	<polyline class="st1" points="368.6,213.1 393.9,194.1 393.9,171.9 368.6,192.3 	"/>
	<polyline class="st1" points="296.1,138.1 322.4,138.1 322.4,117.6 297.1,117.6 	"/>
	<polyline class="st1" points="296.5,153.1 322.2,141.8 322.2,149.3 296.5,159.6 	"/>
	<polyline class="st1" points="296.3,145.8 316.6,138.1 296.4,138.1 	"/>
	<polyline class="st1" points="295.1,175.7 303.7,172.4 307.5,173.7 311,173.7 314,172.3 316.3,170.8 317.8,167.9 318.6,166.2 
		318.6,165.2 322.2,162.6 322.2,175.8 	"/>
	<polyline class="st29" points="300.8,169.2 317.1,159.8 318.2,162.4 318.2,164.5 317.7,166.7 317.6,168.4 316,170.5 314.1,171.9 
		311.9,173.2 307.8,173.7 305.5,172.9 304,172.3 	"/>
	<polyline class="st29" points="371.5,150.8 390.4,139.1 390.4,150.8 	"/>
	<polyline class="st19" points="372.6,150.9 372.6,140.1 390.2,140.1 390.2,139.1 371.3,139.1 371.3,150.8 	"/>
	<path class="st19" d="M300.7,168.6c0,0-1.7-15.5,14.2-11.2l-2.1-1.1l-2.5-1l-1.7-0.1l-3.8,0.8l-2.2,1.5l-1.4,2.1l-1.4,3.1l0.1,3.9"
		/>
	<polyline class="st1" points="307.5,232.4 339.9,216.6 340.5,220 339.5,223.6 338.5,228.4 336.8,231.4 333.3,235.3 330,237 
		326.4,238.2 321.8,239.2 314.7,238.7 	"/>
	<polyline class="st1" points="302.9,222.8 335.2,206.6 330.7,203.2 303,218.4 	"/>
	<polyline class="st30" points="149.3,222.2 182.8,205.5 199.4,205.9 174.3,222.5 	"/>
	<polyline class="st30" points="115.6,222.4 139.7,206.1 119.7,206.1 112.4,210.9 112.4,221.6 	"/>
	<polyline class="st19" points="112.6,207.7 201.7,207.7 201.7,205.3 112.9,205.3 	"/>
	<polyline class="st19" points="98.1,205.4 124.4,195.2 119.6,194.6 94.5,204.5 	"/>
	<polyline class="st1" points="420,38.3 420,157.2 407.1,144.2 407.1,46.8 	"/>
	<polyline class="st1" points="303.4,53.8 418.1,38.8 317.1,38.8 293.8,52.8 	"/>
	<polyline class="st29" points="394.7,234.6 420.9,202.6 420.9,222.5 395.6,235.2 	"/>
	<polyline class="st29" points="394.4,216.4 420.1,182.4 420.1,174.4 394.1,207.2 	"/>
	<polyline class="st29" points="394.1,86.9 407.5,64.2 407.5,47 394.6,54.2 	"/>
	<polyline class="st2" points="296,137.6 322.4,117.6 322.4,137.7 297.3,137.7 	"/>
	<polyline class="st2" points="296.6,123.1 320.3,123.1 320.3,122 297.1,122 	"/>
	<rect x="296.7" y="125.4" class="st2" width="25.3" height="0.6"/>
	<rect x="296.9" y="128.7" class="st2" width="24.9" height="0.7"/>
	<rect x="296.7" y="131.9" class="st2" width="25.9" height="0.5"/>
	<rect x="296.5" y="134.9" class="st2" width="25.5" height="0.7"/>
	<rect x="297" y="118.2" class="st2" width="24.9" height="0.6"/>
	<polyline class="st19" points="397.1,53.7 397.1,235.2 394.2,236.4 394.2,54.3 	"/>
	<polyline class="st20" points="414.6,226.4 401.2,243.9 420.6,231.9 420.2,224.9 	"/>
	<polyline class="st30" points="308,104.2 375.3,65.3 383.5,65.3 383.5,104.8 314.7,104.8 	"/>
	<polyline class="st30" points="298.9,81.5 321.6,66 299.1,66 	"/>
	<polyline class="st19" points="300.9,65.7 300.9,104 299.1,104 299.1,65.4 	"/>
	<polyline class="st19" points="300.3,67.2 383.6,67.2 383.6,65.2 300.6,65.2 	"/>
	<polyline class="st19" points="417.2,40.3 417.2,154.7 421,158.6 421,38.5 	"/>
	<polyline class="st19" points="396,246.6 396,237.2 420.3,225.5 420.5,224.3 394.6,236.3 394.4,247.5 	"/>
	
		<ellipse transform="matrix(0.7945 -0.6073 0.6073 0.7945 -36.0373 140.1299)" class="st19" cx="189" cy="123.3" rx="3.3" ry="5.4"/>
	<g>
		<g>
			<path class="st31" d="M186.8,201.7c-0.3,0-0.5-0.2-0.5-0.5v-58.8c0-0.3,0.2-0.5,0.5-0.5s0.5,0.2,0.5,0.5v58.8
				C187.3,201.5,187.1,201.7,186.8,201.7z"/>
		</g>
		<g>
			<path class="st31" d="M156.9,201.7c-0.3,0-0.5-0.2-0.5-0.5v-58.8c0-0.3,0.2-0.5,0.5-0.5s0.5,0.2,0.5,0.5v58.8
				C157.4,201.5,157.2,201.7,156.9,201.7z"/>
		</g>
		<g>
			<g>
				<path class="st31" d="M187.3,142.4l-5.4-6.1l-5,5.7l-5-5.7l-5,5.7l-5-5.7l-5,5.7l-0.1-0.1c-0.1,0.3-0.3,0.6-0.4,0.9l-0.1,0.1
					l0.6,0.6l5-5.7l5,5.7l5-5.7l5,5.7l5-5.7l4.6,5.2c0.2,0.2,0.5,0.2,0.7,0.1C187.5,142.9,187.5,142.6,187.3,142.4z"/>
			</g>
		</g>
		<g>
			<path class="st31" d="M229.8,248.1H89.2c-0.6,0-1.1-0.5-1.1-1.1v-41.2c0-0.6,0.5-1.1,1.1-1.1h140.6c0.6,0,1.1,0.5,1.1,1.1V247
				C230.9,247.6,230.4,248.1,229.8,248.1z M90.3,245.9h138.5v-39.1H90.3V245.9z"/>
		</g>
		<g>
			<path class="st32" d="M119.7,235.7"/>
		</g>
		<g>
			<g>
				<path class="st31" d="M143.1,193.4h-23.3c-0.6,0-1.1,0.5-1.1,1.1s0.5,1.1,1.1,1.1h23.7C143.2,194.9,143.1,194.2,143.1,193.4z"/>
			</g>
			<g>
				<path class="st31" d="M260.4,193.4H200c-0.1,0.7-0.2,1.5-0.4,2.1h59.7v40.1c0,0.6,0.5,1.1,1.1,1.1s1.1-0.5,1.1-1.1v-41.2
					C261.4,193.9,261,193.4,260.4,193.4z"/>
			</g>
		</g>
		<g>
			<path class="st31" d="M229.8,206.9c-0.4,0-0.8-0.3-1-0.7c-0.2-0.6,0.1-1.2,0.6-1.4l30.6-11.3c0.6-0.2,1.2,0.1,1.4,0.6
				c0.2,0.6-0.1,1.2-0.6,1.4l-30.6,11.3C230.1,206.9,229.9,206.9,229.8,206.9z"/>
		</g>
		<g>
			<path class="st31" d="M229.8,248.1c-0.4,0-0.8-0.3-1-0.7c-0.2-0.6,0.1-1.2,0.6-1.4l30.6-11.3c0.6-0.2,1.2,0.1,1.4,0.6
				c0.2,0.6-0.1,1.2-0.6,1.4L230.2,248C230.1,248.1,229.9,248.1,229.8,248.1z"/>
		</g>
		<g>
			<path class="st31" d="M89.2,206.9c-0.4,0-0.8-0.3-1-0.7c-0.2-0.6,0.1-1.2,0.6-1.4l30.6-11.3c0.6-0.2,1.2,0.1,1.4,0.6
				c0.2,0.6-0.1,1.2-0.6,1.4l-30.6,11.3C89.4,206.9,89.3,206.9,89.2,206.9z"/>
		</g>
		<g>
			<path class="st31" d="M205.8,228h-97.3c-0.6,0-1.1-0.5-1.1-1.1v-20.6c0-0.6,0.5-1.1,1.1-1.1s1.1,0.5,1.1,1.1v19.6h95.2v-19.7
				c0-0.6,0.5-1.1,1.1-1.1s1.1,0.5,1.1,1.1V227C206.9,227.5,206.4,228,205.8,228z"/>
		</g>
		<g>
			<path class="st31" d="M171.6,203.7c-7.7,0-15-0.3-20.4-0.7c-8.7-0.7-9.4-1.6-9.4-2.8s0.7-2.1,9.4-2.8c5.5-0.5,12.7-0.7,20.4-0.7
				s15,0.3,20.4,0.7c8.7,0.7,9.4,1.6,9.4,2.8s-0.7,2.1-9.4,2.8C186.5,203.5,179.3,203.7,171.6,203.7z M145.8,200.2
				c4,0.7,13.1,1.4,25.8,1.4s21.8-0.7,25.8-1.4c-4-0.7-13.1-1.4-25.8-1.4C158.8,198.8,149.8,199.5,145.8,200.2z M199.5,200.8
				L199.5,200.8L199.5,200.8z"/>
		</g>
		<g>
			<path class="st31" d="M200.2,201.1c-0.6,0-1.1-0.5-1.1-1.1v-69.8c0-0.7-0.4-18.2-26.7-18.2c-10.9,0-18.9,2.5-23.8,7.5
				c-4.9,4.9-4.8,10.6-4.8,10.6V200c0,0.6-0.5,1.1-1.1,1.1s-1.1-0.5-1.1-1.1v-69.8c0-0.3,0-6.6,5.5-12.2c5.3-5.4,13.9-8.2,25.4-8.2
				c28.5,0,28.8,20.1,28.8,20.3V200C201.3,200.6,200.8,201.1,200.2,201.1z"/>
		</g>
		<g>
			<path class="st31" d="M171.4,112.1c-0.5,0-0.9-0.3-0.9-0.6V74.2c0-0.3,0.4-0.6,0.9-0.6s0.9,0.3,0.9,0.6v37.3
				C172.3,111.8,171.9,112.1,171.4,112.1z"/>
		</g>
		<g>
			<circle class="st33" cx="171.9" cy="74.6" r="6"/>
		</g>
		<g>
			<path class="st31" d="M356,47.1c-0.5,0-0.9-0.3-0.9-0.6V9.2c0-0.3,0.4-0.6,0.9-0.6s0.9,0.3,0.9,0.6v37.3
				C356.9,46.8,356.5,47.1,356,47.1z"/>
		</g>
		<rect x="290.3" y="54.2" class="st34" width="103.8" height="194"/>
		<path class="st34" d="M316.9,231.9"/>
		<polyline class="st34" points="316.9,37.9 420.7,37.9 420.7,231.9 		"/>
		<line class="st34" x1="393.4" y1="54.8" x2="420.7" y2="37.9"/>
		<line class="st34" x1="290.3" y1="54.2" x2="316.9" y2="37.9"/>
		<line class="st34" x1="394.1" y1="248.2" x2="420.7" y2="231.9"/>
		<polyline class="st34" points="89.3,240.1 57.9,240.1 4.8,265.3 317.2,265.3 362.3,248.2 		"/>
		<rect x="295.1" y="62.5" class="st34" width="92" height="44.7"/>
		<rect x="298.7" y="65.4" class="st35" width="84.8" height="38.8"/>
		<circle class="st34" cx="321.4" cy="219.9" r="24.1"/>
		<circle class="st36" cx="321.4" cy="219.9" r="19.2"/>
		<polyline class="st36" points="368.6,247.5 368.6,136 394.1,136 		"/>
		<path class="st36" d="M296.3,117.6h26V176h-26.6C295.7,176,296.5,117.9,296.3,117.6z"/>
		<path class="st36" d="M368.8,172.5"/>
		<polyline class="st35" points="407.4,46.2 407.4,143.8 420,157.8 		"/>
		<line class="st35" x1="394.1" y1="236.3" x2="420.2" y2="223.8"/>
		<g>
			<path class="st31" d="M311.7,79.8H308v13.4h-3.2V79.8h-3.7v-3.2h6.8h3.7v3.2H311.7z"/>
			<path class="st31" d="M316.3,79.8v3.5h5.2v3.2h-5.2V90h7.3v3.2h-10.5v-6.7v-6.7v-3.2h10.5v3.2H316.3z"/>
			<path class="st31" d="M328.3,79.8v3.5h7.3V90v3.2h-10.5V90h7.3v-3.5h-7.3v-9.9h10.5v3.2C335.6,79.8,328.3,79.8,328.3,79.8z"/>
			<path class="st31" d="M347.6,79.8h-3.7v13.4h-3.2V79.8H337v-3.2h6.8h3.7v3.2H347.6z"/>
			<path class="st31" d="M353,93.2h-3.2V76.6h3.2V93.2z"/>
			<path class="st31" d="M365.7,93.2h-3.2V79.8h-4.1v13.4h-3.2V76.6h7.3h3.2L365.7,93.2L365.7,93.2z"/>
			<path class="st31" d="M374.5,90v-3.5h-2.1v-3.2h5.3v3.2v6.7h-7.3h-3.2V79.8v-3.2h10.5v3.2h-7.3V90H374.5z"/>
		</g>
		<polyline class="st37" points="112.2,206.4 112.2,222.5 201.9,222.5 201.9,206.2 		"/>
		<polyline class="st37" points="235.2,244.9 235.2,226.2 254,218.7 254,237.1 		"/>
		<line class="st37" x1="245.2" y1="222.1" x2="245.2" y2="200.4"/>
		<line class="st37" x1="296.1" y1="137.7" x2="321.8" y2="137.7"/>
		<path class="st37" d="M299.9,117.9"/>
		<line class="st37" x1="300" y1="117.9" x2="300" y2="137.5"/>
		<line class="st37" x1="304.4" y1="117.9" x2="304.4" y2="137.5"/>
		<line class="st37" x1="308.8" y1="117.9" x2="308.8" y2="137.5"/>
		<line class="st37" x1="313.1" y1="117.9" x2="313.1" y2="137.5"/>
		<line class="st37" x1="317.5" y1="117.9" x2="317.5" y2="137.5"/>
		<line class="st37" x1="296.1" y1="122" x2="322.5" y2="122"/>
		<line class="st37" x1="296.1" y1="125.2" x2="322.5" y2="125.2"/>
		<line class="st37" x1="296.1" y1="128.4" x2="322.5" y2="128.4"/>
		<line class="st37" x1="296.1" y1="131.6" x2="322.5" y2="131.6"/>
		<line class="st37" x1="296.1" y1="134.8" x2="322.5" y2="134.8"/>
		<circle class="st37" cx="309" cy="164.5" r="9.3"/>
		<line class="st37" x1="309" y1="155.1" x2="309" y2="137.9"/>
		<path class="st37" d="M371.5,138.8v12.4h18.9V139C390.4,139,371.5,139,371.5,138.8z"/>
		<circle class="st37" cx="374.4" cy="156.7" r="2.2"/>
		<circle class="st37" cx="381" cy="156.7" r="2.2"/>
		<circle class="st37" cx="387.5" cy="156.7" r="2.2"/>
		<line class="st37" x1="290.7" y1="113.3" x2="393.2" y2="113.3"/>
	</g>
	<circle class="st31" cx="93.2" cy="210.4" r="1.3"/>
	<circle class="st31" cx="93.2" cy="213.8" r="1.3"/>
	<circle class="st31" cx="93.2" cy="217.2" r="1.3"/>
	<circle class="st31" cx="224.6" cy="210.4" r="1.3"/>
	<circle class="st31" cx="224.6" cy="213.8" r="1.3"/>
	<circle class="st31" cx="224.6" cy="217.2" r="1.3"/>
	<circle class="st38" cx="271.4" cy="169.2" r="4.5"/>
	<circle class="st38" cx="436.4" cy="74.5" r="4.5"/>
	<circle class="st39" cx="235.2" cy="64.7" r="4.5"/>
	<g>
		<line class="st40" x1="244.5" y1="146.1" x2="244.5" y2="167.1"/>
		<line class="st40" x1="255" y1="156.6" x2="234" y2="156.6"/>
	</g>
	<circle class="st39" cx="98.5" cy="183.9" r="4.5"/>
	<g>
		<line class="st38" x1="125.5" y1="160.8" x2="125.5" y2="181.8"/>
		<line class="st38" x1="115" y1="171.3" x2="135.9" y2="171.3"/>
	</g>
	<g>
		<line class="st38" x1="253.3" y1="65.8" x2="253.3" y2="86.8"/>
		<line class="st38" x1="242.8" y1="76.3" x2="263.7" y2="76.3"/>
	</g>
	<circle class="st38" cx="414.4" cy="21.9" r="4.5"/>
	<g>
		<line class="st40" x1="437.6" y1="20.5" x2="437.6" y2="41.5"/>
		<line class="st40" x1="427.1" y1="31" x2="448.1" y2="31"/>
	</g>
	<path class="st20" d="M159.5,113.3"/>
	<path class="st30" d="M152.4,222.1"/>
	<g>
		<circle class="st33" cx="356.4" cy="9.6" r="6"/>
	</g>
	<path class="st30" d="M318.6,104.1"/>
</g>
</svg>
