<?xml version="1.0" encoding="utf-8"?>
<!-- Generator: Adobe Illustrator 23.0.3, SVG Export Plug-In . SVG Version: 6.00 Build 0)  -->
<svg version="1.1" id="Layer_2" xmlns="http://www.w3.org/2000/svg" xmlns:xlink="http://www.w3.org/1999/xlink" x="0px" y="0px"
	 viewBox="0 0 510.8 362.6" style="enable-background:new 0 0 510.8 362.6;" xml:space="preserve">
<style type="text/css">
	.st0{fill:none;stroke:#163460;stroke-width:2;stroke-linecap:round;stroke-miterlimit:10;}
	.st1{clip-path:url(#XMLID_2_);fill:#FFFFFF;}
	.st2{clip-path:url(#XMLID_2_);fill:#49B7FA;}
	.st3{clip-path:url(#XMLID_3_);fill:#40A8A0;}
	.st4{clip-path:url(#XMLID_4_);fill:#F79014;}
	.st5{clip-path:url(#XMLID_4_);fill:#FFFFFF;}
	.st6{fill:#163460;}
	.st7{fill:#F8767F;}
	.st8{fill:#F8B012;}
	.st9{fill:#73DFD9;}
	.st10{fill:#2069A7;}
	.st11{clip-path:url(#XMLID_5_);fill:#2069A7;}
	.st12{fill:#CCE8FE;}
	.st13{fill:#F79014;}
	.st14{fill:#F4AE0E;}
	.st15{fill:#FFFFFF;}
	.st16{fill:#49B7FA;}
	.st17{fill:#FF2C4B;}
	.st18{fill:none;stroke:#163460;stroke-width:2;stroke-linecap:round;stroke-linejoin:round;stroke-miterlimit:10;}
	.st19{fill:none;stroke:#163460;stroke-width:1.8168;stroke-linecap:round;stroke-linejoin:round;stroke-miterlimit:10;}
	.st20{fill:none;stroke:#163460;stroke-width:1.5369;stroke-linecap:round;stroke-linejoin:round;stroke-miterlimit:10;}
	.st21{fill:none;stroke:#49B7FA;stroke-width:3;stroke-linejoin:round;stroke-miterlimit:10;}
	.st22{fill:none;stroke:#F55C76;stroke-width:4.2857;stroke-linecap:round;stroke-linejoin:round;stroke-miterlimit:10;}
	.st23{fill:none;stroke:#49B7FA;stroke-width:3.3333;stroke-linecap:round;stroke-linejoin:round;stroke-miterlimit:10;}
</style>
<path class="st0" d="M113.4-1.7"/>
<g>
	<g>
		<defs>
			<path id="XMLID_42_" d="M101.2,266.7l319.6-0.1c0,0,28.5,0.3,30.3-4.5c1.8-4.8,2.8-7.8,2.8-7.8l-0.2-12.1l-0.2-209L90.7,33
				l0.2,222.6C90.9,255.6,92.6,265.3,101.2,266.7z"/>
		</defs>
		<use xlink:href="#XMLID_42_"  style="overflow:visible;fill:#CCE8FE;"/>
		<clipPath id="XMLID_2_">
			<use xlink:href="#XMLID_42_"  style="overflow:visible;"/>
		</clipPath>
		<polyline class="st1" points="29.6,132.8 287.9,12.2 346.2,12.5 50.9,145.3 		"/>
		<path class="st2" d="M89.4,116.4h47c5.6,0,10.1-4.5,10.1-10.1V75.1c0-5.6-4.5-10.1-10.1-10.1h-56"/>
		<path class="st2" d="M243.1,243.9H90.7c-6.6,0-12-5.4-12-12v-90.4c0-6.6,5.4-12,12-12h152.4c6.6,0,12,5.4,12,12v90.4
			C255.1,238.5,249.7,243.9,243.1,243.9z"/>
		<polyline class="st1" points="477.2,85.5 294.4,268.3 459.5,268.3 489.1,268.3 		"/>
	</g>
	<g>
		<defs>
			<path id="XMLID_41_" d="M354.7,247.1h-78.6c-6.6,0-12-5.4-12-12V68.7c0-6.6,5.4-12,12-12h78.6c6.6,0,12,5.4,12,12v166.3
				C366.7,241.7,361.3,247.1,354.7,247.1z"/>
		</defs>
		<use xlink:href="#XMLID_41_"  style="overflow:visible;fill:#65DFD9;"/>
		<clipPath id="XMLID_3_">
			<use xlink:href="#XMLID_41_"  style="overflow:visible;"/>
		</clipPath>
		<polyline class="st3" points="265.1,229.2 367.5,85.2 394.8,88.4 368.9,258.6 275.6,255.1 256.7,249.8 		"/>
		<polyline class="st3" points="262.3,166.7 359.5,50.6 344.8,49.2 259.9,145.7 		"/>
	</g>
	<g>
		<defs>
			<ellipse id="XMLID_50_" cx="386" cy="177.6" rx="83.1" ry="82.4"/>
		</defs>
		<use xlink:href="#XMLID_50_"  style="overflow:visible;fill:#F4AE0E;"/>
		<clipPath id="XMLID_4_">
			<use xlink:href="#XMLID_50_"  style="overflow:visible;"/>
		</clipPath>
		<path class="st4" d="M454.2,99.9"/>
		<path class="st4" d="M475.5,106.9c-0.7,1.4-180.3,112.9-180.3,112.9l-4.9-37.7L471,81"/>
		<polyline class="st4" points="494.4,158.6 337.5,262.4 345.2,273.6 502.8,190.4 		"/>
		<path class="st5" d="M303.6,189c0,0-3.1-90.3,89-94l-8.2-8.6l-27.1,3l-46.7,21.5l-13.1,14.2c0,0-12.1,24.6-12.1,25.3"/>
	</g>
	<polyline class="st6" points="91.1,33.5 453.5,33.3 452.9,18.9 453.1,15.2 451.4,12.2 447.9,7.8 442.8,7 102.1,6.6 95.2,9.3 
		93.4,11.7 91.6,14 	"/>
	<circle class="st7" cx="110.6" cy="21.6" r="5.6"/>
	<circle class="st8" cx="125.9" cy="21.6" r="5.6"/>
	<circle class="st9" cx="141.1" cy="21.6" r="5.6"/>
	<path class="st10" d="M427.9,25.1h-30.8c-2.4,0-4.3-1.9-4.3-4.3v0c0-2.4,1.9-4.3,4.3-4.3h30.8c2.4,0,4.3,1.9,4.3,4.3v0
		C432.2,23.2,430.3,25.1,427.9,25.1z"/>
	<g>
		<defs>
			<path id="XMLID_35_" d="M131.7,111.3H40.2c-6.6,0-12-5.4-12-12V69.7c0-6.6,5.4-12,12-12h91.6c6.6,0,12,5.4,12,12v29.6
				C143.7,105.9,138.3,111.3,131.7,111.3z"/>
		</defs>
		<use xlink:href="#XMLID_35_"  style="overflow:visible;fill:#49B7FA;"/>
		<clipPath id="XMLID_5_">
			<use xlink:href="#XMLID_35_"  style="overflow:visible;"/>
		</clipPath>
		<path class="st11" d="M24.9,109.2l121.2-56.6l10.7,53.8l-10,16.1c0,0-100.7,2.8-102.8,3.3"/>
	</g>
	<ellipse class="st12" cx="388" cy="179" rx="69.4" ry="68.1"/>
	<path class="st13" d="M320.5,230.2l12.7,15.8l7.7,7.1l11.1,6.9l26.3,8.3l18.4,0.8l21.1-3.4l4.8-1.8l-1.9-4.3c0,0,3.8-6.4,5.2-6.7
		c1.5-0.3,9.5-4.8,12.9-3.6s2.7,2.9,2.7,2.9l2.7-1c0,0,21.3-22.7,24.1-33.6l4.5-14.6l1.3-8.3l0.4-7.9l-0.4-9.7l-1.7-8.5l-3.3-10.8
		l-1.6-2.4l0.5,8.5l1,7.9l0.3,6l-0.3,9l-1,8l-4.9,14.2l-2.7,5.3l-4.2,7.3l-2.8,4.5l-4.7,5l-5.9,6.4l-6.2,5.7l-17,9.6l-10.8,3.8
		l-11.7,3l-14.3,0.8l-16.5-2.4l-18.3-7.1c0,0-22.5-14.6-27.2-21.7"/>
	<path class="st14" d="M421.2,260.5l48.5,91.7c0,0,1.5,2.8,2.9,2.9c1.4,0.1,8-1.7,8-1.7l5.9-4.1l2.6-3.4l1.4-2.9l-49.9-91.8
		c0,0-3.2-3.2-4.1-2.8c-0.9,0.4-8.5,3.4-8.5,3.4l-4.4,3l-2,3.1"/>
	<path class="st7" d="M238.2,236H69.8c-6.6,0-12-5.4-12-12v-91.6c0-6.6,5.4-12,12-12h168.5c6.6,0,12,5.4,12,12V224
		C250.2,230.6,244.8,236,238.2,236z"/>
	<rect x="137.2" y="33.7" class="st15" width="316.2" height="11.9"/>
	<path class="st16" d="M359.3,242l97-66.8v10.7l-2.3,8.4l-68,53C386.1,247.2,366.8,245.7,359.3,242z"/>
	<polyline class="st16" points="318.3,185.4 423.3,120.4 434.3,127.9 321.8,204.1 	"/>
	<path class="st16" d="M325.7,150.2l76.1-37.5c0,0-15.1-3.8-19.1-2c-4,1.9-9.1,1.6-9.1,1.6l-9.7,3.3l-12.2,5.6l-7.9,5.8l-5.6,4.9
		l-6.4,7"/>
	<path class="st15" d="M410.4,115.5c0,0-44-13.5-77.2,29.7s2.3,91.2,34.4,98.9l-2.1,0.1l-19-8.7l-7.2-6.1l-11-11.7l-4.8-9.1l-3.1-7
		c0,0-3-18.9-2.1-20.2c0.9-1.2,0.2-9.2,0.2-9.2l3.5-13.6l6.1-12.9l5.2-8.3l9.3-9.4l13.6-9.3c0,0,18.5-10.6,42.6-7.3"/>
	<path class="st13" d="M425.4,253.9l50.1,91.1c0,0-7.6,4.9-5.6,8.2L420.8,261C420.8,261,420.6,253.4,425.4,253.9z"/>
	<path class="st13" d="M427,259.8c0,0,6.9-6.6,16.6-3.8l-3.8-6.7c0,0-8.7-1.9-15.3,6"/>
	<path class="st17" d="M58,230.9l189.4-104.4l2.1,4.9l0.1,91.6c0,0-0.8,9.6-3.2,10.4c-2.4,0.8-4.6,2.6-4.6,2.6l-2.8,0.7L63.3,236"/>
	<g>
		<path class="st15" d="M122.4,220.9h-15.3v-32.2H87.2v32.2H71.8v-47.5v-32.2h35.2h15.3V220.9z M107.1,173.4v-16.8H87.2v16.8H107.1z
			"/>
		<path class="st15" d="M179.9,152.2v58l-10.9,10.8h-24.3h-15.3v-64.3v-15.3h39.7L179.9,152.2z M164.6,156.6h-19.9v49h19.9V156.6z"
			/>
		<path class="st15" d="M202.3,156.6v16.8h35.2v32.2v15.3H187v-15.3h35.2v-16.8H187v-47.5h50.5v15.3H202.3z"/>
	</g>
	<path class="st15" d="M421.8,257l47.5,90.6c0,0,6.9-10.1,17.7-8.3l1.9,2.7c0,0-11.9-3-19.4,9.3l-47.5-87.8l-1.7-3.7"/>
	<path class="st15" d="M459.9,215.9c0,0,11.1-15.7,11.8-36c0,0,3.1,11.2,0.9,20.2c1.8-0.1,2.3-38-4.2-44.2l-1,1.9v3.3l1.7,6.9
		l0.3,5.5l-0.2,4l0,3.7l-0.1,2.2v3.4l-0.5,2.9"/>
	<g>
		<g>
			<path class="st6" d="M423.4,265.6h-7.6c-1,0.6-2,1-3,1.4c-0.1,0-0.2,0.1-0.3,0.1c-0.3,0.2-0.6,0.3-0.9,0.5h12.2
				C423.5,267,423.4,266.3,423.4,265.6z"/>
			<path class="st6" d="M452.5,240.9v13.7c0,3.9-2.1,7.4-5.2,9.3c0.4,0.6,0.6,1.2,0.8,1.9c3.8-2.3,6.4-6.4,6.4-11.2v-15.5
				C453.9,239.8,453.2,240.4,452.5,240.9z"/>
			<path class="st6" d="M91.7,121.2v-9.6c-0.7,0-1.3,0-2,0v9.7C90.4,121.2,91.1,121.1,91.7,121.2z"/>
			<path class="st6" d="M368,265.6H102.7c-6.1,0-11-4.9-11-11v-18.4c-0.7,0.1-1.3,0-2-0.1v18.5c0,7.2,5.8,13,13,13h268.9
				C370.3,267.1,369.1,266.4,368,265.6z"/>
			<path class="st6" d="M441.5,5.6H102.7c-7.2,0-13,5.8-13,13v38.3c0.6-0.2,1.3-0.2,2-0.2V18.6c0-6.1,4.9-11,11-11h338.8
				c6.1,0,11,4.9,11,11v108c0.7,0.6,1.4,1.3,2,2V18.6C454.5,11.4,448.7,5.6,441.5,5.6z"/>
		</g>
		<line class="st18" x1="91.1" y1="33.3" x2="453.5" y2="33.3"/>
		<line class="st18" x1="91.1" y1="46.4" x2="452.5" y2="46.4"/>
		<line class="st18" x1="137.6" y1="33.7" x2="137.6" y2="46.4"/>
		<path class="st18" d="M237.5,236.7H68.1c-6.6,0-12-5.4-12-12v-92.5c0-6.6,5.4-12,12-12h169.4c6.6,0,12,5.4,12,12v92.5
			C249.5,231.3,244.1,236.7,237.5,236.7z"/>
		<path class="st18" d="M131,111.1H40.4c-6.6,0-12-5.4-12-12V68.6c0-6.6,5.4-12,12-12H131c6.6,0,12,5.4,12,12v30.5
			C143,105.7,137.6,111.1,131,111.1z"/>
		<g>
			<path class="st6" d="M354.5,56.3h-78.1c-7.2,0-13,5.8-13,13v165.2c0,7.2,5.8,13,13,13h58.3c-0.6-0.6-1.2-1.3-1.8-2h-56.5
				c-6.1,0-11-4.9-11-11V69.3c0-6.1,4.9-11,11-11h78.1c6.1,0,11,4.9,11,11v26.9c0.7-0.2,1.3-0.3,2-0.3V69.3
				C367.5,62.1,361.7,56.3,354.5,56.3z"/>
		</g>
		<circle class="st19" cx="386.3" cy="177" r="83.2"/>
		<circle class="st20" cx="386.3" cy="177" r="70.4"/>
		<g>
			<path class="st6" d="M355,118.3c-33.9,18.1-47.2,59.9-30.4,94.2c0.4-0.4,0.8-0.7,1.2-1.1c-16.2-33.4-3.2-74.1,29.9-91.7
				c33.5-17.9,75.2-5.4,93.6,27.7c0.3-0.4,0.7-0.8,1.1-1.2C431.5,112.7,389.1,100.2,355,118.3z"/>
		</g>
		<g>
			<path class="st6" d="M422.3,262.5c-38.6,15.7-84-0.5-104.3-38.7c-1.1-2-2-4-2.9-6.1c-1.1-0.7-2.1-1.6-3-2.5
				c1.2,3.2,2.7,6.4,4.3,9.5c20.7,38.9,67,55.5,106.4,39.6C422.6,263.8,422.4,263.2,422.3,262.5z"/>
			<path class="st6" d="M464.8,145.6c-0.6-1.2-1.3-2.3-1.9-3.4c0.8,2,1.1,4,1.2,6c18.4,36.4,8,80.1-23.2,103.8c0,0,0,0,0,0
				c0.4,0.4,0.8,0.9,1.1,1.5C474.3,228.9,484.8,183.2,464.8,145.6z"/>
		</g>
		<g>
			<g>
				<path class="st6" d="M436.6,249.9c1.5,0,2.5,0.4,2.9,1c0,0,0,0,0,0c0.8,0.4,1.5,0.9,2,1.5c0.2-0.9,0.2-1.7-0.2-2.5
					c-0.8-1.5-2.7-2.3-5.4-2.1c-2.4,0.2-5.2,1.1-7.9,2.5s-5,3.3-6.5,5.2c-1.7,2.1-2.1,4.1-1.3,5.7c0.4,0.7,0.9,1.2,1.7,1.5
					c-0.1-0.8,0-1.6,0.2-2.3c0,0-0.1-0.1-0.1-0.1c-0.4-0.8,0-2.1,1.1-3.5c1.3-1.7,3.4-3.3,5.9-4.7c2.5-1.3,5-2.1,7.1-2.3
					C436.1,249.9,436.4,249.9,436.6,249.9z"/>
			</g>
			
				<ellipse transform="matrix(0.8826 -0.4702 0.4702 0.8826 -107.2909 266.4941)" class="st18" cx="479.8" cy="348" rx="11" ry="4.9"/>
			<line class="st18" x1="489.6" y1="342.9" x2="440.3" y2="250.4"/>
			<line class="st18" x1="470.1" y1="353.2" x2="420.9" y2="260.8"/>
		</g>
	</g>
	<circle class="st21" cx="9.6" cy="151.4" r="4.5"/>
	<g>
		<line class="st22" x1="36.6" y1="128.3" x2="36.6" y2="149.3"/>
		<line class="st22" x1="26.1" y1="138.8" x2="47" y2="138.8"/>
	</g>
	<circle class="st22" cx="469.5" cy="244.7" r="4.5"/>
	<g>
		<line class="st23" x1="492.7" y1="243.3" x2="492.7" y2="264.3"/>
		<line class="st23" x1="482.2" y1="253.8" x2="503.2" y2="253.8"/>
	</g>
	<path class="st0" d="M463.9,131.6"/>
	<path class="st0" d="M471,139.1c0,0,16.3,17,12.6,50.9"/>
	<line class="st0" x1="450" y1="329.5" x2="465.2" y2="358.5"/>
	<path class="st0" d="M54.2,233.8c0,0,1,10.1,15.7,7.5"/>
	<circle class="st15" cx="65" cy="84.2" r="5.2"/>
	<circle class="st15" cx="81.1" cy="84.2" r="5.2"/>
	<circle class="st15" cx="97.1" cy="84.2" r="5.2"/>
</g>
</svg>
