<?xml version="1.0" encoding="utf-8"?>
<!-- Generator: Adobe Illustrator 23.0.3, SVG Export Plug-In . SVG Version: 6.00 Build 0)  -->
<svg version="1.1" id="Layer_2" xmlns="http://www.w3.org/2000/svg" xmlns:xlink="http://www.w3.org/1999/xlink" x="0px" y="0px"
	 viewBox="0 0 326.2 325.5" style="enable-background:new 0 0 326.2 325.5;" xml:space="preserve">
<style type="text/css">
	.st0{fill:#E6F5FF;}
	.st1{clip-path:url(#XMLID_2_);fill:#F79014;}
	.st2{clip-path:url(#XMLID_2_);fill:#F0AD0A;}
	.st3{fill:#2069A7;}
	.st4{fill:#65DFD9;}
	.st5{fill:#F0AD0A;}
	.st6{fill:#40A8A0;}
	.st7{fill:#F79014;}
	.st8{fill:#FFFFFF;}
	.st9{fill:#92F7EF;}
	.st10{fill:#57B8FA;}
	.st11{fill:none;stroke:#49B7FA;stroke-width:3;stroke-linejoin:round;stroke-miterlimit:10;}
	.st12{fill:none;stroke:#F55C76;stroke-width:3;stroke-linejoin:round;stroke-miterlimit:10;}
	.st13{fill:none;stroke:#49B7FA;stroke-width:3.3333;stroke-linecap:round;stroke-linejoin:round;stroke-miterlimit:10;}
	.st14{fill:none;stroke:#163460;stroke-width:1.9348;stroke-linecap:round;stroke-linejoin:round;stroke-miterlimit:10;}
	.st15{fill:#163460;}
	.st16{fill:none;stroke:#163460;stroke-width:0.9674;stroke-miterlimit:10;}
	.st17{fill:none;stroke:#163460;stroke-width:0.9674;stroke-linecap:round;stroke-miterlimit:10;}
	.st18{fill:none;stroke:#163460;stroke-width:1.0383;stroke-miterlimit:10;}
	.st19{fill:none;stroke:#163460;stroke-width:2;stroke-linecap:round;stroke-linejoin:round;stroke-miterlimit:10;}
	.st20{fill:none;stroke:#163460;stroke-linecap:round;stroke-linejoin:round;stroke-miterlimit:10;}
	.st21{fill:none;stroke:#163460;stroke-width:0.25;stroke-miterlimit:10;}
	.st22{fill:none;stroke:#163460;stroke-width:0.9345;stroke-linecap:round;stroke-linejoin:round;stroke-miterlimit:10;}
	.st23{fill:none;stroke:#F55C76;stroke-width:4.2857;stroke-linecap:round;stroke-linejoin:round;stroke-miterlimit:10;}
	.st24{fill:none;stroke:#163460;stroke-width:2;stroke-linecap:round;stroke-miterlimit:10;}
</style>
<g>
	<path class="st0" d="M308,102.5c-6.2-9.2-11.7-14-20.2-20.9c-0.7-0.6-1.4-1.1-2-1.7c-7.4-8.1-13.5-17.3-20.5-25.7
		c-14.7-17.8-33.5-34.2-56.8-39.4c-24.4-5.4-47.1,1.9-68.1,13.9c-8.6,4.9-15.9,11.8-24.6,16.4c-5.3,1.3-10.7,2-16,3.4
		C85,52.4,70.6,57,59.2,68.1C48.6,78.4,41.1,91,37.1,105.3c-2.2,7.6-3,15.8-3.3,23.6c-0.1,1.7,0.1,3.3,0.3,5
		c0.5,4.6,1.3,9.1,2.1,13.6c1.4,3.6,3,7.2,4.8,10.6c0.7,3.4,1.4,6.7,1.8,10.1c0,3.1-0.3,6.1-1,9.1c-2,8.7,2.3,22.1,7.9,28.7
		c5.8,6.9,12.8,11.6,21.5,13.8c0.1,0,0.2,0,0.3,0.1c1.4,7.6,6.6,11.6,15.9,11.8c2.5,0.4,5,0.3,7.4-0.4c0.4,0.5,0.9,1,1.4,1.5
		c4.7,4.9,9.4,9.6,14.2,14.4c4.4,5.4,9.3,10.2,14.6,14.6c14,11.5,31.5,18.3,49.5,19.9c22,2,41.2-6.9,61.2-14.6
		c1.8-0.7,3.6-1.3,5.4-2.1c7.5-3.2,14.8-8.3,21.4-13.1c4.5-2.5,8.1-6,10.7-10.4c3-3.1,5.3-6.6,7.1-10.4c2.8-5.3,5.9-11.3,7.4-17.1
		c0.5-4.4,1.1-8.7,1.6-13.1c3.8-3.1,7.5-6.2,10.8-9.9c8-9,13.9-19.4,17-31.1C322.3,140.9,319,118.9,308,102.5z M190.4,52.6
		c-6.6-4.6-15.5-1.8-22.4,0.7c-7.1,2.5-13.7,6-20.7,8.7c-4.9,1.9-10.1,3.7-14.4,6.9c-3.7,2.8-6.8,6.7-9.5,10.4
		c-0.1,0.1-0.1,0.2-0.2,0.3c0.7,0.8,0.9,1.9,0.4,3.1c-1.3,3.2-3,6.6-4.5,10c-1.2,4-1.9,8.1-2.7,12.2c-0.2,1-0.7,1.6-1.3,2.1
		c0,2.3,0.3,4.7,1.3,7.1c1.1,2.6-1,4.4-3.3,4.4c-0.2,1.4-0.4,2.8-0.5,4.2c0.3,1.4,0.7,2.8,1.2,4.1c0.8,1.8,0.1,3.5-1.1,4.6
		c0.1,1.6,0.3,3.2,0.6,4.8c0.2,1.4-0.3,2.5-1.1,3.3c1.2,5.8,3,11.4,5.7,16.7c1.2-1.9,3.7-2.9,5.6-0.7c4.9,5.8,9.7,11.9,15.4,16.9
		c7,6.1,15.5,10.4,23.5,15c3.8,2.2,1.1,7.7-2.9,6.8c-16.5-3.7-29.9-10.3-40.9-23.5c-11.1-13.2-14.8-29.4-15.7-46.3
		c-0.1-1.1,0.3-1.9,0.8-2.5c-1-4.6-0.1-9.7,1.5-14.6c-0.1-2.2,0.1-4.4,0.5-6.5c1.1-9.5,6.1-18.4,11.6-26c6.8-9.2,14.2-14.8,24.8-19
		c14.4-5.7,36.7-20.6,51.9-9.9C198.1,48.9,194.4,55.3,190.4,52.6z"/>
	<path class="st0" d="M309.6,60.3c-0.4-1.4-1-2.6-2.1-3.6c-0.8-0.8-1.7-1.6-2.7-2.2c-2-1.1-3.4-1.5-5.8-1.7c-3.3-0.3-6.6,1.2-9,3.4
		c-1.5,1.5-2,2.4-2.7,4.2c-0.8,1.9-1,2.3-1.1,4.8c0,0.6,0.1,1.1,0.2,1.8c0.1,0.6,0.1,1.2,0.3,1.8c0.6,2.5,1.8,3.9,3.5,5.8
		c1.5,1.4,3.3,2.4,5.3,2.9c1,0.1,2,0.2,2.9,0.3c2-0.1,3.9-0.6,5.7-1.6c1.4-0.8,2.5-1.9,3.3-3.2c1-1.2,1.7-2.5,2-4.1
		c0.2-0.6,0.2-1.1,0.3-1.7l0.1-0.1c0.2-0.9,0.3-1.8,0.5-2.7C310.4,62.9,310.1,61.6,309.6,60.3z"/>
	<path class="st0" d="M29.1,187c-0.6-0.3-1.3-0.5-2-0.6c-1-0.5-2.1-0.8-3.2-0.9c-1.5-0.2-2.9,0.4-4.1,1.2c-1.3,0.9-1.9,1.9-2.6,3.3
		c-0.4,0.9-0.6,1.9-0.6,2.9c0,2.8,1.1,5.1,3.4,6.8c2.5,1.7,5.6,2,8.4,0.7c2.4-1.1,4.1-3.6,4.5-6.2C33.2,191.3,31.8,188.3,29.1,187z"
		/>
	<g>
		<path class="st0" d="M25.4,178.6c0.1-0.3,0.2-0.6,0.2-0.8c0,0,0-0.1,0-0.1c0-0.3,0-0.5-0.1-0.8c0,0,0,0,0,0
			c-0.3-1.3-1.4-2.5-2.9-2.5c-1.3-0.1-2.5,0.7-3,1.8c-0.6,1.3-0.3,2.8,0.8,3.7c0.7,0.6,1.5,0.8,2.4,0.7c0.1,0,0.2,0,0.3,0
			c0.3-0.1,0.6-0.2,0.8-0.3c0,0,0.1,0,0.1-0.1c0.1,0,0.1-0.1,0.2-0.1c0.1,0,0.1-0.1,0.1-0.1c0.1-0.1,0.2-0.1,0.2-0.2
			c0.1-0.1,0.1-0.1,0.2-0.2c0,0,0.1-0.1,0.1-0.1c0,0,0.1-0.1,0.1-0.1c0,0,0.1-0.1,0.1-0.1c0.1-0.1,0.1-0.2,0.2-0.3
			c0,0,0-0.1,0.1-0.1C25.3,178.8,25.3,178.7,25.4,178.6z"/>
		<path class="st0" d="M22.5,174.4C22.6,174.4,23.1,174.4,22.5,174.4L22.5,174.4z"/>
	</g>
	<path class="st0" d="M322.9,193.3c-0.4-2.4-2.1-4.5-4.3-5.4c-2.2-0.9-4.9-0.6-6.8,0.9c-1.8,1.4-3.1,3.7-2.8,6.1
		c0.3,2.2,1.8,4.1,3.7,5.1c0.1,0,0.1,0.1,0.2,0.1c1.6,1.1,4,1.3,5.7,0.5c0.6-0.3,1.3-0.7,1.8-1.1C322.4,198,323.3,195.7,322.9,193.3
		z"/>
	<path class="st0" d="M321.4,208.9c-0.1,0-0.1,0.1,0,0.1C321.4,209,321.4,208.9,321.4,208.9z"/>
	<g>
		<defs>
			<ellipse id="XMLID_32_" cx="184.7" cy="122.8" rx="74.5" ry="76.5"/>
		</defs>
		<use xlink:href="#XMLID_32_"  style="overflow:visible;fill:#F4AE0E;"/>
		<clipPath id="XMLID_2_">
			<use xlink:href="#XMLID_32_"  style="overflow:visible;"/>
		</clipPath>
		<ellipse class="st1" cx="180.1" cy="191.6" rx="26.7" ry="7.4"/>
		<path class="st1" d="M194.3,43.8"/>
		<path class="st1" d="M178.7,45.9c0,0,47.3,8.9,46.8,60.1s-19.3,90.4-60.8,93.2s62.2,12.1,62.2,12.1l41-16.3l30.3-39.6l14.4-36.8
			l-1.4-49.4l-17.9-28.9l-57.8-17"/>
		<path class="st2" d="M198.1,44.7c0,0,50.1,20.3,55.8,65.4s-23.4,80-47.4,84s66.9-3.5,66.9-3.5l14.6-21.7l6.3-22.5l-3.3-40.8
			L267,64.7c0,0-26.7-14.7-34-18.5s-15.4-7.9-15.4-7.9"/>
	</g>
	<path class="st3" d="M160.5,198v25.3c0,0,1.1,7.6,10,9.9l26.5-0.3l5.9-4.4l1.3-4.5l0.7-27.3c0,0-19.7,6.3-42.8,1.7"/>
	<polyline class="st4" points="5.9,241 48.5,263.3 148.2,235.8 147.8,210.8 100.8,192.7 7.8,215.6 	"/>
	<polyline class="st4" points="71,266.1 71,292.7 170.8,320.5 213.4,297.4 212.6,272.1 118.5,249.9 	"/>
	<path class="st5" d="M216.2,204l-0.5,65.8l3.8,2.4c0,0,29.4,5.9,41.4,1.8c12.1-4.1,12.1-4.7,12.1-4.7l0.6-13.9l4.3-0.4
		c0,0,24.2-1.3,26.7-5.6l0.8-64.7c0,0-2.6-9.6-32.9-7.7c0,0-23.1,0.8-24.4,6.1l0.2,13.4l-22.4,2l-9.3,4.1"/>
	<polyline class="st6" points="6.5,216 48.6,238.3 82.4,228.9 82.4,254.1 50.2,262.8 6,239.7 	"/>
	<polyline class="st6" points="117.8,220.5 117.2,244.5 148.7,235.5 148.1,210.3 	"/>
	<polyline class="st6" points="70.8,267.6 101.7,275.9 101.7,300.7 71.6,292.1 	"/>
	<polyline class="st6" points="137.1,286.3 137.1,310.6 170.1,319.3 213,297.6 212.5,272.5 170.4,294.6 138.2,285.5 	"/>
	<polyline class="st6" points="40,208.1 76.9,230 82.4,228.9 43.5,206.6 	"/>
	<polyline class="st6" points="140.7,286.1 178.2,264.4 174.9,263.6 138.3,284.5 	"/>
	<path class="st7" d="M240.7,211.3v64c0,0,26.9,1.7,32.7-7.2l-0.3-61.8C273.1,206.3,264,211.1,240.7,211.3z"/>
	<ellipse class="st7" cx="244" cy="204.4" rx="22" ry="3.6"/>
	<ellipse class="st7" cx="275.9" cy="183.5" rx="21.7" ry="3.3"/>
	<path class="st7" d="M281.5,191.2"/>
	<path class="st7" d="M288.5,190.7v64l-14.3,0.5l-0.6-50.8c0,0-4.3-4.3-5-4.2c-0.7,0.1-19.7-3-19.7-3l-0.6-11.2
		C248.2,186.1,271.3,193.1,288.5,190.7z"/>
	<polyline class="st8" points="218.8,207.7 218.8,271.1 216.3,270.2 216.1,267 216.5,206.1 	"/>
	<path class="st8" d="M219.3,207.1c0,0-8-7.6,28.8-9.3l-12.9,0.1l-13.6,1.4l-6.1,3.1l1.5,2.6"/>
	<path class="st8" d="M284.6,177.9c0,0-31.6-0.4-35,7.9l-1.3-1l2.2-3.8c0,0,21.2-5.9,32.4-4.3"/>
	<polyline class="st8" points="301.9,187.7 301.9,251.1 305.5,248.3 305.7,186 	"/>
	<polyline class="st8" points="9.1,217.6 9.1,242.9 6.3,241.1 6.7,217.5 	"/>
	<polyline class="st8" points="104.2,300.7 104.2,276.6 144.2,256.5 142.1,255.6 103.1,275.1 102.5,301.2 	"/>
	<polyline class="st8" points="210.1,274.2 210.1,299.5 213,298 212.8,272.8 	"/>
	<polyline class="st8" points="74.6,199.7 114.1,219.6 114.1,245.2 117.2,244.5 116.7,218.8 77.4,198.3 	"/>
	<ellipse class="st9" cx="79" cy="212.6" rx="13.9" ry="5.5"/>
	<ellipse class="st9" cx="139.4" cy="269.2" rx="13.5" ry="5.5"/>
	<path class="st10" d="M200.7,197.6v27.9c0,0,0.3,6.8-15.7,7.3l12-0.2l4.3-3l2-2.4l1.8-6.2l-0.2-24.6"/>
	<path class="st10" d="M173.2,233.4c0,0-0.8,3.3,3.6,5.1c4.4,1.8,8.4,0.4,8.4,0.4l2.1-1.3l1.2-1.5l0.1-2.1l0.1-0.7"/>
	<path class="st8" d="M176.3,233.3c0,0-0.8,3,2.2,3.8c2.9,0.8,8.4,0.1,8.4,0.1l-2.8,1.6l-5.4-0.2l-3.5-0.1l-1.8-2.2l-0.6-2.4"/>
	<ellipse transform="matrix(0.6537 -0.7568 0.7568 0.6537 18.5288 192.8338)" class="st8" cx="220" cy="76.2" rx="9.1" ry="13.5"/>
	<circle class="st11" cx="253.6" cy="40.6" r="6.8"/>
	<circle class="st12" cx="95.5" cy="86.1" r="4.5"/>
	<g>
		<line class="st13" x1="145.7" y1="7.4" x2="145.7" y2="23.7"/>
		<line class="st13" x1="153.9" y1="15.5" x2="137.6" y2="15.5"/>
	</g>
	<g>
		<circle class="st14" cx="180.5" cy="122.1" r="77.8"/>
		<g>
			<path class="st15" d="M204.8,195.3c-0.3,0.1-0.6,0.3-0.8,0.4v25.7c0,5.9-4.8,10.7-10.7,10.7h-24.6c-5.9,0-10.7-4.8-10.7-10.7
				v-25.1c-0.7-0.2-1.3-0.5-1.8-0.9v26c0,6.9,5.6,12.5,12.5,12.5h24.6c6.9,0,12.5-5.6,12.5-12.5v-26.1c0,0,0-0.1,0-0.1
				C205.4,195.2,205.1,195.3,204.8,195.3z"/>
		</g>
		<g>
			<path class="st15" d="M189.7,233.4c-0.6,0-1.1-0.1-1.6-0.2c0,0.1,0,0.2,0,0.3c0,2.7-2.2,5-5,5h-4.1c-2.7,0-5-2.2-5-5
				c0-0.1,0-0.2,0-0.3c-0.4,0.1-0.9,0.1-1.4,0.1c-0.1,0-0.3,0-0.4,0c0,0.1,0,0.1,0,0.2c0,3.7,3,6.7,6.7,6.7h4.1c3.7,0,6.7-3,6.7-6.7
				c0,0,0-0.1,0-0.1C189.8,233.4,189.8,233.4,189.7,233.4z"/>
		</g>
		<path class="st16" d="M156.9,205c0,0,20.9,12.5,47.4,0"/>
		<path class="st16" d="M156.9,213.2c0,0,20.9,12.5,47.4,0"/>
		<path class="st16" d="M156.9,221.5c0,0,20.9,12.5,47.4,0"/>
		<ellipse class="st16" cx="180.8" cy="191.7" rx="26.2" ry="8.7"/>
		<line class="st17" x1="195.3" y1="130.2" x2="195.3" y2="190.4"/>
		<line class="st17" x1="164.7" y1="190.4" x2="164.7" y2="130.2"/>
		<g>
			<path class="st15" d="M195.9,130.2l-5.6-6.3l-5.1,5.8l-5.1-5.8l-5.1,5.8l-5.1-5.8l-5.1,5.8l-0.1-0.1c-0.1,0.3-0.3,0.6-0.4,0.9
				c0,0-0.1,0.1-0.1,0.1l0.6,0.7l5.1-5.8l5.1,5.8l5.1-5.8l5.1,5.8l5.1-5.8l4.7,5.3c0.2,0.2,0.5,0.2,0.8,0.1
				C196,130.7,196.1,130.4,195.9,130.2z"/>
		</g>
		<ellipse class="st18" cx="181" cy="192.9" rx="24.6" ry="7.4"/>
		<ellipse class="st19" cx="244.5" cy="204.1" rx="28.7" ry="7"/>
		<g>
			<path class="st15" d="M272.2,268.7c-0.8,2.5-11.1,5.7-27.6,5.7c-13.5,0-22.9-2.2-26.3-4.3c-1.3-0.4-2.5-1.2-3.3-2.3
				c-0.1,0.2-0.1,0.4-0.1,0.7c0,5.2,14.9,8,29.7,8s29.7-2.7,29.7-8c0-0.2,0-0.4-0.1-0.6C273.6,268.2,272.9,268.5,272.2,268.7z"/>
		</g>
		<g>
			<path class="st15" d="M272.2,212.8c-0.8,2.5-11.1,5.7-27.6,5.7c-13.5,0-22.9-2.2-26.3-4.3c-1.3-0.4-2.5-1.2-3.3-2.3
				c-0.1,0.2-0.1,0.4-0.1,0.7c0,5.2,14.9,8,29.7,8s29.7-2.7,29.7-8c0-0.2,0-0.4-0.1-0.6C273.6,212.3,272.9,212.6,272.2,212.8z"/>
		</g>
		<g>
			<path class="st15" d="M272.2,220.5c-0.8,2.5-11.1,5.7-27.6,5.7c-13.5,0-22.9-2.2-26.3-4.3c-1.3-0.4-2.5-1.2-3.3-2.3
				c-0.1,0.2-0.1,0.4-0.1,0.7c0,5.2,14.9,8,29.7,8s29.7-2.7,29.7-8c0-0.2,0-0.4-0.1-0.6C273.6,220,272.9,220.3,272.2,220.5z"/>
		</g>
		<g>
			<path class="st15" d="M272.2,228.2c-0.8,2.5-11.1,5.7-27.6,5.7c-13.5,0-22.9-2.2-26.3-4.3c-1.3-0.4-2.5-1.2-3.3-2.3
				c-0.1,0.2-0.1,0.4-0.1,0.7c0,5.2,14.9,8,29.7,8s29.7-2.7,29.7-8c0-0.2,0-0.4-0.1-0.6C273.6,227.6,272.9,228,272.2,228.2z"/>
		</g>
		<g>
			<path class="st15" d="M272.2,235.8c-0.8,2.5-11.1,5.7-27.6,5.7c-13.5,0-22.9-2.2-26.3-4.3c-1.3-0.4-2.5-1.2-3.3-2.3
				c-0.1,0.2-0.1,0.4-0.1,0.7c0,5.2,14.9,8,29.7,8s29.7-2.7,29.7-8c0-0.2,0-0.4-0.1-0.6C273.6,235.3,272.9,235.6,272.2,235.8z"/>
		</g>
		<g>
			<path class="st15" d="M272.2,243.5c-0.8,2.5-11.1,5.7-27.6,5.7c-13.5,0-22.9-2.2-26.3-4.3c-1.3-0.4-2.5-1.2-3.3-2.3
				c-0.1,0.2-0.1,0.4-0.1,0.7c0,5.2,14.9,8,29.7,8s29.7-2.7,29.7-8c0-0.2,0-0.4-0.1-0.6C273.6,243,272.9,243.3,272.2,243.5z"/>
		</g>
		<g>
			<path class="st15" d="M272.2,251.2c-0.8,2.5-11.1,5.7-27.6,5.7c-13.5,0-22.9-2.2-26.3-4.3c-1.3-0.4-2.5-1.2-3.3-2.3
				c-0.1,0.2-0.1,0.4-0.1,0.7c0,5.2,14.9,8,29.7,8s29.7-2.7,29.7-8c0-0.2,0-0.4-0.1-0.6C273.6,250.7,272.9,251,272.2,251.2z"/>
		</g>
		<g>
			<path class="st15" d="M272.2,258.9c-0.8,2.5-11.1,5.7-27.6,5.7c-13.5,0-22.9-2.2-26.3-4.3c-1.3-0.4-2.5-1.2-3.3-2.3
				c-0.1,0.2-0.1,0.4-0.1,0.7c0,5.2,14.9,8,29.7,8s29.7-2.7,29.7-8c0-0.2,0-0.4-0.1-0.6C273.6,258.4,272.9,258.7,272.2,258.9z"/>
		</g>
		<line class="st19" x1="273.2" y1="204.1" x2="273.2" y2="268.4"/>
		<line class="st19" x1="215.9" y1="204.1" x2="215.9" y2="268.4"/>
		<g>
			<path class="st15" d="M276.7,191.8c-14.7,0-29.7-2.7-29.7-8s14.9-8,29.7-8s29.7,2.7,29.7,8S291.4,191.8,276.7,191.8z
				 M276.7,177.8c-17.1,0-27.7,3.5-27.7,6s10.5,6,27.7,6s27.7-3.5,27.7-6S293.8,177.8,276.7,177.8z"/>
		</g>
		<g>
			<g>
				<path class="st15" d="M306.3,247.5c-0.6,0.4-1.2,0.7-2,0.9c-0.8,2.5-11.1,5.7-27.6,5.7c-1,0-2,0-3,0v2c1,0,2,0,3,0
					c14.7,0,29.7-2.7,29.7-8C306.4,247.9,306.3,247.7,306.3,247.5z"/>
			</g>
		</g>
		<g>
			<g>
				<path class="st15" d="M306.3,191.6c-0.6,0.4-1.2,0.7-2,0.9c-0.8,2.5-11.1,5.7-27.6,5.7c-13.5,0-22.9-2.2-26.3-4.3
					c-1.3-0.4-2.5-1.2-3.3-2.3c-0.1,0.2-0.1,0.4-0.1,0.7c0,1.8,1.8,3.3,4.7,4.5c1.1,0.1,2.1,0.3,3.2,0.5c3,0.4,5.9,1,8.7,2
					c0.6,0.1,1.3,0.3,1.9,0.4c0.1,0,0.2,0,0.3,0.1c3.5,0.3,7.1,0.5,10.8,0.5c14.7,0,29.7-2.7,29.7-8
					C306.4,192,306.3,191.8,306.3,191.6z"/>
			</g>
		</g>
		<g>
			<g>
				<path class="st15" d="M306.3,199.3c-0.6,0.4-1.2,0.7-2,0.9c-0.8,2.5-11.1,5.7-27.6,5.7c-1.4,0-2.8,0-4.1-0.1
					c0.2,0.6,0.4,1.3,0.4,2c1.2,0,2.5,0.1,3.7,0.1c14.7,0,29.7-2.7,29.7-8C306.4,199.7,306.3,199.5,306.3,199.3z"/>
			</g>
		</g>
		<g>
			<g>
				<path class="st15" d="M306.3,207c-0.6,0.4-1.2,0.7-2,0.9c-0.8,2.5-11.1,5.7-27.6,5.7c-1,0-2,0-3,0v2c1,0,2,0.1,3,0.1
					c14.7,0,29.7-2.7,29.7-8C306.4,207.4,306.3,207.2,306.3,207z"/>
			</g>
		</g>
		<g>
			<g>
				<path class="st15" d="M306.3,214.7c-0.6,0.4-1.2,0.7-2,0.9c-0.8,2.5-11.1,5.7-27.6,5.7c-1,0-2,0-3,0v2c1,0,2,0,3,0
					c14.7,0,29.7-2.7,29.7-8C306.4,215.1,306.3,214.9,306.3,214.7z"/>
			</g>
		</g>
		<g>
			<g>
				<path class="st15" d="M306.3,222.3c-0.6,0.4-1.2,0.7-2,0.9c-0.8,2.5-11.1,5.7-27.6,5.7c-1,0-2,0-3,0v2c1,0,2,0,3,0
					c14.7,0,29.7-2.7,29.7-8C306.4,222.8,306.3,222.6,306.3,222.3z"/>
			</g>
		</g>
		<g>
			<g>
				<path class="st15" d="M306.3,230c-0.6,0.4-1.2,0.7-2,0.9c-0.8,2.5-11.1,5.7-27.6,5.7c-1,0-2,0-3,0v2c1,0,2,0,3,0
					c14.7,0,29.7-2.7,29.7-8C306.4,230.4,306.3,230.2,306.3,230z"/>
			</g>
		</g>
		<g>
			<g>
				<path class="st15" d="M306.3,237.7c-0.6,0.4-1.2,0.7-2,0.9c-0.8,2.5-11.1,5.7-27.6,5.7c-1,0-2,0-3,0v2c1,0,2,0,3,0
					c14.7,0,29.7-2.7,29.7-8C306.4,238.1,306.3,237.9,306.3,237.7z"/>
			</g>
		</g>
		<g>
			<path class="st15" d="M305.4,249.1c-0.6,0-1-0.4-1-1v-64.3c0-0.6,0.4-1,1-1s1,0.4,1,1v64.3C306.4,248.7,305.9,249.1,305.4,249.1z
				"/>
		</g>
		<g>
			<path class="st15" d="M248.7,196.6c0.1,0,0.1,0,0.2,0c0,0,0.1,0,0.1,0v-12.8c0-0.6-0.4-1-1-1s-1,0.4-1,1v13
				C247.6,196.7,248.1,196.6,248.7,196.6z"/>
		</g>
		<polygon class="st19" points="100.8,193.4 6.4,215.7 49,238.1 148.3,210.6 		"/>
		<path class="st19" d="M125.4,225.1"/>
		<polyline class="st19" points="6.4,241.1 49,263.5 148.3,236 		"/>
		<line class="st19" x1="49" y1="238.1" x2="49" y2="263.5"/>
		<line class="st19" x1="6.4" y1="215.7" x2="6.4" y2="241.1"/>
		<line class="st19" x1="148.3" y1="210.6" x2="148.3" y2="236"/>
		<path class="st19" d="M125.4,202.1"/>
		<path class="st19" d="M125.4,225.1"/>
		<g>
			<path class="st15" d="M82.4,235.7l-33.2,9.7L6.9,222.8c-0.2-0.1-0.5,0-0.7,0.2c-0.1,0.2,0,0.5,0.2,0.7l42.5,22.7
				c0.1,0,0.2,0.1,0.2,0.1c0,0,0.1,0,0.1,0l33.4-9.7C82.5,236.4,82.4,236.1,82.4,235.7z"/>
			<path class="st15" d="M148.8,216.9c-0.1-0.3-0.4-0.4-0.6-0.3l-31.3,9.1c0.1,0.3,0.3,0.6,0.4,0.9l31.2-9.1
				C148.7,217.5,148.8,217.2,148.8,216.9z"/>
		</g>
		<g>
			<path class="st15" d="M82.8,246.5c-0.1-0.2-0.1-0.3-0.2-0.5l-33.8,9.3L6.8,232.1c-0.2-0.1-0.5,0-0.7,0.2c-0.1,0.2,0,0.5,0.2,0.7
				l42.2,23.4c0.1,0,0.2,0.1,0.2,0.1c0,0,0.1,0,0.1,0l33.9-9.4C82.8,246.9,82.8,246.7,82.8,246.5z"/>
			<path class="st15" d="M149.2,228.2c-0.1-0.3-0.3-0.4-0.6-0.3l-32,8.8c0,0.4,0,0.7-0.1,1.1l32.4-8.9
				C149.1,228.7,149.3,228.5,149.2,228.2z"/>
		</g>
		<polyline class="st19" points="44.7,207.1 82.5,228.3 82.5,254.4 		"/>
		<polyline class="st19" points="77.8,199.1 117,218.7 117,244.8 		"/>
		<ellipse class="st20" cx="79.5" cy="212.9" rx="13.6" ry="5.6"/>
		<polyline class="st20" points="47.9,209 14,216.4 48.4,234 78.6,226.4 		"/>
		<polyline class="st20" points="81.4,200.8 100.4,196.1 138.2,210.2 115.3,217.4 		"/>
		<ellipse class="st21" cx="21.3" cy="217.2" rx="1" ry="0.5"/>
		<ellipse class="st21" cx="48.3" cy="231.9" rx="1" ry="0.5"/>
		<ellipse class="st21" cx="100.3" cy="198.2" rx="1" ry="0.5"/>
		<ellipse class="st21" cx="132.4" cy="210.4" rx="1" ry="0.5"/>
		<polygon class="st19" points="118.5,249.8 213,272.1 170.3,294.5 71.1,267 		"/>
		<polyline class="st19" points="213,297.5 170.3,319.9 71.1,292.4 		"/>
		<line class="st19" x1="170.3" y1="294.5" x2="170.3" y2="319.9"/>
		<line class="st19" x1="213" y1="272.1" x2="213" y2="297.5"/>
		<line class="st19" x1="71.1" y1="267" x2="71.1" y2="292.4"/>
		<g>
			<path class="st15" d="M137,292.2l33.2,9.7l42.3-22.6c0.2-0.1,0.5,0,0.7,0.2c0.1,0.2,0,0.5-0.2,0.7l-42.5,22.7
				c-0.1,0-0.2,0.1-0.2,0.1c0,0-0.1,0-0.1,0l-33.4-9.7C136.9,292.8,136.9,292.5,137,292.2z"/>
			<path class="st15" d="M70.6,273.3c0.1-0.3,0.4-0.4,0.6-0.3l31.3,9.1c-0.1,0.3-0.3,0.6-0.4,0.9L71,274
				C70.7,273.9,70.5,273.6,70.6,273.3z"/>
		</g>
		<g>
			<path class="st15" d="M136.6,303c0.1-0.2,0.1-0.3,0.2-0.5l33.8,9.3l42.1-23.3c0.2-0.1,0.5,0,0.7,0.2c0.1,0.2,0,0.5-0.2,0.7
				l-42.2,23.4c-0.1,0-0.2,0.1-0.2,0.1c0,0-0.1,0-0.1,0l-33.9-9.4C136.6,303.3,136.6,303.1,136.6,303z"/>
			<path class="st15" d="M70.2,284.6c0.1-0.3,0.3-0.4,0.6-0.3l32,8.8c0,0.4,0,0.7,0.1,1.1l-32.4-8.9
				C70.3,285.2,70.1,284.9,70.2,284.6z"/>
		</g>
		<polyline class="st19" points="174.6,263.5 136.9,284.7 136.9,310.8 		"/>
		<polyline class="st19" points="141.6,255.6 102.4,275.1 102.4,301.3 		"/>
		<ellipse class="st20" cx="139.9" cy="269.3" rx="13.6" ry="5.6"/>
		<polyline class="st20" points="171.5,265.4 205.4,272.8 171,290.4 140.7,282.8 		"/>
		<polyline class="st20" points="137.9,257.2 119,252.5 81.2,266.6 104,273.9 		"/>
		<ellipse class="st21" cx="198.1" cy="273.6" rx="1" ry="0.5"/>
		<ellipse class="st21" cx="171.1" cy="288.3" rx="1" ry="0.5"/>
		<ellipse class="st21" cx="119" cy="254.6" rx="1" ry="0.5"/>
		<ellipse class="st21" cx="87" cy="266.9" rx="1" ry="0.5"/>
		<line class="st19" x1="181" y1="37.6" x2="181" y2="4.7"/>
		<line class="st19" x1="246.1" y1="72" x2="272.5" y2="56.2"/>
		<line class="st19" x1="111.6" y1="70" x2="85.2" y2="54.2"/>
		<line class="st19" x1="222.5" y1="49.1" x2="231.3" y2="33.9"/>
		<line class="st19" x1="138" y1="47.1" x2="129.3" y2="31.9"/>
		<ellipse class="st22" cx="244.5" cy="204" rx="21.4" ry="3.6"/>
		<ellipse class="st22" cx="276.4" cy="183.5" rx="21.4" ry="3.6"/>
	</g>
	<path class="st3" d="M157.2,196.8"/>
	<circle class="st23" cx="74.3" cy="161.8" r="4.5"/>
	<g>
		<line class="st13" x1="47.4" y1="138.8" x2="47.4" y2="159.8"/>
		<line class="st13" x1="57.9" y1="149.3" x2="36.9" y2="149.3"/>
	</g>
	<circle class="st11" cx="275.3" cy="160.6" r="4.5"/>
	<g>
		<line class="st23" x1="302.2" y1="137.5" x2="302.2" y2="158.5"/>
		<line class="st23" x1="291.7" y1="148" x2="312.7" y2="148"/>
	</g>
	<path class="st24" d="M262.9,102.4c0,0,10.1,30.9-5.2,54.3"/>
	<path class="st24" d="M1.9,226.1"/>
	<path class="st24" d="M115.6,176.4c0,0,14.8,17.4,32.5,22.3"/>
</g>
</svg>
