<?xml version="1.0" encoding="utf-8"?>
<!-- Generator: Adobe Illustrator 23.0.3, SVG Export Plug-In . SVG Version: 6.00 Build 0)  -->
<svg version="1.1" id="Layer_1" xmlns="http://www.w3.org/2000/svg" xmlns:xlink="http://www.w3.org/1999/xlink" x="0px" y="0px"
	 viewBox="0 0 485.9 295" style="enable-background:new 0 0 485.9 295;" xml:space="preserve">
<style type="text/css">
	.st0{fill:#E6F5FF;}
	.st1{fill:#49B7FA;}
	.st2{fill:#F4AE0E;}
	.st3{fill:#F8767F;}
	.st4{fill:#CCE8FE;}
	.st5{fill:#2069A7;}
	.st6{fill:#163460;}
	.st7{fill:none;stroke:#163460;stroke-width:2.6014;stroke-linecap:round;stroke-linejoin:round;stroke-miterlimit:10;}
	.st8{fill:none;stroke:#163460;stroke-width:2;stroke-linecap:round;stroke-linejoin:round;stroke-miterlimit:10;}
	.st9{fill:none;stroke:#163460;stroke-width:2.2039;stroke-linecap:round;stroke-linejoin:round;stroke-miterlimit:10;}
	.st10{fill:none;stroke:#49B7FA;stroke-width:3;stroke-linejoin:round;stroke-miterlimit:10;}
	.st11{fill:none;stroke:#F55C76;stroke-width:4.2857;stroke-linecap:round;stroke-linejoin:round;stroke-miterlimit:10;}
	.st12{fill:none;stroke:#49B7FA;stroke-width:6;stroke-linejoin:round;stroke-miterlimit:10;}
	.st13{fill:none;stroke:#F55C76;stroke-width:4.1053;stroke-linecap:round;stroke-linejoin:round;stroke-miterlimit:10;}
	.st14{fill:none;stroke:#163460;stroke-width:2;stroke-linecap:round;stroke-miterlimit:10;}
</style>
<g>
	<g>
		<path class="st0" d="M333.5,103.6c-0.4,5.5-2.2,10.3-5.2,14.1c21.9,11.8,43.6,24,64.8,37.1c11.3-11.6,23.2-22.6,36.8-31.8
			c0.9-0.6,1.9-1.2,2.9-1.6c-2.5-2.6-5.1-5-7.8-7.8c-1.5-1.5-2.7-3-4.1-4.7c-1.8-2.3-3.7-4.6-5.6-6.8c-5.4-6.2-10.9-12.2-16.7-18
			c-0.5,2.1-1.3,4.2-2.4,6.3c-0.7,1.3-1.5,2.5-2.4,3.6c-0.3,0.7-0.6,1.3-1,2c-5.8,10.9-20.7,14-31.1,8.1
			c-9.3-5.3-18.3-11.2-27.7-16.4c-0.7-0.4-1.4-0.7-2.1-1.1C333.2,92.3,333.8,97.9,333.5,103.6z"/>
		<path class="st0" d="M454.5,161c-0.5,0.4-1.1,0.9-1.7,1.2c-2,1.4-4,2.8-6,4.2c-0.1,0.1-0.3,0.2-0.4,0.4c-0.9,0.7-1.8,1.4-2.6,2.2
			c-3.5,3-6.9,6.1-10.1,9.2c-7.2,7-14,14.4-20.9,21.7c-6.6,7.1-19.4,8.8-27.5,3.6c-37.4-24.1-76.7-45.1-116.1-65.8
			c-10.7-5.6-14.4-21-8.1-31.1c0.5-0.7,0.9-1.5,1.4-2.3V98c0-3.6,0.9-7.1,2.5-10.2c0.1-0.6,0.1-1.2,0.2-1.8c0-8.1,0.9-16.2,2.5-24.2
			c0.3-1.5,0.8-2.9,1.4-4.2c0.6-6.8,3.3-12.6,7.8-16.6c0.2-1.6,0.5-3.2,0.8-4.8c0.4-1.9,1.1-3.8,2-5.4c-5.2,0.5-10.4,1.3-15.5,2.3
			c-4.9,0.9-9.9,2-14.8,3.3c-6.1-0.3-12.3,0.1-18.3,0.7c-8.2,0.8-16.2,3.4-23.9,6c-4.7,1.5-9.1,3.7-13.4,6.2
			c-11.2,6.5-21.1,13.5-30.5,22.2c-5.3,2.9-10.7,5.9-16,9.1c2.2-1.3,4.3-2.6,6.5-3.9c-9.5,5.5-19.9,9.7-29.6,14.9
			c-9,4.9-17.9,10.1-26.5,15.7c2.5-1.5,4.9-3.1,7.4-4.6c-13.8,8.4-26.7,17.9-40,27c-6.5,4.5-10.6,12.5-12.4,19.9
			c-0.5,2.2-0.9,4.4-1,6.7c-2.6,2.7-4.9,5.7-6.8,9.2c-4.3,7.8-5.3,19.8,2.1,26.5h0.2c4.5,7.1,12.4,9.3,20,5.9c2.5-0.2,4.9-1,7.1-2.3
			c1.5-0.8,2.9-1.8,4.2-2.9c4.6,1.3,9.4,1.6,14.4,0.7c3.3-0.6,6.5-1.5,9.6-2.5c7.7,1.1,14.8,1.2,24.1-0.6c4.9-0.9,9.8-2.2,14.5-3.7
			c6.9-1,13.8-2.4,20.5-4.3c3.7-1.7,7.2-3.7,10.6-5.9c1.9-1.2,3.8-2.4,5.7-3.7c5.8-4,11.8-7.9,17.2-12.4c6.8-5.6,12.9-12.4,19.1-19
			c-0.5,11.1,3.3,24.2,11.3,32.3c7.7,7.9,17.2,12.7,27.8,15.1c5.2,6.5,11.9,8.9,20.3,7.1c2.8-0.6,6.2-1.7,8.9-2.8
			c3.2-1.3,6.4-3.2,9.2-5.4c0.6,0.3,1.3,0.6,1.9,0.9c-6.6,13.5-5.1,28.5,2.4,41.3c3.1,5.2,4.4,8.3,8.1,12.5c2,2.3,4.2,4.5,6.5,6.5
			c9.3,8.2,23.3,17,36,19.5c10.3,2,19.2,1.3,29.6-0.9c9.7-2,19.3-6.2,27.6-11.8c9.4-0.7,17.5-2.6,20.3-4.6
			c8.3-5.8,15.8-13.2,21.5-21.7c6.6-9.8,9.9-23,11.4-34.4c1.1-9,0.8-19-1.2-27.9C455.5,164.9,455,162.9,454.5,161z"/>
	</g>
	<path class="st0" d="M123.5,57.3c-5.3,0-10.2,3.2-10.8,8.8c-0.5,4.9,3.5,10.8,8.8,10.8s10.2-3.2,10.8-8.8
		C132.8,63.2,128.8,57.3,123.5,57.3z"/>
	<path class="st0" d="M147.3,47.1c-8.6,0-9.4,13.3-0.8,13.3C155,60.5,155.9,47.1,147.3,47.1z"/>
	<path class="st0" d="M411,280.1c-0.4-4.5-3.8-7.8-8.4-7.8c-4.2,0-8.1,4.1-7.8,8.4c0.4,4.5,3.8,7.8,8.4,7.8
		C407.5,288.4,411.3,284.3,411,280.1z"/>
	<path class="st1" d="M65.1,205.1c0,0-4,15.1-9.8,15.6s31,4,31,4s250,12.1,263.5,1.6l-0.8-8.4l1.4-20.7l-1.5-8l-7.7-27l-17.7,11.5
		l-21.2,10.6l-12.7,0.9l-9.9,0.8l-13.3-3.8l-19.9-15.7l-1.6-2.8c0,0-55.6,30.1-67.6,31.7l-12.8,4.8l-14.8,5l-15.5,3l-13.4,2.6
		l-16.3,1.9L90.1,213"/>
	<polyline class="st2" points="69.2,191.1 89.8,179.8 92.2,186 	"/>
	<polyline class="st2" points="103.5,172.5 108.4,179.3 124.4,173.1 120.6,163.5 	"/>
	<polyline class="st2" points="134.6,156.8 140.3,167.4 153.8,161.7 147.4,149.3 	"/>
	<polyline class="st2" points="163.4,141.6 169.8,154.7 182.5,149.8 175.5,134.4 	"/>
	<polyline class="st2" points="190.1,126.9 197.4,142 213.4,135.8 227.9,136.6 234.4,141 238,134.9 240.2,128.1 237.9,120.1 
		233.4,114.9 226.8,112.1 222.5,111.1 216.5,113.2 	"/>
	<path class="st3" d="M350.6,243.6h-251c-1.3,0-2.3-1-2.3-2.3l0,0c0-1.3,1-2.3,2.3-2.3h251c1.3,0,2.3,1,2.3,2.3l0,0
		C352.9,242.5,351.9,243.6,350.6,243.6z"/>
	<path class="st4" d="M9.5,216c0,0,2.1,14.7,72.3,26.2s271.1-0.9,271.1-0.9s-1.2,14-1.7,16c-0.5,2-5.4,7.4-5.4,7.4l-7.1,2.8
		l-19.2-0.2L98.7,265c0,0-62.2-7.1-87-23.5C11.7,241.4,0.7,233,9.5,216z"/>
	<path class="st4" d="M37.1,193.5c0,0-10,10.6,4.3,16.8s21.9,0.1,21.9,0.1l-7.1,9.7c0,0-34.4-5.5-39.9-15.4"/>
	<path class="st4" d="M64.9,199.6l28.1-7.5c0,0,2.3,13.4,11.9,15.1s9.7-12.5,9.7-12.5l-6.5-14.4c0,0,0.6,26.1-13.9,8.4l-1.4-3
		l-29.5,7.9"/>
	<polyline class="st4" points="111.3,187.6 128.3,182 123.9,172.8 108.5,179.7 	"/>
	<path class="st4" d="M122.3,182.3c0,0,4.7,13.9,13.5,15.2c8.7,1.3,11.7-7.2,11.7-7.2l-3.5,3.3l-2.6,0.8l-3.5,0.1l-3.9-1.7
		l-6.3-11.9"/>
	<polyline class="st4" points="144.1,177 157.9,171.7 153.8,161.7 140.3,167.4 	"/>
	<path class="st4" d="M151,172.6c0,0,2.7,11.9,12.1,13.2c9.4,1.2,12.5-8.4,12.5-8.4l-4.5,4.3l-4.9-0.2l-2.8-1.5l-7.2-10.3"/>
	<polyline class="st4" points="172.3,162.4 185.6,157.9 182.5,149.8 169.1,155.1 	"/>
	<path class="st4" d="M179.1,158.1c0,0,10.8,21.9,24.9,7.4l-4.5,2l-2.8,1.1l-3.7-0.5l-7.7-11.6"/>
	<path class="st4" d="M66.3,196.6c0,0,0.1,3.1,3,5.8s11.8,5.6,17.7,6.4s34.6,0.7,45.2-3.4c10.6-4.1,99.3-36.7,108.3-45.8l1.4-0.8
		l3.8,5l-62.3,29.9L135.2,208l-10.1,2.2l-9.8,0.9l-7.6,1.3l-13.2,0.9l-9.4-0.9l-19.1-7l-1.6-9.1"/>
	<path class="st5" d="M61.5,213.7c0,0,3.6,6.2,37,5.2s251.1,0,251.1,0l0.1,5.1l-0.6,2.1l-4.7,3l-7.6,1l-8.9,0.3l-75.6-0.7l-56-2.1
		l-35.1-0.3l-33-1.2L92.3,226l-13.9-1.7l-15.1-2.9l-7.7-0.3"/>
	<path class="st4" d="M127.5,178.4c0,0,12.6,5.6,15.3-2.7l2,4.3l2.3,3.7l0.2,6.1l-2,3.1l-3.1,2l-5.4-0.7l-4-2.7"/>
	<path class="st4" d="M156.1,166.7c0,0,10,4.4,14.7-6.4l4,7.3l1.7,5.5l-0.3,3.7l-2.9,3.5l-4.5,1.4l-4.5-1l-4.4-2.7"/>
	<path class="st2" d="M263.9,112.2l204.8,20v-2.3c0,0-5.8-6.2-2.4-9.2l4.4-1.3l0.3-2.5l-1.9-2.6l-2.4-3.8c0,0,2-3.8,2.7-4.3
		s2.4-1,2.4-1l0.9-2.4l-0.4-1l-3.8-2.9c0,0-0.4-3.3-0.3-3.6c0.2-0.3,3-3.1,3-3.1l2.1-1l1-2l-0.6-2l-3.9-3.3l0.7-4.8l3-1l1.1-0.4
		l0.3-4l-3.8-2.9c0,0-0.4-3.9,0.6-4.5s2.8-2.4,2.8-2.4l2-0.2l0.6-3.9l-4.2-2.6l-0.3-4.4l2.4-2l2.1-1l0.9-1.3V46l-3.4-2.4l-0.3-5
		l4.1-2.7"/>
	<path class="st2" d="M271.6,132l179.7,19.8l6.4-1.1l2.7-1l0.3-1.8l-2.1-3.1c0,0,2.7-4.7,3.8-5.2c1.1-0.5,4.1-0.7,4.1-0.7l1.4-1.2
		l-0.3-1.8l-8.8-4.5L266,112l-2.1-1.9l1.2-1.2l3.8-2.2l0.9-3c0,0-1.6-3.4-2.2-3.7c-0.5-0.3-3-0.8-2.7-1.5c0.3-0.8,0.3-3.1,0.3-3.1
		l5.2-2.3l0.9-4.4l-2.7-2.7l-2-1.5l0.2-3.4l3.5-0.8l2.3-1.9l-0.3-2.8l-0.8-3.3l-1.6,0.6l-3.3,1.8c0,0-2.7-0.9-2.9-0.7
		c-0.2,0.2-1.4,2.2-1.4,2.2l0.8,3.5l0.9,3.6l-2.2,2.7l-5.2-0.4l-1.7,2l1.2,3.8c0,0,1.1,2.4,0,3.9s-3.1,2.4-3.1,2.4s-2.1-0.2-3.1,0.1
		c-1,0.3-2.4,1.6-2.4,1.6s-0.4-0.1,0.1,1.4s1,2.8,1.4,3.8c0.3,1-0.7,3.4-0.9,3.7c-0.2,0.3-2.6,1.7-2.6,1.7s-3.6,0-3.8,0.2
		s-0.1,1.1,0,1.4"/>
	<path class="st2" d="M350.3,180.7l78.3,12.3l2.3,1.9l-2.5,3.7h-4.8c0,0-1.2,4.8-1.4,5.1c-0.3,0.3,1.1,4.2,1.1,4.2l-2.1,2.5H416
		c0,0-2.2,2.8-1.9,4.2c0.3,1.4,1.8,3.1,1.8,3.4c0,0.3-0.3,2.6-0.3,2.6l-1.1,1.2"/>
	<path class="st2" d="M276.3,33.9l64.3-14.8l-67-6.2l-0.8,2.3l3.8,1.6l0.9,2.4c0,0-1,3.7-1.6,4.5s-0.2,1.6-2.7,2.1
		c-2.4,0.5-0.9,1.9-0.9,1.9v2.4l3,0.7"/>
	<g>
		<g>
			<g>
				<path class="st6" d="M162.4,142.3c-0.7-0.9-1.5-1.4-2.4-1.7l17-9.1c-0.4,1-0.9,2-1.2,3c-0.1,0.2-0.1,0.4,0,0.6L162.4,142.3z"/>
				<path class="st6" d="M103.2,173c-0.7-0.4-1.3-0.8-2-1l20.8-11.1c-0.4,1.1-0.7,2.2-0.7,3.3l-17.6,9.4
					C103.6,173.4,103.4,173.2,103.2,173z"/>
				<path class="st6" d="M4.7,224.8c2-10,8.3-23.6,27.1-31.4c2.4-1,4.8-1.5,7.4-1.4l19.7,0.3c2.6,0.1,5.3-0.6,7.6-1.8l22.9-12.2
					c0.9-0.5,1.8,0.2,1.8,1.2l0,0c0,0.3,0.1,0.5,0.2,0.7l-23.7,12.6c-2.7,1.4-5.8,2.2-8.9,2.1L39,194.6c-2.2-0.1-4.3,0.4-6.3,1.2
					C15,203.1,9.1,215.9,7.2,225.3C5.9,232,9,238.8,15,242c27.5,14.9,76.2,20.7,81.6,21.4c0.5,0.1,1,0.1,1.6,0.1l240.2,2.6
					c0.1,0,0.1,0,0.2,0c1.5-0.2,13.3-2.3,13-19v-19.7c0-0.4-0.2-0.7-0.5-1l-2.2-1.7c-0.3-0.2-0.5-0.6-0.5-1v-30.4c0-0.1,0-0.2,0-0.3
					l-8.2-28c-0.2-0.8-1.3-1.2-2-0.6c-9.2,7.8-38,29.5-64,21.8c-30.7-9.2-41.7-44.6-41.8-44.9c-0.1-0.5,0-1,0.4-1.3
					c0.3-0.3,0.7-0.6,1-0.9c6.7-6.4,5.7-14.7,1.8-20.1c-4-5.5-11.7-9.2-20-4.7L191,127.4c-0.4,0.2-0.9,0.2-1.2-0.1
					c0,0-0.1-0.1-0.2-0.1c-0.8-0.5-0.7-1.7,0.1-2.1l24.7-13.1c9.7-5.1,18.7-0.9,23.4,5.5c4.6,6.3,5.7,16.1-2.1,23.5
					c-0.1,0.1-0.3,0.3-0.4,0.4c1.8,5.1,12.8,34.4,39.8,42.4c29.3,8.8,64.1-23.5,64.4-23.8s0.8-0.4,1.2-0.3c0.4,0.1,0.8,0.5,0.9,0.9
					l9.4,32.2c0,0.1,0,0.2,0,0.3v29.5c0,0.4,0.2,0.7,0.5,1l2.2,1.7c0.3,0.2,0.5,0.6,0.5,1v21c0.4,19.8-15.3,21.6-15.5,21.6h-0.1l0,0
					l-240.3-2.6c-0.6,0-1.2,0-1.8-0.1c-9-1-55.2-6.8-82.6-21.7C6.8,240.5,3.1,232.6,4.7,224.8z"/>
				<path class="st6" d="M134.2,157.4c-0.8-0.9-1.8-1.3-2.9-1.4l17.4-9.2c-0.3,0.9-0.3,1.9,0,3L134.2,157.4z"/>
			</g>
			<path class="st7" d="M233.7,140.8c0,0-9.6-14.9-35,2"/>
			<path class="st7" d="M349.7,223.6c0,0,2.8,5.7-16.3,6.4c-19.1,0.7-231.4-3.7-231.4-3.7s-68.5-3.5-85.5-20"/>
			<path class="st7" d="M102,226.3c0,0-8.6,17.8-5.5,38.4"/>
			<path class="st7" d="M352.5,247.9c0,0-0.3,6.3-15,5.6l-241.3-0.7"/>
			<path class="st7" d="M61.7,193.5c0,0,9.6,13.3-5.6,27.3"/>
			<path class="st7" d="M245.3,163.9c0,0-95.5,56.4-162.2,48.2l-18.6-7"/>
			<line class="st7" x1="83.2" y1="212.1" x2="79.4" y2="224.3"/>
			<path class="st8" d="M199.5,167.8L199.5,167.8c4.1-1.8,6-6.6,4.2-10.7l-11.6-26.2c-1.8-4.1-6.6-6-10.7-4.2l0,0
				c-4.1,1.8-6,6.6-4.2,10.7l11.6,26.2C190.6,167.7,195.4,169.6,199.5,167.8z"/>
			<path class="st8" d="M171.3,181.3L171.3,181.3c4.1-1.8,6-6.6,4.2-10.7l-11.6-26.2c-1.8-4.1-6.6-6-10.7-4.2l0,0
				c-4.1,1.8-6,6.6-4.2,10.7l11.6,26.2C162.4,181.2,167.2,183.1,171.3,181.3z"/>
			<path class="st8" d="M142.7,194L142.7,194c4.1-1.8,6-6.6,4.2-10.7l-10.3-23.5c-1.8-4.1-6.6-6-10.7-4.2l0,0
				c-4.1,1.8-6,6.6-4.2,10.7l10.3,23.5C133.8,194,138.6,195.8,142.7,194z"/>
			<path class="st8" d="M109.1,203.1L109.1,203.1c4.1-1.8,6-6.6,4.2-10.7l-7-15.9c-1.8-4.1-6.6-6-10.7-4.2l0,0
				c-4.1,1.8-6,6.6-4.2,10.7l7,15.9C100.2,203,105,204.9,109.1,203.1z"/>
			<circle class="st7" cx="218" cy="155.7" r="4.4"/>
			<line class="st7" x1="182.3" y1="149.9" x2="169" y2="155.1"/>
			<line class="st7" x1="153.4" y1="161.3" x2="140" y2="167.3"/>
			<line class="st7" x1="123.8" y1="173.2" x2="108.3" y2="179.6"/>
			<path class="st7" d="M92.4,186.1c0,0-29.1,8.3-30.3,8.3"/>
		</g>
		<g>
			<g>
				<path class="st9" d="M472.5,54.1c0.3-2.6,2.6-4.6,5.2-4.4l0.4-4.2c-2.6-0.3-4.5-2.7-4.3-5.4c0.3-2.7,2.6-4.6,5.2-4.4l0.3-3
					L273.5,12.2l-0.3,3h0.1c2.7,0.3,4.7,2.7,4.4,5.4c-0.3,2.7-2.7,4.7-5.4,4.4c-0.1,0-0.1,0-0.1,0l-0.4,4.2h0.1
					c2.7,0.3,4.7,2.7,4.4,5.4c-0.3,2.7-2.7,4.7-5.4,4.4c-0.1,0-0.1,0-0.1,0l-0.4,4.2h0.1c2.7,0.3,4.7,2.7,4.4,5.4
					c-0.3,2.7-2.7,4.7-5.4,4.4c-0.1,0-0.1,0-0.1,0l-0.4,4.2h0.1c2.7,0.3,4.7,2.7,4.4,5.4c-0.3,2.7-2.7,4.7-5.4,4.4
					c-0.1,0-0.1,0-0.1,0l-0.4,4.2h0.1c2.7,0.3,4.7,2.7,4.4,5.4c-0.3,2.7-2.7,4.7-5.4,4.4c-0.1,0-0.1,0-0.1,0l-0.4,4.2h0.1
					c2.7,0.3,4.7,2.7,4.4,5.4c-0.3,2.7-2.7,4.7-5.4,4.4c-0.1,0-0.1,0-0.1,0l-0.4,4.2h0.1c2.7,0.3,4.7,2.7,4.4,5.4
					c-0.3,2.7-2.7,4.7-5.4,4.4c-0.1,0-0.1,0-0.1,0l-0.3,3.2l205.9,20.5l0.3-3.2c-2.6-0.3-4.5-2.7-4.3-5.4c0.3-2.7,2.6-4.6,5.2-4.4
					l0.4-4.2c-2.6-0.3-4.5-2.7-4.3-5.4c0.3-2.7,2.6-4.6,5.2-4.4l0.4-4.2c-2.6-0.3-4.5-2.7-4.3-5.4c0.3-2.7,2.6-4.6,5.2-4.4l0.4-4.2
					c-2.6-0.3-4.5-2.7-4.3-5.4c0.3-2.7,2.6-4.6,5.2-4.4l0.4-4.2c-2.6-0.3-4.5-2.7-4.3-5.4c0.3-2.7,2.6-4.6,5.2-4.4l0.4-4.2
					C474.1,59.1,472.2,56.7,472.5,54.1z"/>
			</g>
		</g>
		<g>
			<g>
				<g>
					<path class="st6" d="M329.7,167.9c0.1-0.2,0.3-0.3,0.5-0.5l-89.3-55.9l0.6-0.9c2.7,1.1,5.9,0.2,7.5-2.3s1-5.8-1.1-7.7l1.1-1.8
						c2.7,1.1,5.9,0.2,7.5-2.3c0.9-1.4,1.1-3,0.8-4.5c-0.3-1.3-0.9-2.4-1.9-3.2l1.1-1.8c1.2,0.5,2.4,0.6,3.7,0.3
						c1.6-0.4,2.9-1.3,3.8-2.7c1.6-2.5,1.1-5.8-1.1-7.7l1.1-1.8c2.3,1,5,0.4,6.8-1.4c0-0.2,0-0.4-0.1-0.7c-0.5-0.3-1-0.6-1.5-0.9
						c-1.2,1.4-3.3,1.7-4.9,0.7c0,0-0.1,0-0.1-0.1c-0.2-0.2-0.6-0.2-0.8-0.2c-0.3,0.1-0.5,0.2-0.7,0.5l-2.2,3.6
						c-0.2,0.3-0.2,0.6-0.1,0.9s0.3,0.5,0.5,0.7c0,0,0.1,0,0.1,0.1c1.8,1.1,2.3,3.5,1.2,5.3c-0.5,0.9-1.4,1.5-2.4,1.7
						s-2,0.1-2.9-0.5l-0.1-0.1c-0.2-0.2-0.6-0.2-0.8-0.2c-0.3,0.1-0.5,0.2-0.7,0.5l-2.2,3.6c-0.2,0.3-0.2,0.6-0.1,0.8
						c0.1,0.3,0.3,0.5,0.5,0.7c0,0,0.1,0,0.1,0.1c0.9,0.5,1.5,1.4,1.7,2.4s0.1,2-0.5,2.9c-1.1,1.8-3.5,2.3-5.3,1.2
						c0,0-0.1,0-0.1-0.1c-0.2-0.2-0.6-0.2-0.8-0.2c-0.3,0.1-0.5,0.2-0.7,0.5l-2.2,3.6c-0.2,0.3-0.2,0.6-0.1,0.9
						c0.1,0.3,0.3,0.5,0.5,0.7c0,0,0.1,0,0.1,0.1c1.8,1.1,2.3,3.5,1.2,5.3s-3.5,2.3-5.3,1.2c0,0-0.1,0-0.1-0.1
						c-0.2-0.2-0.6-0.2-0.8-0.2c-0.3,0.1-0.5,0.2-0.7,0.5l-1.7,2.7c-0.2,0.2-0.2,0.5-0.1,0.8c0,0.2,0.1,0.3,0.2,0.5
						c0.1,0.1,0.2,0.2,0.3,0.2l89.9,56.4C329.1,168.8,329.4,168.3,329.7,167.9z"/>
					<path class="st6" d="M469,136.6c-0.1-0.3-0.2-0.5-0.5-0.7l-8-5c-1,0.4-2,0.6-3,0.7l9,5.6L466,138c-2.6-1-5.6,0-7.2,2.5
						c-1.5,2.5-1.1,5.6,0.9,7.5l-1.2,1.9c-2.6-1-5.6,0-7.2,2.5c-1.5,2.5-1.1,5.6,0.9,7.5l-1.2,1.9c-2.6-1-5.6,0-7.2,2.5
						c-1.5,2.5-1.1,5.6,0.9,7.5l-1.2,1.9c-2.6-1-5.6,0-7.2,2.5c-1.5,2.5-1.1,5.6,0.9,7.5l-1.2,1.9c-2.6-1-5.6,0-7.2,2.5
						c-1.5,2.5-1.1,5.6,0.9,7.5l-1.2,1.9c-2.6-1-5.6,0-7.2,2.5c-1.5,2.5-1.1,5.6,0.9,7.5l-1.2,1.9c-2.6-1-5.6,0-7.2,2.5
						c-1.5,2.5-1.1,5.6,0.9,7.5l-0.6,0.9l-68.8-43.1c0.1,0.9,0.1,1.7-0.1,2.5l68.7,43c0.5,0.3,1.2,0.2,1.5-0.3l1.7-2.7
						c0.3-0.5,0.2-1.2-0.3-1.5c-1.7-1.2-2.2-3.4-1.1-5.2s3.4-2.3,5.2-1.3c0.5,0.3,1.2,0.1,1.5-0.4l2.2-3.6c0.3-0.5,0.2-1.2-0.3-1.5
						c-1.7-1.2-2.2-3.4-1.1-5.2s3.4-2.3,5.2-1.3c0.5,0.3,1.2,0.1,1.5-0.4l2.2-3.6c0.3-0.5,0.2-1.2-0.3-1.5c-1.7-1.2-2.2-3.4-1.1-5.2
						s3.4-2.3,5.2-1.3c0.5,0.3,1.2,0.1,1.5-0.4l2.2-3.6c0.3-0.5,0.2-1.2-0.3-1.5c-1.7-1.2-2.2-3.4-1.1-5.2s3.4-2.3,5.2-1.3
						c0.5,0.3,1.2,0.1,1.5-0.4l2.2-3.6c0.3-0.5,0.2-1.2-0.3-1.5c-1.7-1.2-2.2-3.4-1.1-5.2s3.4-2.3,5.2-1.3c0.5,0.3,1.2,0.1,1.5-0.4
						l2.2-3.6c0.3-0.5,0.2-1.2-0.3-1.5c-1.7-1.2-2.2-3.4-1.1-5.2s3.4-2.3,5.2-1.3c0.5,0.3,1.2,0.1,1.5-0.4l2.2-3.6
						c0.3-0.5,0.2-1.2-0.3-1.5c-1.7-1.2-2.2-3.4-1.1-5.2s3.4-2.3,5.2-1.3c0.5,0.3,1.2,0.1,1.5-0.4L469,136.6
						C469,137.2,469.1,136.9,469,136.6z"/>
				</g>
			</g>
		</g>
		<g>
			<path class="st6" d="M330.1,34.8l-0.7,7.5l15.6,1.4L343.8,58l-0.6,6.8l-22.4-2l0.6-6.8l15.6,1.4l0.7-7.5L322,48.5l1.9-21.1
				l22.4,2l-0.6,6.8L330.1,34.8z"/>
			<path class="st6" d="M368.7,67.1l-6.8-0.6l2.6-28.6l-8.8-0.8l-2.6,28.6l-6.8-0.6l3.2-35.4l15.6,1.4l6.8,0.6L368.7,67.1z"/>
			<path class="st6" d="M392.9,51.5l2.7,3.2l-1.3,14.7l-6.8-0.6l1.3-14.3l-8.8-0.8L378.6,68l-6.8-0.6l1.9-21.1L375,32l6.8,0.6
				l-1.3,14.3l8.8,0.8l1.3-14.3l6.8,0.6l-1.3,14.7L392.9,51.5z"/>
			<path class="st6" d="M419.8,71.7l-6.8-0.6l1.3-14.3l-8.8-0.8l-1.3,14.3l-6.8-0.6l1.9-21.1l1.3-14.3l15.6,1.4l6.8,0.6L421.7,51
				l-3.3,2.7l2.7,3.2L419.8,71.7z M415.6,42.6l-8.8-0.8l-0.7,7.5l8.8,0.8L415.6,42.6z"/>
			<path class="st6" d="M327.1,78.8l-7.8-0.7l-2.6,28.6l-6.7-0.6l2.6-28.6l-7.8-0.7l0.6-6.8l14.6,1.3l7.8,0.7L327.1,78.8z"/>
			<path class="st6" d="M336,108.4l-6.8-0.6l3.2-35.4l6.8,0.6L336,108.4z"/>
			<path class="st6" d="M358.8,86.4l0.4-4.6L350,81l-2,21.8l8.8,0.8l0.4-4.6l6.8,0.6l-1,11.4l-15.6-1.4l-6.8-0.6l2.6-28.6l0.6-6.8
				l16,1.5l6.8,0.6l-1,11.4L358.8,86.4z"/>
			<path class="st6" d="M387.7,95.3l2.7,3.2l-1.3,14.7l-6.8-0.6l1.3-14.3l-8.8-0.8l-1.3,14.3l-6.8-0.6l1.9-21.1l1.3-14.3l6.8,0.6
				l-1.3,14.3l8.8,0.8l1.3-14.3l6.8,0.6L391,92.5L387.7,95.3z"/>
			<path class="st6" d="M401.5,85.6l-0.7,7.5l11,1l-0.6,6.8l-11-1l-0.7,7.5l15.6,1.4l-0.6,6.8l-22.4-2l1.3-14.3l1.3-14.3l0.6-6.8
				l22.4,2l-0.6,6.8L401.5,85.6z"/>
			<path class="st6" d="M442.7,89.3l-7.8-0.7l-2.6,28.6l-6.7-0.6l2.6-28.6l-7.8-0.7l0.6-6.8l14.6,1.3l7.8,0.7L442.7,89.3z"/>
		</g>
	</g>
	<circle class="st10" cx="21.8" cy="161.9" r="4.5"/>
	<g>
		<line class="st11" x1="48.7" y1="138.8" x2="48.7" y2="159.8"/>
		<line class="st11" x1="38.2" y1="149.3" x2="59.2" y2="149.3"/>
	</g>
	<circle class="st12" cx="145.1" cy="117.6" r="9.1"/>
	<circle class="st10" cx="206.6" cy="71.5" r="4.5"/>
	<circle class="st13" cx="261.1" cy="158.2" r="4.5"/>
	<g>
		<line class="st11" x1="224.6" y1="72.7" x2="224.6" y2="93.6"/>
		<line class="st11" x1="214.2" y1="83.1" x2="235.1" y2="83.1"/>
	</g>
	<circle class="st10" cx="399.3" cy="228.5" r="4.5"/>
	<g>
		<line class="st11" x1="381.2" y1="229.7" x2="381.2" y2="250.7"/>
		<line class="st11" x1="391.7" y1="240.2" x2="370.7" y2="240.2"/>
	</g>
	<line class="st14" x1="288.4" y1="7.3" x2="348.7" y2="12.4"/>
	<line class="st14" x1="253.2" y1="130.6" x2="304.7" y2="164.3"/>
</g>
</svg>
