<?xml version="1.0" encoding="utf-8"?>
<!-- Generator: Adobe Illustrator 23.0.3, SVG Export Plug-In . SVG Version: 6.00 Build 0)  -->
<svg version="1.1" id="Layer_2" xmlns="http://www.w3.org/2000/svg" xmlns:xlink="http://www.w3.org/1999/xlink" x="0px" y="0px"
	 viewBox="0 0 395 355" style="enable-background:new 0 0 395 355;" xml:space="preserve">
<style type="text/css">
	.st0{fill:#E6F5FF;}
	.st1{fill:#CCE8FE;}
	.st2{clip-path:url(#XMLID_2_);fill:#CCE8FE;}
	.st3{clip-path:url(#XMLID_3_);fill:#F79014;}
	.st4{clip-path:url(#XMLID_4_);fill:#40A8A0;}
	.st5{fill:#40A8A0;}
	.st6{clip-path:url(#XMLID_5_);fill:#2069A7;}
	.st7{clip-path:url(#XMLID_5_);fill:#FFFFFF;}
	.st8{fill:#57B8FA;}
	.st9{fill:#49B7FA;}
	.st10{fill:#FFFFFF;}
	.st11{fill:#F8767F;}
	.st12{fill:#2069A7;}
	.st13{fill:#F4AE0E;}
	.st14{fill:#F79014;}
	.st15{clip-path:url(#XMLID_6_);fill:#CCE8FE;}
	.st16{clip-path:url(#XMLID_7_);fill:#CCE8FE;}
	.st17{fill:none;stroke:#163460;stroke-linecap:round;stroke-linejoin:round;stroke-miterlimit:10;}
	.st18{fill:#163460;}
	.st19{fill:none;stroke:#163460;stroke-width:1.5809;stroke-linecap:round;stroke-linejoin:round;stroke-miterlimit:10;}
	.st20{fill:none;stroke:#163460;stroke-width:1.8095;stroke-linecap:round;stroke-linejoin:round;stroke-miterlimit:10;}
	.st21{fill:none;stroke:#163460;stroke-width:1.012;stroke-linecap:round;stroke-linejoin:round;stroke-miterlimit:10;}
	.st22{fill:none;stroke:#163460;stroke-width:0.8223;stroke-linecap:round;stroke-linejoin:round;stroke-miterlimit:10;}
	.st23{fill:none;stroke:#163460;stroke-width:0.8597;stroke-linecap:round;stroke-linejoin:round;stroke-miterlimit:10;}
	.st24{clip-path:url(#XMLID_8_);fill:#CCE8FE;}
	.st25{fill:none;stroke:#163460;stroke-width:2;stroke-linecap:round;stroke-linejoin:round;stroke-miterlimit:10;}
	.st26{fill:none;stroke:#163460;stroke-width:2.7142;stroke-linecap:round;stroke-linejoin:round;stroke-miterlimit:10;}
	.st27{fill:none;stroke:#163460;stroke-width:2.4747;stroke-linecap:round;stroke-linejoin:round;stroke-miterlimit:10;}
	.st28{fill:none;stroke:#F55C76;stroke-width:4.2857;stroke-linecap:round;stroke-linejoin:round;stroke-miterlimit:10;}
	.st29{fill:none;stroke:#49B7FA;stroke-width:3.3333;stroke-linecap:round;stroke-linejoin:round;stroke-miterlimit:10;}
	.st30{fill:none;stroke:#49B7FA;stroke-width:3;stroke-linejoin:round;stroke-miterlimit:10;}
	.st31{fill:none;stroke:#163460;stroke-width:2;stroke-linecap:round;stroke-miterlimit:10;}
</style>
<g>
	<path class="st0" d="M376,100.1c-0.4-9.8-6.5-21.1-12.5-28.5c-13.6-16.9-33.2-23-53.6-26.9c0,0-0.1,0-0.1,0
		c2.2,0.4,4.5,0.8,6.7,1.2c-2.7-0.6-5.4-1.1-8.1-1.7l-5.2-1.9c-5-6.3-9.1-13.4-15.1-18.9c-12.6-11.6-28.7-16.5-45.5-17.5
		c-18.1-1-35.7-1.9-53.8-1.7c-10.7,0.1-21.3,1-32,1.2c-24.6,0.4-49.7,2.3-73.5,8.7c-11.6,3.2-23.2,6.6-33.5,13
		C43.6,31,39.1,35.3,34.7,41c-8.3,10.7-13.5,21.6-17.6,34.5c-4.1,12.7-5.6,25.7-5.5,39c0.1,8.1,0.8,16,2.1,24c0.7,4,1,8,0.7,12.1
		c-2.6,11.1-7.2,21.4-8.5,33c-1.2,10.8,0.2,22,2.2,32.6c1.7,9.1,3.9,18.1,5.8,27.2c1,4.5,1.9,9.1,3.1,13.6c0.6,2.4,1.2,4.8,1.9,7.2
		c1.7,6.8,4.5,12.3,7.8,18.3c2.4,4.9,5.1,9.7,7.9,14.3c4.8,8.5,17.3,11.5,25.9,9.4c8.7-2.1,18.3-10.1,18.9-19.8
		c0.5-8,1.1-16.1,1.3-24.2c0.1-5.4-1.3-10.8-2.4-16.1c-1.4-6.8-3-13.5-4.7-20.2c-2.6-10.8-5.8-21.6-7.2-32.6c0-2.5,0.1-5,0.3-7.5
		c0.3-1.1,0.6-2.1,0.9-3.2c2.1-7,4.8-13.6,7.3-20.4c3.8-10.6,5.7-23.3,5.7-34.7c0-8.1-1.6-16.2-2-24.3c0-0.3,0-0.6,0-1
		c0.3-6.4,1.3-12.7,3.2-18.8c0,0,0,0,0-0.1c2.3-5,5.3-9.4,8.3-13.9c3.9-5.9,9.8-8.3,16.5-9.9c13.5-3.3,27.7-4.9,41.5-6.1
		c7.3-0.6,14.6-1.3,21.9-0.9c11,0.6,22,2.2,32.9,3.8c9.6,1.4,17.7,3.4,27.7,6c1,0.3,7.2,2.4,2.7,0.8c2.4,0.8,4.8,1.6,7.2,2.6
		c-0.5-0.1,0.2,0.3,1.2,0.9c4.5,7.2,7.9,14.9,12.7,22c7.5,11.2,18,19.8,29.9,26.2c-0.8-0.4-1.6-0.8-2.3-1.1c1.2,0.6,2.4,1.2,3.5,1.8
		c0.3,0.1,0.5,0.3,0.8,0.4c3.8,1.9,7.5,3.9,11.1,5.9c0,0,0,0,0,0c0.6,1.6,1.2,3.1,1.9,4.7c0.1,0.2,0.1,0.4,0.2,0.6
		c-0.7,2.5-1.4,5-2.3,7.4c-2.3,6.1-3.7,12.6-4.9,19c-1.4,7.8-2.2,15.6-3.6,23.4c-2.6,15-3.2,30.2-5.2,45.3c-0.8,3.5-1.8,7-2.9,10.4
		c-0.3,0.7-0.6,1.5-0.9,2.2c-0.8,1.9-1.7,3.8-2.5,5.6c-1,1.7-2.2,3.2-3.4,4.7c-2.5,2.2-5,4.3-7.6,6.5c0.7-0.6,1.4-1.1,2.1-1.7
		c-7.4,6.7-12.2,15.1-11.6,25.8c0.4,7.1,2.5,14.8,8.2,19.7l42.9,4.2c0.8-0.4,1.7-0.8,2.5-1.3c12.2-6.5,22.4-16.6,30.2-27.9
		c11.7-17.1,11.8-39,11.4-58.9c0,2.1,0.1,4.3,0.1,6.4c-0.1-9-0.2-18-0.2-26.9c0-4.9-0.6-9.9-1.1-14.9c-0.5-7-1.1-14-1.3-21
		c-0.1-1.6-0.1-3.3,0-4.9c5.2-3.8,10.6-7.6,14.9-12.1c5-5.2,7.8-11.8,10-18.5C376.1,112.9,376.2,106.9,376,100.1z M349.2,147.4
		c0-0.3,0-0.6,0.1-0.9c-0.2-1.7,0.7-2.5,2.9-2.4C351.2,145.2,350.2,146.3,349.2,147.4z"/>
	<path class="st0" d="M349.3,315.7c-0.1-0.7-0.2-1.4-0.4-2.2c-0.3-0.7-0.6-1.4-0.9-2.1c-0.6-1-1.4-1.8-2.4-2.4
		c-0.6-0.5-1.2-0.8-1.9-1c-1-0.5-2.1-0.6-3.2-0.6c-0.7,0.1-1.4,0.2-2.2,0.4c-0.3,0.2-0.7,0.3-1,0.5c-0.3,0.1-0.6,0.3-0.9,0.4
		c0,0-0.1,0-0.1,0c0,0-0.1,0.1-0.1,0.1c-0.6,0.4-1.1,0.8-1.6,1.3c0,0,0,0,0,0c0,0,0,0,0,0c-0.5,0.5-0.9,1.1-1.2,1.7
		c0,0,0,0.1-0.1,0.1c0,0,0,0,0,0c-0.2,0.3-0.3,0.7-0.4,1c-0.5,1-0.6,2.1-0.6,3.2c0.1,1.7,0.7,3.5,1.8,4.9c0,0,0.1,0.1,0.1,0.1
		c0.1,0.2,0.2,0.3,0.4,0.4c0.1,0.1,0.2,0.2,0.3,0.3c0.1,0.1,0.1,0.1,0.2,0.2c0,0,0.1,0,0.1,0.1c0.3,0.2,0.5,0.4,0.8,0.6
		c0.3,0.2,0.6,0.5,0.9,0.6c0,0,0,0,0,0c0.1,0,0.1,0,0.2,0.1c0.1,0.1,0.2,0.1,0.3,0.1c0.5,0.2,1.1,0.4,1.7,0.5c0.7,0.2,1.3,0.2,2,0.2
		c0.7-0.1,1.4-0.2,2.2-0.4c0.7-0.3,1.4-0.6,2.1-0.9c1-0.6,1.8-1.4,2.4-2.4c0.5-0.6,0.8-1.2,1-1.9
		C349.2,317.9,349.4,316.9,349.3,315.7z"/>
	<path class="st0" d="M374.7,306c-0.6-5.6-5.4-8.5-10.5-8.5c-5.2,0-9,5.8-8.5,10.5c0.6,5.6,5.4,8.5,10.5,8.5
		C371.4,316.5,375.2,310.7,374.7,306z"/>
	<path class="st0" d="M315.2,20.8c-3.3-0.2-6.7,2.7-7.1,6c-0.3,2.8,1.2,5.4,4.3,5.7c0.4,0,0.7,0,1.1,0c1,0.4,2.2,0.6,3.4,0.4
		c2.7-0.5,4.7-3.1,4.5-5.8C321.1,23.7,318.6,21,315.2,20.8z"/>
	<polyline class="st1" points="167.9,292.6 189.8,266.5 229.4,316.8 235,321 225.6,324.1 167.3,324.1 	"/>
	<g>
		<defs>
			<path id="XMLID_89_" d="M154.4,117.4c0,0,79.7-17,117.4-45.3c0,0,83.9,46.8,117.8,44.6c0,0-24.8,142.8-29.7,150.7
				c0,0-4.7,8.5-5.9,9.3c-1.3,0.8-46.4,55.2-77.1,72.1l-3.7,1.5l-3.1,0.5l-7.2-3.1l-45.2-39.8l-9.7-10.3l-13.4-14.8l-7.5-9.6
				l-2.6-3.3l-16.3-69.7"/>
		</defs>
		<use xlink:href="#XMLID_89_"  style="overflow:visible;fill:#FFFFFF;"/>
		<clipPath id="XMLID_2_">
			<use xlink:href="#XMLID_89_"  style="overflow:visible;"/>
		</clipPath>
		<polyline class="st2" points="163.2,210.8 379.4,310.1 366.4,340.8 257.3,383.2 218.6,382.3 164.6,345.5 137.6,302.6 		"/>
		<polyline class="st2" points="154.8,173.1 369.6,272.8 388.3,234.1 391.1,167.5 127.8,87.8 		"/>
		<polyline class="st2" points="238.5,80.6 397.6,139 411.3,113.4 262,51.9 236.8,44.2 		"/>
	</g>
	<g>
		<defs>
			<polyline id="XMLID_86_" points="71.2,220.3 167.3,220.5 167.3,323.7 71.6,323.7 			"/>
		</defs>
		<use xlink:href="#XMLID_86_"  style="overflow:visible;fill:#F4AE0E;"/>
		<clipPath id="XMLID_3_">
			<use xlink:href="#XMLID_86_"  style="overflow:visible;"/>
		</clipPath>
		<polyline class="st3" points="65.6,326.2 169.7,217.6 169.7,330.3 		"/>
		<circle class="st3" cx="118.7" cy="269.2" r="27.5"/>
		<path class="st3" d="M82.9,237.7c0,0-3.6,1.1-3.1,3.5c0.5,2.4,15.1,18.1,15.1,18.1l3.7-4.7"/>
		<path class="st3" d="M81.1,304.8c0,0-2.2,3.1,1.9,5c4.1,1.9,10.1-0.8,10.1-0.8"/>
	</g>
	<g>
		<defs>
			<path id="XMLID_88_" d="M165.4,126.5c0,0,20.3,119,26.7,135.6c0,0,41.1,58.7,79,75.1l6.8-1.6c0,0,55.2-41.6,72-69.9
				c0,0,23.8-98,28.3-139.1c0,0-82-22.5-106.6-40.5C271.7,86.2,209.3,119.4,165.4,126.5z"/>
		</defs>
		<use xlink:href="#XMLID_88_"  style="overflow:visible;fill:#73DFD9;"/>
		<clipPath id="XMLID_4_">
			<use xlink:href="#XMLID_88_"  style="overflow:visible;"/>
		</clipPath>
		<path class="st4" d="M167.2,136"/>
		<polyline class="st4" points="181.1,217.6 332.8,288.9 364.3,269.6 163,179.5 		"/>
		<path class="st4" d="M168.9,129c0,0,61.9-10,102.8-39.7c0,0,60.1,38.6,103.8,39.3l3.3-3L271,66.4l-111.8,55.7"/>
		<polyline class="st4" points="331.6,173.2 376.7,136.5 378.1,125.1 328.1,171.4 		"/>
		<polyline class="st4" points="163.1,125.6 214.2,170.6 213.1,172.5 164.5,133.7 		"/>
	</g>
	<circle class="st5" cx="270.6" cy="210.6" r="72.7"/>
	<path class="st5" d="M199.1,272.1l100.7,46.4l-6.5,5.8c0,0-15.5,11.4-16,11.4c-0.5,0-5.5,2.1-5.5,2.1l-17.2-9.7l-43.8-42.9"/>
	<circle class="st1" cx="271" cy="308.5" r="13.7"/>
	<g>
		<defs>
			<circle id="XMLID_87_" cx="270.6" cy="210.9" r="64"/>
		</defs>
		<use xlink:href="#XMLID_87_"  style="overflow:visible;fill:#57B8FA;"/>
		<clipPath id="XMLID_5_">
			<use xlink:href="#XMLID_87_"  style="overflow:visible;"/>
		</clipPath>
		<polyline class="st6" points="208,259.5 363.9,199 362.9,238.5 218.2,284.7 		"/>
		<polyline class="st6" points="200.7,205 343.7,159.6 343,129.5 199.7,176.3 		"/>
		<path class="st7" d="M220.1,174.4c0,0,21.8-32,64.5-25.5s0,0,0,0S251.7,146.4,220.1,174.4z"/>
	</g>
	<ellipse class="st8" cx="271" cy="308.5" rx="10.5" ry="10.4"/>
	<ellipse class="st1" cx="118.6" cy="269.9" rx="24.8" ry="24.2"/>
	<path class="st1" d="M97.4,283.3l-16,17.4c0,0-1.1,4.1,0.3,5.3c1.5,1.2,3.6,2.6,4.6,2.3c1-0.3,17.3-15.1,17.3-15.1l4.6-4.8"/>
	<path class="st1" d="M101.4,261.6l-19.3-22.3c0,0-1.7-5.2,1.3-6.3s5.2-0.7,5.7,0.1c0.6,0.8,19.7,19.2,19.7,19.2"/>
	<path class="st1" d="M127.8,255.4c0,0,2.9-4.9,3.6-5.2c0.7-0.3,17.4-17.1,17.4-17.1s4.4-0.7,5,0.1c0.7,0.8,2.4,3.8,2.4,3.8l0,1.9
		l-6.8,8.3l-10.6,11.7"/>
	<path class="st1" d="M139.5,282.4l16.9,18.5c0,0,0.5,3.9,0,4.5c-0.5,0.5-1.8,1.8-1.8,1.8l-2.9,0.5l-4-1.4l-17-17.2"/>
	<path class="st9" d="M88.7,233.4c0,0-3.8,0-3.9,2.1c-0.1,2.1,22.5,25.1,22.5,25.1l-1,1.6l-4.5-0.5l-18.7-21.4l-1.7-2.1l0.6-4
		c0,0,2.6-2.2,4-2.1"/>
	<path class="st9" d="M110.6,257.5c0,0-0.1,3-2.1,4.1c-2,1.2-4.7,3.3-8.6,1.3c0,0-4.5,8.6,1.5,16.1l-3.1,3.2c0,0-7.7-11.1-0.2-23.9
		l1.9,1.9l2.7,1.6l1.9,0.4l1.9-1.3"/>
	<path class="st9" d="M108.8,288.1c0,0,4.4,3.2,11.7,2.4c7.3-0.8,8.1-2.4,8.1-2.4l3.1,3.2l-2.4,1.2l-5.7,1.6l-3.7,0.1l-5.5-0.2
		l-5.9-1.7l-1.3-1"/>
	<path class="st9" d="M136.9,279.4c0,0,5.6-7.6,1.1-19l1.9-2.6l1.8,2.8l1.2,6.1v6.1l-0.9,5.2l-0.9,2.7l-1,1.7"/>
	<path class="st9" d="M98.6,282.6c0,0,3.1-2.4,4.6-0.3c1.5,2.1-19.7,24.4-19.7,24.4s0,2.1,2.8,1.9c2.8-0.3,23-20.8,23-20.8l0.6-3.8
		l-0.9-3l-2.9-1.3l-1.1-1l-2.3,0.1l-1.3,0.7"/>
	<path class="st9" d="M128.8,252.3c0,0-1.2,5.1,2.1,6.8c3.3,1.7,23.4-22.8,23.4-22.8s-0.7-3.4-5.6-2.7c-4.9,0.6,0-0.2,0-0.2l2.3-0.8
		l3.5,0.5l1.1,2.2l0.1,2.9l-0.5,2.4l-3.4,4.7l-13.3,14.6l-3.8,2.3l-2.7,0.3l-3.9-3.6"/>
	<ellipse class="st10" cx="85.8" cy="235.6" rx="2.1" ry="2"/>
	<ellipse class="st10" cx="152.7" cy="236.5" rx="2.1" ry="2"/>
	<path class="st10" d="M107.9,249.5c0,0,11.1-6.5,22.2,0.3C130.1,249.8,120.9,246.1,107.9,249.5z"/>
	<ellipse class="st10" cx="119" cy="248.3" rx="3" ry="1.4"/>
	<ellipse class="st9" cx="119.6" cy="270.3" rx="11.1" ry="10.2"/>
	<circle class="st10" cx="119" cy="270.3" r="9.6"/>
	<path class="st9" d="M129.7,281.4l21.8,23.5c0,0,3.6,1.5,5.3-2.4l-0.3,2.5l-0.7,1.9l-1.9,1.1l-2.5-0.3L128,287.6l-0.1-4"/>
	<polyline class="st10" points="74.9,221.1 74.9,324.9 71.3,324.9 71.3,221.4 	"/>
	<polyline class="st10" points="121.8,220.9 121.8,245.6 120.6,245.6 120.6,220.6 	"/>
	<polyline class="st10" points="73.9,222.5 167.4,222.5 167.4,219.9 72.6,219.9 	"/>
	<polyline class="st10" points="122.2,294.6 122.2,323.6 120.5,323.6 120.5,294.2 	"/>
	<polyline class="st11" points="70.5,186.5 87.1,186.5 87.1,219.6 137.6,219.6 101.1,163.3 101.1,77.6 71.6,77.6 	"/>
	<polyline class="st12" points="70.9,324.2 233.4,324.2 242.6,331.3 226.6,335.5 71.9,335.2 	"/>
	<polyline class="st1" points="75.7,84.8 75.7,110.3 96.1,110.3 96.1,84.8 	"/>
	<polyline class="st10" points="75.3,112.4 75.3,117 95.9,117 95.9,112.5 77.3,112.5 	"/>
	<polyline class="st1" points="75.4,116.7 95.6,112.7 95.6,117 	"/>
	<polyline class="st9" points="75.5,109.8 95.2,84.5 95.7,85 95.7,110.2 	"/>
	<polyline class="st1" points="71.3,212.4 84.4,186.2 87.1,186.2 87.1,220 72.3,220 	"/>
	<polyline class="st13" points="71.2,77.2 225.9,77.2 225.9,47.9 72.1,47.9 	"/>
	<polyline class="st9" points="194.7,283.2 194.7,324.1 203.2,324.1 203.2,293 	"/>
	<polyline class="st1" points="226.3,39 225.6,94.9 254.6,81.9 253.6,51.7 	"/>
	<polyline class="st1" points="126.6,202.9 162,170 167.4,196.1 140.1,220.6 136.8,220.1 	"/>
	<polyline class="st1" points="101.4,126 208,77.2 166.3,77.2 101.4,105.2 	"/>
	<polyline class="st14" points="74.2,77.1 116.8,48.4 89,48.4 71.9,62.9 71.9,76.6 	"/>
	<polyline class="st14" points="192.2,77.1 225.6,51.2 225.6,77.2 	"/>
	<polyline class="st14" points="83.1,77.1 83.1,67.1 136.5,67.1 136.5,48.1 135.6,48.1 135.6,65.6 82.6,65.6 81.9,66.2 81.9,76.9 	
		"/>
	<polyline class="st14" points="74,75.8 205.6,75.8 205.6,77.5 72.8,77.5 	"/>
	<circle class="st9" cx="184.7" cy="61.9" r="10"/>
	<g>
		<defs>
			<circle id="XMLID_91_" cx="184.7" cy="61.9" r="8"/>
		</defs>
		<use xlink:href="#XMLID_91_"  style="overflow:visible;fill:#FFFFFF;"/>
		<clipPath id="XMLID_6_">
			<use xlink:href="#XMLID_91_"  style="overflow:visible;"/>
		</clipPath>
		<polyline class="st15" points="172.1,69 194.9,55.8 193.9,66.9 193.3,68.9 187.5,71.7 176.9,71.7 		"/>
	</g>
	<circle class="st9" cx="208.2" cy="61.9" r="10"/>
	<g>
		<defs>
			<circle id="XMLID_92_" cx="208.2" cy="61.9" r="8"/>
		</defs>
		<use xlink:href="#XMLID_92_"  style="overflow:visible;fill:#FFFFFF;"/>
		<clipPath id="XMLID_7_">
			<use xlink:href="#XMLID_92_"  style="overflow:visible;"/>
		</clipPath>
		<path class="st16" d="M198.2,66.3l19.6-10.8l2.7,11.8l-1.7,3c0,0-5,3.4-5.3,3.6c-0.3,0.2-7.2-0.3-7.2-0.3"/>
	</g>
	<polyline class="st1" points="117.2,47.8 161.4,37.9 225.4,37.9 225.4,48.3 	"/>
	<polyline class="st9" points="230.3,74.2 250.2,55.3 250.2,79.2 	"/>
	<g>
		<circle class="st17" cx="119" cy="270.1" r="9.9"/>
		<g>
			<path class="st18" d="M120.6,259.7c-0.9,0-1.7,0.1-2.5,0.3c0.8-0.1,1.6,0,2.4,0.3c0.4,0.1,0.8,0.3,1.2,0.5
				c4.6,0.6,8.3,4.5,8.3,9.3c0,4.4-3.1,8.1-7.2,9.1c-0.6,0.2-1.2,0.3-1.8,0.4c-0.5,0.1-1,0.2-1.5,0.2c-0.5,0-1.1-0.1-1.6-0.2
				c-0.6,0-1.2-0.1-1.7-0.2c1.4,0.7,2.9,1.1,4.5,1.1c5.7,0,10.4-4.7,10.4-10.4C131,264.3,126.3,259.7,120.6,259.7z"/>
		</g>
		<g>
			<path class="st18" d="M98.7,282.2c-2.1-3.5-3.3-7.7-3.3-12.1c0-4.3,1.2-8.4,3.2-11.9c0,0-0.1,0-0.1,0c-0.6,0-1.1-0.2-1.4-0.5
				c-2.1,3.7-3.3,7.9-3.3,12.4c0,4.9,1.4,9.5,3.9,13.4C98,283,98.3,282.6,98.7,282.2z"/>
			<path class="st18" d="M139.1,282.5c0.2,0,0.4,0,0.5,0.1c0.3,0.1,0.7,0.3,0.9,0.5c2.3-3.8,3.7-8.3,3.7-13.1
				c0-4.9-1.4-9.5-3.9-13.4c0,0.1,0,0.1-0.1,0.2c-0.2,0.5-0.5,0.9-0.9,1.2c2.1,3.5,3.3,7.6,3.3,12
				C142.6,274.6,141.3,278.9,139.1,282.5z"/>
			<path class="st18" d="M131.8,291c-0.3-0.2-0.5-0.4-0.7-0.7c-3.5,2.1-7.7,3.3-12.1,3.3c-4.5,0-8.7-1.3-12.2-3.4c0,0,0,0,0,0
				c-0.5,0.3-0.9,0.6-1.4,0.9c3.9,2.6,8.6,4.1,13.7,4.1c4.9,0,9.6-1.4,13.5-3.9C132.2,291.3,132,291.2,131.8,291z"/>
			<path class="st18" d="M132.1,250.2c0.3-0.4,0.7-0.7,1.1-0.9c-4-2.8-8.9-4.4-14.2-4.4c-5.1,0-9.9,1.5-13.9,4.2
				c0.2,0.1,0.4,0.3,0.6,0.5c0.2,0.2,0.4,0.4,0.5,0.7c3.7-2.4,8.1-3.7,12.7-3.7c4.8,0,9.3,1.4,13,3.9
				C132,250.3,132.1,250.2,132.1,250.2z"/>
		</g>
		<path class="st19" d="M82.1,300.1l18.1-20c1.7-1.9,4.7-2.1,6.6-0.5l1.6,1.4c2.2,1.8,2.3,5.2,0.2,7.1l-19.5,18.6
			c-0.9,0.9-2.2,1.4-3.5,1.3l-0.3,0c-2.4-0.1-4.4-1.9-4.6-4.3l0,0C80.7,302.5,81.2,301.2,82.1,300.1z"/>
		<path class="st19" d="M155.7,300.1l-18.1-20c-1.7-1.9-4.7-2.1-6.6-0.5l-1.6,1.4c-2.2,1.8-2.3,5.2-0.2,7.1l19.5,18.6
			c0.9,0.9,2.2,1.4,3.5,1.3l0.3,0c2.4-0.1,4.4-1.9,4.6-4.3l0,0C157,302.5,156.6,301.2,155.7,300.1z"/>
		<path class="st19" d="M89.7,233.3l19.2,19c1.8,1.8,1.9,4.7,0.2,6.6l-1.4,1.6c-1.9,2.1-5.3,2.1-7.1-0.1l-17.8-20.3
			c-0.8-1-1.3-2.2-1.2-3.5l0-0.3c0.2-2.4,2.1-4.3,4.5-4.4h0C87.4,231.8,88.7,232.3,89.7,233.3z"/>
		<path class="st19" d="M148.1,233.7l-19.2,19c-1.8,1.8-1.9,4.7-0.2,6.6l1.4,1.6c1.9,2.1,5.3,2.1,7.1-0.1l17.8-20.3
			c0.8-1,1.3-2.2,1.2-3.5l0-0.3c-0.2-2.4-2.1-4.3-4.5-4.4l0,0C150.4,232.2,149,232.7,148.1,233.7z"/>
		<line class="st20" x1="167.5" y1="311.7" x2="167.5" y2="323.9"/>
		<line class="st20" x1="167.5" y1="251.7" x2="167.5" y2="299.3"/>
		<polyline class="st20" points="71.4,220.4 167.5,220.4 167.5,239.4 		"/>
		<path class="st20" d="M167.4,251.6L167.4,251.6c-1.6,0-2.9-1.3-2.9-2.9v-6.5c0-1.6,1.3-2.9,2.9-2.9l0,0c1.6,0,2.9,1.3,2.9,2.9v6.5
			C170.3,250.4,169,251.6,167.4,251.6z"/>
		<path class="st20" d="M167.4,311.6L167.4,311.6c-1.6,0-2.9-1.3-2.9-2.9v-6.5c0-1.6,1.3-2.9,2.9-2.9l0,0c1.6,0,2.9,1.3,2.9,2.9v6.5
			C170.3,310.3,169,311.6,167.4,311.6z"/>
		<circle class="st17" cx="78.4" cy="225.4" r="1.2"/>
		<circle class="st17" cx="160.9" cy="225.4" r="1.2"/>
		<circle class="st17" cx="160.9" cy="319.8" r="1.2"/>
		<circle class="st17" cx="76" cy="319.8" r="1.2"/>
		<line class="st17" x1="120.3" y1="221.1" x2="120.3" y2="245.4"/>
		<line class="st17" x1="120.5" y1="294.8" x2="120.5" y2="324"/>
		<line class="st17" x1="71.2" y1="77.3" x2="226.3" y2="77.3"/>
		<polyline class="st17" points="101.2,77.3 101.2,164.2 137.3,220.8 		"/>
		<circle class="st17" cx="105.5" cy="162.7" r="1.6"/>
		<rect x="75.6" y="84.6" class="st17" width="20.3" height="25.7"/>
		<rect x="75.4" y="112.5" class="st21" width="20.3" height="4.5"/>
		<circle class="st21" cx="184.9" cy="62.2" r="10.3"/>
		<circle class="st22" cx="184.9" cy="62.2" r="8.3"/>
		<circle class="st21" cx="208.2" cy="62.2" r="10.3"/>
		<circle class="st23" cx="208.2" cy="62.2" r="8.7"/>
		<polyline class="st21" points="82,77.1 82,65.8 135.3,65.8 135.3,47.8 		"/>
		<polyline class="st21" points="72,186.3 87.3,186.3 87.3,220 		"/>
		<line class="st21" x1="194.6" y1="323.7" x2="194.6" y2="283.2"/>
		<line class="st21" x1="203.2" y1="324.1" x2="203.2" y2="292.1"/>
		<g>
			<path class="st18" d="M246.6,261.4c-1.1,0-2-0.9-2-2v-96c0-1.1,0.9-2,2-2h47.5c1.1,0,2,0.9,2,2v41.7c0,0.8-0.5,1.5-1.2,1.8
				l-4.3,4.4l4.3,4.3c0,0,0,0,0,0c0.7,0.3,1.2,1,1.2,1.8v41.9c0,1.1-0.9,2-2,2H246.6z M277.7,243v-22.5H263V243H277.7z M277.7,202.1
				v-22.3H263v22.3H277.7z"/>
			<g>
				<defs>
					<path id="XMLID_90_" d="M294.1,217.5v41.9H261h-14.4v-40.9v-40.7v-14.4h33.1h14.4v41.7l-0.1-0.1l-6.3,6.4l6.3,6.3L294.1,217.5z
						 M279.7,177.8H261v26.3h18.7V177.8z M279.7,218.5H261V245h18.7V218.5z"/>
				</defs>
				<use xlink:href="#XMLID_90_"  style="overflow:visible;fill:#FFFFFF;"/>
				<clipPath id="XMLID_8_">
					<use xlink:href="#XMLID_90_"  style="overflow:visible;"/>
				</clipPath>
				<polyline class="st24" points="202.8,196.3 351.5,263.9 321.4,272.3 233.8,231.8 				"/>
				<polyline class="st24" points="242.4,247.9 279.9,262.5 265.2,266.5 233.3,250.4 				"/>
				<polyline class="st24" points="260.1,159.7 305.6,192.4 310.3,180.5 277.8,157.1 				"/>
			</g>
		</g>
		<path class="st17" d="M105.3,82.3v46.5H145V97.3l15.4-9.8h39.5v-6.3C199.8,81.3,105,82,105.3,82.3z"/>
		<ellipse class="st17" cx="109.4" cy="124.9" rx="1.4" ry="1.6"/>
		<ellipse class="st17" cx="141.3" cy="124.9" rx="1.4" ry="1.6"/>
		<circle class="st18" cx="119" cy="268.2" r="2.6"/>
		<path class="st18" d="M118.9,275.2L118.9,275.2c-0.8,0-1.4-0.6-1.4-1.4v-4.3c0-0.8,0.6-1.4,1.4-1.4l0,0c0.8,0,1.4,0.6,1.4,1.4v4.3
			C120.4,274.6,119.7,275.2,118.9,275.2z"/>
		<path class="st25" d="M271.7,72.2c0,0-56.9,35.5-118,44.7c0,0,23,141.3,32.2,155.1c9.2,13.8,72,78.9,85.8,78.9
			c13.8,0,76.6-65.1,85.8-78.9c9.2-13.8,32.2-155.1,32.2-155.1C328.6,107.7,271.7,72.2,271.7,72.2z"/>
		<path class="st20" d="M271.7,85.5c0,0-51.4,32.1-106.8,40.4c0,0,20.8,127.9,29.1,140.4c8.3,12.5,65.1,71.4,77.6,71.4
			c12.5,0,69.3-58.9,77.6-71.4c8.3-12.5,29.1-140.4,29.1-140.4C323.2,117.6,271.7,85.5,271.7,85.5z"/>
		<path class="st20" d="M271.7,72.2"/>
		<circle class="st26" cx="270.6" cy="210.6" r="71.3"/>
		<circle class="st27" cx="270.6" cy="210.6" r="65"/>
		<path class="st20" d="M270.6,163"/>
		<line class="st20" x1="271.7" y1="322.8" x2="271.7" y2="337.1"/>
		<line class="st20" x1="271.7" y1="281.4" x2="271.7" y2="294.7"/>
		<polyline class="st20" points="271.7,139.1 271.7,85.5 271.7,72.2 		"/>
		<path class="st20" d="M271.7,163"/>
		<polyline class="st20" points="329.4,170.3 378.5,125.9 389.7,116.9 		"/>
		<polyline class="st20" points="212.7,168.5 165,125.9 153.7,116.9 		"/>
		<path class="st20" d="M230.4,184.4"/>
		<path class="st20" d="M211.9,287"/>
		<circle class="st20" cx="271.4" cy="308.6" r="13.8"/>
		<circle class="st17" cx="271.4" cy="308.6" r="10.5"/>
		<line class="st20" x1="271.7" y1="337.6" x2="271.7" y2="351.2"/>
		<path class="st20" d="M198.8,273.3"/>
		<polyline class="st20" points="225.9,315.6 225.9,335 71.4,335 71.4,37.9 225.9,37.9 225.9,95.4 		"/>
		<polyline class="st20" points="225.9,37.9 253.8,51.9 253.8,80.9 		"/>
		<line class="st20" x1="225.7" y1="335" x2="242.9" y2="332.2"/>
		<polygon class="st20" points="229.7,45.2 229.7,74.8 250.1,80.1 250.1,55.4 		"/>
		<line class="st20" x1="71.4" y1="47.9" x2="224.6" y2="47.9"/>
		<polyline class="st20" points="71.6,324.1 226.6,324.1 234.4,323.4 		"/>
	</g>
	<circle class="st28" cx="307.1" cy="71.5" r="4.5"/>
	<circle class="st28" cx="57.2" cy="68.6" r="4.5"/>
	<g>
		<line class="st29" x1="289.5" y1="45.1" x2="289.5" y2="66.1"/>
		<line class="st29" x1="300" y1="55.6" x2="279" y2="55.6"/>
	</g>
	<circle class="st30" cx="320.8" cy="331.7" r="4.5"/>
	<circle class="st30" cx="58.5" cy="318.2" r="4.5"/>
	<g>
		<line class="st28" x1="49.5" y1="284.7" x2="49.5" y2="305.6"/>
		<line class="st28" x1="39" y1="295.2" x2="60" y2="295.2"/>
	</g>
	<g>
		<line class="st29" x1="50.1" y1="78.3" x2="50.1" y2="99.3"/>
		<line class="st29" x1="39.6" y1="88.8" x2="60.6" y2="88.8"/>
	</g>
	<path class="st13" d="M71.4,220.4"/>
	<path class="st10" d="M212.4,162.9c0,0,18-27.4,56.6-26.4v-15.4l-1.7,12.4C267.3,133.5,229.7,134.4,212.4,162.9z"/>
	<path class="st10" d="M329.5,255.1c0,0-14.3,25.5-54.9,29.7v7.7l1.2-6.2C275.9,286.3,314.5,283.8,329.5,255.1z"/>
	<path class="st10" d="M323.2,158.3c0,0,5.5,4.9,6.5,7.7l41.1-35.8l-40.5,33.2C330.3,163.4,327.3,159.7,323.2,158.3z"/>
	<path class="st10" d="M183.1,146l25.2,22.4c0,0-5,6.5-7.5,17.1c0,0,0.5-9,4.7-17.2L183.1,146z"/>
	<path class="st10" d="M270.3,323.6c0,0-13.5,0.3-14.4-15.8c0,0-1.9,13.6,11.7,16.1v10.7l2.5,1C270.1,335.7,270.2,323.6,270.3,323.6
		z"/>
	
		<ellipse transform="matrix(0.7637 -0.6456 0.6456 0.7637 -34.8788 240.9433)" class="st10" cx="311.7" cy="168.1" rx="2.3" ry="3.9"/>
	<path class="st31" d="M348.4,294.9c0,0,15.4-17.7,18.2-25.9s8.6-34.3,8.6-34.3"/>
	<line class="st31" x1="63.7" y1="191.2" x2="63.7" y2="272.3"/>
</g>
</svg>
