<?xml version="1.0" encoding="utf-8"?>
<!-- Generator: Adobe Illustrator 23.0.3, SVG Export Plug-In . SVG Version: 6.00 Build 0)  -->
<svg version="1.1" id="Isolation_Mode" xmlns="http://www.w3.org/2000/svg" xmlns:xlink="http://www.w3.org/1999/xlink" x="0px"
	 y="0px" viewBox="0 0 1182.4 473.7" style="enable-background:new 0 0 1182.4 473.7;" xml:space="preserve">
<style type="text/css">
	.st0{fill:none;stroke:#163460;stroke-width:0.958;stroke-linecap:round;stroke-linejoin:round;}
	.st1{fill:none;stroke:#163460;stroke-width:0.958;stroke-linecap:round;stroke-linejoin:round;stroke-dasharray:3.8701,3.8701;}
	.st2{fill:none;stroke:#163460;stroke-width:0.958;stroke-linecap:round;stroke-linejoin:round;stroke-dasharray:3.8683,3.8683;}
	.st3{fill:#FFFFFF;}
	.st4{fill:#163460;}
	.st5{fill:none;stroke:#163460;stroke-width:0.9579;stroke-linecap:round;stroke-linejoin:round;stroke-dasharray:3.8316,3.8316;}
	.st6{fill:#F8767F;}
	.st7{fill:#57B8FA;}
	.st8{fill:#65DFD9;}
	.st9{fill:none;stroke:#49B7FA;stroke-width:2.8737;stroke-linejoin:round;stroke-miterlimit:10;}
	.st10{fill:none;stroke:#F55C76;stroke-width:4.1053;stroke-linecap:round;stroke-linejoin:round;stroke-miterlimit:10;}
	.st11{fill:none;stroke:#49B7FA;stroke-width:3.193;stroke-linecap:round;stroke-linejoin:round;stroke-miterlimit:10;}
	.st12{fill:#E6F5FF;}
	.st13{fill:#CCE8FE;}
	.st14{fill:#F8B012;}
	.st15{clip-path:url(#SVGID_2_);fill:#F79014;}
	.st16{clip-path:url(#SVGID_4_);fill:#F79014;}
	.st17{fill:#2069A7;}
	.st18{fill:#40A8A0;}
	.st19{fill:#F4AE0E;}
	.st20{fill:#F79014;}
	.st21{clip-path:url(#SVGID_6_);fill:#F79014;}
	.st22{clip-path:url(#SVGID_8_);fill:#F79014;}
	.st23{clip-path:url(#SVGID_10_);fill:#FFFFFF;}
	.st24{fill:none;stroke:#163460;stroke-width:1.9158;stroke-linecap:round;stroke-linejoin:round;stroke-miterlimit:10;}
	.st25{fill:none;stroke:#163460;stroke-width:0.9579;stroke-linecap:round;stroke-linejoin:round;stroke-miterlimit:10;}
	.st26{fill:none;stroke:#163460;stroke-width:0.7562;stroke-linecap:round;stroke-linejoin:round;stroke-miterlimit:10;}
	.st27{fill:none;stroke:#163460;stroke-width:0.9926;stroke-linecap:round;stroke-linejoin:round;stroke-miterlimit:10;}
	.st28{fill:none;stroke:#163460;stroke-width:0.7114;stroke-linecap:round;stroke-linejoin:round;stroke-miterlimit:10;}
	.st29{fill:none;stroke:#49B7FA;stroke-width:5.2372;stroke-linecap:round;stroke-linejoin:round;stroke-miterlimit:10;}
	.st30{fill:none;stroke:#F55C76;stroke-width:6.7336;stroke-linecap:round;stroke-linejoin:round;stroke-miterlimit:10;}
	.st31{fill:none;stroke:#FFFFFF;stroke-width:1.1839;stroke-miterlimit:10;}
	.st32{clip-path:url(#SVGID_12_);fill:#F79014;}
	.st33{clip-path:url(#SVGID_14_);fill:#F79014;}
	.st34{clip-path:url(#SVGID_16_);fill:#FFFFFF;}
	.st35{clip-path:url(#SVGID_18_);fill:#FFFFFF;}
	.st36{clip-path:url(#SVGID_20_);fill:#F8767F;}
	.st37{clip-path:url(#SVGID_22_);fill:#2069A7;}
	.st38{fill:#49B7FA;}
	.st39{fill:#59AA6B;}
	.st40{fill:none;stroke:#163460;stroke-width:1.9158;stroke-linejoin:round;stroke-miterlimit:10;}
	.st41{fill:none;stroke:#163460;stroke-width:0.9579;stroke-linejoin:round;stroke-miterlimit:10;}
	.st42{fill:none;stroke:#163460;stroke-width:0.9579;stroke-miterlimit:10;}
	.st43{fill:#48CC83;}
	.st44{enable-background:new    ;}
	.st45{fill:none;stroke:#FFFFFF;stroke-width:2.8737;stroke-miterlimit:10;}
	.st46{fill:#FF2C4B;}
	.st47{fill:none;stroke:#163460;stroke-width:0.6486;stroke-linecap:round;stroke-linejoin:round;stroke-miterlimit:10;}
	.st48{fill:none;stroke:#163460;stroke-width:1.7468;stroke-linecap:round;stroke-linejoin:round;stroke-miterlimit:10;}
	.st49{fill:none;stroke:#163460;stroke-width:0.8734;stroke-linecap:round;stroke-linejoin:round;stroke-miterlimit:10;}
	.st50{fill:none;stroke:#163460;stroke-width:0.8734;stroke-miterlimit:10;}
	.st51{fill:none;stroke:#163460;stroke-width:0.7089;stroke-miterlimit:10;}
	.st52{fill:none;stroke:#49B7FA;stroke-width:2.6203;stroke-linejoin:round;stroke-miterlimit:10;}
	.st53{fill:none;stroke:#F55C76;stroke-width:3.7432;stroke-linecap:round;stroke-linejoin:round;stroke-miterlimit:10;}
	.st54{fill:none;stroke:#FFFFFF;stroke-width:1.0795;stroke-miterlimit:10;}
	.st55{fill:none;stroke:#F55C76;stroke-width:1.4556;stroke-linejoin:round;stroke-miterlimit:10;}
	.st56{fill:none;stroke:#49B7FA;stroke-width:1.6174;stroke-linecap:round;stroke-linejoin:round;stroke-miterlimit:10;}
	.st57{fill:none;stroke:#F55C76;stroke-width:2.0795;stroke-linecap:round;stroke-linejoin:round;stroke-miterlimit:10;}
	.st58{fill:none;stroke:#163460;stroke-width:1.227;stroke-linecap:round;stroke-linejoin:round;stroke-miterlimit:10;}
	.st59{fill:none;stroke:#163460;stroke-width:0.6135;stroke-linecap:round;stroke-linejoin:round;stroke-miterlimit:10;}
	.st60{fill:none;stroke:#163460;stroke-width:0.6869;stroke-linecap:round;stroke-linejoin:round;stroke-miterlimit:10;}
	.st61{fill:none;stroke:#FFFFFF;stroke-width:1.2969;stroke-miterlimit:10;}
	
		.st62{fill:none;stroke:#163460;stroke-width:0.4852;stroke-linecap:round;stroke-linejoin:round;stroke-miterlimit:10;stroke-dasharray:2.9113;}
	.st63{fill:none;stroke:#163460;stroke-width:1.1818;stroke-linecap:round;stroke-linejoin:round;stroke-miterlimit:10;}
	.st64{fill:none;stroke:#163460;stroke-width:0.5909;stroke-linecap:round;stroke-linejoin:round;stroke-miterlimit:10;}
	.st65{fill:none;stroke:#163460;stroke-width:1.2568;stroke-linecap:round;stroke-linejoin:round;stroke-miterlimit:10;}
	.st66{fill:none;stroke:#163460;stroke-width:1.5621;stroke-linecap:round;stroke-linejoin:round;stroke-miterlimit:10;}
	.st67{fill:none;stroke:#163460;stroke-width:0.6284;stroke-linecap:round;stroke-linejoin:round;stroke-miterlimit:10;}
	.st68{fill:none;stroke:#163460;stroke-width:0.5974;stroke-miterlimit:10;}
	.st69{fill:none;stroke:#163460;stroke-width:0.3983;stroke-miterlimit:10;}
	.st70{fill:none;stroke:#163460;stroke-width:0.4852;stroke-linecap:round;stroke-linejoin:round;}
	.st71{fill:none;stroke:#163460;stroke-width:0.4852;stroke-linecap:round;stroke-linejoin:round;stroke-dasharray:2.9709,2.9709;}
	.st72{fill:#F55C76;}
	.st73{clip-path:url(#SVGID_24_);fill:#2069A7;}
	.st74{clip-path:url(#SVGID_26_);fill:#2069A7;}
	.st75{clip-path:url(#SVGID_28_);fill:#2069A7;}
	.st76{clip-path:url(#SVGID_30_);fill:#F79014;}
	.st77{clip-path:url(#SVGID_32_);fill:#F79014;}
	.st78{clip-path:url(#SVGID_34_);fill:#F79014;}
	.st79{clip-path:url(#SVGID_36_);fill:#F79014;}
	.st80{clip-path:url(#SVGID_38_);fill:#F79014;}
	.st81{clip-path:url(#SVGID_40_);fill:#F79014;}
	.st82{clip-path:url(#SVGID_42_);fill:#F79014;}
	.st83{clip-path:url(#SVGID_44_);fill:#F79014;}
	.st84{clip-path:url(#SVGID_46_);fill:#F79014;}
	.st85{clip-path:url(#SVGID_48_);fill:#40A8A0;}
	.st86{clip-path:url(#SVGID_50_);fill:#40A8A0;}
	.st87{clip-path:url(#SVGID_52_);fill:#40A8A0;}
	.st88{clip-path:url(#SVGID_54_);fill:#F79014;}
	.st89{clip-path:url(#SVGID_56_);fill:#CCE8FE;}
	.st90{clip-path:url(#SVGID_58_);fill:#CCE8FE;}
	.st91{clip-path:url(#SVGID_60_);fill:#CCE8FE;}
	.st92{fill:#CEE8FE;}
	.st93{fill:#73DFD9;}
	.st94{clip-path:url(#SVGID_62_);fill:#40A8A0;}
	.st95{clip-path:url(#SVGID_64_);fill:#40A8A0;}
	.st96{fill:none;stroke:#163460;stroke-width:0.9704;stroke-linecap:round;stroke-linejoin:round;stroke-miterlimit:10;}
	.st97{fill:none;stroke:#49B7FA;stroke-width:2.5878;stroke-linecap:round;stroke-linejoin:round;stroke-miterlimit:10;}
	.st98{fill:none;stroke:#163460;stroke-width:0.4852;stroke-linecap:round;stroke-linejoin:round;stroke-miterlimit:10;}
	.st99{fill:none;stroke:#163460;stroke-width:0.4866;stroke-linecap:round;stroke-linejoin:round;stroke-miterlimit:10;}
	.st100{fill:none;stroke:#163460;stroke-width:0.4049;stroke-linecap:round;stroke-linejoin:round;stroke-miterlimit:10;}
	.st101{fill:none;stroke:#163460;stroke-width:0.4037;stroke-linecap:round;stroke-linejoin:round;stroke-miterlimit:10;}
	.st102{fill:none;stroke:#163460;stroke-width:1.4553;stroke-linecap:round;stroke-linejoin:round;stroke-miterlimit:10;}
</style>
<g>
	<g>
		<g>
			<line class="st0" x1="282.8" y1="322.7" x2="284.4" y2="321.7"/>
			<line class="st1" x1="287.7" y1="319.7" x2="431.3" y2="231.9"/>
			<polyline class="st0" points="433,230.9 434.6,229.9 436.3,230.9 			"/>
			<line class="st2" x1="439.6" y1="232.9" x2="517.5" y2="279.6"/>
			<line class="st0" x1="519.2" y1="280.6" x2="520.8" y2="281.6"/>
			<g>
				<g>
					<path class="st3" d="M284.8,325.7c-1.7,1-3.9,0.5-5-1.2c-1-1.7-0.5-3.9,1.2-5c1.7-1,3.9-0.5,5,1.2
						C287,322.4,286.5,324.6,284.8,325.7z"/>
					<path class="st4" d="M285.1,326.1c1.9-1.2,2.5-3.7,1.4-5.6s-3.7-2.5-5.6-1.4c-1.9,1.2-2.5,3.7-1.4,5.6S283.1,327.3,285.1,326.1
						C287,324.9,283.1,327.3,285.1,326.1z M281.3,319.9c1.5-0.9,3.4-0.4,4.3,1c0.9,1.5,0.4,3.4-1,4.3c-1.5,0.9-3.4,0.4-4.3-1
						S279.8,320.8,281.3,319.9S279.8,320.8,281.3,319.9z"/>
				</g>
			</g>
		</g>
	</g>
	<g>
		<g>
			<polyline class="st5" points="772.3,423.1 820.5,447.2 1044.7,343.8 1004.9,319.9 			"/>
			<g>
				<g>
					<path class="st3" d="M770.8,426.4c-1.8-0.9-2.5-3.1-1.6-4.8s3.1-2.5,4.8-1.6c1.8,0.9,2.5,3.1,1.6,4.8S772.6,427.3,770.8,426.4z
						"/>
					<path class="st4" d="M770.6,426.9c2,1,4.5,0.2,5.5-1.8s0.2-4.5-1.8-5.5s-4.5-0.2-5.5,1.8S768.6,425.8,770.6,426.9
						C772.6,427.9,768.6,425.8,770.6,426.9z M773.8,420.4c1.5,0.8,2.2,2.6,1.4,4.2c-0.8,1.5-2.6,2.2-4.2,1.4
						c-1.5-0.8-2.2-2.6-1.4-4.2C770.4,420.3,772.3,419.6,773.8,420.4C775.4,421.2,772.3,419.6,773.8,420.4z"/>
				</g>
			</g>
			<g>
				<g>
					<path class="st3" d="M1006.9,316.9c-1.7-1-3.9-0.5-4.9,1.2s-0.5,3.9,1.2,4.9s3.9,0.5,4.9-1.2
						C1009.2,320.2,1008.6,318,1006.9,316.9z"/>
					<path class="st4" d="M1007.2,316.5c1.9,1.2,2.6,3.7,1.4,5.6c-1.2,1.9-3.7,2.6-5.6,1.4c-1.9-1.2-2.6-3.7-1.4-5.6
						C1002.7,316,1005.2,315.4,1007.2,316.5C1009.1,317.7,1005.2,315.4,1007.2,316.5z M1003.5,322.7c1.5,0.9,3.4,0.4,4.3-1.1
						c0.9-1.5,0.4-3.4-1.1-4.3s-3.4-0.4-4.3,1.1C1001.5,319.9,1002,321.8,1003.5,322.7C1004.9,323.6,1002,321.8,1003.5,322.7z"/>
				</g>
			</g>
		</g>
	</g>
	<circle class="st6" cx="521.9" cy="282.8" r="4.4"/>
	<circle class="st7" cx="434.5" cy="230.2" r="3.1"/>
	<circle class="st8" cx="933.3" cy="395.7" r="3.1"/>
	<circle class="st8" cx="501.8" cy="214.3" r="5.1"/>
	<circle class="st6" cx="820.1" cy="447.3" r="5.1"/>
	<circle class="st9" cx="373.1" cy="171.1" r="6.5"/>
	<circle class="st9" cx="364.2" cy="52.9" r="6.5"/>
	<g>
		<line class="st10" x1="40.9" y1="82.2" x2="40.9" y2="102.3"/>
		<line class="st10" x1="50.9" y1="92.3" x2="30.8" y2="92.3"/>
	</g>
	<g>
		<line class="st10" x1="458.8" y1="133.4" x2="458.8" y2="153.5"/>
		<line class="st10" x1="468.9" y1="143.4" x2="448.8" y2="143.4"/>
	</g>
	<g>
		<line class="st11" x1="520.8" y1="161.1" x2="520.8" y2="181.2"/>
		<line class="st11" x1="530.9" y1="171.1" x2="510.8" y2="171.1"/>
	</g>
	<g>
		<line class="st11" x1="786.3" y1="382.2" x2="786.3" y2="402.3"/>
		<line class="st11" x1="796.3" y1="392.2" x2="776.2" y2="392.2"/>
	</g>
	<circle class="st9" cx="271.6" cy="424.1" r="6.5"/>
	<g>
		<path class="st3" d="M545.1,295.8l-36.3,19.5l-0.4,74.3l35.7,18.1l1.9,0.2l78.5,37.9l29.9-15.4l0.5,27.4c0,0,1.8,4.9,2.9,5.4
			c1.1,0.6,4.3,1.4,4.3,1.4l89.6,0.3c0,0,6-4.5,6.5-5.7c0.4-1.2,0.7-2.2,0.7-2.2l-0.1-3.8l-0.1-49.7l0.3-20.6c0,0-0.6-11.6-0.9-11.9
			c-0.3-0.4-3.1-4.2-3.1-4.2l-4.8-1.2l-39.2,0.1l0.3-1.4l-1.2-2.2l-0.1-11.6c0,0-1.9-8.5-2.7-8.7s-7.4-2.7-7.4-2.7l-5.4,2.5
			l-1.8,1.1l-0.3-137.3L613,165.1l-66.8,34.8L545.1,295.8z"/>
		<path class="st12" d="M675,66.8c-11.1,0-12,17.3-0.8,17.3C685.2,84.1,686.1,66.8,675,66.8z"/>
		<polyline class="st13" points="624.1,349.5 688.8,214.5 692.6,213 692.6,315.6 		"/>
		<g>
			<g>
				<polyline id="XMLID_4_" class="st14" points="545.2,332.7 545.7,393.6 624,429.2 624.4,379.7 609.6,371.4 602,358 				"/>
			</g>
			<g>
				<defs>
					<polyline id="SVGID_1_" points="545.2,332.7 545.7,393.6 624,429.2 624.4,379.7 609.6,371.4 602,358 					"/>
				</defs>
				<clipPath id="SVGID_2_">
					<use xlink:href="#SVGID_1_"  style="overflow:visible;"/>
				</clipPath>
				<polyline class="st15" points="545.3,394.7 602.4,358.1 545.1,331.4 				"/>
			</g>
			<g>
				<defs>
					<polyline id="SVGID_3_" points="545.2,332.7 545.7,393.6 624,429.2 624.4,379.7 609.6,371.4 602,358 					"/>
				</defs>
				<clipPath id="SVGID_4_">
					<use xlink:href="#SVGID_3_"  style="overflow:visible;"/>
				</clipPath>
				<polyline class="st16" points="577.2,408.8 623.9,380.6 623.9,430.2 				"/>
			</g>
		</g>
		<polyline class="st7" points="545.5,312.9 624.1,349.5 692.8,314.8 692.5,345 624.5,379 609.1,371.2 602.4,358.1 545.1,332.2 		
			"/>
		<polyline class="st8" points="630.8,250.7 630.7,334.2 686.3,306.3 686.7,223.7 		"/>
		<polyline class="st6" points="508.9,316.1 545,333.5 545.1,407.7 508.6,390.3 		"/>
		<polyline class="st7" points="514.8,329.7 514.7,354 536.7,363.6 536.7,339.5 		"/>
		<polyline class="st13" points="552.5,346.6 552.7,385 589,401.8 590.1,362.7 		"/>
		<polyline class="st13" points="509.8,315.8 544.6,332.8 545.1,296.3 		"/>
		<polyline class="st7" points="571.5,393.8 589.6,384.6 589,401.8 		"/>
		<polyline class="st7" points="552.8,367.5 577.2,357 563.7,351 552.2,357.4 		"/>
		<polyline class="st17" points="549.4,334.5 569.6,324 554.4,317.1 545.2,324 545.1,332.2 		"/>
		<polyline class="st17" points="611.9,373 623.3,365.6 623.9,379 		"/>
		<polyline class="st17" points="576.1,346.2 596.1,336.9 601,339 580.6,348.1 		"/>
		<polyline class="st17" points="692.3,345 692.3,322.8 669.9,355.9 		"/>
		<polyline class="st17" points="627.9,377.2 651.2,336 624.1,349.5 624,378 		"/>
		<polyline class="st7" points="522.8,308.4 545,318.7 545.5,296.5 		"/>
		<polyline class="st13" points="546.5,407.8 588.2,413.5 624,429.2 623.7,445.7 		"/>
		<polygon class="st13" points="625,445.3 692.2,346.2 692.2,411.8 		"/>
		<polyline class="st13" points="624.9,400.5 649.2,366.8 624.4,379.7 		"/>
		<polyline class="st13" points="549.9,309.6 550.4,217.2 619,248.6 618.5,341.2 		"/>
		<polyline class="st13" points="546.4,200.4 623.9,238.6 691.7,204.3 613.5,164.8 		"/>
		<polyline class="st7" points="550.6,233.9 567.3,241.4 567.5,224.9 550.8,217.4 		"/>
		<polyline class="st7" points="603.5,258.1 603.5,274.7 618.5,281.6 618.8,264.3 		"/>
		<polyline class="st7" points="550.3,250.8 567.3,258.8 567.2,275.7 550.2,268.1 		"/>
		<polyline class="st7" points="603.3,292.3 603.5,309.3 618.6,316.1 618.8,298.9 		"/>
		<polyline class="st7" points="550.3,285.7 567.2,293.3 567.2,309.9 549.8,302.9 		"/>
		<polyline class="st18" points="686.3,223.5 630.7,334.2 686.3,306.3 686.5,225.1 		"/>
		<polyline class="st3" points="644.1,244.3 630.5,271.8 630.5,251.5 		"/>
		<ellipse class="st19" cx="558.8" cy="229.3" rx="3.2" ry="5.3"/>
		<ellipse class="st19" cx="610.8" cy="269.9" rx="3.2" ry="5.3"/>
		<ellipse class="st19" cx="558.4" cy="263.4" rx="3.2" ry="5.3"/>
		<ellipse class="st19" cx="610.2" cy="303.9" rx="3.2" ry="5.3"/>
		<ellipse class="st19" cx="557.6" cy="297.8" rx="3.2" ry="5.3"/>
		<polyline class="st8" points="567.3,258.8 567.2,266.9 618,289.6 618.4,281.8 		"/>
		<polyline class="st8" points="550.1,278 603.3,300.2 603.6,292.2 550.4,268.2 		"/>
		<polyline class="st17" points="514.8,354.2 536.3,349.8 536.3,363.5 		"/>
		<polyline class="st17" points="515,343.2 534.4,338.8 524.8,334.3 515.1,337.1 		"/>
		<polyline class="st8" points="567.3,293.8 618.6,316.1 618.6,324.8 568,302.3 		"/>
		<polyline class="st8" points="550.5,234.2 603.9,258 603.3,258.8 603.3,266 550.5,243.6 		"/>
		<polyline class="st8" points="567.5,233.4 618.7,255.8 618.7,248.2 567.5,224.9 		"/>
		<polyline class="st18" points="595.3,245.8 610.3,244.7 616.7,247.8 604.2,249.5 		"/>
		<polyline class="st18" points="556.4,246.3 570.8,242.9 550.1,233.3 550.2,243.2 		"/>
		<polyline class="st18" points="581,256.6 597.5,255 602.5,257.4 586.2,258.8 		"/>
		<polyline class="st18" points="570.4,268.7 585.5,266.6 567.7,259.2 567.7,267 		"/>
		<polyline class="st18" points="598.2,280.8 613.5,279.7 619,281.7 618.9,289.7 		"/>
		<polyline class="st18" points="558.9,281.4 575.3,279.4 549.8,268.3 550.4,277.3 		"/>
		<polyline class="st18" points="588.1,293.6 599,290.1 603.3,292.3 603.3,300.2 		"/>
		<polyline class="st18" points="575.4,305.5 591,303.8 567.6,293.7 567.4,302.2 		"/>
		<polyline class="st18" points="608.4,319.8 617.5,315.8 619,316.2 619,324.7 		"/>
		<polyline class="st20" points="555.8,232.1 561.2,225.7 562.4,228.4 561.3,233 560.2,233.9 558.7,234.5 557.6,234 		"/>
		<polyline class="st20" points="607.4,272.2 613.8,267.2 613.9,270.5 613.8,272.7 613.3,274 611.4,275.4 609,275.3 		"/>
		<polyline class="st20" points="554.1,299.3 560.8,295.8 560.7,299.1 559.7,301.5 558.7,302.8 557.2,303 555.2,301.7 		"/>
		<polyline class="st3" points="547.5,394.8 548.7,201.3 545.5,200.4 545.3,406.5 		"/>
		<polyline class="st3" points="511.5,317.2 511.5,392.5 508.1,389.9 508.3,316.4 		"/>
		<polyline class="st3" points="512.2,316.7 545,298.4 544.4,295.9 509.4,315.5 		"/>
		<polyline class="st3" points="626.6,250.9 626.6,444.4 624.4,445.8 624,239.8 		"/>
		<polyline class="st3" points="552.2,218 552.2,310.4 550.2,309.4 550.4,217.2 		"/>
		<g>
			<g>
				<path id="XMLID_3_" class="st19" d="M599.7,208l7.7,3.3l4.1,0.7l13.4,0.5l11.9-2.9l4.4-2.7l2.5-2.5l1.6-3.1l0.4-2.2l-1.3-3.2
					c0,0-3.8-4.7-5.1-4.9s-9.5-4.5-14.5-4.2l-0.3,0.3l0.1,7.1l-0.8,0.9c0,0-5.3,0.9-5.8,0.6s-2-1.3-2-1.3l-0.5-7.5
					c0,0-13.6,1.1-18.1,6.1C597.4,192.8,586.9,200.5,599.7,208z"/>
			</g>
			<g>
				<defs>
					<path id="SVGID_5_" d="M599.7,208l7.7,3.3l4.1,0.7l13.4,0.5l11.9-2.9l4.4-2.7l2.5-2.5l1.6-3.1l0.4-2.2l-1.3-3.2
						c0,0-3.8-4.7-5.1-4.9s-9.5-4.5-14.5-4.2l-0.3,0.3l0.1,7.1l-0.8,0.9c0,0-5.3,0.9-5.8,0.6s-2-1.3-2-1.3l-0.5-7.5
						c0,0-13.6,1.1-18.1,6.1C597.4,192.8,586.9,200.5,599.7,208z"/>
				</defs>
				<clipPath id="SVGID_6_">
					<use xlink:href="#SVGID_5_"  style="overflow:visible;"/>
				</clipPath>
				<path class="st21" d="M615.8,194.1c0,0,11.7,13.9-4.3,17.8s0,0,0,0l6.9,6.6l35.8-15.8l-4.9-15.5l-16.1-5.3l-15,0.1"/>
			</g>
		</g>
		<g>
			<g>
				<path id="XMLID_2_" class="st19" d="M616.1,193.4l-0.2-41.9l9-1.7l-0.3,43.9C624.7,193.8,616.8,199.1,616.1,193.4z"/>
			</g>
			<g>
				<defs>
					<path id="SVGID_7_" d="M616.1,193.4l-0.2-41.9l9-1.7l-0.3,43.9C624.7,193.8,616.8,199.1,616.1,193.4z"/>
				</defs>
				<clipPath id="SVGID_8_">
					<use xlink:href="#SVGID_7_"  style="overflow:visible;"/>
				</clipPath>
				<path class="st22" d="M613.9,154.5c0,0,4.4,2.3,6.8,1V198h8.4l1.6-53.1l-4.6-5.9"/>
			</g>
			<g>
				<defs>
					<path id="SVGID_9_" d="M616.1,193.4l-0.2-41.9l9-1.7l-0.3,43.9C624.7,193.8,616.8,199.1,616.1,193.4z"/>
				</defs>
				<clipPath id="SVGID_10_">
					<use xlink:href="#SVGID_9_"  style="overflow:visible;"/>
				</clipPath>
				<polyline class="st23" points="616.6,152.3 616.6,195.5 610,195.5 610,150.2 				"/>
			</g>
		</g>
		<path class="st3" d="M615.8,187.4c0,0-16.8,2.6-18.6,8.3s1.6,16.3,23.5,16.7l-4.7,0.3l-11.5-2.3l-8.3-4.8l-2.5-3.6l-0.3-2.6
			l0.8-3.3C594.3,196.1,601.3,187.4,615.8,187.4z"/>
		<path class="st13" d="M741.5,316.5"/>
		<ellipse class="st13" cx="606.7" cy="396.2" rx="10.3" ry="15.6"/>
		<polygon class="st24" points="545.2,407.2 545.2,199.9 624.2,238.8 624.2,446 		"/>
		<g>
			<path class="st4" d="M545.8,408.3c0.4,0,0.9,0,1.3,0c0-0.1,0-0.2,0-0.3l-37.7-18.6v-72.5l35.7,17.6c0.1-0.6,0.4-1.2,0.8-1.7
				l-37.1-18.2c-0.3-0.1-0.6-0.1-0.9,0c-0.3,0.2-0.5,0.5-0.5,0.8V390c0,0.4,0.2,0.7,0.5,0.9l36.2,17.8
				C544.6,408.4,545.1,408.3,545.8,408.3z"/>
		</g>
		<path class="st24" d="M613.5,372.3"/>
		<g>
			<path class="st4" d="M692.9,203.1l-68.8-33.8v2.1l67.4,33.1v206.6c0,0.5,0.4,1,1,1s1-0.4,1-1V203.9
				C693.5,203.6,693.3,203.2,692.9,203.1z"/>
			<path class="st4" d="M615.9,165.2l-2-1c-0.5-0.2-1,0-1.3,0.4c-0.2,0.5,0,1,0.4,1.3l2.8,1.4C615.9,166.6,615.9,165.9,615.9,165.2z
				"/>
		</g>
		<line class="st24" x1="624.2" y1="238.8" x2="692.5" y2="203.9"/>
		<line class="st24" x1="545.2" y1="199.9" x2="613.5" y2="165.1"/>
		<line class="st24" x1="624.2" y1="446" x2="692.5" y2="411.2"/>
		<line class="st24" x1="508.4" y1="315.3" x2="545.4" y2="295.5"/>
		<polyline class="st24" points="692.4,212.5 624.5,245.8 545.5,208.1 		"/>
		
			<ellipse transform="matrix(0.9995 -3.001576e-02 3.001576e-02 0.9995 -11.1722 15.9077)" class="st24" cx="524.3" cy="380.1" rx="9" ry="12.2"/>
		
			<ellipse transform="matrix(0.9995 -3.001576e-02 3.001576e-02 0.9995 -11.1722 15.9077)" class="st24" cx="524.3" cy="380.1" rx="9" ry="12.2"/>
		<g>
			<path class="st4" d="M526.8,391.6c-4.1-0.7-7.4-5.5-7.6-11.4c-0.2-5.9,2.8-10.9,6.9-11.8c-0.5-0.1-0.9-0.3-1.2-0.6
				c-4,1.6-6.8,6.6-6.7,12.4c0.2,6,3.5,11,7.8,12.1C526.2,392.1,526.5,391.8,526.8,391.6z"/>
		</g>
		<polygon class="st25" points="514.7,354.2 536.6,363.6 536.6,339.5 514.7,329.4 		"/>
		<polyline class="st25" points="544.9,312.6 624.3,349.6 692.4,315 		"/>
		<polyline class="st25" points="545.9,332.7 602.2,357.8 609.6,371.4 623.9,379.3 692.3,344.7 		"/>
		<polygon class="st25" points="630.6,334.5 630.6,250.8 686.5,223 686.5,306.4 		"/>
		<line class="st25" x1="545.3" y1="393.8" x2="624.1" y2="429.5"/>
		<ellipse class="st26" cx="606.9" cy="395.9" rx="10" ry="15.1"/>
		<polygon class="st25" points="550.4,217 550,309.4 618.7,341.5 618.7,248.5 		"/>
		<line class="st25" x1="550.3" y1="233.7" x2="618" y2="264.2"/>
		<line class="st25" x1="550.3" y1="251" x2="618" y2="281.4"/>
		<line class="st25" x1="550.2" y1="268" x2="618" y2="298.7"/>
		<line class="st25" x1="550" y1="285.5" x2="618" y2="315.9"/>
		<line class="st25" x1="550" y1="302.7" x2="618" y2="333.2"/>
		<line class="st25" x1="567.3" y1="224.9" x2="567.3" y2="241.4"/>
		<line class="st25" x1="567.3" y1="259" x2="567.3" y2="275.5"/>
		<line class="st25" x1="603.4" y1="257.6" x2="603.4" y2="274.7"/>
		<line class="st25" x1="603.4" y1="291.9" x2="603.4" y2="309.1"/>
		<line class="st25" x1="567.3" y1="293.6" x2="567.3" y2="310.1"/>
		<ellipse class="st27" cx="558.8" cy="229.3" rx="3.5" ry="5.5"/>
		<ellipse class="st27" cx="610.6" cy="270" rx="3.5" ry="5.5"/>
		<ellipse class="st27" cx="558.4" cy="263.3" rx="3.5" ry="5.5"/>
		<ellipse class="st27" cx="610.2" cy="303.7" rx="3.5" ry="5.5"/>
		<ellipse class="st27" cx="557.5" cy="297.6" rx="3.5" ry="5.5"/>
		<path class="st27" d="M576.4,245.6"/>
		<line class="st27" x1="567.3" y1="233.2" x2="618.5" y2="255.8"/>
		<line class="st27" x1="603.5" y1="266.4" x2="550.2" y2="243.4"/>
		<line class="st27" x1="567.3" y1="267" x2="618.5" y2="290"/>
		<line class="st27" x1="603.3" y1="300.4" x2="550" y2="277.4"/>
		<line class="st27" x1="567.2" y1="301.9" x2="618.5" y2="324.4"/>
		<polyline class="st27" points="559.8,314 559.8,311.7 605.6,332.5 605.6,335.4 		"/>
		<path class="st27" d="M552.5,345.9l37.8,16.9l-1.2,39.2l-36.5-17.2C552.6,384.7,552.3,345.8,552.5,345.9z"/>
		<g>
			<path class="st4" d="M624.7,186.5c0,0.3,0,0.6,0,0.8c11.7,1.2,20.5,6.2,20.5,12.3c0,6.9-11.5,12.5-25.6,12.5s-25.6-5.6-25.6-12.5
				c0-6.2,9.4-11.4,21.6-12.4c0-0.3,0.1-0.6,0.1-0.9c-12.7,1-22.5,6.5-22.5,13.2c0,7.4,11.9,13.4,26.4,13.4c14.6,0,26.4-6,26.4-13.4
				C645.9,193.1,636.8,187.7,624.7,186.5z"/>
		</g>
		<ellipse class="st28" cx="620.2" cy="149.3" rx="4.4" ry="2.1"/>
		<g>
			<path class="st4" d="M624.6,192.8c-0.1,0.3-0.2,0.5-0.4,0.8v0.1c0,0.8-1.7,1.7-4,1.7c-2.4,0-4-0.9-4-1.7v-0.1
				c-0.2-0.2-0.3-0.5-0.4-0.7c-0.2,0.3-0.3,0.6-0.3,0.9c0,1.4,2.1,2.4,4.7,2.4c2.7,0,4.7-1.1,4.7-2.4
				C624.9,193.4,624.8,193.1,624.6,192.8z"/>
		</g>
		<line class="st28" x1="624.5" y1="147.5" x2="624.5" y2="193.7"/>
		<line class="st28" x1="615.8" y1="147.5" x2="615.8" y2="193.7"/>
		<circle class="st7" cx="620" cy="144.3" r="9.4"/>
		<g>
			<line class="st29" x1="724.4" y1="137" x2="724.4" y2="169.9"/>
			<line class="st29" x1="740.9" y1="153.4" x2="708" y2="153.4"/>
		</g>
		<circle class="st10" cx="770.5" cy="366.7" r="6.5"/>
		<circle class="st30" cx="753.5" cy="181.2" r="10.7"/>
		<g>
			<circle class="st6" cx="617.1" cy="41.4" r="35.6"/>
			<path class="st6" d="M583.8,53.2l32.2,70.4c2.1,4.6,8.7,4.2,10.3-0.5L651.7,50"/>
			<circle class="st3" cx="617.1" cy="41.4" r="18"/>
			<circle class="st31" cx="617.1" cy="41.4" r="21.8"/>
		</g>
		<path class="st3" d="M669.2,361.8c0,0-1.3-18.1,2.8-19.8c4.1-1.7,10-2.4,10-2.4l3.9,3.4l1.7,3.7v15"/>
		<path class="st3" d="M691.6,361.8c0,0-1.3-18.1,2.8-19.8c4.1-1.7,10-2.4,10-2.4l3.9,3.4l1.7,3.7v15"/>
		<g>
			<polyline class="st8" points="669.5,363.1 687.1,363 687.5,353.1 687.6,346.7 686.1,343.5 681.7,339.4 			"/>
			<polyline class="st13" points="691.1,363.5 710.2,363.5 709.9,348.1 709.2,343.7 703.4,340 			"/>
			<path class="st3" d="M657.3,411.6"/>
			<g>
				<g>
					<path id="XMLID_1_" class="st14" d="M654.5,400.9l-0.1,50.3l1.1,8.9l3.3,3.9l3,1l89.8,0.2l5.5-3.7l0.9-5.8l0.7-10.9l0.3-43
						l-0.3-29c0,0-0.8-6.3-9.8-6.9l-85.6-0.4c0,0-5.9,0.2-6.5,2.5s-1.3,5.7-1.3,5.7"/>
				</g>
				<g>
					<defs>
						<path id="SVGID_11_" d="M654.5,400.9l-0.1,50.3l1.1,8.9l3.3,3.9l3,1l89.8,0.2l5.5-3.7l0.9-5.8l0.7-10.9l0.3-43l-0.3-29
							c0,0-0.8-6.3-9.8-6.9l-85.6-0.4c0,0-5.9,0.2-6.5,2.5s-1.3,5.7-1.3,5.7"/>
					</defs>
					<clipPath id="SVGID_12_">
						<use xlink:href="#SVGID_11_"  style="overflow:visible;"/>
					</clipPath>
					<polyline class="st32" points="645.7,423.6 760.4,371.3 765.7,363.5 680.3,357.7 651.5,361.1 					"/>
				</g>
				<g>
					<defs>
						<path id="SVGID_13_" d="M654.5,400.9l-0.1,50.3l1.1,8.9l3.3,3.9l3,1l89.8,0.2l5.5-3.7l0.9-5.8l0.7-10.9l0.3-43l-0.3-29
							c0,0-0.8-6.3-9.8-6.9l-85.6-0.4c0,0-5.9,0.2-6.5,2.5s-1.3,5.7-1.3,5.7"/>
					</defs>
					<clipPath id="SVGID_14_">
						<use xlink:href="#SVGID_13_"  style="overflow:visible;"/>
					</clipPath>
					<polyline class="st33" points="654.8,468.9 768.4,393.2 774.5,423.1 705.9,476 					"/>
				</g>
				<g>
					<defs>
						<path id="SVGID_15_" d="M654.5,400.9l-0.1,50.3l1.1,8.9l3.3,3.9l3,1l89.8,0.2l5.5-3.7l0.9-5.8l0.7-10.9l0.3-43l-0.3-29
							c0,0-0.8-6.3-9.8-6.9l-85.6-0.4c0,0-5.9,0.2-6.5,2.5s-1.3,5.7-1.3,5.7"/>
					</defs>
					<clipPath id="SVGID_16_">
						<use xlink:href="#SVGID_15_"  style="overflow:visible;"/>
					</clipPath>
					<path class="st34" d="M657,398.7v-26.3c0,0,2.9-4.2,6.5-4.5h93v-2.7H707h-48.7h-7.9v7.9v30.1"/>
				</g>
				<g>
					<defs>
						<path id="SVGID_17_" d="M654.5,400.9l-0.1,50.3l1.1,8.9l3.3,3.9l3,1l89.8,0.2l5.5-3.7l0.9-5.8l0.7-10.9l0.3-43l-0.3-29
							c0,0-0.8-6.3-9.8-6.9l-85.6-0.4c0,0-5.9,0.2-6.5,2.5s-1.3,5.7-1.3,5.7"/>
					</defs>
					<clipPath id="SVGID_18_">
						<use xlink:href="#SVGID_17_"  style="overflow:visible;"/>
					</clipPath>
					<polyline class="st35" points="657.2,401.5 657.2,412 653,412 653,400.1 					"/>
				</g>
				<g>
					<defs>
						<path id="SVGID_19_" d="M654.5,400.9l-0.1,50.3l1.1,8.9l3.3,3.9l3,1l89.8,0.2l5.5-3.7l0.9-5.8l0.7-10.9l0.3-43l-0.3-29
							c0,0-0.8-6.3-9.8-6.9l-85.6-0.4c0,0-5.9,0.2-6.5,2.5s-1.3,5.7-1.3,5.7"/>
					</defs>
					<clipPath id="SVGID_20_">
						<use xlink:href="#SVGID_19_"  style="overflow:visible;"/>
					</clipPath>
					<path class="st36" d="M746.1,394.7h-79.4c-2.8,0-5-2.3-5-5V377c0-2.8,2.3-5,5-5h79.4c2.8,0,5,2.3,5,5v12.6
						C751.1,392.4,748.9,394.7,746.1,394.7z"/>
				</g>
				<g>
					<defs>
						<path id="SVGID_21_" d="M654.5,400.9l-0.1,50.3l1.1,8.9l3.3,3.9l3,1l89.8,0.2l5.5-3.7l0.9-5.8l0.7-10.9l0.3-43l-0.3-29
							c0,0-0.8-6.3-9.8-6.9l-85.6-0.4c0,0-5.9,0.2-6.5,2.5s-1.3,5.7-1.3,5.7"/>
					</defs>
					<clipPath id="SVGID_22_">
						<use xlink:href="#SVGID_21_"  style="overflow:visible;"/>
					</clipPath>
					<path class="st37" d="M758.8,398.4H654.1c-0.2,0-0.4-0.2-0.4-0.4l0,0c0-0.2,0.2-0.4,0.4-0.4h104.7c0.2,0,0.4,0.2,0.4,0.4l0,0
						C759.2,398.3,759,398.4,758.8,398.4z"/>
				</g>
			</g>
			<polyline class="st13" points="654.7,412.6 673.5,412.6 673.5,451.9 660.7,464.8 655.7,462 654.6,457.1 			"/>
			<polyline class="st13" points="739.4,412.8 739.4,451.6 751.5,464.7 755.3,463.7 757.5,460.9 758.8,454.7 758.6,412.4 			"/>
			<path class="st38" d="M740.2,392.5h-68c-5,0-9-4.1-9-9l0,0c0-5,4.1-9,9-9h68c5,0,9,4.1,9,9l0,0
				C749.2,388.5,745.2,392.5,740.2,392.5z"/>
			<polyline class="st17" points="714.2,392 747.6,377.3 749.2,381 749.2,384.6 731.6,392 			"/>
			<polyline class="st17" points="666.2,390 692.1,375.5 679.6,375.1 664.7,384.2 			"/>
			<polyline class="st38" points="655,415.2 672.7,415.2 672.7,412.7 655.5,412.7 			"/>
			<polyline class="st38" points="655.3,423.7 673.7,423.7 673.7,421.1 654.4,421.1 			"/>
			<polyline class="st38" points="655.1,432.2 672.9,432.2 672.9,429.9 654.6,429.9 			"/>
			<polyline class="st38" points="655,440.9 673.1,440.9 673.1,438.9 654.6,438.9 			"/>
			<polyline class="st38" points="655,448.9 672.8,448.9 672.8,447.1 656.7,447.1 			"/>
			<polyline class="st38" points="671.2,414.2 671.2,453.5 673.1,451.6 673.1,414.1 			"/>
			<polyline class="st38" points="757.9,415.2 740.2,415.2 740.2,412.7 757.3,412.7 			"/>
			<polyline class="st38" points="757.6,423.7 739.1,423.7 739.1,421.1 758.5,421.1 			"/>
			<polyline class="st38" points="757.8,432.2 739.9,432.2 739.9,429.9 758.3,429.9 			"/>
			<polyline class="st38" points="757.8,440.9 739.8,440.9 739.8,438.9 758.2,438.9 			"/>
			<polyline class="st38" points="757.8,448.9 740,448.9 740,447.1 756.2,447.1 			"/>
			<polyline class="st38" points="741.6,414.2 741.6,453.5 739.8,451.6 739.8,414.1 			"/>
			<path class="st20" d="M693.2,463.8"/>
			<polyline class="st3" points="657.3,412.6 657.3,446.8 654.8,446.8 654.8,412.8 			"/>
			<path class="st39" d="M722.8,338.1"/>
			<path class="st40" d="M750,464.8h-86.8c-4.8,0-8.6-3.9-8.6-8.6v-81.9c0-4.8,3.9-8.6,8.6-8.6H750c4.8,0,8.6,3.9,8.6,8.6v81.9
				C758.6,461,754.7,464.8,750,464.8z"/>
			<path class="st40" d="M742,392.3h-70.8c-3.9,0-7.1-3.2-7.1-7.1v-3c0-3.9,3.2-7.1,7.1-7.1H742c3.9,0,7.1,3.2,7.1,7.1v3
				C749.1,389.1,745.9,392.3,742,392.3z"/>
			<path class="st41" d="M744.5,395h-75.9c-3.9,0-7.1-3.2-7.1-7.1v-9.1c0-3.9,3.2-7.1,7.1-7.1h75.9c3.9,0,7.1,3.2,7.1,7.1v9.1
				C751.6,391.9,748.5,395,744.5,395z"/>
			<path class="st4" d="M760.9,402.9H653.6c-1.5,0-2.8-1.2-2.8-2.8l0,0c0-1.5,1.2-2.8,2.8-2.8h107.3c1.5,0,2.8,1.2,2.8,2.8l0,0
				C763.6,401.7,762.4,402.9,760.9,402.9z"/>
			<path class="st42" d="M707.3,454.3c-5.2,0-9.5-4.3-9.5-9.5v-11.3c-3.4-2.9-5.5-7.1-5.5-11.6c0-8.3,6.8-15.1,15.1-15.1
				s15.1,6.8,15.1,15.1c0,4.6-2.1,8.9-5.7,11.8v11.1C716.8,450,712.5,454.3,707.3,454.3z"/>
			<path class="st4" d="M720.5,421.9c0-7.3-5.9-13.2-13.2-13.2s-13.2,5.9-13.2,13.2c0,4.4,2.2,8.3,5.5,10.7c0,0.3,0,0.5,0,0.8v11.4
				c0,4.2,3.4,7.6,7.6,7.6l0,0c4.2,0,7.6-3.4,7.6-7.6v-11.4c0-0.2,0-0.4,0-0.6C718.3,430.4,720.5,426.4,720.5,421.9z"/>
			<polyline class="st40" points="654.1,412.4 673.3,412.4 673.3,452.1 661,464.5 			"/>
			<polyline class="st40" points="758.4,412.4 739.2,412.4 739.2,452.1 751.6,464.5 			"/>
			<circle class="st40" cx="680.8" cy="411" r="2.4"/>
			<circle class="st40" cx="660.3" cy="455" r="2.4"/>
			<circle class="st40" cx="751.2" cy="455" r="2.4"/>
			<circle class="st40" cx="732.1" cy="411" r="2.4"/>
			<line class="st40" x1="654.4" y1="420.9" x2="673.3" y2="420.9"/>
			<line class="st40" x1="654.4" y1="429.7" x2="673.3" y2="429.7"/>
			<line class="st40" x1="654.4" y1="438.5" x2="673.3" y2="438.5"/>
			<line class="st40" x1="654.4" y1="447.3" x2="673.3" y2="447.3"/>
			<line class="st40" x1="739.2" y1="420.9" x2="758.1" y2="420.9"/>
			<line class="st40" x1="739.2" y1="429.7" x2="758.1" y2="429.7"/>
			<line class="st40" x1="739.2" y1="438.5" x2="758.1" y2="438.5"/>
			<line class="st40" x1="739.2" y1="447.3" x2="758.1" y2="447.3"/>
			<g>
				<path class="st4" d="M668.7,366.3c0.6-0.1,1.3-0.1,1.9-0.2c-0.2-0.6-0.2-1.3-0.2-1.9v-15.8c0-4.5,3.6-8.1,8.1-8.1
					s8.1,3.6,8.1,8.1v15.8c0,0.6-0.1,1.2-0.2,1.8c0.7-0.1,1.3-0.1,2-0.2c0.1-0.5,0.1-1,0.1-1.5v-15.8c0-5.5-4.5-10-10-10
					s-10,4.5-10,10v15.8C668.5,364.9,668.6,365.6,668.7,366.3L668.7,366.3z"/>
			</g>
			<g>
				<path class="st4" d="M690.9,366.3c0.6-0.1,1.3-0.1,1.9-0.2c-0.2-0.6-0.2-1.3-0.2-1.9v-15.8c0-4.5,3.6-8.1,8.1-8.1
					s8.1,3.6,8.1,8.1v15.8c0,0.6-0.1,1.2-0.2,1.8c0.7-0.1,1.3-0.1,2-0.2c0.1-0.5,0.1-1,0.1-1.5v-15.8c0-5.5-4.5-10-10-10
					s-10,4.5-10,10v15.8C690.7,364.9,690.8,365.6,690.9,366.3L690.9,366.3z"/>
			</g>
			<path class="st4" d="M688.3,365.2h-21.4c-1,0-1.9-0.8-1.9-1.9l0,0c0-1,0.8-1.9,1.9-1.9h21.4c1,0,1.9,0.8,1.9,1.9l0,0
				C690.2,364.4,689.4,365.2,688.3,365.2z"/>
			<path class="st4" d="M711.3,365.2h-21.4c-1,0-1.9-0.8-1.9-1.9l0,0c0-1,0.8-1.9,1.9-1.9h21.4c1,0,1.9,0.8,1.9,1.9l0,0
				C713.2,364.4,712.3,365.2,711.3,365.2z"/>
			<polyline class="st41" points="672.3,363.5 672.3,354 675.5,355.8 678.9,353.9 681.3,355.7 683.7,354 683.7,362.4 			"/>
			<polyline class="st41" points="694.9,363.3 694.9,353.8 698.1,355.6 701.4,353.7 703.9,355.5 706.3,353.8 706.3,362.2 			"/>
			<path class="st17" d="M759.7,399.8H656.5c-0.4,0-0.7-0.3-0.7-0.7l0,0c0-0.4,0.3-0.7,0.7-0.7h103.1c0.4,0,0.7,0.3,0.7,0.7l0,0
				C760.4,399.5,760,399.8,759.7,399.8z"/>
			<path class="st17" d="M695.2,420.5c0,0,1-10.9,12.3-11c10.4-0.1,12.2,11,12.2,11S709.1,399.1,695.2,420.5z"/>
			<path class="st43" d="M668.5,363"/>
			<path class="st17" d="M710.5,363.5h-43.4c-0.3,0-0.6-0.3-0.6-0.6l0,0c0-0.3,0.3-0.6,0.6-0.6h43.4c0.3,0,0.6,0.3,0.6,0.6l0,0
				C711.1,363.2,710.8,363.5,710.5,363.5z"/>
		</g>
		<path class="st18" d="M684.1,224.6"/>
		<g class="st44">
			<path class="st3" d="M676,388.9c0,0.4-0.2,0.7-0.7,0.7c-0.5,0-0.7-0.2-0.7-0.7v-9.8h4.5c0.6,0,1.1,0.1,1.5,0.5
				c0.6,0.5,0.6,1,0.6,1.8v1.8c0,0.7-0.1,1.2-0.6,1.7c-0.5,0.6-1.1,0.6-1.8,0.6H676V388.9z M676,384.2h3c0.8,0,1-0.2,1-1v-1.9
				c0-0.8-0.2-1-1-1h-3V384.2z"/>
			<path class="st3" d="M685.6,388.9c0,0.4-0.2,0.7-0.7,0.7s-0.7-0.2-0.7-0.7v-9.8h4.5c1.1,0,2.1,0.8,2.1,1.9v0.9
				c0,1.3-1,1.9-2.1,1.9h-1.2l3,4.3c0.1,0.2,0.3,0.5,0.3,0.7c0,0.4-0.3,0.6-0.7,0.6c-0.3,0-0.4-0.2-0.6-0.4l-3.7-5.3h-0.3V388.9z
				 M685.6,382.5h3c0.4,0,1,0,1-0.6V381c0-0.5-0.5-0.6-1-0.6h-3V382.5z"/>
			<path class="st3" d="M697.9,388.2h2c0.3,0,0.7,0.2,0.7,0.7c0,0.5-0.3,0.7-0.7,0.7h-5.3c-0.3,0-0.7-0.2-0.7-0.7
				c0-0.5,0.3-0.7,0.7-0.7h2v-7.8h-2c-0.3,0-0.7-0.2-0.7-0.7c0-0.5,0.3-0.7,0.7-0.7h5.3c0.3,0,0.7,0.2,0.7,0.7
				c0,0.5-0.3,0.7-0.7,0.7h-2V388.2z"/>
			<path class="st3" d="M708.9,381.9v-2.1c0-0.4,0.2-0.7,0.7-0.7s0.7,0.2,0.7,0.7v2.1c0,0.2,0,0.4-0.1,0.5l-2.6,6.5
				c-0.1,0.3-0.3,0.6-0.7,0.6s-0.5-0.3-0.7-0.6l-2.6-6.5c-0.1-0.2-0.1-0.3-0.1-0.5v-2.1c0-0.4,0.2-0.7,0.7-0.7
				c0.5,0,0.7,0.2,0.7,0.7v2.1l2,5.1L708.9,381.9z"/>
			<path class="st3" d="M715.9,379.8c0.1-0.4,0.3-0.7,0.7-0.7c0.4,0,0.6,0.3,0.7,0.7l2.6,9.1c0.1,0.3-0.3,0.7-0.6,0.7
				c-0.4,0-0.6-0.3-0.7-0.7l-0.5-1.6h-2.9l-0.5,1.6c-0.1,0.3-0.3,0.7-0.7,0.7c-0.4,0-0.7-0.3-0.6-0.7L715.9,379.8z M716.6,382.3
				L716.6,382.3l-1.1,3.6h2.1L716.6,382.3z"/>
			<path class="st3" d="M724.2,380.4v0.5c0,0.4-0.2,0.7-0.7,0.7c-0.5,0-0.7-0.2-0.7-0.7v-1.8h6.6v1.8c0,0.4-0.2,0.7-0.7,0.7
				c-0.5,0-0.7-0.2-0.7-0.7v-0.5h-1.3v8.4c0,0.4-0.2,0.7-0.7,0.7s-0.7-0.2-0.7-0.7v-8.4H724.2z"/>
			<path class="st3" d="M738.5,388.2c0.3,0,0.7,0.2,0.7,0.7c0,0.5-0.3,0.7-0.7,0.7h-6v-10.4h6c0.3,0,0.7,0.2,0.7,0.7
				c0,0.5-0.3,0.7-0.7,0.7h-4.6v3.2h2c0.3,0,0.7,0.2,0.7,0.7c0,0.5-0.3,0.7-0.7,0.7h-2v3.2H738.5z"/>
		</g>
		<ellipse class="st45" cx="662.1" cy="278.4" rx="16.3" ry="28.5"/>
		<polyline class="st45" points="652,283.1 660.6,294.1 672.1,264.2 		"/>
	</g>
	<g>
		<g>
			<polygon class="st3" points="13.1,346.6 101.7,394.5 173.9,352 211.8,281.6 209.4,279 181.1,265.2 212.7,248.5 219.9,237.7 
				218.2,218.6 216.3,129.4 153.3,100.4 88.4,134 89.7,256.9 105.6,265.2 88.9,300.7 13.9,340.5 			"/>
			<polygon class="st3" points="234.2,173.8 285.7,142.8 336,172.5 337.6,263.7 287.1,294.1 255,277.7 230.2,266.4 234.7,216.6 			
				"/>
			<circle class="st7" cx="290.6" cy="360.5" r="4.7"/>
			<polyline class="st13" points="284.9,202.9 286.7,293.2 337.5,263.9 335.6,172.6 			"/>
			<polyline class="st13" points="89.3,256 120.6,233.9 123,237.7 106.3,265.3 			"/>
			<polyline class="st13" points="88,155.2 130.6,154.2 88.3,134.7 			"/>
			<polyline class="st7" points="12.8,346.5 102,395 173,352.7 212.4,282.1 209.9,279.7 172.4,347.7 102,389.4 13.4,341 			"/>
			<polyline class="st7" points="42.7,356.7 56.1,350.1 82.4,364.4 68.5,371.2 			"/>
			<polyline class="st13" points="90.1,297.9 174,344.1 204.6,288.4 115.9,244.9 			"/>
			<polyline class="st7" points="148.9,329.8 186.2,322 174.2,343.2 			"/>
			<polyline class="st7" points="91.5,297.8 187.2,279.6 150.9,261.7 103.4,270.9 			"/>
			<polyline class="st7" points="115.2,246.9 203.8,290.1 205.1,288.1 114.9,244.6 			"/>
			<polyline class="st17" points="152.9,359.5 143.5,369.8 173.4,352 172.5,348.1 			"/>
			<polyline class="st17" points="120.7,378.8 113.8,388 102.6,394.1 102.5,389.6 			"/>
			<polyline class="st17" points="38.5,355.5 40.2,360.6 56.3,369.5 54.1,363.6 			"/>
			<polyline class="st13" points="37.8,331.3 77.9,310.4 153.6,354.9 116,377.8 			"/>
			<polyline class="st13" points="79,306.2 160.2,354.8 171.4,348.5 88.7,301.1 			"/>
			<polyline class="st13" points="131.2,252.2 155.4,253 119.5,236.2 116,244.6 			"/>
			<polyline class="st13" points="165.5,268.7 187.9,268.8 209.1,279.3 204.6,288.4 			"/>
			<polyline class="st13" points="73.6,374.2 118,380 102,389.4 			"/>
			<polyline class="st13" points="55.4,318.7 97.5,318 78.5,306.8 			"/>
			<polyline class="st7" points="137.8,341.4 165.2,344.8 171,348.4 160.2,354.8 			"/>
			
				<ellipse transform="matrix(0.9999 -1.679889e-02 1.679889e-02 0.9999 -4.3705 2.7282)" class="st7" cx="160.2" cy="261.5" rx="2.8" ry="2.6"/>
			<path class="st14" d="M88.3,134.7"/>
			<polyline class="st14" points="88.2,154.8 141.7,177.9 143.1,246.4 121.9,236.8 112.1,216.4 88.8,205.6 			"/>
			<polyline class="st20" points="90.5,206.4 141.7,177.9 142.9,245.9 121.9,236.5 112.1,216.4 			"/>
			<polyline class="st20" points="88.6,184.5 123,169.8 104.7,161.8 88.6,169 			"/>
			
				<ellipse transform="matrix(0.9999 -1.679889e-02 1.679889e-02 0.9999 -3.9168 1.7315)" class="st7" cx="101.1" cy="234" rx="7.4" ry="13.4"/>
			
				<ellipse transform="matrix(0.9999 -1.679889e-02 1.679889e-02 0.9999 -2.5043 1.6877)" class="st6" cx="99.2" cy="149.9" rx="3.8" ry="6.1"/>
			
				<ellipse transform="matrix(0.9999 -1.679889e-02 1.679889e-02 0.9999 -2.5901 1.8732)" class="st8" cx="110.2" cy="155.1" rx="3.8" ry="6.1"/>
			<polyline class="st7" points="131.9,154.4 132.2,173.8 152.7,182.5 152.6,164.2 			"/>
			<polygon class="st13" points="152.6,163.5 154.6,251.9 181.7,265.4 216.1,247.6 218.9,241.6 216.7,130.6 			"/>
			<polyline class="st13" points="112.1,165.3 132,164 132.1,173.6 			"/>
			<polyline class="st3" points="123,238.4 91.3,302 89.2,301.4 120.1,236.7 			"/>
			<polyline class="st17" points="133.1,174.2 152.5,168.6 153.3,182.9 			"/>
			<polyline class="st17" points="131.8,167.1 148.8,162.7 132,154.7 			"/>
			
				<ellipse transform="matrix(0.9999 -1.679889e-02 1.679889e-02 0.9999 -2.5395 3.4941)" class="st8" cx="206.7" cy="152.9" rx="3.9" ry="6.7"/>
			
				<ellipse transform="matrix(0.9999 -1.679889e-02 1.679889e-02 0.9999 -2.8301 3.4965)" class="st14" cx="206.7" cy="170.2" rx="4" ry="6.5"/>
			
				<ellipse transform="matrix(0.9999 -1.679889e-02 1.679889e-02 0.9999 -3.1174 3.504)" class="st6" cx="207" cy="187.3" rx="4" ry="6.5"/>
			<polyline class="st7" points="171.6,161.3 172.5,207.9 191.1,224.3 189.7,152.2 			"/>
			<polyline class="st14" points="172.4,260.7 208.4,243 206.8,251.8 181.9,265 			"/>
			<polyline class="st20" points="194.6,258.6 202,246.1 209.8,242 205,252 			"/>
			<polyline class="st20" points="183.1,264.1 187.7,253.3 173.1,260.6 182.5,265.5 			"/>
			<polyline class="st17" points="172.1,175.6 189.9,156.1 190,152.2 171.8,161.7 			"/>
			<polyline class="st17" points="176,211.1 190.5,198.8 191.1,224.3 			"/>
			<path class="st20" d="M210.2,165.8l-6.9,7.7c0,0,1.8,2.6,2.1,2.7c0.3,0.1,3.5,0,3.5,0l2-3.8l0.4-1.7"/>
			<polyline class="st7" points="203.3,245.4 203.1,222.3 218.1,203.8 218.3,229.8 217.2,237.8 			"/>
			<polyline class="st17" points="203.1,238.5 217.7,218.4 216.1,237.2 204.1,245 203.4,245.2 			"/>
			<polyline class="st18" points="203.4,156.9 210.3,149.3 210.8,151.7 210.8,155.7 209.3,158.3 208,159.5 205.3,159.3 			"/>
			<polyline class="st18" points="106.3,157.5 114.4,154.4 114.1,157.2 113.3,159.5 112.3,160.9 111.4,161.4 109.6,161.4 
				108.2,160.6 			"/>
			<polyline class="st46" points="95.1,151.9 103.3,148.3 103.2,152.1 102.3,154.1 101.6,155.2 100.7,155.9 99,156 97.7,155.7 
				96.9,154.9 			"/>
			<polyline class="st3" points="90.9,135.7 92.9,257.8 89.7,256.5 87.8,134.7 			"/>
			<polyline class="st3" points="153.2,179.8 173.4,153.8 153.2,164.6 			"/>
			<polyline class="st3" points="213.4,131.8 215.1,231.3 218.1,228.2 217,131.7 			"/>
			<polyline class="st46" points="203.9,190.8 211,183.6 211.6,186.3 211.5,188.8 210.6,191.2 209.5,192.7 208.5,193.5 207.1,193.8 
				205.1,193.2 			"/>
			<path class="st3" d="M95.6,152.2c0,0-0.5-5.9,2.9-7.4c3.2-1.3,4.5,4.2,4.7,5.4c0,0.1,0,0.2,0,0.2c0,0.4,0-2.1,0-2.1l-0.6-1.8
				l-0.8-1.7l-1.1-0.6l-1.9-0.5l-1.4,0.6l-1.5,1.5l-0.6,1.9"/>
			<path class="st3" d="M106.9,158.3c0,0-1.5-6.7,2.9-8.1c4.4-1.3,4.4,6,4.4,6l-0.4-4l-0.6-2.2l-2-1.1h-1.3l-1.9,0.7l-0.7,1.3l-1,2
				l-0.2,1.2"/>
			<path class="st3" d="M209.4,148.1c0,0-4.7-2.8-5.4,4c-0.6,6.8,3.7,7.6,4.9,6.8l-2.7,0.9l-1.5-0.8l-1.5-1.7l-0.8-2.4l0.1-3.1
				l1-2.9l1.7-2.3c0,0,3.1-0.1,3.4,0.4"/>
			<path class="st3" d="M210.8,167.1c0,0-2.6-4.1-5.2-2.2s-2.8,11.9,3.3,11.1l-1.6,0.8l-1.5-0.4l-2.1-1.2l-0.8-2.6l-0.6-1.9l0.8-2.9
				l0.9-2.9l1.9-1.7l2.4,0.4l1.3,1"/>
			<path class="st3" d="M211.2,185c0,0-1.6-4.1-4.6-2.9c-2.9,1.2-3.4,12,2.3,11.1l-0.5,0.8l-2.5-0.4l-1.3-1.6l-1.8-3.1l0.3-3.2
				l1-2.9l2.3-2.4l2.3,0.3l1.8,1.4"/>
			<polyline class="st3" points="161.7,166.9 163.1,249.9 161.6,250.5 160.2,167.1 			"/>
			
				<ellipse transform="matrix(0.9999 -1.679889e-02 1.679889e-02 0.9999 -4.0218 2.8311)" class="st8" cx="166.5" cy="240.8" rx="2.4" ry="5"/>
			
				<ellipse transform="matrix(0.9999 -1.679889e-02 1.679889e-02 0.9999 -3.8746 3.1642)" class="st8" cx="186.4" cy="232.2" rx="2.4" ry="5"/>
			<polyline class="st18" points="184.8,235.4 187.8,228.1 188.5,229.4 188.9,232.2 189,233.6 188.2,235.9 187.5,236.8 186.5,237.2 
				185.1,236.8 			"/>
			<polyline class="st13" points="152.6,164.2 152.3,100.8 217,129.8 			"/>
			<path class="st14" d="M147.7,115c0,0-10.3-0.2-18.1,7.5c0,0-6,8.2,6.5,12.8c0,0,24.4,8.4,37.7-4.8l1.8-2.9v-1.8l-0.6-2.5
				l-2.3-3.2l-5.4-3.2l-6-1.6l-4.9-0.6L155.9,81l-8.1,1.3l0.6,32.1"/>
			<path class="st20" d="M148.5,123.3c0,0,7.4,12.4-10,12.5c0,0,14.5,5.5,28.1-0.2c0,0,8.9-3,9-9.8c0.1-6.9-12.7-11.2-18.9-11
				l-0.5,0.1l0.4,7.6c0,0-0.2,0.7-0.6,1.1C155.5,123.8,151.6,125.3,148.5,123.3z"/>
			<polyline class="st20" points="152.3,124.6 151.6,83.9 156.3,79.5 156.9,123 			"/>
			<polyline class="st8" points="143.4,181.8 143.9,209.6 151.2,212.3 150.7,184.4 			"/>
			<polyline class="st18" points="143.5,195.4 151.3,211.2 151.2,212 143.9,209.6 			"/>
			<polyline class="st18" points="143.4,186 150.9,197.7 150.6,184.8 143.6,181.9 			"/>
			<polyline class="st18" points="164.8,244.1 168.1,237.5 168.9,239.7 168.6,242.6 168,244.8 167.2,245.8 165.9,245.8 			"/>
			<polyline class="st17" points="94.9,241.2 107.4,227.6 107.8,229.8 108.5,235.4 107.3,241.1 105.3,244.3 103.8,246.1 
				102.1,247.3 98,246.3 			"/>
			<polyline class="st3" points="187.9,153.3 189.1,223.4 190.2,224 191.1,224 189.9,152.6 			"/>
			<path class="st3" d="M148.2,115.4c0,0-16.2,2-17.9,9.1c-1.7,7.1,9.7,13.9,23.8,13.5c0,0-16.5,0.6-21-4.1
				c-4.5-4.7-4.5-4.7-4.5-4.7l-0.5-3.5l1.4-3.1c0,0,4.3-6.6,18.1-8"/>
			<polyline class="st3" points="149.2,123.5 148.5,83.4 147.8,83.4 148.4,122.8 			"/>
			<polyline class="st14" points="234.4,174.3 284.7,202.7 285.1,210.6 233.9,182.6 			"/>
			<polyline class="st7" points="288.4,204.5 288.7,232.2 332.3,208.1 332.4,179.5 			"/>
			<polyline class="st17" points="308.6,221.3 332.4,191.3 332.1,208.1 			"/>
			<polyline class="st17" points="288.9,220.4 307.1,193.7 288.5,204.7 			"/>
			<polyline class="st20" points="244.1,188.3 255.2,186.6 234.2,174.6 234.1,183 			"/>
			<polyline class="st20" points="258.9,196.1 269.2,194.1 284.9,202.9 284.7,209.5 			"/>
			<polyline class="st7" points="273.5,204.2 274,236.2 285.2,243.1 285.1,210.2 			"/>
			<polyline class="st13" points="284.7,202.2 285.2,143.3 335.1,171.8 			"/>
			<path class="st13" d="M285.9,145.7"/>
			<polyline class="st14" points="325,271.6 324.7,251.7 337.1,244.8 338,263.9 			"/>
			<polyline class="st20" points="325.7,271 336.6,245.3 337.2,264 			"/>
			<polyline class="st20" points="324.8,262 331.2,248 324.9,251.7 			"/>
			<polyline class="st20" points="267.4,250.5 274.3,253.7 274.7,288.3 260.3,280 			"/>
			<polyline class="st17" points="274.1,236 285.1,230.4 285.6,242.9 			"/>
			<polyline class="st17" points="273.8,222.6 284.7,216.8 284.8,209.9 273.2,204.3 			"/>
			
				<ellipse transform="matrix(0.9999 -1.679889e-02 1.679889e-02 0.9999 -3.6416 4.2946)" class="st7" cx="253.8" cy="218.9" rx="10.3" ry="17.9"/>
			
				<ellipse transform="matrix(0.9999 -1.679889e-02 1.679889e-02 0.9999 -3.6298 4.2962)" class="st3" cx="253.9" cy="218.2" rx="8.4" ry="13.8"/>
			<polyline class="st13" points="274.1,269.9 285.5,249.5 286,294.5 274.7,288.3 			"/>
			<polyline class="st13" points="235,215.6 254.8,194.2 234.6,183.2 			"/>
			<polyline class="st3" points="287.1,201.3 288.7,293.8 286.7,294.6 284.9,202.9 			"/>
			<polyline class="st3" points="306.3,222.3 307.3,281.3 309.4,280.6 308.4,221.2 			"/>
			<polyline class="st3" points="333.5,173.9 334.7,245.7 337.1,244.8 335.9,172.6 			"/>
			<g>
				<path class="st4" d="M156.4,114.3c0,0.3,0,0.5,0,0.8c10.7,0.9,18.8,5.3,18.9,10.9c0.1,6.3-10.3,11.6-23.1,11.8
					s-23.4-4.7-23.5-11c-0.1-5.7,8.4-10.6,19.5-11.6c0-0.3,0-0.5,0.1-0.8c-11.6,1.1-20.5,6.3-20.3,12.4c0.1,6.7,11,12,24.3,11.8
					s24-5.9,23.9-12.6C175.9,120,167.5,115.2,156.4,114.3z"/>
			</g>
			<g>
				<path class="st4" d="M156.5,121.7c-0.1,0.3-0.2,0.5-0.4,0.7v0.1c0,0.7-1.5,1.6-3.7,1.6s-3.7-0.8-3.7-1.5v-0.1
					c-0.2-0.2-0.3-0.4-0.4-0.7c-0.2,0.2-0.3,0.5-0.3,0.8c0,1.2,1.9,2.2,4.4,2.1c2.4,0,4.3-1,4.3-2.3
					C156.8,122.2,156.7,122,156.5,121.7z"/>
			</g>
			<line class="st47" x1="155.7" y1="80.4" x2="156.5" y2="122.5"/>
			<line class="st47" x1="147.7" y1="80.5" x2="148.4" y2="122.6"/>
			<circle class="st6" cx="151.5" cy="75.9" r="8.5"/>
			<polygon class="st48" points="12.9,341.1 101.8,389.7 171.8,348.1 88.9,301.1 			"/>
			<path class="st48" d="M89,306"/>
			<polyline class="st48" points="12.9,346 101.9,394.6 171.9,353 			"/>
			<line class="st48" x1="171.9" y1="353" x2="171.8" y2="348.1"/>
			<path class="st48" d="M54.5,330"/>
			<line class="st49" x1="78.8" y1="306.6" x2="160.1" y2="354.7"/>
			<polyline class="st48" points="41.6,356.8 56.4,349.6 82.7,364.4 69.2,371.4 			"/>
			<polyline class="st48" points="171.7,348.8 209.8,279.1 119.8,235.7 88.9,301.1 			"/>
			<polyline class="st48" points="209.8,279.1 211.9,281.6 174.8,350.6 			"/>
			
				<ellipse transform="matrix(0.2523 -0.9677 0.9677 0.2523 -210.2512 431.0462)" class="st4" cx="173.8" cy="351.6" rx="3" ry="1.9"/>
			<line class="st49" x1="115.7" y1="244.8" x2="204.1" y2="287.8"/>
			<path class="st49" d="M93.7,291.5"/>
			<line class="st49" x1="90.7" y1="297.7" x2="174.5" y2="344.1"/>
			<circle class="st49" cx="160.3" cy="261.4" r="2.6"/>
			<polygon class="st49" points="37.5,331.2 115.7,377.9 154,355 77.9,310.3 			"/>
			<polyline class="st48" points="106,265.1 89.7,256.8 87.6,134.1 152.9,164.1 154.4,252 			"/>
			<polyline class="st48" points="152.9,164.1 216.7,129.8 218.7,245.8 181.5,265 			"/>
			<g>
				<path class="st4" d="M148.2,102.5c-0.1-0.4-0.2-0.8-0.1-1.2l-60.8,32c-0.4,0.2-0.6,0.8-0.4,1.2c0.2,0.3,0.5,0.5,0.8,0.5
					c0.1,0,0.3,0,0.4-0.1l60.1-31.6l0,0C148.1,103,148.2,102.8,148.2,102.5z"/>
				<path class="st4" d="M217.1,129l-60.7-28.1c0,0.3,0,0.6,0,0.9c0,0.4-0.1,0.7-0.1,1l60,27.8c0.4,0.2,1,0,1.2-0.4
					C217.7,129.7,217.5,129.2,217.1,129z"/>
			</g>
			<line class="st49" x1="88.1" y1="154.6" x2="152.9" y2="182.6"/>
			<polyline class="st49" points="88.9,205.7 111.9,216.3 121.6,236.1 			"/>
			<line class="st49" x1="141.8" y1="178.2" x2="143" y2="246.9"/>
			
				<ellipse transform="matrix(0.9999 -1.679889e-02 1.679889e-02 0.9999 -3.9101 1.7314)" class="st49" cx="101.1" cy="233.6" rx="7.3" ry="13.7"/>
			<polygon class="st48" points="284.7,202.5 286.3,294.5 235.7,265.7 234.2,173.8 			"/>
			<path class="st48" d="M286.9,235.2"/>
			<polyline class="st48" points="286.3,294.5 337.4,263.9 335.9,172 285.3,143.2 234.2,173.8 			"/>
			<line class="st48" x1="335.9" y1="172" x2="284.7" y2="202.5"/>
			<polygon class="st50" points="288.5,204.4 288.7,231.8 332.2,208.1 332.5,179.2 			"/>
			<line class="st50" x1="234.9" y1="183.3" x2="283.8" y2="209.6"/>
			<line class="st50" x1="308.3" y1="221.4" x2="309.3" y2="280.4"/>
			<polyline class="st50" points="325,271.2 324.7,251.6 336.9,244.4 			"/>
			<polyline class="st50" points="241.4,268.5 240.9,236.1 274,253.5 274.5,287.7 			"/>
			<polyline class="st50" points="273.5,204.2 274.1,236.1 285,243.1 			"/>
			
				<ellipse transform="matrix(0.9999 -1.679889e-02 1.679889e-02 0.9999 -3.6298 4.2962)" class="st50" cx="253.9" cy="218.2" rx="10.5" ry="17.2"/>
			
				<ellipse transform="matrix(0.9999 -1.679889e-02 1.679889e-02 0.9999 -3.6298 4.2962)" class="st51" cx="253.9" cy="218.2" rx="8.5" ry="13.9"/>
			<circle class="st52" cx="212" cy="320.4" r="6"/>
			<g>
				<line class="st53" x1="74.1" y1="259.5" x2="74.4" y2="277.8"/>
				<line class="st53" x1="83.4" y1="268.5" x2="65.1" y2="268.8"/>
			</g>
			<polygon class="st50" points="160.4,167.1 161.8,250.5 191.2,236.6 189.8,152.1 			"/>
			<line class="st50" x1="171.6" y1="261.1" x2="218.1" y2="238.2"/>
			<polyline class="st50" points="203.4,245.3 203,222.3 217.5,204 			"/>
			
				<ellipse transform="matrix(0.9999 -1.679889e-02 1.679889e-02 0.9999 -2.5042 1.6893)" class="st50" cx="99.3" cy="149.9" rx="4.2" ry="6.3"/>
			
				<ellipse transform="matrix(0.9999 -1.679889e-02 1.679889e-02 0.9999 -2.5901 1.8732)" class="st50" cx="110.2" cy="155.1" rx="4.2" ry="6.3"/>
			<polygon class="st50" points="143.3,181.5 143.8,209.5 151.3,212.3 150.9,184.8 			"/>
			<path class="st50" d="M144.2,247.3"/>
			<polyline class="st50" points="144.7,247.5 144.3,224.9 153.7,220.7 			"/>
			
				<ellipse transform="matrix(0.9999 -1.679889e-02 1.679889e-02 0.9999 -2.5412 3.4941)" class="st50" cx="206.7" cy="153" rx="4.3" ry="6.7"/>
			
				<ellipse transform="matrix(0.9999 -1.679889e-02 1.679889e-02 0.9999 -2.8284 3.5015)" class="st50" cx="207" cy="170.1" rx="4.3" ry="6.7"/>
			
				<ellipse transform="matrix(0.9999 -1.679889e-02 1.679889e-02 0.9999 -3.1156 3.509)" class="st50" cx="207.3" cy="187.2" rx="4.3" ry="6.7"/>
			<polyline class="st50" points="171.5,161.8 172.2,207.6 190.7,224.3 			"/>
			
				<ellipse transform="matrix(0.9999 -1.679889e-02 1.679889e-02 0.9999 -4.0219 2.8294)" class="st50" cx="166.4" cy="240.8" rx="2.4" ry="5.1"/>
			
				<ellipse transform="matrix(0.9999 -1.679889e-02 1.679889e-02 0.9999 -3.8746 3.1642)" class="st50" cx="186.4" cy="232.2" rx="2.4" ry="5.1"/>
			<line class="st50" x1="132.1" y1="174" x2="131.8" y2="154.7"/>
			<g>
				
					<ellipse transform="matrix(0.1602 -0.9871 0.9871 0.1602 -47.9767 444.6102)" class="st6" cx="237.3" cy="250.5" rx="32.5" ry="32.5"/>
				<path class="st6" d="M207.1,261.8l30.4,63.7c2,4.1,8,3.7,9.4-0.6l22.1-67.1"/>
				<circle class="st3" cx="237.3" cy="250.5" r="16.4"/>
				
					<ellipse transform="matrix(0.1602 -0.9871 0.9871 0.1602 -47.9766 444.6102)" class="st54" cx="237.3" cy="250.5" rx="19.9" ry="19.9"/>
			</g>
		</g>
		<line class="st48" x1="12.9" y1="346" x2="12.9" y2="341.1"/>
		<line class="st48" x1="101.8" y1="394.5" x2="101.8" y2="389.6"/>
	</g>
	<g>
		<polyline class="st13" points="1048.5,267.3 1052,257.3 1033.4,266.5 1036.8,272.6 		"/>
		<polyline class="st13" points="1075.1,253 1078.7,244 1090.9,237.9 1088.4,246.5 		"/>
		<circle class="st55" cx="914.6" cy="276.6" r="2.2"/>
		<circle class="st55" cx="896" cy="291.5" r="2.2"/>
		<circle class="st55" cx="946.9" cy="227.6" r="2.2"/>
		<circle class="st55" cx="861.3" cy="256.8" r="2.2"/>
		<g>
			<line class="st56" x1="899.1" y1="276.1" x2="899.1" y2="284"/>
			<line class="st56" x1="903.1" y1="280.1" x2="895.1" y2="280.1"/>
		</g>
		<g>
			<line class="st56" x1="1068.5" y1="224.8" x2="1068.5" y2="232.7"/>
			<line class="st56" x1="1072.5" y1="228.8" x2="1064.6" y2="228.8"/>
		</g>
		<circle class="st55" cx="949.4" cy="181.5" r="2.2"/>
		<g>
			<line class="st56" x1="953.2" y1="168.3" x2="953.2" y2="176.2"/>
			<line class="st56" x1="957.2" y1="172.2" x2="949.2" y2="172.2"/>
		</g>
		<g>
			<line class="st57" x1="1014.2" y1="278.4" x2="1014.2" y2="286.3"/>
			<line class="st57" x1="1018.2" y1="282.4" x2="1010.3" y2="282.4"/>
		</g>
		<g>
			<polyline class="st3" points="1059.5,316.8 1110.1,346.5 1173,311.2 1171.1,307 1117.4,279.3 1095.7,234.9 1033.2,267.1 			"/>
			<polyline class="st7" points="1172.1,311.4 1110.1,346.5 1059.7,317.6 1031.2,268.5 1032.9,266.8 1060,314.1 1110,342.6 
				1171.6,307.6 			"/>
			<polyline class="st7" points="1151.2,318.9 1141.7,314.4 1123.5,324.8 1133.3,329.4 			"/>
			<polyline class="st14" points="1117.2,278.1 1058.8,311.6 1036.7,272.8 1098.5,241.3 			"/>
			<polyline class="st20" points="1076.3,301.3 1050,296.3 1058.7,311 			"/>
			<polyline class="st17" points="1073.9,322.2 1080.6,329.3 1059.4,317.2 1059.9,314.4 			"/>
			<polyline class="st17" points="1162.8,313 1161.4,316.8 1171.8,311.3 1171.6,308 			"/>
			<polyline class="st17" points="1154.1,318 1153.1,321.6 1141.8,328 1143.3,323.9 			"/>
			<polyline class="st13" points="1154.3,301 1126,286.8 1073.3,318.9 1100,334.6 			"/>
			<polyline class="st13" points="1125.1,283.9 1068.7,319 1060.7,314.6 1118.3,280.4 			"/>
			<polyline class="st7" points="1084.3,309.3 1065.1,312 1061,314.6 1068.7,319 			"/>
			<polygon class="st58" points="1172,307.6 1110.1,342.8 1060.4,314.4 1118.1,280.4 			"/>
			<polyline class="st58" points="1172,311 1110.1,346.2 1060.4,317.8 			"/>
			<line class="st58" x1="1060.4" y1="314.4" x2="1060.4" y2="317.8"/>
			<path class="st58" d="M1142.6,300.3"/>
			<line class="st59" x1="1125.2" y1="284.2" x2="1068.8" y2="318.9"/>
			<polyline class="st58" points="1152,318.9 1141.5,314.1 1123.2,324.8 1132.8,329.5 			"/>
			<polyline class="st58" points="1060.5,314.9 1033,266.3 1095.7,234.9 1118.1,280.4 			"/>
			<polyline class="st58" points="1033,266.3 1031.5,268.2 1058.3,316.2 			"/>
			
				<ellipse transform="matrix(0.9633 -0.2685 0.2685 0.9633 -45.9649 296.0546)" class="st4" cx="1059.4" cy="316.1" rx="1.8" ry="2.7"/>
			<line class="st59" x1="1116.8" y1="278" x2="1058.5" y2="311.6"/>
			<polygon class="st59" points="1154.6,300.9 1100.2,334.6 1073.1,319.1 1126,286.7 			"/>
			<line class="st58" x1="1172" y1="307.6" x2="1172.1" y2="310.8"/>
			<line class="st59" x1="1036.7" y1="272.8" x2="1099" y2="240.9"/>
			<ellipse class="st60" cx="1068.1" cy="252.9" rx="1.6" ry="1.5"/>
		</g>
		<g>
			<circle class="st6" cx="1106.2" cy="133.8" r="39"/>
			<path class="st6" d="M1068.6,142.9l27,80.4c1.7,5.2,8.9,5.6,11.3,0.7l36.1-76.8"/>
			<circle class="st3" cx="1106.2" cy="133.8" r="19.7"/>
			<circle class="st61" cx="1106.2" cy="133.8" r="23.9"/>
		</g>
		<polygon class="st3" points="848.6,326.6 908.4,360.4 957.6,332 984.4,285.2 982.4,283 922.2,252.9 900.9,296.4 848.7,322.8 		"/>
		<polyline class="st3" points="963.4,130.8 963.4,248.7 1007.2,270.8 1057.2,245 1056.9,127.9 1013.1,105 		"/>
		<polygon class="st3" points="819.1,227.2 867.8,252.5 937.4,222.2 941.5,169.7 938.9,168.2 871.1,196.4 870.2,202.6 819.2,224.4 
					"/>
		<path class="st62" d="M885.8,243.2l-15.5,6.5c-1.8,0.7-1.9,3.2-0.2,4.1l26.4,14.3c1.8,1,3.9,1,5.7,0.1l57.7-28.2l3.4,1.2"/>
		<g>
			<polyline class="st3" points="919.2,258.7 931.8,265.3 933.4,258.8 922.3,253 			"/>
			<g>
				<polyline class="st13" points="926.9,255.3 932.2,265.4 945.6,272.3 942.7,263.2 				"/>
				<polyline class="st13" points="952,268.3 956.9,278.2 978.9,289.5 982.1,282.9 				"/>
				<polyline class="st7" points="849.1,322.9 908.5,356.6 956.6,329.2 982.7,283.6 984.4,285.2 956.9,332.6 908.4,360.4 
					848.6,326.6 848.6,322.9 				"/>
				<polyline class="st7" points="868.7,333.8 877.9,329.5 895.5,339.5 886,343.9 				"/>
				<polyline class="st8" points="901.4,294.5 957.7,326.8 979,289.4 919.5,259 				"/>
				<polyline class="st18" points="940.8,316.8 966.2,312 957.8,326.2 				"/>
				<polyline class="st17" points="943.2,337 936.8,343.8 957.2,332.1 956.6,329.4 				"/>
				<polyline class="st17" points="857.5,328.1 858.9,331.8 848.8,326.4 849.1,323.3 				"/>
				<polyline class="st17" points="865.9,332.9 867,336.4 877.8,342.6 876.3,338.6 				"/>
				<polyline class="st13" points="865.7,316.5 893,302.9 943.8,333.8 918.1,348.9 				"/>
				<polyline class="st13" points="893.9,300.1 948.2,333.9 955.9,329.7 900.5,296.7 				"/>
				<polyline class="st7" points="933.2,324.5 951.7,327.1 955.6,329.6 948.2,333.9 				"/>
				<polygon class="st63" points="848.7,322.9 908.3,356.8 956.2,329.4 900.6,296.7 				"/>
				<polyline class="st63" points="848.7,326.2 908.3,360.1 956.2,332.7 				"/>
				<line class="st63" x1="956.2" y1="332.7" x2="956.2" y2="329.4"/>
				<path class="st63" d="M877,315.9"/>
				<line class="st64" x1="893.7" y1="300.4" x2="948.1" y2="333.8"/>
				<polyline class="st63" points="868,333.8 878,329.2 895.7,339.5 886.4,344 				"/>
				<polyline class="st63" points="956.1,330 982.6,283.2 922.2,252.9 900.6,296.7 				"/>
				<polyline class="st63" points="982.6,283.2 984.1,284.9 958.2,331.2 				"/>
				
					<ellipse transform="matrix(0.2685 -0.9633 0.9633 0.2685 381.2661 1164.2572)" class="st4" cx="957.2" cy="331.1" rx="2.6" ry="1.7"/>
				<line class="st64" x1="901.9" y1="294.4" x2="958" y2="326.8"/>
				<polygon class="st64" points="865.5,316.5 917.8,349 944,334 893,302.8 				"/>
				<line class="st63" x1="848.5" y1="326.3" x2="848.5" y2="323.1"/>
				<line class="st64" x1="918.9" y1="258.7" x2="978.9" y2="289.6"/>
				<polyline class="st3" points="903.4,295 920.5,260.9 977.5,291.1 978.3,289.6 919.7,259.4 902.4,294.4 				"/>
			</g>
		</g>
		<g>
			<polyline class="st13" points="867.5,247.3 920.5,179.8 941.3,170.1 937.8,218.3 937.4,219.3 868.6,248.7 			"/>
			<polyline class="st13" points="869.9,228.1 900.3,188.2 883.1,195 872.4,209.3 			"/>
			<polyline class="st13" points="819.1,224.4 864.6,247.8 871.1,197.2 870,202.7 			"/>
			<polyline class="st7" points="848,211.7 856.9,215.9 868.9,210.9 869.9,206.9 865.9,204.3 			"/>
			<polyline class="st7" points="819,224.9 819,227.3 867.4,252.5 867.8,249.1 			"/>
			<polyline class="st7" points="867.8,252.1 937.6,222.1 937.7,218.8 867.4,249.2 			"/>
			<g>
				<polygon class="st65" points="873.8,198.8 941.5,169.5 937.6,218.9 867.4,249.4 				"/>
				<polyline class="st65" points="864.5,247.3 870.9,196.7 939.1,168 941.5,169.5 				"/>
				<path class="st66" d="M934.8,217.8"/>
				<line class="st66" x1="864.5" y1="247.3" x2="867.4" y2="249.4"/>
				<line class="st67" x1="871.2" y1="197" x2="873.8" y2="198.8"/>
				<path class="st66" d="M947,168.8"/>
				<polyline class="st65" points="866.9,249.1 818.9,224.3 869.8,202.7 				"/>
				<polyline class="st65" points="818.9,224.3 819.1,227.2 867.5,252.5 937.4,222.2 937.7,219.2 				"/>
				<line class="st66" x1="867.4" y1="249.6" x2="867.5" y2="252.5"/>
				
					<ellipse transform="matrix(0.9989 -4.701201e-02 4.701201e-02 0.9989 -10.763 40.9695)" class="st4" cx="865.6" cy="249.3" rx="1.1" ry="1.6"/>
				<line class="st68" x1="838.5" y1="234.9" x2="838.6" y2="236.9"/>
				<line class="st68" x1="854.4" y1="242.8" x2="854.5" y2="245.3"/>
				<polyline class="st69" points="928.6,226.5 928.5,224.9 935.8,222 935.9,223.5 				"/>
				<path class="st69" d="M826.9,225.6"/>
				<path class="st69" d="M842.5,214.1"/>
				<path class="st69" d="M848.6,212.1l8,3.7c0.2,0.1,0.4,0.1,0.7,0l11.9-5"/>
				<line class="st69" x1="866.4" y1="204.5" x2="869.6" y2="206.5"/>
				<path class="st69" d="M833,228.5"/>
				<path class="st69" d="M864.5,244.8l-29.8-15.6c-0.5-0.2-0.4-0.9,0-1.1l12.1-5.4c0.5-0.2,1.1-0.2,1.7,0.1l17.9,9.5"/>
				<path class="st69" d="M866.5,229.2l-14.2-7.5c-0.4-0.2-0.4-0.9,0-1.1l16-6.8"/>
				<path class="st69" d="M935.1,174.1"/>
				<line class="st69" x1="894.5" y1="186.8" x2="898" y2="188.9"/>
				<path class="st69" d="M924.4,178.1"/>
				<path class="st69" d="M920.9,176.7"/>
			</g>
		</g>
		<g>
			<g>
				<line class="st70" x1="1054.3" y1="315.7" x2="1053" y2="316.3"/>
				<path class="st71" d="M1050.4,317.7l-14.5,7.7c-1.4,0.7-3.1,0.7-4.5-0.1l-18.9-11.2c-1.5-0.9-1.5-3.1,0.1-3.9L1036,298l6.6-3.4"
					/>
				<line class="st70" x1="1043.9" y1="293.9" x2="1045.2" y2="293.2"/>
			</g>
		</g>
		<path class="st62" d="M970.4,315.4l11.7,6.4l29.8-17.3c1.7-1,1.7-3.4,0-4.4l-20.8-11.9l-42.3-22.4l24.5-12.1"/>
		<circle class="st7" cx="899.4" cy="269" r="2.9"/>
		<circle class="st72" cx="1012.8" cy="301.8" r="2.9"/>
		<circle class="st8" cx="1034.4" cy="325.9" r="2.9"/>
		<g>
			<polyline class="st13" points="975.5,185.7 1007.3,163.6 1007.3,201.8 			"/>
			<polyline class="st13" points="963.3,243.9 1007.2,219.9 1007,265.2 			"/>
			<path class="st13" d="M1006.3,152.9c0.3-0.1,1,117.7,1,117.7l50.2-25.4l-0.6-116.7"/>
			<g>
				<g>
					<polyline id="XMLID_224_" class="st38" points="962.9,179.2 1007.1,202 1057.4,179.4 1057.1,203.6 1026.3,217.3 1023.5,224.7 
						1007.3,232.6 1001.9,229.9 996.7,223.4 963.2,205 					"/>
				</g>
				<g>
					<defs>
						<polyline id="SVGID_23_" points="962.9,179.2 1007.1,202 1057.4,179.4 1057.1,203.6 1026.3,217.3 1023.5,224.7 1007.3,232.6 
							1001.9,229.9 996.7,223.4 963.2,205 						"/>
					</defs>
					<clipPath id="SVGID_24_">
						<use xlink:href="#SVGID_23_"  style="overflow:visible;"/>
					</clipPath>
					<polyline class="st73" points="1035.9,217 1053.8,178.2 1061.2,174.9 1061.5,208 					"/>
				</g>
				<g>
					<defs>
						<polyline id="SVGID_25_" points="962.9,179.2 1007.1,202 1057.4,179.4 1057.1,203.6 1026.3,217.3 1023.5,224.7 1007.3,232.6 
							1001.9,229.9 996.7,223.4 963.2,205 						"/>
					</defs>
					<clipPath id="SVGID_26_">
						<use xlink:href="#SVGID_25_"  style="overflow:visible;"/>
					</clipPath>
					<polyline class="st74" points="1024.4,193 1007.3,232.9 1007.1,199 					"/>
				</g>
				<g>
					<defs>
						<polyline id="SVGID_27_" points="962.9,179.2 1007.1,202 1057.4,179.4 1057.1,203.6 1026.3,217.3 1023.5,224.7 1007.3,232.6 
							1001.9,229.9 996.7,223.4 963.2,205 						"/>
					</defs>
					<clipPath id="SVGID_28_">
						<use xlink:href="#SVGID_27_"  style="overflow:visible;"/>
					</clipPath>
					<polyline class="st75" points="1028.3,192.4 1011,232.4 1014.8,230.5 1033.3,189.1 					"/>
				</g>
			</g>
			<polyline class="st8" points="1016.5,162.7 1016.6,172.6 1055.5,154 1055.5,144.5 			"/>
			<polyline class="st8" points="1009.1,154.1 1046.3,136.6 1046.2,146.2 1009.4,163.9 			"/>
			<polyline class="st8" points="1009.1,178.5 1048,160.2 1048,169.6 1009,188.6 			"/>
			<g>
				<g>
					<polyline id="XMLID_231_" class="st14" points="980.1,175.6 1004.3,187.4 1004.4,178.1 979.9,166.3 					"/>
				</g>
				<g>
					<defs>
						<polyline id="SVGID_29_" points="980.1,175.6 1004.3,187.4 1004.4,178.1 979.9,166.3 						"/>
					</defs>
					<clipPath id="SVGID_30_">
						<use xlink:href="#SVGID_29_"  style="overflow:visible;"/>
					</clipPath>
					<polyline class="st76" points="977.4,174.8 989.8,168.5 977.7,164.1 					"/>
				</g>
				<g>
					<defs>
						<polyline id="SVGID_31_" points="980.1,175.6 1004.3,187.4 1004.4,178.1 979.9,166.3 						"/>
					</defs>
					<clipPath id="SVGID_32_">
						<use xlink:href="#SVGID_31_"  style="overflow:visible;"/>
					</clipPath>
					<polyline class="st77" points="981.3,178.6 996.1,172.2 1004.9,175.2 986.3,182.5 					"/>
				</g>
				<g>
					<defs>
						<polyline id="SVGID_33_" points="980.1,175.6 1004.3,187.4 1004.4,178.1 979.9,166.3 						"/>
					</defs>
					<clipPath id="SVGID_34_">
						<use xlink:href="#SVGID_33_"  style="overflow:visible;"/>
					</clipPath>
					<path class="st78" d="M994.1,184.7l12.7-4.4c0,0-0.8,5.8-1,6.2s0.6,2.4,0.5,2.9"/>
				</g>
			</g>
			<g>
				<g>
					<polyline id="XMLID_230_" class="st14" points="977.6,162.7 1002.5,175 1002.6,165.7 978,153.5 					"/>
				</g>
				<g>
					<defs>
						<polyline id="SVGID_35_" points="977.6,162.7 1002.5,175 1002.6,165.7 978,153.5 						"/>
					</defs>
					<clipPath id="SVGID_36_">
						<use xlink:href="#SVGID_35_"  style="overflow:visible;"/>
					</clipPath>
					<polyline class="st79" points="974.9,162 990.5,157.3 977.1,151.3 					"/>
				</g>
				<g>
					<defs>
						<polyline id="SVGID_37_" points="977.6,162.7 1002.5,175 1002.6,165.7 978,153.5 						"/>
					</defs>
					<clipPath id="SVGID_38_">
						<use xlink:href="#SVGID_37_"  style="overflow:visible;"/>
					</clipPath>
					<polyline class="st80" points="979.2,165.6 999.3,159.9 1007,162.7 983.9,168.1 					"/>
				</g>
				<g>
					<defs>
						<polyline id="SVGID_39_" points="977.6,162.7 1002.5,175 1002.6,165.7 978,153.5 						"/>
					</defs>
					<clipPath id="SVGID_40_">
						<use xlink:href="#SVGID_39_"  style="overflow:visible;"/>
					</clipPath>
					<path class="st81" d="M991.6,170.6l15.2-3.7l0.8,5.6l-0.8,3.7c0,0,0.1,0.1,0,0.6"/>
				</g>
			</g>
			<g>
				<g>
					<polyline id="XMLID_229_" class="st14" points="979.8,152.1 1004.2,164 1004.4,154.8 979.7,142.9 					"/>
				</g>
				<g>
					<defs>
						<polyline id="SVGID_41_" points="979.8,152.1 1004.2,164 1004.4,154.8 979.7,142.9 						"/>
					</defs>
					<clipPath id="SVGID_42_">
						<use xlink:href="#SVGID_41_"  style="overflow:visible;"/>
					</clipPath>
					<polyline class="st82" points="976.9,151.4 1009.2,152.8 1009.8,154.8 1007.6,156.8 980.2,155.4 					"/>
				</g>
				<g>
					<defs>
						<polyline id="SVGID_43_" points="979.8,152.1 1004.2,164 1004.4,154.8 979.7,142.9 						"/>
					</defs>
					<clipPath id="SVGID_44_">
						<use xlink:href="#SVGID_43_"  style="overflow:visible;"/>
					</clipPath>
					<polyline class="st83" points="976.8,147.3 993.7,148 973.7,140.5 					"/>
				</g>
				<g>
					<defs>
						<polyline id="SVGID_45_" points="979.8,152.1 1004.2,164 1004.4,154.8 979.7,142.9 						"/>
					</defs>
					<clipPath id="SVGID_46_">
						<use xlink:href="#SVGID_45_"  style="overflow:visible;"/>
					</clipPath>
					<polyline class="st84" points="991.6,160.1 1007.2,159.8 1007.5,164.2 1005.6,165.7 					"/>
				</g>
			</g>
			<g>
				<g>
					<polyline id="XMLID_232_" class="st8" points="963.3,179.5 975.2,185.5 975.2,136.6 963.1,130.8 					"/>
				</g>
				<g>
					<defs>
						<polyline id="SVGID_47_" points="963.3,179.5 975.2,185.5 975.2,136.6 963.1,130.8 						"/>
					</defs>
					<clipPath id="SVGID_48_">
						<use xlink:href="#SVGID_47_"  style="overflow:visible;"/>
					</clipPath>
					<polyline class="st85" points="959.6,180.8 987.4,165 986,197.1 					"/>
				</g>
				<g>
					<defs>
						<polyline id="SVGID_49_" points="963.3,179.5 975.2,185.5 975.2,136.6 963.1,130.8 						"/>
					</defs>
					<clipPath id="SVGID_50_">
						<use xlink:href="#SVGID_49_"  style="overflow:visible;"/>
					</clipPath>
					<path class="st86" d="M956.2,165.8c0.3-0.1,31.9-19.6,31.9-19.6l-4.6-10.7l-26.6,15"/>
				</g>
				<g>
					<defs>
						<polyline id="SVGID_51_" points="963.3,179.5 975.2,185.5 975.2,136.6 963.1,130.8 						"/>
					</defs>
					<clipPath id="SVGID_52_">
						<use xlink:href="#SVGID_51_"  style="overflow:visible;"/>
					</clipPath>
					<polyline class="st87" points="956.6,138.6 975,130.4 954.5,127.4 					"/>
				</g>
			</g>
			<g>
				<g>
					<polyline id="XMLID_225_" class="st14" points="1009.3,261.9 1009.2,234.4 1022.4,228.4 1022.4,255.6 					"/>
				</g>
				<g>
					<defs>
						<polyline id="SVGID_53_" points="1009.3,261.9 1009.2,234.4 1022.4,228.4 1022.4,255.6 						"/>
					</defs>
					<clipPath id="SVGID_54_">
						<use xlink:href="#SVGID_53_"  style="overflow:visible;"/>
					</clipPath>
					<polyline class="st88" points="1025.8,225.5 1009.2,262.4 1024.1,255.8 					"/>
				</g>
			</g>
			<polyline class="st72" points="963,243.8 1006.9,265.9 1057,242.2 1057.2,245.6 1007.2,270.8 963.1,248.5 			"/>
			<polyline class="st13" points="963.8,130 1006.5,152.6 1057.2,127.6 1013.2,105 			"/>
			<g>
				<g>
					<path id="XMLID_226_" class="st3" d="M1046.3,136.6c0,0,0.2,9.4,0,9.4s9.2-4.2,9.2-4.2l-0.1-9.4"/>
				</g>
				<g>
					<defs>
						<path id="SVGID_55_" d="M1046.3,136.6c0,0,0.2,9.4,0,9.4s9.2-4.2,9.2-4.2l-0.1-9.4"/>
					</defs>
					<clipPath id="SVGID_56_">
						<use xlink:href="#SVGID_55_"  style="overflow:visible;"/>
					</clipPath>
					<polyline class="st89" points="1042.3,151 1060.4,123.9 1063.6,135.2 1065.2,142.8 					"/>
				</g>
			</g>
			<g>
				<g>
					<polyline id="XMLID_227_" class="st3" points="1009,166.4 1015.8,163 1016.5,162.9 1016.5,172.6 1009.2,176 					"/>
				</g>
				<g>
					<defs>
						<polyline id="SVGID_57_" points="1009,166.4 1015.8,163 1016.5,162.9 1016.5,172.6 1009.2,176 						"/>
					</defs>
					<clipPath id="SVGID_58_">
						<use xlink:href="#SVGID_57_"  style="overflow:visible;"/>
					</clipPath>
					<polyline class="st90" points="1007.1,177 1021.1,156.3 1022.7,172.4 1020.9,177.4 					"/>
				</g>
			</g>
			<g>
				<g>
					<polyline id="XMLID_228_" class="st3" points="1047.9,160.1 1048.1,169.8 1055.5,166.1 1055.4,156.7 					"/>
				</g>
				<g>
					<defs>
						<polyline id="SVGID_59_" points="1047.9,160.1 1048.1,169.8 1055.5,166.1 1055.4,156.7 						"/>
					</defs>
					<clipPath id="SVGID_60_">
						<use xlink:href="#SVGID_59_"  style="overflow:visible;"/>
					</clipPath>
					<path class="st91" d="M1058.4,153c-0.1,0.3-14.4,21.6-14.4,21.6l16.2-0.5l12.7-13.9"/>
				</g>
			</g>
			<polyline class="st3" points="1012.9,105.5 1007,153.5 963.4,130.3 			"/>
			<polyline class="st18" points="1009.2,164 1009.2,154.1 1024.2,147 1016,160.7 			"/>
			<polyline class="st46" points="1007.1,265.9 1007.3,270.5 1056.8,245.9 1056.9,242.3 			"/>
			<polyline class="st18" points="1032.5,153 1039.9,139.5 1046.1,136.7 1046.1,146.2 			"/>
			<polyline class="st18" points="1024,169.2 1031,156 1023.4,159.5 1016.9,172.5 			"/>
			<polyline class="st18" points="1038.4,162.3 1044,149.9 1050.4,146.8 1045.3,158.8 			"/>
			<polyline class="st18" points="1052.7,155.3 1055.5,149.1 1055.5,154 			"/>
			<polyline class="st18" points="1013,186.6 1020.1,173.3 1008.9,178.7 1009.2,188 			"/>
			<polyline class="st18" points="1029.4,178.5 1035.8,166 1038.6,164.6 1031.8,177.6 			"/>
			<polyline class="st18" points="1040.8,173.3 1046.8,160.7 1048.2,160 1048.1,169.9 			"/>
			<polyline class="st3" points="1054.8,129.1 1054.8,247 1057.3,245.5 1057.3,128 			"/>
			<ellipse class="st72" cx="1049.4" cy="210.2" rx="0.8" ry="1.7"/>
			<ellipse class="st72" cx="1013.2" cy="190" rx="0.8" ry="1.7"/>
			<ellipse class="st8" cx="1052.2" cy="209.1" rx="0.8" ry="1.7"/>
			<ellipse class="st8" cx="1010.4" cy="191.1" rx="0.8" ry="1.7"/>
			<ellipse class="st7" cx="1055" cy="208" rx="0.8" ry="1.7"/>
			<ellipse class="st7" cx="1016.1" cy="188.9" rx="0.8" ry="1.7"/>
			<polyline class="st3" points="1009.7,163.6 1009.7,154.5 1046.2,137.4 1046.1,136.6 1009.1,153.9 1008.9,163.8 			"/>
			<polyline class="st3" points="1016.7,163.4 1055.1,145.3 1055,144.6 1016.3,162.7 			"/>
			<polyline class="st3" points="1009.6,188.2 1009.6,178.7 1048.1,160.8 1047.8,160.2 1009,178.5 1009.1,188.6 			"/>
			<polyline class="st92" points="962.9,205 982.8,189.4 974.8,185.3 963,195.2 			"/>
			<polyline class="st92" points="981.8,215.3 1005.1,201.1 1007,202.2 1007,211.9 991.8,220.4 			"/>
			<g>
				<g>
					<ellipse id="XMLID_233_" class="st93" cx="983.6" cy="235" rx="9" ry="14.7"/>
				</g>
				<g>
					<defs>
						<ellipse id="SVGID_61_" cx="983.6" cy="235" rx="9" ry="14.7"/>
					</defs>
					<clipPath id="SVGID_62_">
						<use xlink:href="#SVGID_61_"  style="overflow:visible;"/>
					</clipPath>
					<path class="st94" d="M971.2,242.3"/>
				</g>
				<g>
					<defs>
						<ellipse id="SVGID_63_" cx="983.6" cy="235" rx="9" ry="14.7"/>
					</defs>
					<clipPath id="SVGID_64_">
						<use xlink:href="#SVGID_63_"  style="overflow:visible;"/>
					</clipPath>
					<polyline class="st95" points="971.3,239.1 996.2,226.1 995.8,244.4 993.6,249.3 987.8,253.8 978.8,253.1 970.1,247.7 					"/>
				</g>
			</g>
			<ellipse class="st3" cx="983.6" cy="235.2" rx="7.4" ry="12.3"/>
			<path class="st13" d="M974.7,237.9"/>
			<polyline class="st13" points="976.3,236.7 990.1,229.3 990.8,232 990.9,233.6 991.1,237 990.7,239.3 989.9,242 988,245.1 
				986.4,246.9 984.4,247.7 981.8,247.1 979.4,245.8 978.2,243.5 977,241 			"/>
			<polyline class="st13" points="963.3,225.9 980.1,214.2 971.9,209.7 963.2,216.6 			"/>
			<ellipse class="st96" cx="1009.7" cy="128.6" rx="21.2" ry="10.7"/>
			<circle class="st55" cx="1064.7" cy="238" r="2.2"/>
			<circle class="st55" cx="1037" cy="105.9" r="2.2"/>
			<g>
				<line class="st97" x1="1026.9" y1="90.3" x2="1026.9" y2="102.9"/>
				<line class="st97" x1="1033.2" y1="96.6" x2="1020.6" y2="96.6"/>
			</g>
			<polyline class="st96" points="963.2,248.3 1007,270.7 1057.2,245.6 			"/>
			<path class="st96" d="M1013.1,222.9"/>
			<polygon class="st96" points="963.2,130.4 1007,152.8 1057.2,127.7 1013.1,105 			"/>
			<line class="st96" x1="1007" y1="152.8" x2="1007" y2="270.7"/>
			<line class="st96" x1="963.2" y1="130.4" x2="963.2" y2="248.3"/>
			<polyline class="st98" points="963.1,179.1 1006.9,201.9 1057,179.5 			"/>
			<polyline class="st98" points="963.2,205 996.6,223.1 1001.4,229.7 1006.8,232.8 1023.5,224.8 1026.3,217.3 1057.1,203.6 			"/>
			<polyline class="st96" points="963.2,244.1 1006.8,265.9 1057.2,241.9 			"/>
			<polygon class="st98" points="1009.2,262 1009.2,234.4 1022.4,228.5 1022.4,255.7 			"/>
			<path class="st96" d="M1036.5,138.1"/>
			<polygon class="st98" points="1009,154 1009,164 1055.6,141.7 1055.6,132.1 			"/>
			<polygon class="st98" points="1009,166.2 1009,176.3 1055.6,154 1055.6,144.3 			"/>
			<polygon class="st98" points="1009,178.4 1009,188.5 1055.6,166.2 1055.6,156.5 			"/>
			<line class="st98" x1="1046.2" y1="136.6" x2="1046.2" y2="146.2"/>
			<line class="st96" x1="1057.2" y1="245.6" x2="1057.2" y2="127.7"/>
			<line class="st62" x1="1033.2" y1="257.8" x2="1038.4" y2="260.5"/>
			<ellipse class="st98" cx="1010.3" cy="191.1" rx="1" ry="1.9"/>
			<ellipse class="st98" cx="1013.2" cy="190" rx="1" ry="1.9"/>
			<ellipse class="st98" cx="1016" cy="188.8" rx="1" ry="1.9"/>
			<ellipse class="st98" cx="1049.3" cy="210.2" rx="1" ry="1.9"/>
			<ellipse class="st98" cx="1052.2" cy="209.1" rx="1" ry="1.9"/>
			<ellipse class="st98" cx="1055" cy="208" rx="1" ry="1.9"/>
			
				<ellipse transform="matrix(4.441044e-02 -0.999 0.999 4.441044e-02 715.9173 1173.8676)" class="st98" cx="971.6" cy="212.7" rx="1.9" ry="1"/>
			
				<ellipse transform="matrix(4.441044e-02 -0.999 0.999 4.441044e-02 714.4919 1169.9471)" class="st98" cx="968.8" cy="211.5" rx="1.9" ry="1"/>
			
				<ellipse transform="matrix(4.441044e-02 -0.999 0.999 4.441044e-02 713.0663 1166.0267)" class="st98" cx="966" cy="210.3" rx="1.9" ry="1"/>
			<line class="st98" x1="975.3" y1="136.7" x2="975.3" y2="185.5"/>
			<path class="st98" d="M995.5,146.8"/>
			<path class="st98" d="M977.9,141.8l26.5,13v9.4l-26.7-13.1C977.7,151.2,977.7,141.7,977.9,141.8z"/>
			<path class="st98" d="M977.9,153.5l26.5,13v9.4l-26.7-13.1C977.7,162.8,977.7,153.3,977.9,153.5z"/>
			<path class="st98" d="M977.9,165.1l26.5,13v9.4l-26.7-13.1C977.7,174.4,977.7,165,977.9,165.1z"/>
			<line class="st98" x1="979.7" y1="142.8" x2="979.7" y2="152"/>
			<line class="st98" x1="1002.6" y1="165.6" x2="1002.6" y2="174.9"/>
			<line class="st98" x1="979.9" y1="166.1" x2="979.9" y2="175.5"/>
			<line class="st98" x1="1016.6" y1="162.7" x2="1016.6" y2="172.6"/>
			<line class="st98" x1="1048" y1="160.4" x2="1048" y2="169.8"/>
			<ellipse class="st99" cx="983.7" cy="235.2" rx="8.9" ry="14.8"/>
			<ellipse class="st100" cx="983.7" cy="235.2" rx="7.4" ry="12.3"/>
			<line class="st101" x1="992.4" y1="238.7" x2="1007.2" y2="245.2"/>
			<line class="st101" x1="974.8" y1="231.9" x2="963.2" y2="226.9"/>
			<path class="st46" d="M1058.4,256.7"/>
		</g>
		<path class="st102" d="M944.8,156.7"/>
		<ellipse class="st4" cx="948.9" cy="270.4" rx="1.6" ry="1.5"/>
	</g>
</g>
</svg>
