<?xml version="1.0" encoding="utf-8"?>
<!-- Generator: Adobe Illustrator 23.0.3, SVG Export Plug-In . SVG Version: 6.00 Build 0)  -->
<svg version="1.1" id="Layer_2" xmlns="http://www.w3.org/2000/svg" xmlns:xlink="http://www.w3.org/1999/xlink" x="0px" y="0px"
	 viewBox="0 0 1027.3 610.6" style="enable-background:new 0 0 1027.3 610.6;" xml:space="preserve">
<style type="text/css">
	.st0{fill:#E6F5FF;}
	.st1{fill:#CCE8FE;}
	.st2{fill:#FFFFFF;}
	.st3{fill:#F8B012;}
	.st4{fill:#65DFD9;}
	.st5{clip-path:url(#XMLID_2_);fill:#2069A7;}
	.st6{fill:#49B7FA;}
	.st7{fill:#F79014;}
	.st8{fill:#57B8FA;}
	.st9{fill:#163460;}
	.st10{fill:#2069A7;}
	.st11{fill:#F8767F;}
	.st12{fill:#FF2C4B;}
	.st13{fill:#40A8A0;}
	.st14{clip-path:url(#XMLID_3_);fill:#F79014;}
	.st15{clip-path:url(#XMLID_3_);fill:#FFFFFF;}
	.st16{fill:#F4AE0E;}
	.st17{fill:none;stroke:#163460;stroke-width:2;stroke-linecap:round;stroke-linejoin:round;stroke-miterlimit:10;}
	.st18{fill:none;stroke:#163460;stroke-width:2.0121;stroke-linecap:round;stroke-linejoin:round;stroke-miterlimit:10;}
	.st19{fill:none;stroke:#163460;stroke-width:1.4909;stroke-linecap:round;stroke-linejoin:round;stroke-miterlimit:10;}
	.st20{fill:none;stroke:#163460;stroke-width:0.5865;stroke-linecap:round;stroke-linejoin:round;stroke-miterlimit:10;}
	.st21{fill:#F55C76;}
	.st22{fill:none;stroke:#49B7FA;stroke-width:3;stroke-linejoin:round;stroke-miterlimit:10;}
	.st23{fill:none;stroke:#F55C76;stroke-width:3;stroke-linejoin:round;stroke-miterlimit:10;}
	.st24{fill:none;stroke:#49B7FA;stroke-width:3.9524;stroke-linecap:round;stroke-linejoin:round;stroke-miterlimit:10;}
	.st25{fill:none;stroke:#F55C76;stroke-width:4.2857;stroke-linecap:round;stroke-linejoin:round;stroke-miterlimit:10;}
	.st26{fill:none;stroke:#49B7FA;stroke-width:2.5379;stroke-linecap:round;stroke-linejoin:round;stroke-miterlimit:10;}
	.st27{fill:none;stroke:#F55C76;stroke-width:1.1843;stroke-linejoin:round;stroke-miterlimit:10;}
	.st28{fill:none;stroke:#EF5A77;stroke-width:2.5379;stroke-linecap:round;stroke-linejoin:round;stroke-miterlimit:10;}
	.st29{fill:none;stroke:#49B7FA;stroke-width:1.1843;stroke-linejoin:round;stroke-miterlimit:10;}
	.st30{fill:none;stroke:#163460;stroke-width:1.1843;stroke-linejoin:round;stroke-miterlimit:10;}
	.st31{fill:none;stroke:#163460;stroke-width:0.4441;stroke-linejoin:round;stroke-miterlimit:10;}
	.st32{fill:none;stroke:#163460;stroke-width:0.2961;stroke-linejoin:round;stroke-miterlimit:10;}
	.st33{fill:none;stroke:#163460;stroke-width:1.1843;stroke-linecap:round;stroke-linejoin:round;stroke-miterlimit:10;}
	.st34{fill:none;}
	.st35{fill:none;stroke:#FFFFFF;stroke-width:1.651;stroke-miterlimit:10;}
	.st36{fill:none;stroke:#FFFFFF;stroke-width:1.3837;stroke-miterlimit:10;}
	.st37{fill:none;stroke:#FFFFFF;stroke-width:1.2188;stroke-miterlimit:10;}
</style>
<g>
	<path class="st0" d="M1021.7,283.7c-1.1-23.7-5-46.4-17.1-67.4c-7.7-13.3-17-24.5-27.9-34.2v115.3c0,7.4-6.4,10.6-12,9.8
		c-2.1,1.3-4.3,2.5-6.5,3.6c-0.1,2.5-1.2,5.1-2.9,7.2c-6.8,8.5-16.8,13.9-26.2,19.1c-11,6.1-22.6,11.5-34.8,14.8
		c-9.6,2.6-15-7.7-11.8-14.7c-3.4-4.5-3.7-11.3,2.8-14.6c3.7-1.9,6.6-3.8,9.3-5.9c-3.5-1.8-5.3-5.4-5.2-9.2
		c-1.4-2.4-1.9-5.4-1.4-8.3c0.5-3,1.7-5.8,3.1-8.5c0-0.8,0-1.7,0-2.5c0-5.6,3.7-8.8,8-9.7c0,0,0,0,0-0.1c-2.1,0.3-4.4,0-6.5-1.4
		c-5.9,4.2-15.6,1.6-16.2-8c-0.3-5.6-0.5-11.2-0.6-16.8c-4.2,1.2-8.8,0-10.9-4.7c-0.1-0.2-0.2-0.4-0.3-0.6c-0.8,0.7-1.7,1.3-2.7,1.8
		c-1,10.5-17.5,12.9-20.1,2c-4.9,2.1-11.1,0.8-13.4-5.2c-0.2,0-0.4,0.1-0.5,0.1c-4.5,0.7-10.5-2.4-11.3-7.4
		c-0.2-1.5-0.4-3.1-0.6-4.6c-1.1-1.7-1.8-3.7-2-5.8c-2.8-23.6-4.3-47.4-2.7-71.2c-14.4,4.8-28.5,10.8-42.5,17.6
		c-18.8,9.1-37.6,18.7-57.6,24.9c-3.2,0.5-6.3,0.9-9.5,1.1c-3.8-0.5-7.5-1.1-11.2-2c-14.5-5.2-28.5-11.6-43.1-16.8
		c-22.3-7.9-45.6-14.3-69.2-17c-14.7-1.7-29.5-1.6-44.3-1.7c-9,0-18,0.4-27,1.3c-3.2,0.3-6.4,0.7-9.6,1.2c-3.2-0.4-6.4-0.9-9.7-1.4
		c-3-0.7-6.1-1.5-9.1-2.2c-20.4-6-40.1-14.4-61.5-16.7c-13.3-1.4-27-0.5-40.2,1.3c-8.1,1.1-16.1,3-24,5.1
		c-28,7.5-58.2,14.1-84.5,27.3c-10.9,5.4-21.2,12.3-30.6,19.9c-9.7,7.7-17.5,17.5-24.8,27.4c-7.7,10.4-12.7,23-17,35
		c-3,8.4-4.3,17.2-5.3,26c-5.6,3-11.2,5.9-16.9,8.8c-5.9,2.7-11.8,5.6-17.5,8.8c-0.6,0.3-1.1,0.7-1.7,1c-1,0.5-2,1-3,1.5
		c-0.6,0.2-1.2,0.4-1.8,0.6c-20.9,5.1-41.9,8.4-62.1,16.1c-0.9,0.3-1.8,0.7-2.7,1.1c17.6,7.5,33.5,19.5,51.7,25.5
		c7.1,2.3,4,13.5-3.1,11.2c-2.3-0.7-4.5-1.6-6.7-2.5c0,0,0,0.1,0,0.1c7.7,5.8,15,12.1,22.2,18.6c5.6,5-2.7,13.2-8.2,8.2
		c-2.2-2-4.4-3.9-6.6-5.8c0,0,0,0.1,0,0.1c4.9,9.5,7.9,19.8,8.1,30.6c0.1,4.6-4.2,6.3-7.6,5.3c2.1,11,3.6,22.7-0.2,32.8
		c-2.2,5.7-10.1,4.7-11.4,0.3c-2.2-0.2-4.2-1.6-5.1-4.1c-0.6-1.8-0.9-3.5-1-5.4c-0.1-2,0.7-3.4,1.9-4.3c-2-1.6-3-4.2-1.1-7
		c0,0,0,0,0,0c0-0.3,0-0.6,0-0.9c0-1.8,0.6-3.2,1.6-4.1c0.5-4.8-0.7-11-1.4-15.1c-1.7-9.8-4.4-19.4-7.5-28.9
		c-1.5-4.7-3.1-9.6-5.3-14.1c-0.5,0-0.9,0.1-1.4,0c-8.2-0.5-16-2.4-23.5-2.9c-2.7-0.2-5.3-0.3-7.5-0.1c-2.4,0.8-4.8,1.6-7,2.5
		c-0.1,0.2-0.2,0.4-0.4,0.7c-1.2,2.2-2.9,3.6-4.7,4.3c-3.3,5-7.3,9.6-12.5,12.1c-2.7,2.9-5.4,5.7-8.1,8.5c-2.4,2.4-5.7,2-7.8,0.2
		c-4.8,1.9-10.6-2.6-7.4-8c5.7-9.8,13-18.2,20.8-26.1c0.4-3.1,2.1-5.9,4.9-7.2c1.4-0.7,2.9-1.3,4.4-2c0.1-0.1,0.3-0.2,0.4-0.3
		c0-0.1,0-0.2,0-0.3c0-2.1,0.8-4.2,2-6c-5.8,4.4-11.2,9.4-16.3,14.7c-12.3,12.9-22,29.1-28.1,45.8c-8.2,22.9-10.5,48.5-0.6,71.1
		c6.9,15.7,18.7,28.8,34.7,35.9c7.5,3.3,15.4,5.3,23.2,7.5c0.6,0.2,1.1,0.5,1.7,0.8c7.5,6,14.1,13.1,21.5,19.2
		c12.4,10.2,27.3,18.4,42.7,23.2c9.1,2.8,18.3,5.7,27.7,7c11.1,1.6,22.5,2.2,33.7,2.8c5,0.2,10,0.3,15,0.2c2.5-0.1,5-0.2,7.5-0.3
		c5.3-0.3,11.9-0.3,16.3-1.1c1.6-0.3,3.3-0.6,5-1c7-1.3,14-2.6,21-3.9c10.3-0.9,20.5-1.8,30.7-2.9c14.5,6.3,29.3,12.1,44.8,15.9
		c23.4,5.7,47.9,7,71.8,5.9c18.9-0.8,37.6-3.9,55.8-8.9c23.7-6.5,47.2-15.4,69.1-26.8c13.1-6.9,25.7-14.6,38.5-21.9
		c7.7-1.6,15.4-3.3,23.1-5c7.3-1.5,14.7-3,22-4.5c0,0,0,0,0,0c18.1,4.2,35.6,10.9,53.9,14.7c37.1,7.8,76.5,9.5,114.1,3.8
		c62.5-9.5,119.4-41.6,163.1-86.7c21.3-22,38-48,51.5-75.4c5.5-11.1,10.1-22.6,13.3-34.6C1018.6,319.3,1022.5,301.3,1021.7,283.7z
		 M436.5,378.7c0,9.7-11,12.3-16.9,7.8c-4.2,1.8-8.5,3.7-12.7,5.5c-8.8,3.8-17.7,8-26.8,11.1c-8.6,3-16.1-7.8-11.6-15.1
		c4.1-6.8,7.7-13.7,10.9-20.9c-0.1-0.7-0.2-1.4-0.2-2.1c0.2-6.7,0.6-13.3,1.3-19.9c-1.5-0.2-2.9-0.7-4.1-1.4
		c-0.5,1.2-0.9,2.3-1.4,3.5c-1.8,4.2-5,7.6-9.9,7.6c-0.9,0-1.8-0.1-2.7-0.4c-0.3,2.4-0.7,4.9-1.1,7.3c-0.9,4.8-5.1,7.2-9.4,7.4
		c0.2,2.8,0.4,5.6,0.7,8.5c0.4,3.6,1,7.2,1.7,10.8c0.4,2.3,0.4,4.8,0.9,7c-0.1-0.7,0.9,1.4,1.2,1.9c5.2,8.4-3.2,16.2-10.8,15.1
		c0.2,1.4,0.2,2.9-0.4,4.2c-1.6,4.2-3,8.5-3.8,13c-1,5.1-6.6,7.9-11.3,7.4c-0.2,0-0.3-0.1-0.5-0.1c-5,4.7-14.8,2-17.2-5
		c-0.3-0.8-0.5-1.7-0.8-2.5c-1.4,0.2-2.9,0.2-4.2-0.2c-5.7-1.6-8.2-7.2-7.2-12.7c2.1-11.2,4.3-22.4,7.7-33.2
		c3.5-15.1,7-30.2,10.6-45.3c1.7-7,8.3-8.6,13.5-6.5c1.2-13.5,3.3-26.9,6.3-40c1.1-4.7,4.6-7,8.4-7.3c1-10.1,2.5-20.1,5.4-30
		c2.9-10,16.7-9.5,19.8,0c2.3,7.1,2.4,14.3,2.1,21.6c1.2-4.8,2.5-9.5,3.8-14.2c-0.7-1.4-1.1-2.9-1-4.7c0.6-9.7,4-18.5,7.6-27.4
		c-9.9,6.2-20.7-5.9-13-15.7c12.3-15.4,26.4-29.1,42.5-40.5c0.6-0.4,1.1-0.7,1.8-0.9v-0.1c0-13.3,20.6-13.2,20.6,0V378.7z
		 M775.5,437.1c-14.3-8.9-29.9-15.5-44.2-24.2c-14.1-8.6-27-18.9-41.9-26.1c-9.6-4.6-4.4-19,5.2-19.2c8.2-0.1,16.3-1.5,24.4-2.3
		c5.6-0.5,10.3,5.1,10.3,10.3c0,1-0.1,1.9-0.4,2.8c0.2,2.5-0.4,5.1-1.8,7.2c4.8,3.2,9.6,6.5,14.6,9.5c14.4,8.8,29.9,15.3,44.2,24.2
		C797.1,426.4,786.7,444.2,775.5,437.1z"/>
	<polyline class="st1" points="246.3,502.5 170.5,458.1 136.6,476.9 15,404.9 211,326.6 284.1,374.5 292.8,381.5 	"/>
	<path class="st0" d="M954,191c0.1-0.8,0.2-1.6,0.2-2.4c0.1-0.7,0.1-1.9,0.2-2.6c-0.4-0.3-0.9-0.8-1.2-1.1
		C953.4,186.9,953.6,189,954,191z"/>
	<path class="st1" d="M415.9,330.3c-2.8,9.3-6,18.4-10.2,27c-2,5.3-4.1,10.5-6.4,15.7c4.2-1.8,8.5-3.6,12.7-5.5
		c1.2-0.5,2.5-1,3.8-1.5V330.3z"/>
	<path class="st1" d="M71,332.7C71,332.7,71,332.7,71,332.7c1.2-1,2.3-2,3.4-3.1c-1.7,0.9-3.5,1.9-5.1,2.9
		C69.8,332.5,70.4,332.5,71,332.7z"/>
	<polyline class="st2" points="131,568.9 475.6,381.5 434.1,356.1 435.3,282 536.4,336.4 739.4,231.2 781.1,279.7 611.7,379.9 
		903.2,537.4 841.2,580.7 643.6,472.2 521.1,426 225.6,603.1 	"/>
	<path class="st1" d="M327.3,454.3c-4.4-1-8.1,1.4-12,3.2c-3.8,1.7-7.6,3.5-11.4,5.2c-8.8,4.1-17.3,7.9-26.4,11.1
		c-7.8,2.7-15.2,7.3-22.5,11.1c-7.4,3.8-14.7,7.7-22,11.6c-14.6,7.8-29.2,15.8-43.6,24.1c-7.8,4.4-15.4,9-22.6,14.2
		c-3.4,2.4-6.8,4.9-10.1,7.4c-4.1,3.1-5.9,6-8.2,10.7c-0.9,1.9,0.1,5.2,2.7,4.8c3.3-0.4,6.3,0.4,9.5-0.7c2.8-0.9,5.4-2.5,8-3.8
		c4.2-2,8.4-4.1,12.6-6.1c7.4-3.6,14.4-8.3,21.5-12.4c14.4-8.5,28.9-16.8,43.6-24.9c14.7-8.2,30.3-15.3,44.1-25
		c6.6-4.6,13.9-8.1,21-11.8c3.6-1.9,7.2-3.8,10.9-5.6c3.5-1.8,6.5-3,8.3-6.7C331.8,457.9,330.1,454.9,327.3,454.3z"/>
	<path class="st1" d="M267.9,538.1c-5,0.7-10.1,4.5-14.5,6.9c-5.7,3.2-12.3,6-17.2,10.3c-2.6,2.3-0.7,7.5,3.1,6.5
		c6.2-1.7,12.2-5.7,17.8-8.8c4.9-2.6,10.9-5,14.5-9.2C273.9,541.2,270.9,537.7,267.9,538.1z"/>
	<path class="st1" d="M329.7,500.1c-5,0.7-10.1,4.5-14.5,6.9c-5.7,3.2-12.3,6-17.2,10.3c-2.6,2.3-0.7,7.5,3.1,6.5
		c6.2-1.7,12.2-5.7,17.8-8.8c4.9-2.6,10.9-5,14.5-9.2C335.7,503.2,332.6,499.7,329.7,500.1z"/>
	<path class="st1" d="M395.8,460.1c-5,0.7-10.1,4.5-14.5,6.9c-5.7,3.2-12.3,6-17.2,10.3c-2.6,2.3-0.7,7.5,3.1,6.5
		c6.2-1.7,12.2-5.7,17.8-8.8c4.9-2.6,10.9-5,14.5-9.2C401.8,463.2,398.8,459.7,395.8,460.1z"/>
	<path class="st1" d="M462,420.1c-5,0.7-10.1,4.5-14.5,6.9c-5.7,3.2-12.3,6-17.2,10.3c-2.6,2.3-0.7,7.5,3.1,6.5
		c6.2-1.7,12.2-5.7,17.8-8.8c4.9-2.6,10.9-5,14.5-9.2C467.9,423.2,464.9,419.7,462,420.1z"/>
	<path class="st1" d="M528.1,380.1c-5,0.7-10.1,4.5-14.5,6.9c-5.7,3.2-12.3,6-17.2,10.3c-2.6,2.3-0.7,7.5,3.1,6.5
		c6.2-1.7,12.2-5.7,17.8-8.8c4.9-2.6,10.9-5,14.5-9.2C534,383.3,531,379.7,528.1,380.1z"/>
	<path class="st1" d="M481.9,336c-3-4.1-8.7-6.9-12.9-9.6c-5.5-3.6-11.1-8.1-17.2-10.4c-3.3-1.3-7,2.9-4.3,5.8
		c4.4,4.7,10.7,8.1,16.1,11.7c4.6,3.1,9.5,7.4,14.9,8.6C481.9,342.7,483.6,338.4,481.9,336z"/>
	<path class="st1" d="M690.7,461.4c-3-4.1-8.7-6.9-12.9-9.6c-5.5-3.6-11.1-8.1-17.2-10.4c-3.3-1.3-7,2.9-4.3,5.8
		c4.4,4.7,10.7,8.1,16.1,11.7c4.6,3.1,9.5,7.4,14.9,8.6C690.7,468.1,692.4,463.8,690.7,461.4z"/>
	<path class="st1" d="M676.6,300.9c-5,0.7-10.1,4.5-14.5,6.9c-5.7,3.2-12.3,6-17.2,10.3c-2.6,2.3-0.7,7.5,3.1,6.5
		c6.2-1.7,12.2-5.7,17.8-8.8c4.9-2.6,10.9-5,14.5-9.2C682.5,304.1,679.5,300.5,676.6,300.9z"/>
	<path class="st1" d="M748.2,261.7c-5,0.7-10.1,4.5-14.5,6.9c-5.7,3.2-12.3,6-17.2,10.3c-2.6,2.3-0.7,7.5,3.1,6.5
		c6.2-1.7,12.2-5.7,17.8-8.8c4.9-2.6,10.9-5,14.5-9.2C754.2,264.9,751.2,261.3,748.2,261.7z"/>
	<polyline class="st1" points="987.1,304.9 894.1,360.1 813.1,315.6 807.9,303.3 888.3,349.6 975.3,299.7 	"/>
	<polyline class="st1" points="679.5,401.3 792.3,466.6 898.5,406.9 887.8,382.7 863.6,392 781.2,447.3 687.1,391 675.3,398.4 
		680.4,401.4 	"/>
	<polyline class="st3" points="320.7,530.3 320.8,566.8 379.7,602.2 380.6,566.1 	"/>
	<path class="st1" d="M179.7,314.2l-16.8-46l-0.1-6.7l-4-2.5c-12.6-17.7-16.5-168-16.5-168l5-4.1l0.2-9.3l-7.6-12.5l-5.2-2.2
		l-4.5,0.9l6,4.3l-0.8,12.3l-0.8,11.9l-0.9,243.7l-0.1,5"/>
	<polyline class="st1" points="688.3,370.3 780.2,426.4 867.6,374.5 816.4,342.2 758.2,331.2 	"/>
	<path class="st4" d="M747.9,298.2l-0.7,10.8l-2.8,12.6l1.4,11.7l-5.4,37.9l-0.2,8.9l9.8,3.8l14.9,3l5.2,1.9l7.3,2.1
		c0,0,18.5,0.5,19.7,0.5c1.2,0,10.5-2.3,10.5-2.3l5.1-2.3c0,0,3.7-5.9,4.9-6.3c1.2-0.3,3.7-2.6,3.7-2.6l-6.1-33.7l-0.3-8.6v-10
		l-4.4-21.5l-3.8-5.4"/>
	<path class="st2" d="M431.4,532.6l21,11.1l0.9,11.2l6.2,3.1l19.2-11l3.4,0.9l3.6,3l-0.5,18.9l12.2,6.5l41.8,19.3l49.5-27.5
		l-0.6-22.8l10-1.1l17.3,9.3l31.5-19.3v-68.6l-10.7-6.2l-0.2-13.2l4.4-6.6l1.5-7l-4.4-9.8l-6.2-5.3l-5.7-6.4l-2.2-3.7l-5.8,7.4
		l-5.8,4l-5.1,5.3l-3.1,7.4c0,0,0.4,5.7,1,7.1c0.6,1.4,5.1,6,5.1,6l-1.2,0.5l-25.3-12.6l-0.8-16.9l7.1-6.9l5.9-14.1l0.2-7.6
		l-2.9-13.6l-6.1-13.2l-9.7-8.7L562.6,339L553,328l-7.3-11.5l-2.8-8.2l-17,20.8l-11.2,11.1l-5.9,2.7L492,359.3l-5.1,9.2l-2.5,9.9
		l-1,10.4l5.4,16.3l7.1,7.8l3.8,3.8l1.9,0.2L501,432l-29.6,15.2l-1.3-1.7l5.2-5.4l0.9-7.3l-0.7-3l-3-6l-5.9-5.2l-3.3-3.5l-4.6-4.6
		l-1.2-3.7l-3.7,5.9l-8,5.9l-3.7,3.9l-4.1,5.9l-0.1,8.7l3.9,4.6l3.1,2.6l-0.9,4.5l-0.1,11.1l-4.4,3.1l-7.2,4"/>
	<polygon class="st1" points="250.3,170 344.2,217 435.5,166.9 357.7,126.4 329.3,127.1 	"/>
	<g>
		<defs>
			<polyline id="XMLID_24_" points="344.2,217 344.2,421.6 344.2,443.5 336.1,441.9 334.9,355.7 251.2,313 251,171.8 			"/>
		</defs>
		<use xlink:href="#XMLID_24_"  style="overflow:visible;fill:#49B7FA;"/>
		<clipPath id="XMLID_2_">
			<use xlink:href="#XMLID_24_"  style="overflow:visible;"/>
		</clipPath>
		<polyline class="st5" points="255.8,197 293.7,193 252.5,172.2 250.8,172.6 250.7,194.5 		"/>
		<polyline class="st5" points="303.7,221.4 344.2,216 343.7,240.7 344.2,242.6 		"/>
	</g>
	<polyline class="st3" points="250.7,195.2 344.2,242.6 344.2,284.9 345.3,288.2 323.9,277.7 315.2,255.2 251.2,221.4 	"/>
	<polyline class="st3" points="250.7,299.6 345.1,347.8 345.1,322.5 251.6,274.7 	"/>
	<path class="st3" d="M397.2,280.5"/>
	<polyline class="st3" points="344.6,308.1 382.1,288.7 382.3,378.9 381.4,417.3 364.1,417.5 364.1,332.4 344.6,313.7 	"/>
	<polyline class="st6" points="344.7,217.3 344.7,307.3 396.3,280.2 396.8,266.9 379.7,257.6 380.6,198.4 	"/>
	<polyline class="st3" points="321.6,530.4 379.2,565.4 428.6,538.6 372.4,503.2 354.2,509.2 	"/>
	<polyline class="st7" points="380.1,565.8 380.1,601.3 429.4,573.4 428.7,539.4 	"/>
	<polyline class="st6" points="779.7,426.4 780.2,448.3 869.1,396 868.7,374.9 	"/>
	<polyline class="st1" points="478.2,463.3 498.1,491.8 499.8,492.7 504.1,490 483.5,461.3 	"/>
	<polyline class="st1" points="499.3,493.4 499.9,510.6 504.6,508.4 504.4,491.3 	"/>
	<polyline class="st1" points="431.1,467.1 453.3,475.2 453.3,543.5 432,532.7 	"/>
	<polyline class="st1" points="539.1,530.2 539.5,596.8 589.8,568.6 586.1,530.4 597.5,532 598.2,544.3 615.5,553.6 647,534.3 
		647.1,466.6 624.7,477.5 623.6,469.8 578.4,492.3 577.5,510.3 	"/>
	<path class="st8" d="M433.3,466.7l19.2,7.8l23.3-10.3l5.4-3.3l2.7,0.7l21.1,28.1l0.2,19l-5.3,1.9l40.1,19.2l36.8-19.9l1-17.4
		l44.9-23.3l1.2,8l22.4-12l-9.6-5.4l-0.8,1.4l0.3,3.4l-2.4,1.7l-5.7,1.7h-4.6l-13.1-4.3l-0.5-17.3l-26.5-13.8l-0.5,32
		c0,0-12.6,10-26,10.2l-2.2,1l2.1,4.1c0,0-1.7,10.1-5.4,11.8c-3.8,1.7-7.5,6-19.1,4l-8.3-4.8l-4.5-4.1l-2-7.7l1.2-4.7l1.7-1.5
		l-16.4-6.8l-3.3-3l0.8-31"/>
	<polyline class="st1" points="524.4,492.4 533.1,495.3 539.6,494.7 547.1,493.8 551,492.7 549.8,510.8 549.7,513.3 539.8,514.4 
		532.4,515.1 528.5,514.4 525.6,512.6 524.1,510.8 	"/>
	<polyline class="st8" points="444.2,445 443.7,464.4 448.6,466.3 457.8,467.7 465.7,467 470,464.9 470.7,460.6 470,445.5 	"/>
	<path class="st1" d="M455.7,409.7c0,0,11.1,34.1-8.1,34.8l0.7,3l7.9,1.4l9-2.4l5.8-2.1l3.9-5.9l0.2-5.3l0.4-3.5l-2.4-5l-8.9-8.2
		l-6-7.5"/>
	<path class="st1" d="M518.3,477.8c0,0,14.4,8.9,19.8,5.5c5.4-3.4,0.1-24.8-0.7-25.4c-0.8-0.6,1.6-2.7,1.6-2.7s3.4,8.7,13,15.5
		l4.2,6.9l-0.9,8.6l-4.8,5.8l-4,2.7l-6.5,2.2l-11.7-1.9l-7.2-6.1l-2.1-3.1"/>
	<path class="st1" d="M619.5,413.1c0,0,10.5,8.6,10.8,17.1c0.3,8.5-20.2,14.8-26.6,2.9c0,0,0.9,6.1,1.5,6.8s7.1,6.5,7.1,6.5l6.6,2.8
		l8.5-0.2l7.2-2.6l4-2.8l2-5.1l0.8-3.3l-0.2-5.9l-2.8-6.1l-8.9-7.8l-5.2-5l-1.2-2.3"/>
	<polyline class="st1" points="622.1,448.7 622.1,467.5 631.2,466.2 635.8,464.6 635.4,446 	"/>
	<polyline class="st2" points="456.1,476.7 456.1,556.4 454.3,554.6 454.3,475.8 	"/>
	<path class="st2" d="M436,467.5"/>
	<path class="st2" d="M458.1,409.4c0,0-2.2,6.4-4.5,7.8c-2.4,1.4-9.6,4.7-10.8,7.4s-11.8,12.8,8.9,22.9l-11.2-6.7l-3.4-5.3l-0.3-5.8
		l2.2-5.2l3.8-3.6l4.8-3.2l8.7-9.3l1.4-1.2"/>
	<polyline class="st2" points="500.1,514 537.7,531.8 540.1,529.8 500.1,511.8 	"/>
	<polyline class="st1" points="501.7,512.1 501.7,576.8 498.7,576.8 498.7,513.3 	"/>
	<polyline class="st8" points="511.2,546.5 515.6,543 521.1,545.9 516,530.5 514.3,525.2 511.3,523.7 510,524.1 510.3,545.2 	"/>
	<polyline class="st8" points="563.6,523.4 563.4,540.5 568.4,543.6 568.5,522.2 568.4,520.7 	"/>
	<polyline class="st8" points="514.4,555.6 514.9,571 510,575.9 510.3,553.4 510.5,552.4 	"/>
	<polyline class="st8" points="600.5,490.7 614.6,484 615.3,552.7 598.6,545.5 	"/>
	<polyline class="st8" points="437.6,496.5 441.5,493.3 441.3,476.4 437.2,474.6 	"/>
	<polyline class="st8" points="437,508.4 441.2,509.6 441.4,526.8 437.2,530 437.1,509.4 	"/>
	<polyline class="st2" points="455.9,477.9 478.5,466.1 476.8,463.8 455.1,474.9 	"/>
	<polyline class="st2" points="433.7,468.2 433.7,533 431.7,531.7 431.7,468.2 	"/>
	<polyline class="st2" points="433,469.6 452.7,477.1 452.6,475.4 432.8,467.9 	"/>
	<polyline class="st2" points="579.5,492.1 579.5,572.8 578.7,573.7 578.7,492.7 	"/>
	<polyline class="st2" points="579.3,493.5 623.3,471.5 623.2,469.6 578.3,492 	"/>
	<polyline class="st2" points="624.3,479.9 646.6,468 646.4,466 624,477.7 	"/>
	<path class="st2" d="M538.8,456c0,0-3.4,8.3-10.2,11.4s-14.8,17.3-3.2,24.5l-4.3-3.2l-2.5-4.7l-0.5-4.5l3.1-8l4.6-3.7l6.4-4.7
		l5-7.2"/>
	<path class="st1" d="M501.7,428.2c0,0,24.5,12.9,45.1,9.7V464l2.1,3.4l4.3,3.2l1.7,2.3v2.2l21.7-5.2l6.6-4.3l-0.8-49.5
		c0,0-9.2,9.7-17.7,10l-6.4,2.3l-16.4,1.6l-10.5-0.4l-14-4.4l-14.7-7.2l-2.7-1.7"/>
	<path class="st1" d="M542.9,438.3c0,0,3.5,1.3,4,5.4c0.5,4.1,3.2,2.8,3.2,2.8l0.4-5.4l-0.1-2.7l-0.1-0.7"/>
	<path class="st1" d="M541.1,309.8c0,0-9.8,23.8,2.6,38.2c12.3,14.4,38.7,78.3-1.2,81.8l24.9-4.4l15.1-9.6l11.2-14.1l2.4-11.9
		l-2.2-14.1l-6.9-14l-7.8-8.9l-10.7-8.4l-8.6-7.9l-5.9-6.8"/>
	<polyline class="st8" points="537.5,496.2 537.5,501.8 540.3,503.8 541.4,514.6 547.6,513.5 550.5,512 550.5,494.1 	"/>
	<polyline class="st8" points="627.8,448.9 627.8,467.9 634.3,465.8 636.4,463.9 636.7,446.5 	"/>
	<path class="st8" d="M456.6,407.5c0,0-0.1,8.2,7.2,13.2c7.3,5,10.3,26.1-5.6,26.6l3.1,0.9l11.1-5.3l2.4-4l0.9-3.8l-0.5-4.7
		l-0.9-3.8"/>
	<path class="st8" d="M538.2,456c0,0-0.7,5.3,5.2,10.7c5.9,5.4,17,32.2-21,23.1l5.3,4.3l5.9,1.5l5.9,0.7l7.7-1.7l4-2.8l2.8-2.4
		l1.8-4l0.3-4.7l-0.4-3.6l-1-3.2"/>
	<path class="st8" d="M501.5,424.3c0,0,24.1,14.9,53.4,9.2s27.3-12.1,27.3-12.1l0.5-3.3l-0.9-2l-4.4,3.8l-7.7,3.8l-6.1,2.6
		l-15.6,3.2h-9.6l-14.4-2.2l-22.4-10.1"/>
	<path class="st8" d="M542.7,309.5c0,0-7.2,10.8,5.1,22.9c12.2,12.1,56.6,71.7,26.2,90c0,0,15-9.8,17.3-18.2
		c2.3-8.4,3.3-19.2,3.3-19.2l-0.5-8.4l-5.1-11.7c0,0-14.3-18.5-19-20.1s-12.1-9.3-12.1-9.3l-7.2-9.7"/>
	<polyline class="st8" points="460.6,557.6 460.2,514.4 460.8,507.1 464.4,499 471.5,493.7 474.1,492.9 475.8,495.3 477.6,497.2 
		480.3,546.1 	"/>
	<path class="st2" d="M543.1,308.9c0,0-9.7,26.1-32,36.3c-22.4,10.3-36.3,45.3-20.3,59.9l-0.1,1.4l-8.7-22.6l4-13.9l8.5-14.6
		l9.3-7.7"/>
	<path class="st2" d="M483.3,383.4c0,0,46.4,31,111.6,0.8l-0.5,2.2l-34.6,12l-27.7,0.7l-22.4-1.8l-9.6-3.2l-7.8-2.8l-8.3-4.8"/>
	<path class="st2" d="M624,408.3c0,0-2.7,6.7-8.6,11c-5.9,4.3-15.1,11.8-8.2,21.3l-1.9-1l-2.3-5.9l1.1-4.3l2-4.4l3.7-3.7"/>
	<polyline class="st1" points="542.1,529 542.1,593.6 540.1,595.7 540.1,530.5 	"/>
	<polygon class="st1" points="555.2,525.3 555.2,551.6 560.6,549.5 557.9,550.2 557.3,526 568.9,520.2 569.1,518.2 	"/>
	<polyline class="st1" points="570.6,487.5 610.9,465.8 609.1,464.6 568.7,486.4 	"/>
	<polyline class="st1" points="502.7,509.5 539.2,527 574.3,508.7 576.3,509.5 540.1,529.8 500.4,511.7 	"/>
	<polyline class="st1" points="582.9,434.9 609.1,449.1 609.1,446.5 582.7,432.2 	"/>
	<polyline class="st2" points="505.2,465.4 505.2,430.5 501.2,428.3 501.9,463.5 	"/>
	<polyline class="st8" points="563.9,554.4 568.2,552.7 568.6,575.2 565.1,571.8 	"/>
	<polyline class="st8" points="635.9,498.3 640.2,502 640.6,480.4 639.7,479.6 636.9,480.5 	"/>
	<polyline class="st8" points="635.9,513.5 637.2,510.9 640.2,509.3 640.4,532.3 636.6,529.4 	"/>
	<path class="st9" d="M444.1,453.4c0,0,0.7-0.1,1.2,0c0.4,0.1,1.9,2.1,1.9,2.1l0.8,2.9l0.6,8l-2.8-0.3l-1.5-2"/>
	<polyline class="st9" points="454.4,467 453,461.9 454,456.6 456.1,454.8 458.5,454.9 459.9,456.9 461.5,461.7 461.4,465.9 
		461,467.2 	"/>
	<polyline class="st9" points="466.7,466 466.1,462.3 466.5,456.8 467.4,453.5 469,451.7 470.2,452 470.5,464 	"/>
	<polyline class="st8" points="524.2,501.4 525.3,501.1 527.2,502.3 528.7,509.2 528.7,513.9 525.4,513.1 524,511.5 	"/>
	<polyline class="st9" points="609.7,453.9 611.6,454.4 612.9,455.6 613.5,458.2 614,462 613.9,464.8 613.1,465 610.9,463.7 
		610,463.1 609.5,462.6 	"/>
	<polyline class="st9" points="619.2,466.7 618.4,462.2 619.9,457.5 622.7,455.8 624.2,455.6 625.8,457.9 626.1,462.3 626.8,467.2 
		626.6,467.9 623.1,468.1 	"/>
	<path class="st9" d="M631.9,466.5"/>
	<polyline class="st9" points="632.5,459.6 632.5,455.2 633.6,453.5 635.2,452.8 635.8,452.9 636.2,464.4 634.1,466.1 632.3,466.6 	
		"/>
	<polyline class="st9" points="523.7,501.2 526.2,501.1 527.4,502.3 528.6,504.7 528.5,513.2 527.6,513.7 524.7,512.4 524.1,511.2 	
		"/>
	<polyline class="st9" points="534.3,514.8 533.7,511.5 533.2,508.3 533.7,505.6 536.2,503.1 538.4,502.5 539.6,504 541,506.5 
		541.4,510.8 541.2,513.3 541.2,514 	"/>
	<polyline class="st9" points="546.8,513.5 546.5,509.6 546.8,504.9 547.4,502.1 548.5,500.2 549.5,499.7 550.2,500.4 549.9,512 	
		"/>
	<polyline class="st10" points="250.9,272.8 300.9,248.4 287.2,241.2 251.1,261.5 	"/>
	<polyline class="st10" points="251.8,246.1 274.1,234.7 261.2,227.2 252.1,232.8 	"/>
	<polyline class="st10" points="310.2,304.1 345.2,292.3 345.2,321.3 312.2,305.7 	"/>
	<polyline class="st10" points="269.8,320.9 289.2,319.1 261.3,304.9 251.5,308.6 253.8,315.5 262.3,319.5 	"/>
	<polyline class="st10" points="336,359.6 343.9,354.3 343.9,429.1 336.9,436 336.1,420.9 	"/>
	<polyline class="st7" points="260.4,226.6 291.3,215.5 274.7,206.9 251.4,219.8 	"/>
	<polyline class="st7" points="282.8,237.4 309.8,225.2 327.2,233.6 299.5,246.7 	"/>
	<polyline class="st7" points="263.2,305.8 295.9,296.9 259.4,278.9 251.4,282.2 251.4,296 249.4,298 252,300.3 	"/>
	<polyline class="st7" points="314.3,331.7 344.9,326.5 344.9,347.4 	"/>
	<polyline class="st7" points="373.9,293 354,320.8 361.1,329.1 382.4,296.9 382.1,288.7 	"/>
	<polyline class="st7" points="362.8,363.3 381.4,338 381.4,365.3 364.1,391 	"/>
	<polyline class="st10" points="345.6,242.2 370.6,202 343.2,218.3 	"/>
	<polyline class="st10" points="344.6,279.6 380.1,222.5 380.1,245 345.5,305.1 	"/>
	<polyline class="st2" points="255.9,173.4 255.9,314.4 251.2,314.4 251.2,171.1 	"/>
	<polyline class="st2" points="255.1,176 344,220.2 343.5,216.3 254.6,172.5 	"/>
	<polyline class="st6" points="336.6,539.9 336.6,560.6 379.3,585.6 379.3,565.4 	"/>
	<polyline class="st7" points="335.8,574.3 359,573.4 375,582.7 352.5,585.1 	"/>
	<polyline class="st7" points="321.1,530.6 337,539.6 337,543.3 320.7,552 	"/>
	<polyline class="st6" points="396.5,557.1 396.5,591.5 412,583.8 412,548.6 	"/>
	<path class="st0" d="M374,187.4"/>
	<polyline class="st1" points="435.6,196 435.4,167.5 430.7,169.5 379.6,255.2 380.8,259.7 396.2,265.7 437.2,198.1 	"/>
	<polyline class="st1" points="433,261.2 382.3,324 382.8,337.1 434.9,283.1 435.1,262.2 	"/>
	<polyline class="st1" points="435,327.2 382.3,394.3 382.1,412.8 435.3,384.4 	"/>
	<polyline class="st2" points="255.4,172.5 340,126.7 338.3,124.3 251.9,170.2 	"/>
	<polyline class="st2" points="376.9,199.4 376.9,261.1 394.3,267.6 394.3,281 397.3,280.1 397.2,266.2 380.4,258.6 379.8,198.4 	
		"/>
	<polyline class="st2" points="378.1,290.5 378.1,405.7 382,405.7 382,290 	"/>
	<polyline class="st2" points="254.9,279.5 344.1,325.1 344.2,322.5 253.6,276.3 	"/>
	<polyline class="st2" points="255.5,200 344.5,244.8 343.8,242.2 254.6,196.9 	"/>
	<ellipse class="st6" cx="408.2" cy="336.6" rx="13.3" ry="24.9"/>
	<polyline class="st1" points="409.8,311.4 416.5,317.1 418.8,321.4 421,326.4 422.6,334.2 421,343.3 418.4,349.7 413.3,357.8 
		410.4,361.5 417.3,359.5 421.6,354.6 424.3,349.2 425.3,344 425.8,338.6 425.9,333 425.4,327.8 423.3,322.2 419.4,315.7 
		416.5,312.2 	"/>
	<polyline class="st1" points="362,330.1 345.1,353.6 345.1,416 363.4,409 	"/>
	<polyline class="st10" points="418.7,321.9 400,355.4 403.6,358.7 408.1,360.7 411.4,361.1 415.3,356 418.1,351.1 419.7,347.9 
		420.6,343.7 421.1,338.5 421.9,333.5 	"/>
	<polyline class="st10" points="394.8,339.3 412,311.9 409.4,311.9 394.7,333.8 	"/>
	<ellipse class="st3" cx="401.9" cy="200.2" rx="4.3" ry="7.7"/>
	<ellipse class="st3" cx="415.3" cy="194.2" rx="4.3" ry="7.7"/>
	<path class="st2" d="M397.5,327.5c0,0,7.7-20.4,17-10C414.5,317.5,405.9,304.3,397.5,327.5z"/>
	<path class="st2" d="M418.4,346.7c0,0-3.5,12.4-11.4,13.1c0,0-3.9-1.5-6.5-6.2c0,0,4.3,5.5,6.5,5.5
		C409.2,359,412.3,358.7,418.4,346.7z"/>
	<path class="st1" d="M73.2,324.9l59.4,32.9l0.7,96.9l21.1-12.6l-2.7-22.7l1.6-23.1c0,0,5.7-16.3,7.3-18.2c1.6-1.9,7.3-7.1,7.3-7.1
		l3.3-2.1l6.2-1.5l4.7-0.9l-0.8-6.6l1-1.5l28.1-17.5l-13.2-14.7l1.1-3.5l-1.5-5.9l-18.3-9.3l-2.4-3.1l3.8,8.9l-10.2,6.5l-13-4.4
		l-7.1-23.3l-4.2,1.5l2,35.7l-11.4,10.1l-18.6-7.7l5.2-38.1l-9.6-4.9l-15.5,30.1L86,312.8l4.9-9.4l1.1-2.8l-8.7,3.9L69,313.1
		l-1.7,8.8"/>
	<polyline class="st8" points="133,348.4 133,357.8 197.5,324.7 198.3,317.6 197.9,316.9 	"/>
	<polyline class="st8" points="149.4,292 153.9,289.3 167.3,319.3 157.7,315.7 	"/>
	<polyline class="st8" points="135.2,278 135.5,284 162.6,268 162.2,262.8 	"/>
	<polyline class="st8" points="135.3,82.4 135.7,92.6 147,87.7 146.8,77.4 	"/>
	<polyline class="st8" points="130.3,64.1 136.3,67.1 138,66.1 133,62.6 	"/>
	<polyline class="st8" points="135.2,287.8 162.7,271.6 161.6,268.2 136.1,283.7 	"/>
	<polyline class="st8" points="133.2,361.3 194.4,330.9 205.9,343.7 210.5,340.9 197.3,326.2 196.1,325.6 132.7,357.1 	"/>
	<path class="st1" d="M44.9,393.3l18.1-8.4c0,0,1.6-20.4,14.7-25.4l-6.3,1.5C71.4,361,44.8,369.5,44.9,393.3z"/>
	<polyline class="st1" points="109.6,261.2 134.3,272.7 134.7,277.4 103.6,263.5 108.2,259.4 	"/>
	<polyline class="st1" points="134.1,152.4 118.2,189.5 116.3,203.1 134.3,174.3 	"/>
	<polyline class="st1" points="30.8,375 91.4,334.2 100,339.3 26.1,386.6 	"/>
	<polyline class="st1" points="70.4,327.9 132.4,362.5 134.2,356.9 73.2,325.4 	"/>
	<polyline class="st1" points="114.5,443.2 133.1,436.2 133.4,453.7 112.9,444.6 	"/>
	<polyline class="st1" points="117,404.4 133.4,398.3 133.8,391.5 116.8,400 	"/>
	<polyline class="st2" points="134.8,356.7 135.9,448.8 154.2,438.8 154.7,441.1 134.5,453.3 132.2,357.2 	"/>
	<polyline class="st2" points="147.6,332.4 148.1,329.6 136.5,335.6 136.6,284.3 134.9,284 134.5,340.4 	"/>
	<polyline class="st2" points="160.1,269.9 178.3,314.8 180,313.6 161.9,269.3 	"/>
	<path class="st2" d="M139.6,91c0,0,1.6,134,17.9,169.4l0.4-1"/>
	<polyline class="st11" points="181.3,358.9 258.5,402.7 334.9,355.7 336.3,445.8 258.9,491.5 181.1,447.5 	"/>
	<polyline class="st12" points="182,447.7 258.9,491.5 258.5,402.7 181.3,359.9 	"/>
	<polyline class="st2" points="325.3,538.1 331,540.6 331.5,564.2 325.1,562.9 	"/>
	<polyline class="st10" points="358.5,571.7 380.8,569.4 380.8,584.5 366.1,577.4 	"/>
	<polyline class="st10" points="397.1,589.9 411.3,568.7 411.3,583.5 397.3,592 	"/>
	<polyline class="st10" points="397.1,572.4 411.1,553.8 411.1,549.3 397.1,567.6 	"/>
	<polyline class="st10" points="337.7,558.6 365,556.4 358.3,552.7 337.7,556 	"/>
	<ellipse class="st7" cx="373.4" cy="535.2" rx="12.2" ry="4.5"/>
	<ellipse class="st6" cx="345.6" cy="187.9" rx="12.2" ry="4.5"/>
	<polyline class="st3" points="189.5,364 189.9,452.1 225.4,472.2 225.4,453.2 205.8,433.8 206.7,373.1 	"/>
	<polyline class="st1" points="278.8,396.6 278.8,432.9 309.4,416.5 309.4,379.5 	"/>
	<polyline class="st1" points="313.6,369.6 313.6,455.3 336.2,443.9 336.2,355.8 	"/>
	<polyline class="st8" points="309.1,395.5 292.8,425.5 307.9,416.9 	"/>
	<polyline class="st8" points="279,421.4 295.4,387.5 279.6,396.2 	"/>
	<polyline class="st7" points="192.5,366.1 206.5,387.5 206.1,400.4 190.5,378.5 190,364.6 	"/>
	<polyline class="st7" points="190.9,430.7 224.7,465.6 224.5,470.8 190.5,452.1 	"/>
	<polyline class="st2" points="184.1,361.1 184.1,448.7 182.2,446.8 182.3,360.1 	"/>
	<polyline class="st2" points="182.7,359.4 258.7,403.2 259.7,490.3 260.8,489.2 260.8,401.4 	"/>
	<polyline class="st2" points="192.4,365.8 192.4,453.6 190.2,451.4 190.2,365 	"/>
	<polyline class="st1" points="693.8,396.7 694.4,383.4 769.3,427.8 769,441.2 	"/>
	<path class="st13" d="M791.2,303.2c0,0,2.4,9.7,4,16c1.5,6.3,2.1,8.5,2.4,16c0.3,7.5-2.3,38.4-2.1,40.5s6.1,0.9,6.1,0.9
		s9.7-5.1,10.7-7.9c1-2.8,1.9-10.8,4.3-7.5c2.4,3.4,2,11.7,2.4,13.4c0.5,1.7,2.1,3.6-0.5,5c-2.6,1.4-5.9,2.9-6.6,4.4
		c-0.7,1.5,1.5,4-2,4.9c-3.5,0.9-14.9,2.9-17,2.7c-2.1-0.2-4.9-0.2-8.9-0.8s-9.1-0.6-11-1.4c-1.9-0.8-9.4-4.3-9.4-4.3
		s-7.5-1.3-11.1-1.7c-3.6-0.5-9.6-1.6-10.8-2.9s-1.6-8.4-0.9-11.2c0.7-2.8,1.6-7.9,1.6-2.4c0,5.5-1.6,7.3,2.7,9.9s8.5,5.8,14.1,5.7
		c5.6-0.1,7.7,0,13-0.9c5.4-0.9,10.8,1,12-2.2c1.2-3.3,3.5-11.4,3.5-11.4s2,0.2,2.8-1.9c0.8-2.1,2.6-11.2,2.6-11.2l0.6-4.9l0.6-5.1"
		/>
	<polyline class="st2" points="367,507.6 325.1,531.6 324.4,568.2 321.3,566.3 320.7,529.7 362.8,505.3 	"/>
	<polyline class="st2" points="326.1,529.7 383.4,564.4 381.3,566 324.4,531.5 	"/>
	<polyline class="st11" points="806.7,229.6 857.3,255 857.3,330 806,302.8 	"/>
	<polyline class="st8" points="857.3,255 857.3,333.1 887.8,349.1 887.8,269.7 	"/>
	<polyline class="st8" points="889.1,318.3 946.8,285.4 946.8,241 889,271 	"/>
	<polyline class="st1" points="182.4,358.4 260.1,403.2 336.1,354.7 253.8,314 	"/>
	<polyline class="st3" points="233.9,345.3 236.8,341 241.6,337 243.5,335.5 248.5,333.8 252.7,332.5 256.4,332.3 263,333.2 
		267.1,335.1 271.2,336.9 274.8,341.7 280.2,350.7 280.2,354.3 278.5,358.3 274.3,362.3 267.7,364.7 252.7,366.7 243.9,364.5 
		234.5,360.3 231.7,354.5 	"/>
	<path class="st7" d="M250.1,334.1c0,0,21.3,23.3,2.7,32.6l10.5,0.3l9.8-3.8l4-3l2.8-4.8l-0.1-3.3l-2.3-6.8l-3.8-6.2l-6.4-5
		l-8.6-2.6"/>
	<polyline class="st2" points="184.6,358.1 259,398.8 331.2,353.7 335.7,355.2 259.5,402.6 181.9,359.3 	"/>
	<path class="st2" d="M234.1,358c0,0,3.3-26.5,30.1-24.1l-7.9-0.5h-8.6l-6.9,3.7l-8.6,14.1"/>
	<path class="st2" d="M234,354.1c0,0,26.8,14.1,44.9-3.2l-0.5-2.7c0,0-17.7,18.3-44.3,2.8"/>
	<polyline class="st1" points="806.3,172.9 888.9,217.4 888.9,270.4 807.5,229.7 	"/>
	<polyline class="st1" points="888.1,264.1 969.4,133.4 975.2,131 975,157.1 915.1,257.1 890.7,270.3 	"/>
	<polyline class="st1" points="947.5,239.4 974.4,200.1 975.1,224.2 	"/>
	<polyline class="st3" points="807.1,146.4 888.6,190.9 889,180.2 807.8,133.5 	"/>
	<polyline class="st12" points="818,308.4 856.4,285.2 856.5,311.4 838.8,320.1 	"/>
	<polyline class="st12" points="825.1,266.5 846.1,251.3 806.7,229.6 807.4,235.8 	"/>
	<polyline class="st10" points="856.9,331.2 890,314.4 890,348.7 	"/>
	<polyline class="st10" points="857.1,285.5 888.3,273.6 888.3,270.6 857.5,255.8 	"/>
	<polyline class="st10" points="927.8,296.4 946.8,249.4 946.8,285.2 	"/>
	<polyline class="st2" points="812.2,136.2 812.2,242.4 805.8,236 805.8,134.1 	"/>
	<polyline class="st2" points="859.7,257.3 859.7,334 857,330.6 857,255.2 	"/>
	<polyline class="st2" points="859.4,258.1 888.3,272.9 888.2,270.8 858.9,256.5 	"/>
	<g>
		<defs>
			<ellipse id="XMLID_25_" cx="919.3" cy="210.6" rx="16.1" ry="27"/>
		</defs>
		<use xlink:href="#XMLID_25_"  style="overflow:visible;fill:#F8B012;"/>
		<clipPath id="XMLID_3_">
			<use xlink:href="#XMLID_25_"  style="overflow:visible;"/>
		</clipPath>
		<polyline class="st14" points="911.6,237.3 934,187 939.5,202.8 943,218.9 935.1,235.7 920.4,245.9 		"/>
		<polyline class="st14" points="927.4,183.2 907.4,231.9 905.2,231.2 927.5,178.6 		"/>
		<path class="st15" d="M904.7,226.7c0,0-3.1-35.3,13.1-39.3c16.3-4,21.3,27.3,21.3,27.3l1-24.1L930,178.6l-11.7-5.4l-16.1,4.7
			L897,187c0,0,0.3,14.5-0.3,15.9c-0.7,1.4-2.4,12.4-2.4,12.4"/>
	</g>
	<polyline class="st7" points="855.5,172.9 871,170.4 889,181.3 889,190.6 	"/>
	<polyline class="st1" points="807.8,133.5 889.2,179.3 974,129.2 903.9,87.5 807,134.1 	"/>
	<polyline class="st1" points="910.1,337.3 973.7,273.2 974.4,300.8 	"/>
	<polyline class="st8" points="855.7,243.2 881.3,239.2 881.3,255.8 	"/>
	<polyline class="st8" points="855.4,233.3 880.5,228.2 880.5,218.6 855.9,206.7 	"/>
	<polyline class="st10" points="889.4,296.6 906.8,262.2 888.8,270.9 	"/>
	<ellipse class="st16" cx="961" cy="255" rx="6" ry="10"/>
	<polyline class="st7" points="957.2,263.3 963.9,246.3 966.9,251.3 966.6,259.5 964.4,262.9 963.1,264.8 961.4,265.3 	"/>
	<polygon class="st17" points="336,443.1 336,355.1 258.7,402.7 258.7,490.8 	"/>
	<path class="st17" d="M258.9,399.3"/>
	<polyline class="st17" points="258.9,311.3 181.5,358.9 181.5,447 	"/>
	<path class="st17" d="M175.1,371.4"/>
	<line class="st17" x1="258.7" y1="402.7" x2="181.5" y2="358.9"/>
	<line class="st17" x1="181.5" y1="447" x2="258.7" y2="490.9"/>
	<path class="st17" d="M336,443.1"/>
	<path class="st17" d="M258.9,399.3"/>
	<line class="st17" x1="258.3" y1="315.9" x2="336" y2="355.1"/>
	<polygon class="st17" points="435.5,384.7 435.5,166.5 344.5,217.1 344.5,435.3 	"/>
	<path class="st17" d="M342.1,338.3"/>
	<polyline class="st17" points="342.1,120.1 251.1,170.8 251.1,316.7 	"/>
	<line class="st17" x1="342.1" y1="120.1" x2="435.5" y2="166.5"/>
	<line class="st17" x1="251.1" y1="170.8" x2="344.5" y2="217.1"/>
	<line class="st17" x1="344.5" y1="435.3" x2="336.2" y2="431"/>
	<path class="st17" d="M428.7,537.6c0,0,0,35.2,0,35.9L380.2,602c0-0.8,0-35.9,0-35.9L428.7,537.6z"/>
	<path class="st17" d="M321.1,565.6c0-0.8,0-35.9,0-35.9l48.5-28.4"/>
	<path class="st17" d="M369.6,537.2"/>
	<line class="st17" x1="321.1" y1="529.7" x2="380.2" y2="565.7"/>
	<line class="st17" x1="369.6" y1="501.2" x2="428.7" y2="537.6"/>
	<line class="st17" x1="321.1" y1="565.6" x2="380.2" y2="602"/>
	<polygon class="st17" points="974.8,130.1 974.8,299.5 888.7,349.6 888.7,180.2 	"/>
	<polyline class="st17" points="806.8,302.2 806.8,132.8 892.9,82.6 	"/>
	<path class="st17" d="M892.9,252"/>
	<line class="st17" x1="888.7" y1="349.6" x2="806.8" y2="302.2"/>
	<polygon class="st17" points="868.6,396 868.6,374.2 779.8,426.5 779.8,448.3 	"/>
	<g>
		<path class="st9" d="M744.7,336l-57.4,33.8c-0.3,0.2-0.5,0.5-0.5,0.9v21.9c0,0.6,0.4,1,1,1s1-0.4,1-1v-21.3l56.4-33.2
			C744.8,337.4,744.7,336.7,744.7,336z"/>
	</g>
	<path class="st17" d="M790.5,344.4"/>
	<line class="st17" x1="687.8" y1="370.6" x2="779.8" y2="426.5"/>
	<line class="st17" x1="779.8" y1="448.3" x2="687.8" y2="392.5"/>
	<g>
		<path class="st9" d="M869.1,373.3l-54.2-32.9c0.1,0.8-0.1,1.5-0.3,2.1l53.4,32.4c0.2,0.1,0.3,0.1,0.5,0.1c0.3,0,0.7-0.2,0.9-0.5
			C869.7,374.2,869.6,373.6,869.1,373.3z"/>
	</g>
	<polygon class="st17" points="539.1,530.7 539.1,596 577.9,574.1 577.9,509.6 	"/>
	<polyline class="st17" points="577.9,509.6 577.9,492.4 623.9,468.9 623.9,548.5 615.1,553.6 615.1,483.4 588.3,496.8 588.3,568.4 
		577.9,574.1 	"/>
	<polyline class="st17" points="578,510.4 567.4,504.8 567.4,486.9 609.6,463.8 623.7,468.8 	"/>
	<line class="st17" x1="568.3" y1="486.9" x2="577.9" y2="492.4"/>
	<polyline class="st17" points="600.3,490.9 600.3,546.2 615.1,553.6 	"/>
	<line class="st17" x1="588.8" y1="553.7" x2="600.3" y2="546.2"/>
	<polyline class="st17" points="624.4,477.5 646.9,465.2 646.9,534.2 623.9,548.5 	"/>
	<polyline class="st18" points="539.1,529.9 499,511 499,576.8 538.8,595.4 	"/>
	<path class="st17" d="M499,577l-13.1-6.2v-53.4c0,0-1-17-12.4-25.1c0,0-9.5,4.6-13.3,15.5v50.3l-7-3.3v-79.5l24.4-12.2l21.3,30.2
		v20.3"/>
	<polyline class="st17" points="460.3,558.1 477.4,547.3 477.4,496.3 	"/>
	<line class="st17" x1="478.2" y1="547.4" x2="485.8" y2="550.9"/>
	<polyline class="st17" points="477.7,463.1 483.2,460.6 504.8,490.2 504.8,508.5 499,511.7 	"/>
	<polyline class="st17" points="504.8,490.2 498.9,493.3 453,474.7 	"/>
	<polyline class="st17" points="453.2,475.3 431.5,466.8 431.5,532.3 452.3,543.4 	"/>
	<g>
		<path class="st9" d="M502.2,431.5c-0.2-0.5-0.8-0.7-1.3-0.4l-31.1,15.5c0,0.1,0,0.3,0.1,0.4c0.2,0.5,0.3,1.1,0.4,1.6l31.5-15.7
			C502.2,432.6,502.4,432,502.2,431.5z"/>
		<path class="st9" d="M443.7,459.6l-12.6,6.3c-0.5,0.2-0.7,0.8-0.4,1.3c0.2,0.4,0.5,0.6,0.9,0.6c0.1,0,0.3,0,0.4-0.1l12.1-6
			C443.8,461,443.7,460.3,443.7,459.6z"/>
	</g>
	<g>
		<path class="st9" d="M549.6,510.9c0,0,0,0.1,0,0.1c0,1.3-4.9,3.2-12.5,3.2s-12.5-1.9-12.5-3.2c0,0,0,0,0,0
			c-0.5-0.3-0.8-0.7-1.1-1.2c-0.3,0.4-0.4,0.8-0.4,1.2c0,3.1,7,4.7,14,4.7s14-1.6,14-4.7c0-0.3-0.1-0.6-0.2-0.9
			C550.6,510.5,550.1,510.7,549.6,510.9z"/>
	</g>
	<g>
		<path class="st9" d="M549.1,492.4c-1.5,1.2-5.8,2.4-11.9,2.4c-5.2,0-9.1-0.9-11.1-1.9c-1.1,0.2-2.1-0.2-2.8-0.8
			c0.7,2.8,7.4,4.2,13.9,4.2c6.2,0,12.5-1.3,13.8-3.8C550.3,492.4,549.7,492.4,549.1,492.4z"/>
	</g>
	<line class="st19" x1="550.4" y1="492.9" x2="550.4" y2="510.6"/>
	<line class="st19" x1="523.9" y1="492.4" x2="523.9" y2="510.7"/>
	<path class="st19" d="M524.1,500.9c0,0.2,5.5-2.7,4.5,12.6"/>
	<path class="st19" d="M534.3,514.9c0.1-0.3-3.3-10,2.2-12.2c5.5-2.2,4.7,11.9,4.7,11.9"/>
	<path class="st19" d="M546.6,513.2c0-0.3-1.2-12.5,2.7-13.5"/>
	<path class="st9" d="M527,492.8L527,492.8c-0.8-0.4-1.5-0.8-2.4-1c-0.3-0.1-1-0.4-1.2,0c-0.2,0.4,0.4,0.7,0.6,0.9
		c0.7,0.5,1.4,0.9,2.2,1.2c0.5,0.2,1,0,1.1-0.6C527.4,493.2,527.3,492.9,527,492.8z"/>
	<g>
		<path class="st9" d="M469.5,463.1c0,0,0,0.1,0,0.1c0,1.3-4.9,3.2-12.5,3.2s-12.5-1.9-12.5-3.2c0,0,0,0,0,0
			c-0.5-0.3-0.8-0.7-1.1-1.2c-0.3,0.4-0.4,0.8-0.4,1.2c0,3.1,7,4.7,14,4.7s14-1.6,14-4.7c0-0.3-0.1-0.6-0.2-0.9
			C470.4,462.7,470,462.9,469.5,463.1z"/>
	</g>
	<g>
		<path class="st9" d="M468.9,444.6c-1.5,1.2-5.8,2.4-11.9,2.4c-5.2,0-9.1-0.9-11.1-1.9c-1.1,0.2-2.1-0.2-2.8-0.8
			c0.7,2.8,7.4,4.2,13.9,4.2c6.2,0,12.5-1.3,13.8-3.8C470.2,444.6,469.6,444.6,468.9,444.6z"/>
	</g>
	<line class="st19" x1="470.3" y1="445.1" x2="470.3" y2="462.8"/>
	<line class="st19" x1="443.8" y1="444.6" x2="443.8" y2="462.9"/>
	<path class="st19" d="M443.9,453.1c0,0.2,5.5-2.7,4.5,12.6"/>
	<path class="st19" d="M454.2,467.1c0.1-0.3-3.3-10,2.2-12.2c5.5-2.2,4.7,11.9,4.7,11.9"/>
	<path class="st19" d="M466.4,465.4c0-0.3-1.2-12.5,2.7-13.5"/>
	<path class="st9" d="M446.9,445L446.9,445c-0.8-0.4-1.5-0.8-2.4-1c-0.3-0.1-1-0.4-1.2,0c-0.2,0.4,0.4,0.7,0.6,0.9
		c0.7,0.5,1.4,0.9,2.2,1.2c0.5,0.2,1,0,1.1-0.6C447.3,445.4,447.1,445.2,446.9,445z"/>
	<g>
		<path class="st9" d="M635.2,463.8c0,0,0,0.1,0,0.1c0,1.3-4.9,3.2-12.5,3.2s-12.5-1.9-12.5-3.2c0,0,0,0,0,0
			c-0.5-0.3-0.8-0.7-1.1-1.2c-0.3,0.4-0.4,0.8-0.4,1.2c0,3.1,7,4.7,14,4.7s14-1.6,14-4.7c0-0.3-0.1-0.6-0.2-0.9
			C636.1,463.4,635.7,463.6,635.2,463.8z"/>
	</g>
	<g>
		<path class="st9" d="M634.6,445.3c-1.5,1.2-5.8,2.4-11.9,2.4c-5.2,0-9.1-0.9-11.1-1.9c-1.1,0.2-2.1-0.2-2.8-0.8
			c0.7,2.8,7.4,4.2,13.9,4.2c6.2,0,12.5-1.3,13.8-3.8C635.8,445.4,635.2,445.3,634.6,445.3z"/>
	</g>
	<line class="st19" x1="635.9" y1="445.8" x2="635.9" y2="463.5"/>
	<line class="st19" x1="609.4" y1="445.3" x2="609.4" y2="463.6"/>
	<path class="st19" d="M609.6,453.8c0,0.2,5.5-2.7,4.5,12.6"/>
	<path class="st19" d="M619.9,467.8c0.1-0.3-3.3-10,2.2-12.2c5.5-2.2,4.7,11.9,4.7,11.9"/>
	<path class="st19" d="M632.1,466.2c0-0.3-1.2-12.5,2.7-13.5"/>
	<path class="st9" d="M612.6,445.8L612.6,445.8c-0.8-0.4-1.5-0.8-2.4-1c-0.3-0.1-1-0.4-1.2,0c-0.2,0.4,0.4,0.7,0.6,0.9
		c0.7,0.5,1.4,0.9,2.2,1.2c0.5,0.2,1,0,1.1-0.6C612.9,446.1,612.8,445.9,612.6,445.8z"/>
	<polyline class="st17" points="273,394.8 273,455.4 296.3,442.2 296.3,467.4 	"/>
	<line class="st17" x1="313.8" y1="456.6" x2="313.8" y2="370.4"/>
	<polyline class="st17" points="206.5,372.5 206.5,434.3 225.1,452.8 225.1,472 	"/>
	<ellipse class="st17" cx="233.8" cy="405.3" rx="4.3" ry="6.4"/>
	<ellipse class="st17" cx="246.3" cy="410.7" rx="4.3" ry="6.4"/>
	<path class="st17" d="M326.8,361.6"/>
	<polyline class="st17" points="278.7,396 278.7,433.6 308.8,416.6 308.8,378.9 279.3,396 	"/>
	<line class="st17" x1="190.1" y1="363.7" x2="190.1" y2="452.1"/>
	<polyline class="st17" points="363.4,424.1 363.4,331.5 344.6,312.7 	"/>
	<polygon class="st17" points="557.8,526.1 557.8,549.9 568.8,544.6 568.8,519.8 	"/>
	<polyline class="st17" points="564.3,523 564.3,540.6 558,543.6 	"/>
	<line class="st17" x1="564.3" y1="540.6" x2="568.8" y2="544.6"/>
	<polygon class="st17" points="557.8,557.7 557.8,581.5 568.8,576.2 568.8,551.4 	"/>
	<polyline class="st17" points="564.3,554.5 564.3,572.2 558,575.2 	"/>
	<line class="st17" x1="564.3" y1="572.2" x2="568.8" y2="576.2"/>
	<polygon class="st17" points="629.9,515.2 629.9,538.9 640.6,532.6 640.9,508.9 	"/>
	<polyline class="st17" points="630.1,532.6 636.4,529.7 636.4,512 	"/>
	<line class="st17" x1="636.4" y1="529.7" x2="639.1" y2="531.5"/>
	<polygon class="st17" points="629.9,484.9 629.9,508.7 640.6,502.3 640.9,478.6 	"/>
	<polyline class="st17" points="636.4,481.8 636.4,499.4 630.1,502.4 	"/>
	<line class="st17" x1="636.4" y1="499.4" x2="639.1" y2="501.3"/>
	<polyline class="st9" points="486.4,550.8 477.1,547.1 477.2,497.2 480.7,500.5 486,513.2 486,549.3 	"/>
	<path class="st9" d="M588.7,496.7"/>
	<polyline class="st9" points="596.5,492.5 588.4,497.1 588.1,554.5 600.7,546 601,491.2 	"/>
	<polyline class="st9" points="563.6,523.2 558.2,525.8 557.9,543.2 564.6,540.4 	"/>
	<polygon class="st17" points="520.8,528.4 520.8,552.2 509.8,547 509.8,522.2 	"/>
	<polyline class="st17" points="514.3,525.3 514.3,543 520.6,545.9 	"/>
	<line class="st17" x1="514.3" y1="543" x2="509.8" y2="547"/>
	<polyline class="st9" points="515,525.5 520.4,528.1 520.7,545.6 514,542.8 	"/>
	<polygon class="st17" points="520.8,557.8 520.8,581.6 509.8,576.3 509.8,551.5 	"/>
	<polyline class="st17" points="514.3,554.7 514.3,572.3 520.6,575.3 	"/>
	<line class="st17" x1="514.3" y1="572.3" x2="509.8" y2="576.3"/>
	<polyline class="st9" points="515,554.9 520.4,557.5 520.7,574.9 514,572.1 	"/>
	<polygon class="st17" points="447.7,511.9 447.7,535.7 436.6,530.4 436.6,507.3 	"/>
	<polyline class="st17" points="441.2,509.6 441.2,526.4 447.5,529.4 	"/>
	<line class="st17" x1="441.2" y1="526.4" x2="436.6" y2="530.4"/>
	<polyline class="st9" points="441.9,509 447.2,511.6 447.5,529 440.8,526.2 	"/>
	<polygon class="st17" points="447.7,478.6 447.7,502.3 436.6,497.1 436.6,474 	"/>
	<polyline class="st17" points="441.2,476.3 441.2,493.1 447.5,496.1 	"/>
	<line class="st17" x1="441.2" y1="493.1" x2="436.6" y2="497.1"/>
	<polyline class="st9" points="441.9,475.7 447.2,478.2 447.5,495.7 440.8,492.9 	"/>
	<polyline class="st9" points="557,558 564,554.7 564,571.8 557.7,574.2 	"/>
	<polyline class="st9" points="629.6,485.1 636.2,481.5 636.2,499.9 630.1,502.6 	"/>
	<polyline class="st9" points="630.2,515.8 636,512.2 636.5,529.6 630.4,532.1 	"/>
	<line class="st17" x1="344.8" y1="307.5" x2="435.2" y2="260"/>
	<polyline class="st17" points="380.1,197.7 380.1,258.4 397,265.9 397,279.7 	"/>
	<line class="st17" x1="250.6" y1="195" x2="344.3" y2="242.5"/>
	<polyline class="st17" points="251.1,221.3 314.7,255.5 325.2,278.1 344.3,287 	"/>
	<line class="st17" x1="251.6" y1="274.3" x2="344.6" y2="322.3"/>
	<line class="st17" x1="250.5" y1="299" x2="343.7" y2="347.5"/>
	<line class="st17" x1="381.8" y1="414.7" x2="381.8" y2="287.9"/>
	<g>
		<path class="st9" d="M279.5,349.5c0.1,1.1-0.3,2.2-0.9,3.1c0.1,0.4,0.2,0.9,0.2,1.4c0,6.3-10.5,11.6-23,11.6s-23-5.3-23-11.6
			c0-1.2,0.4-2.3,1.1-3.4c-0.4-0.8-0.6-1.7-0.6-2.6c-1.6,1.8-2.5,3.8-2.5,6c0,7.6,11,13.6,25,13.6s25-6,25-13.6
			C280.8,352.3,280.3,350.8,279.5,349.5z"/>
	</g>
	<polyline class="st17" points="337,539.9 336.9,559.7 379.6,585.4 	"/>
	<ellipse class="st17" cx="410" cy="336.2" rx="15.8" ry="25.7"/>
	<g>
		<path class="st9" d="M407.6,309.6c0,0.4-0.1,0.8-0.3,1.2c0,0.2,0,0.5-0.1,0.7c7.5,1.1,13.5,11.7,13.5,24.6
			c0,13.6-6.6,24.7-14.8,24.7c0,0-0.1,0-0.1,0c0,0.1,0,0.1,0.1,0.2c1.1,0.4,2.2,0.8,3.1,1.3c7.8-2.3,13.7-13.2,13.7-26.2
			C422.7,322.4,416,311,407.6,309.6z"/>
	</g>
	<ellipse class="st20" cx="402.6" cy="200.4" rx="4.6" ry="7.5"/>
	<g>
		<path class="st9" d="M401.8,192.6c0,0.1,0,0.2-0.1,0.4c0,0.1,0,0.1,0,0.2c2.2,0.3,3.9,3.4,3.9,7.2c0,4-1.9,7.2-4.3,7.2
			c0,0,0,0,0,0c0,0,0,0,0,0.1c0.3,0.1,0.6,0.2,0.9,0.4c2.3-0.7,4-3.9,4-7.7C406.3,196.3,404.3,193,401.8,192.6z"/>
	</g>
	<ellipse class="st20" cx="415.9" cy="194.1" rx="4.6" ry="7.5"/>
	<g>
		<path class="st9" d="M415.2,186.3c0,0.1,0,0.2-0.1,0.4c0,0.1,0,0.1,0,0.2c2.2,0.3,3.9,3.4,3.9,7.2c0,4-1.9,7.2-4.3,7.2
			c0,0,0,0,0,0c0,0,0,0,0,0.1c0.3,0.1,0.6,0.2,0.9,0.4c2.3-0.7,4-3.9,4-7.7C419.6,190,417.7,186.7,415.2,186.3z"/>
	</g>
	<path class="st9" d="M396.9,555.3"/>
	<line class="st17" x1="396.3" y1="556.7" x2="396.3" y2="592.5"/>
	<line class="st17" x1="411.7" y1="548" x2="411.7" y2="583.4"/>
	<path class="st17" d="M231.9,352.4c0,0,3.3-18.9,23.9-19.9c20.6-1,24.1,20.3,24.1,20.3"/>
	<path class="st17" d="M233,350.4c0,0,21.4,16.7,45.4-1.6"/>
	<line class="st17" x1="255.8" y1="332.5" x2="255.8" y2="318.6"/>
	<circle class="st21" cx="255.7" cy="314.7" r="6.4"/>
	<path class="st18" d="M747.9,301.2c0,0-3.5,21.5-2.1,23.8s-1.3,23.9-2.2,26s-3.5,21.3-3.4,24.3c0.1,3-1.4,6.4,5.7,7.8
		c7.1,1.4,19.3,3.4,19.3,3.4s5.9,4.5,12.3,4.3s9.1,0.5,15,0.4c5.9-0.1,16.9-2.3,18.3-4.1s0.1-2.9,3.6-4.9s4.5-1.6,5.7-3.5
		c1.2-1.9-5.6-33.8-5.6-36.8c0-3-0.1-6.3-0.2-8.8c-0.1-2.5,0.2-7.4-1.2-12.5c-1.4-5.2-3.5-19.3-3.5-19.3"/>
	<path class="st18" d="M755.1,300.2c0.1,0.4-1.4,13.4-5.1,15.4c-3.7,1.9-4.1,2-5.2,4.5"/>
	<path class="st18" d="M789.5,300.2c0,0,5.7,37.5,5.1,45.1c-0.6,7.6-4,19.2-4.6,22.1c-0.6,3,0.8,11.4,0.8,11.4"/>
	<path class="st18" d="M801.3,304.7c0,0,1.4,4.7,1.7,7.2c0.3,2.5-2,8-2,8l0.7,9.4"/>
	<path class="st17" d="M887.3,331.3"/>
	<polyline class="st17" points="947.4,239.5 947.4,285.4 889.4,318.5 	"/>
	<line class="st17" x1="959.1" y1="233" x2="959.1" y2="139.6"/>
	<ellipse class="st17" cx="919.4" cy="210.9" rx="16.9" ry="27.8"/>
	<ellipse class="st17" cx="960.8" cy="255.2" rx="6.5" ry="10.4"/>
	<path class="st17" d="M210.5,341.6l-14.4-16.5l-63.6,31.9l-59-32.7l-50.9,60.3l21,9.1c2.5-29.1,41-47.4,61.5-24.1
		s7.6,74.2,7.6,74.2l20.8,9.6l21.5-12.4c0,0-11.4-47.1,9.4-67.6c0,0,5.9-5.9,17-6.7"/>
	<path class="st17" d="M43.7,393.8l19-9.2c0,0,1.5-21.8,16.9-25.5"/>
	<path class="st17" d="M73.5,324.4l-5.8-2.8v-8.5c0,0,65,35.6,65.4,35.6c0.4,0,64.8-32.4,64.8-32.4v7.2l-1.8,1.8"/>
	<path class="st17" d="M133.1,348.6c0,0-0.6,8.7-0.6,8.4l1,96.5"/>
	<polygon class="st17" points="133.8,340.7 148.2,331.6 144.9,293.7 154.8,288.2 168.1,320.5 179.9,313.9 162,268.3 134.7,284.6 	
		"/>
	<path class="st17" d="M134.7,284.6l-32.1-17.1c0,0-8.7,32.7-17.1,44.9l12.2,6.4l14.5-30.1l10.3,4.5l-5.1,39.1l16.5,8.4"/>
	<polyline class="st17" points="97.7,318.8 109.2,314.1 119.8,291.9 	"/>
	<polyline class="st17" points="167.5,320 157.4,315.2 150,291.6 	"/>
	<polyline class="st17" points="101.8,267.1 101.8,262.9 135.1,278.7 162.6,261.7 162.6,268 	"/>
	<line class="st17" x1="135.1" y1="278.7" x2="135.1" y2="284.4"/>
	<line class="st17" x1="134.5" y1="92.1" x2="134.8" y2="283.3"/>
	<path class="st17" d="M125,88.8"/>
	<line class="st17" x1="101.8" y1="262.9" x2="109.6" y2="258.6"/>
	<path class="st17" d="M126.8,89.2c-5.4,96.8-17.2,171.1-17.7,171.9l25.7,12.2"/>
	<path class="st17" d="M136.1,272.2c1.1-0.8,22.2-12.7,22.2-12.7s-15.7-70.6-15.7-168"/>
	<line class="st17" x1="162.7" y1="262" x2="158.7" y2="259.6"/>
	<line class="st17" x1="67.8" y1="313.1" x2="91.6" y2="299.9"/>
	<line class="st17" x1="197.9" y1="316.3" x2="176.4" y2="304.8"/>
	<path class="st17" d="M121.6,86.6c0.5,0,14.2,6.1,14.2,6.1l11.1-4.8V77.3l-11.9,5l-13.7-5.5C121.3,76.8,121.1,86.6,121.6,86.6z"/>
	<line class="st17" x1="135" y1="82.3" x2="135" y2="92.1"/>
	<polyline class="st17" points="135.5,82.4 135.6,67.1 139.8,65.8 146.6,76.6 	"/>
	<polyline class="st17" points="135.6,67.1 128.1,64.3 121.2,77.1 	"/>
	<path class="st17" d="M128.1,63.6"/>
	<polyline class="st17" points="139.8,65.8 132.5,62.7 128.1,64.3 	"/>
	<line class="st17" x1="134.7" y1="63.6" x2="134.7" y2="48.7"/>
	<circle class="st21" cx="134.9" cy="45.8" r="6.4"/>
	<line class="st17" x1="807.1" y1="173.5" x2="888.1" y2="216.8"/>
	<polyline class="st17" points="807.3,229.4 888.8,270.9 975,225 	"/>
	<path class="st17" d="M862.8,257.4"/>
	<polyline class="st17" points="855.1,207.2 855.1,242.3 881.5,256.1 881.5,218.9 854.9,206.5 	"/>
	<line class="st17" x1="807" y1="145.5" x2="888.1" y2="190.6"/>
	<polyline class="st17" points="854.7,172.4 854.7,187.8 835.1,188.7 	"/>
	<path class="st17" d="M194.1,540.6"/>
	<g>
		<path class="st9" d="M320.5,546.3l-67.8,38.9c-0.5,0.3-0.6,0.9-0.4,1.4c0.2,0.3,0.5,0.5,0.9,0.5c0.2,0,0.3,0,0.5-0.1l67-38.5
			C320.5,547.8,320.5,547,320.5,546.3z"/>
		<path class="st9" d="M432.8,481.8l-52.8,30.3c0.4,0.5,0.7,1.2,0.9,1.8l51.8-29.7C432.7,483.5,432.7,482.7,432.8,481.8z"/>
		<path class="st9" d="M773.1,287.8c-0.3-0.5-0.9-0.6-1.4-0.4L611,379.6c0.7,0.2,1.5,0.6,2.1,1.1l159.7-91.6
			C773.2,288.9,773.4,288.3,773.1,287.8z"/>
	</g>
	<g>
		<path class="st9" d="M475.8,379.7l-285,163.5c-0.5,0.3-0.6,0.9-0.4,1.4c0.2,0.3,0.5,0.5,0.9,0.5c0.2,0,0.3,0,0.5-0.1L478,380.8
			C477.3,380.4,476.6,380.1,475.8,379.7z"/>
		<path class="st9" d="M711.2,245.8c-0.3-0.5-0.9-0.6-1.4-0.4l-152.4,87.4c0.4,0.5,0.8,1.1,1.3,1.6l152.2-87.3
			C711.3,246.9,711.5,246.3,711.2,245.8z"/>
	</g>
	<g>
		<path class="st9" d="M434.8,279.9c-0.1,0.7-0.2,1.4-0.3,2.1l89.4,49.4c0.5-0.5,1-1,1.5-1.5L434.8,279.9z"/>
		<path class="st9" d="M817.4,491.2L613.6,378.6c-0.5,0.5-1,1-1.7,1.3l204.5,113c0.2,0.1,0.3,0.1,0.5,0.1c0.4,0,0.7-0.2,0.9-0.5
			C818,492.1,817.8,491.5,817.4,491.2z"/>
	</g>
	<g>
		<path class="st9" d="M475.2,381.2c0.1-0.6,0.3-1.1,0.5-1.6c-0.3-0.1-0.5-0.3-0.8-0.4c-0.7-0.3-1.3-0.9-1.8-1.5l-36.7-20.3
			c0.2,0.8,0.2,1.6,0,2.3L475.2,381.2z"/>
		<path class="st9" d="M646.8,473.7c0,0.3,0,0.6,0,0.9c0,0.5,0,0.9-0.1,1.4l116.4,64.3c0.6-0.4,1.2-0.9,1.8-1.3L646.8,473.7z"/>
	</g>
	<path class="st18" d="M542.8,308c0,0-17,25.9-31.7,34c-14.7,8.2-42.6,38.2-19.3,65.5c23.3,27.3,61.7,28.2,86.7,11.2
		c24.9-17,19.6-50.1,0.7-65.7S549.6,329.2,542.8,308z"/>
	<path class="st17" d="M538.5,454.3c0,0-5.8,8.9-10.9,11.7c-5,2.8-14.6,13.1-6.6,22.5c8,9.4,21.2,9.7,29.7,3.8s6.7-17.2,0.2-22.5
		C544.5,464.4,540.8,461.6,538.5,454.3z"/>
	<path class="st17" d="M623.8,406.8c0,0-5.8,8.9-10.9,11.7c-5,2.8-14.6,13.1-6.6,22.5c8,9.4,21.2,9.7,29.7,3.8s6.7-17.2,0.2-22.5
		C629.8,416.8,626.1,414,623.8,406.8z"/>
	<path class="st17" d="M457.8,406.4c0,0-5.8,8.9-10.9,11.7c-5,2.8-14.6,13.1-6.6,22.5c8,9.4,21.2,9.7,29.7,3.8
		c8.6-5.8,6.7-17.2,0.2-22.5C463.8,416.5,460.1,413.7,457.8,406.4z"/>
	<path class="st17" d="M501.1,417.2v45.9c0,0,7.2,8.4,19.6,9.5"/>
	<path class="st17" d="M585.4,412.7"/>
	<path class="st17" d="M555.2,474.9c0,0,13.1-0.2,27.3-9.6v-49.6"/>
	<path class="st17" d="M505,466.4v-21.2c0,0,4-7,9.1,0.3v24.6"/>
	<line class="st17" x1="856.9" y1="329.9" x2="856.9" y2="254.8"/>
	<polyline class="st17" points="694.3,396.7 694.3,383.2 768.9,428.2 768.9,441.7 	"/>
	<polyline class="st17" points="790.8,442.6 790.8,428.2 858.8,388.8 858.8,402.1 	"/>
	<path class="st17" d="M512.5,444.6"/>
	<path class="st9" d="M514.1,446.6c0,0-3.5-2-5.2,0.7v21.4l4.7,2.3L514.1,446.6z"/>
	<path class="st17" d="M577.4,466.8v-21.2c0,0-4-7-9.1,0.3v24.6"/>
	<path class="st17" d="M569.9,445"/>
	<path class="st9" d="M568.3,447c0,0,3.5-2,5.2,0.7v21.4l-4.7,2.3L568.3,447z"/>
	<path class="st18" d="M501.4,427.9c0,0,41.6,24.1,81.6-3.2"/>
	<g>
		<path class="st9" d="M609.7,444.9l-27.5-14.1c-0.5-0.3-1.1-0.1-1.3,0.4c-0.3,0.5-0.1,1.1,0.4,1.3l27.5,14.2
			C609,446.1,609.3,445.5,609.7,444.9z"/>
		<path class="st9" d="M647.4,464.3l-12.1-6.2c0,0.2-0.1,0.4-0.1,0.6v0.1c0,0.5-0.1,1-0.2,1.4l11.5,5.9c0.1,0.1,0.3,0.1,0.5,0.1
			c0.4,0,0.7-0.2,0.9-0.5C648,465.2,647.8,464.6,647.4,464.3z"/>
	</g>
	<path class="st17" d="M482.3,385.3c0,0,48.5,32.2,113,0.2"/>
	<path class="st17" d="M325.1,538.2v23c0,0.6,0.3,1.2,0.9,1.6l3.6,2.2c0.7,0.4,1.6-0.1,1.6-0.9v-22.6c0-0.6-0.3-1.2-0.9-1.5
		l-4.1-2.4C325.8,537.3,325.1,537.6,325.1,538.2z"/>
	<line class="st17" x1="347.8" y1="566.2" x2="347.3" y2="581.6"/>
	<circle class="st22" cx="982.5" cy="358.7" r="6.8"/>
	<circle class="st22" cx="667.9" cy="537.1" r="6.8"/>
	<circle class="st22" cx="294.6" cy="593" r="6.8"/>
	<circle class="st23" cx="814.8" cy="98" r="4.5"/>
	<circle class="st23" cx="447" cy="155.9" r="4.5"/>
	<circle class="st23" cx="40.8" cy="451.2" r="4.5"/>
	<circle class="st23" cx="184.8" cy="295.7" r="4.5"/>
	<circle class="st23" cx="214.2" cy="95.4" r="4.5"/>
	<circle class="st24" cx="548.5" cy="235.5" r="4.5"/>
	<circle class="st23" cx="575.4" cy="251.1" r="4.5"/>
	<g>
		<line class="st25" x1="570.1" y1="216" x2="570.1" y2="235.3"/>
		<line class="st25" x1="579.8" y1="225.6" x2="560.4" y2="225.6"/>
	</g>
	<g>
		<line class="st24" x1="201" y1="72" x2="201" y2="91.3"/>
		<line class="st24" x1="210.7" y1="81.6" x2="191.4" y2="81.6"/>
	</g>
	<g>
		<line class="st24" x1="54.9" y1="455" x2="54.9" y2="474.4"/>
		<line class="st24" x1="64.6" y1="464.7" x2="45.3" y2="464.7"/>
	</g>
	<g>
		<line class="st25" x1="61.9" y1="218.1" x2="61.9" y2="237.4"/>
		<line class="st25" x1="71.6" y1="227.7" x2="52.2" y2="227.7"/>
	</g>
	<g>
		<line class="st25" x1="943.4" y1="383.7" x2="943.4" y2="403.1"/>
		<line class="st25" x1="953.1" y1="393.4" x2="933.7" y2="393.4"/>
	</g>
	<g>
		<line class="st24" x1="454.4" y1="124.4" x2="454.4" y2="143.7"/>
		<line class="st24" x1="464.1" y1="134.1" x2="444.7" y2="134.1"/>
	</g>
	<g>
		<path class="st4" d="M717.7,111.5c-0.1-0.3-0.5-0.6-0.8-0.6c-0.2,0-0.4,0-0.5,0c-0.1,0-0.2,0.1-0.3,0.2c-0.5,0.9-0.6,2.1-0.9,3.1
			c-0.6,2.1-0.9,2.6-2.6,3.9c-1.3,1.1-2.9,2-4,3.3c-1.9,2.2-2.6,5.7-0.4,7.9c0.7,0.7,1.7,0,1.4-0.9c-0.3-0.8-0.5-1.6-0.6-2.4
			C709.3,120.9,720.5,118.4,717.7,111.5z"/>
		<path class="st4" d="M832.1,248.8l-12.4-7.5l-2.4-0.1L815,242l-1.9,3.8c0,0-6.1-11.4-8.7-13.2l-1-0.7l-0.2-1l-1.8-1.2l-0.8-0.5
			l-1.8-4.2l1-0.6c0,0,2.4-2.5,2.5-3.6c0.1-1.1-0.2-2.9-0.2-2.9l-3.2-8.7l-2.1-5.4l-1.1-1.7l0.6-3.5l-0.7-6.7l2.5-5l5.3-2l9.9-4.7
			l-17.3,2.6l1.5-3l9.7-13l-1.7,0.9l-14.7,11.7l-1.3,0.4l-0.4-0.3l4.2-24.1l-0.2-0.6L782,177.6l-0.8,1.4l-1.9,0l-11.5-24.4l3.9,24.9
			l-0.6,0.7l-16.7-13.7l0.3,1.3l10.9,15.1l-17-2.6L762,187l4.3,5.5l-0.3,5.8l0.6,3.9l-0.1,1.1l-7.1,16.1l-4.4-0.1l-4-7.7l-3-4
			l-2.7-2.6h-3l-1.3,1l-2.4-4.5l-8.4-22.5l-2.5-7.8l-0.7-4.7l-2.2-6.6l-4.1-5.8l-1-1l0.7-7.6l7.8-0.2l1,0.1l0.6-1.1l0.1-5.5
			l-0.1-7.2l-5.7-1.6l-4.9,1.2l-3.6-0.7c3,0.2,6.1,0.3,8.7-1c2.8-1.5,3.5-4.5,2.2-7.3c-1.1-2.6-3.6-4.1-5.4-6.1
			c-0.6-1-1.3-2-1.9-2.9c-0.4-0.7-1.2-0.6-1.6-0.3c-0.5-0.8-0.9-1.6-1.3-2.4c-0.1-0.3-0.6-0.1-0.6,0.2c0.1,1.7,0.6,3.1,1.3,4.4
			c0,0.1,0,0.3,0,0.5c0,0,0,0,0,0.1c-0.2,0.1-0.5,0.2-0.7,0.4c-0.5-0.2-1.1,0-1.5,0.4c-0.2,0.1-0.3,0.3-0.4,0.6
			c-0.2,0.5-0.3,1-0.4,1.4c-0.4-0.1-0.9,0.1-1.1,0.6c-0.1,0.2-0.2,0.3-0.3,0.5c-0.4-0.2-0.9-0.1-1.2,0.2c-0.3,0.3-0.6,0.7-0.9,1.1
			c-0.3,0-0.5,0.1-0.7,0.3c-0.7,0.7-1.5,2.1-1.9,3.4c-0.8,0.5-1.3,1.3-1.5,2.5c-0.1,0.5,0.2,0.9,0.6,1.1c0,0,0,0.1,0,0.1
			c0,0.1-0.1,0.1-0.1,0.2c0.1,0.4,0.1,0.8,0.2,1.2c0,0.2,0.2,0.4,0.4,0.4c0.3,0,0.7,0,1,0c0.7,0.3,1.7,0.4,2.5,0.4l-2.9,0.7l-5.5-1
			l-0.5,14.7l7.7,0.4l0.8,8.6l1,1.2l-1.3-0.9l-1.7,1.8c0,0-2.1,5.6-1.2,7.4c0.9,1.7,2.1,3.8,2.1,3.8l1.7,0.4l1.1,0.1l1.9,0.6
			l2.1-0.2l1.3,0.5l1,0.7l-0.4,4.2c0,0,2.8,30.8,9.5,43.8l0.7,0.9l-2,2.7c0,0-0.8,2.3-0.2,3c0.5,0.7,1.7,2.2,1.7,2.2l1.3,2.1l1,1.1
			l0.9-0.9l-0.1,1.1l12.5,16.1l0.1,0.5l0,3l1.9,2l5.1,3.6v1.8l-2.4,8.5l0.8,7.9l1.9,6.4l0.8,2.3l-0.2,6.8l-1.3,3.3l-1.8,3.8
			l-1.1,7.1l62.2-0.1l-0.9-2.8l1.1-0.9c0,0,7.1-1.3,8.7-4c1.6-2.7,3.2-4.4,3.2-4.4l1.1-3.3l1-6.2l0.1-7l-0.4-0.7l0.7-2.4l2.3-2.6
			l0.5-0.7l2.3-1l2.7-2l1.4-2.3l0.2-3.9l-0.2-1.2l1.3-2.2C835.5,254.6,836.2,250.2,832.1,248.8z M714.1,127.7
			c0.1,0.1,0.2,0.2,0.3,0.3c-0.2,0-0.4,0.1-0.6,0.1C713.9,128,714,127.9,714.1,127.7z"/>
		<path class="st13" d="M807,286c0,0,4.8,3.6,8.5,0.8l0.2-2.1l-2,0.5l-1.4-0.5l-5.5-3.1"/>
		<polyline class="st13" points="815.7,284.9 814.1,291.9 810.2,296.9 809.5,298.5 812.8,298.5 816.8,295.6 820.7,292.9 
			823.6,286.6 824,283.5 824.3,278.6 824,275.3 824.2,272.8 		"/>
		<path class="st13" d="M806.2,256l-0.5-14.2c0,0,4,1.7,5.1,6.5l1.8-2.4c0,0-5.1-10.3-9-13.2l0.8,25.2"/>
		<path class="st13" d="M774.8,231.1c0,0-0.4-1.4,0.5-1.5s10.5,1.1,12.7-0.1c0,0,1.9,0.7,0.7,2.3l2.6,0.2l0.2-0.2l-2.5-8.9l-1.9,2.1
			l-4.7,1.4l-5.1-1.4l-3.1-1.7l-0.3,0l-0.6,0.8l-2.1,5.9"/>
		<path class="st13" d="M765.8,205.7c0,0-1.2,13.4,7.4,18.4l0.4-0.7l0-0.8l-3.1-4.8l-0.9-5.2l-0.1-8.2l-0.4-0.6l-1.5-0.4l-0.4,0
			l-0.5-0.1"/>
		<polyline class="st13" points="769,217.8 766.5,225.5 765.7,225.2 767.6,215.1 		"/>
		<path class="st13" d="M766.3,196c0,0,3.7-6.1,15.1-6.3c11.4-0.2,14.6,7.1,14.6,7.1v-3.2l-0.7-1.4l-4.7-2.6l-4.6-1.8l-3.9-0.3
			l-3.1-0.1l-3.1,0.3L771,190l-3.6,1.7l-0.7,1.4"/>
		<path class="st13" d="M737.6,224c0,0-3.3,2.8,0.3,7.7c0,0,3.4,5.2,3.9,4.1c0.5-1.1-1.3-4.7,0.9-7.3l0.1,3.3l1.3,4.4l1.2,3.1
			l-0.4,5.3l-0.3,0.7l-12.9-14.8l-0.3-1.6"/>
		<path class="st13" d="M745.6,243.7c0,0-0.9,4.2,3.7,5.1c4.6,0.9,8.1-2.1,8.1-2.1l0.7,2.5l0.1,0.9l-4.2,3.4l-2,1.4
			c0,0-7.7-2.8-7.3-5.2c0.4-2.3-0.3-3.5-0.3-3.5"/>
		<path class="st13" d="M756.4,249.2c0,0-0.5-4.1,3.2-6.9"/>
		<path class="st13" d="M752.6,233.6c0,0,4.3-2.3,4-8.2c-0.2-5.9,3.5-3.6,4.4-3.1s5.7,9.8,17.5,10.4s0,0,0,0l0.1-0.2l-6.1-1.4
			l-3.2-1.8l-1.8-1.4l-2.4-2.7l-1.9-2.7l-2.6-1.6l-2-1.1l-2.4-0.8l-1,0.3"/>
		<path class="st13" d="M768.7,205.5c0,0,2.4-0.7,5-2.6c2.6-1.9,6.1-2.4,7.2-4.1c0,0,2.7,2.2,6.7,2.3c0,0,2,3.7,5,4l0.4-1.3l-2-0.9
			l-1.9-1.4l-0.4-1.9l-2.1-0.3l-5.3-3.6l-0.4-0.6l-1.6,2.1l-3.2,1.9l-2.7,1.2"/>
		<path class="st13" d="M790,225.2c0,0,4.7-3.3,5.5-8.4l-2.4-5.6l-2.4,8.4l-2.1,2.7"/>
		<path class="st13" d="M796.9,205.3c0,0-1.3,1.7-2.6,1.7v3.1l5.2,12.2c0,0,2.3-1.3,2.3-4.8l0.4,3.3l-1.3,3.5l-2,0.8l-5.8-14.5
			l-0.1-6.7l2.4-0.9"/>
		<path class="st13" d="M781.6,211.4h-2.1c-0.2,0-0.4-0.2-0.4-0.4l0,0c0-0.2,0.2-0.4,0.4-0.4h2.1c0.2,0,0.4,0.2,0.4,0.4l0,0
			C782.1,211.2,781.9,211.4,781.6,211.4z"/>
		<circle class="st13" cx="775" cy="204.8" r="2.1"/>
		<circle class="st13" cx="786.2" cy="204.8" r="2.1"/>
		<polyline class="st13" points="791.2,222.4 794,231.2 791.8,231.9 789.6,224 		"/>
		<path class="st13" d="M770.5,230.4c0,0,5.7,3,4.4,5.1s-10.2,8.4-11.2,10.7l2.5-1.5c0,0,21.5-12.3,22.6-12.2"/>
		<path class="st13" d="M801,229.6l-45.7,50.2c0,0-2.9,5.7,0.3,7.6c3.2,1.9,10.2-6.2,10.2-6.2l-5.9,8.1l-4.3,5.9
			c0,0-0.8,6.3-0.5,6.7c0.3,0.4-1.7,0.6-1.7,0.6l-4.4-0.5l-0.9-0.1l0.1-2.6l1.6-5.7l1.7-2.8l0.7-5l0.3-6.3"/>
		<path class="st13" d="M755.6,252.7c0,0-4.4,9.8,0.3,11.6s42.4-34,42.4-34l-0.5,1.3l-44.6,47.1l-1,0.6l-2.3-5.4l-0.5-6
			c0,0,0.2-5.9,0.4-6.2s2.2-6.7,2.2-6.7L755.6,252.7z"/>
		<path class="st13" d="M777.1,266.7c0,0,4.3-4.2,5.6-3.8c1.3,0.4,1.7,5.1,1.5,6.3c-0.2,1.2,0,16-9.8,22.2c0,0-9.1,5.9-10.6,10.8
			c-1.6,4.9,0,0,0,0l2.3,0.2l0.3-1.7l7.6-6.8l2.4-1.4c0,0,7.6-8.7,8.2-12.6c0.7-3.9,1.1-6.5,1.1-6.5l0.1-10.3l1.1-6.5l1-4.6"/>
		<path class="st13" d="M786.4,271.4c0,0,5.6-1.9,6.8-3.6c0,0,2,7.1,6.3,7.9l0-0.7l-1.9-1.5l-1.4-1.9l-1.3-3.6l-0.5-3.7l-3.1,2
			l-3.8,1.7l-1.1,0.4"/>
		<path class="st13" d="M791.3,268.2c0,0,1.6,29.7-0.4,33.8l-0.9,0.2l0.1-16.8l-0.4-8.9l-0.7-7.2"/>
		<polyline class="st13" points="807.9,253.6 820.7,277.6 817.1,283.5 815.2,284.5 813.7,285.1 806.3,281.3 804.1,259.5 		"/>
		<path class="st13" d="M719.1,168.9l-1.7-0.7l0.4-2.4l1.3-8.8l0.9-0.5l1,2.2l-1,3.1c0,0-1.2,5.3,3.4,7.6c0,0-1.1,25,10.7,43.8
			l-4.7,4.2C729.3,217.4,717.5,191.9,719.1,168.9"/>
		<path class="st13" d="M731.2,211.7c0,0,7.9-7,8-8.3l1.3,2.6l-7.8,7.9"/>
		<path class="st13" d="M735.5,211.8c0,0-3.1,8.1,1.9,11.8l-1.8,2.2l-2.6,1.6l-1.4,0.9l-1.4-0.4l-1.4-2l-2.1-2.2l0-2.7l1.7-2.4"/>
		<path class="st13" d="M801.4,298.5c0,0-2.3-18.4-0.6-24.4c1.7-5.9,0,0,0,0l-0.6,0.6c0,0-2.1,23-0.7,25.3"/>
		<path class="st13" d="M767.8,193.9c0,0-1.7,7.4,0.2,8.3c1.9,0.9,4.8-2.8,4.8-2.8l-0.1,2.2l-2.2,1.6l-1.7,0l-1.2,0.1l-0.6-0.4
			l-0.9-2V198l0.1-2.7"/>
		<path class="st13" d="M802.9,232c-6.1,5-14.5,20.4-14.5,20.4l-2.5,9.2l0.5,7.2l2.5-0.9l5.6-4l-0.2-2c0,0,1.6-1.5,0,0
			c-1.6,1.5-5.7,2.6-3.3-8.3c2.4-10.9,12.5-19.7,12.5-19.7"/>
		<polyline class="st1" points="763.9,187.4 765.3,185.8 768.1,190.1 766.8,191.2 		"/>
		<polyline class="st1" points="767.2,184.2 770,188.9 772.6,187.7 770.3,182.5 		"/>
		<polyline class="st1" points="772.9,181.1 774.6,186.9 778.8,186.4 778.3,180.2 		"/>
		<polyline class="st1" points="780.5,180 780.9,186.2 785,186.4 785.5,180.3 		"/>
		<polyline class="st1" points="787.8,180.8 787,187 790.4,188.4 792.6,183 		"/>
		<polyline class="st1" points="794.5,184.3 792.4,189.5 794.8,190.9 797.1,186.8 		"/>
		<polyline class="st6" points="769.9,188.5 771.1,184.3 772.4,187.6 770.3,188.8 		"/>
		<polyline class="st6" points="768.7,186.9 770.1,182.9 767.4,184 		"/>
		<polyline class="st6" points="767.2,188.9 766.5,191.3 768.1,190.3 		"/>
		<polyline class="st6" points="766,186.7 764.9,188.8 763.9,187.3 765.2,185.9 		"/>
		<polyline class="st6" points="776.7,180.4 773.6,183.5 773.3,181.8 774.7,180.6 		"/>
		<polyline class="st6" points="778.4,181.9 774.4,186.1 774.7,187 778.5,183.2 		"/>
		<polyline class="st6" points="781,186.2 785.4,182.1 785.5,181.1 780.8,184.9 		"/>
		<polyline class="st6" points="780.8,183 784.6,180.3 782.6,180.1 780.7,181.6 		"/>
		<polyline class="st6" points="783.6,186.1 785,185.5 784.9,186.4 		"/>
		<polyline class="st6" points="788.4,187.6 791.2,186.5 790.5,188.1 		"/>
		<polyline class="st6" points="787.1,186.5 791.7,185.1 792.1,184.2 787.2,185.6 		"/>
		<polyline class="st6" points="787.5,183.8 791.8,182.6 789.9,181.7 787.7,182.5 		"/>
		<polyline class="st6" points="793.3,190 795.6,189.3 794.9,190.9 		"/>
		<polyline class="st6" points="792.8,188.7 796.4,188.1 796.9,187.3 793,188.3 		"/>
		<polyline class="st6" points="793.6,186.5 796.5,186.3 795.6,185.2 793.9,185.8 		"/>
		<polyline class="st13" points="765,184.3 755.7,182.7 763.2,186.1 		"/>
		<polyline class="st13" points="767.1,183 760.1,173.1 770.4,181.4 		"/>
		<path class="st13" d="M795.1,261.9c0,0,0.6,10.2,5.2,9.2l-0.8,3l-1.9-0.2l-1.5-2.2l-1.5-2.2l-0.4-5"/>
		<path class="st13" d="M792.6,230c0,0,4.7-0.4,6.8-2.2l0.7,1.6l-1,0.6l-5.6,1.4"/>
		<path class="st13" d="M759.5,218.5c0,0,2.5,0.1,4.8,2.8c2.3,2.7,6.8,7.5,7.5,7.1l-0.8,1.1l-3.8-2.1"/>
		<path class="st13" d="M819.4,276.8l6.1-9.8c0,0-2.6-2.8,0.4-6.1l-0.5,2.1c0,0,0.5,3.6,2,3.9l-6.9,10.8"/>
		<path class="st13" d="M827.3,259.3c0,0,1.8,5.4,5.8,3.4l-1.2,2.6l-2.1,1.2l-2.1,0.2l-1-0.3l-0.6-1.3l-0.4-1.1l0.1-1.2"/>
		<polyline class="st13" points="805.5,254.3 810.9,245.9 811.6,246.8 805.9,256.2 		"/>
		<path class="st13" d="M807.8,290c0,0-0.3-3,1.2-3c1.5-0.1,0.8-0.9,0.8-0.9l-1.9-0.8l-0.5-0.2l-0.8-0.1"/>
		<path class="st13" d="M813.1,287.8c0,0,0.8,0,0.9,0.4c0.1,0.4-1.7,7.1-5.2,7.6l0.4,2.2l2-0.9l2.3-3.2l0.9-2.1l0.4-1.4l0.4-1.9
			l0.3-1.3l0.1-1"/>
		<path class="st13" d="M743.8,227.9c0,0,0.2,5.4,1.9,6.9c1.7,1.5,1.4,9.9,0.1,11.5s-0.6,0.5-0.6,0.5v-2l-0.6-9.6l-1.7-5.6"/>
		<path class="st13" d="M759.7,242.9c0,0-1.7,4.9,2.3,5.1l-2.7,1.2l-0.5,0.7l-0.7-1.2l-0.2-1.9l0.6-2"/>
		<path class="st13" d="M709.8,155.1c0,0,1.6,0.4,2,2.1c0.4,1.7,0.9,9.1-3.2,7.7l1.4,2l1.7,0.4l1.6-1l1-1.9l0-2.5l0.1-1.8l-0.2-2.9
			l-1.3-2.5l-1.3-0.7"/>
		<polyline class="st13" points="714.8,145.4 714.8,153.5 716.4,158.2 715.8,167.7 713.5,167.8 712.9,166.8 713.9,163.9 
			714.6,160.8 714,157.7 713.1,155.1 711.6,154.1 710.2,145.4 		"/>
		<polyline class="st13" points="703,141.7 730,141.7 730,144.8 703.3,144.8 703,142.6 		"/>
		<polyline class="st13" points="711.6,142.8 711.6,130.4 708.4,131.1 702.9,129.7 702.9,141.6 		"/>
		<polyline class="st13" points="711,131.9 713.8,131.3 718.7,132.5 724.7,131 729.8,132.2 729.9,131.1 722.5,129.9 717.6,130.7 
			714.4,130 711.8,130 		"/>
		<path class="st2" d="M713.5,156.8c0,0-4.2-5.3-4.8,6.3l-1-1.7l0.8-4.8l2.4-2.7l1.6,0.8"/>
		<path class="st2" d="M739.3,207.9c0,0,2.5-2.7,5.5-1.3s12.9,12.3,7.5,26.4l1-0.4l2.2-8.4l-0.8-4.6l-1.6-4.7l-3.1-5.3l-2.6-3.1
			L745,205l-3.3,0.1"/>
		<path class="st2" d="M798,231c0,0-19.3,4.5-41.9,22.7c0,0-9.9,7.9-3.2,25l-0.8,0.9l-1.2-3.3l-1.6-8.7l0.6-6.8l1.4-4.7l4.4-4.2
			l24-15.4l12.1-4.9"/>
		<path class="st2" d="M770,204.5c0,0-1.3,19,10.8,19.2c0,0,11.7,2.5,11.6-20.3l0.8,4.1l-0.5,5.7l-1.2,5.8l-3.6,4.1
			c0,0-4,3.1-4.2,3.2c-0.2,0.1-4.6-0.3-4.6-0.3l-4.4-2.2l-3-3.9l-2.2-4.6l-0.4-5.2l-0.3-4.9"/>
		<polyline class="st2" points="767.6,203.8 760.2,220 759.4,219.4 766.6,203.7 		"/>
		<polyline class="st2" points="795.1,203.4 801.6,218.8 802.4,218.1 795.7,202.9 		"/>
		<path class="st2" d="M773.5,199c0,0,5.2-1.2,7-5.3l0.1,1.8l-1.5,3l-4.9,1.4l-0.5,0.5"/>
		<polyline class="st2" points="750.1,181.6 765.2,183.9 765.2,183.3 750.3,180.9 		"/>
		<polyline class="st2" points="755.1,168.3 770.4,180.8 771,180.4 756.3,167.9 		"/>
		<polyline class="st2" points="767.8,156.6 778.3,179.3 779.3,179 768,155.7 		"/>
		<polyline class="st2" points="791.9,156.8 787.3,179.3 788.6,179.6 789.1,179.5 792.7,155.8 		"/>
		<polyline class="st2" points="803.3,169.2 794.5,182.5 795.1,182.9 805.9,168.3 806.4,167.7 		"/>
		<polyline class="st13" points="773.1,179.9 770.8,165.6 777.8,179.3 		"/>
		<polyline class="st13" points="783.1,179 790,164 787.1,179.6 		"/>
		<polyline class="st13" points="791.1,180.8 800.8,172.6 794,182.6 		"/>
		<polyline class="st13" points="796.7,184.2 805.1,182.5 797.7,186.4 		"/>
		<path class="st2" d="M787.1,253.5c0,0-22.1,31.5-22.8,32.6c-0.7,1-5.4,6.4-5.5,7.5s-3.5,3.4-1.8,6.7l0.3,1.9l-1.9-0.1l-0.2-5.5"/>
		<path class="st2" d="M827.1,260c0,0,2.8-3.5,5.3-2.4c2.5,1.1-0.3,6.3-0.3,6.3l2-1.2l0.2-2.9l0-1.5l-1-1.1l-0.5-0.4l-1.3-0.4h-0.2
			l-2.8,1.2"/>
		<path class="st2" d="M822.8,274.9c0,0,2.7,20.6-12.1,22.7l-0.8,1.2l2-0.1l3.5-1.5l2.7-1.7l2.8-3.3l1.4-2.8l1.2-2.1l0.8-4.4
			l0.2-5.4l-0.8-4.4"/>
		<path class="st2" d="M802.3,232.3c0,0,0.1,52.2,7.1,69.9l0.5-0.1l-0.9-3.2l-4.4-30.6l-1-19.3l-0.3-16.4"/>
		<path class="st2" d="M734.2,213.7c0,0-6.1,6-5.6,8.4c0.5,2.4,16.4,22.7,16.4,22.7l-0.4,0.9l-13.9-16.3l-3.1-5l-0.9-1.8l1.3-3.2"/>
		<path class="st2" d="M717.4,154.9c0,0,0.4-1.2,1.7-0.6s2.7,2.4,3.1,3.4c0.4,1,3.5,6,3.6,9.3s9.6,33.1,14.5,39.5l0.3-0.5l-1.3-2.6
			l-10.1-28l-1.7-5.7l-0.4-4.4l-1.7-4.2l-1.2-2.3l-1.7-2.3l-1.9-2.5L719,153l-1.3-0.1l-1.1,1.1"/>
		<path class="st2" d="M703,143.8"/>
		<polyline class="st2" points="728.5,130 728.5,145.1 730,145.1 730,131.4 		"/>
		<path class="st2" d="M813.8,244.7c0,0,2-3.6,4.6-2.6c2.6,0.9,15.2,9.5,15.2,9.5s2,0.5-0.7,4.8l0.9,0.8l1.1-1.6l0.9-1.9l-0.8-2.4
			l-0.9-1.7l-13.9-8.1l-2.7-0.8l-2.4,0.8"/>
		<path class="st2" d="M803.3,234c0,0,5.9,4.9,8.4,13.1l0.8-1.7c0,0-4-9.8-8.4-12.8"/>
		<path class="st13" d="M718,111.4c-0.1-0.3-0.3-0.7-0.4-1.1c-0.5-1.2-2.1-0.5-2,0.7c0.8,6.3-6.3,7.5-9.1,11.8
			c-1.5,2.3-1.8,7.1,1.7,7.7c0.4,0.1,0.8-0.2,0.9-0.6c0.5-0.1,1-0.2,1.5-0.2c0.4,0,0.9,0,1.3,0c0.1,0,0.2,0,0.3,0c0.2,0,0.4,0,0.7,0
			c0.4,0,0.7-0.2,0.8-0.4c0,0,0,0,0,0c0.2,0.3,0.8,0,0.6-0.4c-2.5-4.9,5.1-7.5,6.2-11.7C721.2,115.4,720.5,111.2,718,111.4z"/>
		<g>
			<path class="st2" d="M725.5,120.6c-1.4-2.4-3.6-4.5-5.4-6.6c-0.8-0.9-1.5-1.8-2.3-2.6c-0.1-0.1-1.6-1.5-1.5-1.3
				c0-0.1,0-0.2,0-0.3c-0.1-0.7-1.3-0.3-0.8,0.4c2.1,2.9,4.7,5.5,6.9,8.3c1.2,1.5,2.4,3.2,2.9,5.1c0.5,2-0.4,3.5-0.8,5.4
				c-0.1,0.4,0.3,0.8,0.7,0.6C728.3,127.9,727,123,725.5,120.6z"/>
			<path class="st2" d="M717.7,111.4C717.7,111.4,717.7,111.4,717.7,111.4C717.8,111.4,717.8,111.4,717.7,111.4z"/>
		</g>
		<path class="st2" d="M707.3,134.7c-0.8-0.3-1.7,0.1-2.2,0.8c-0.1,0.2,0.1,0.3,0.2,0.2c0.4-0.6,1.1-0.9,1.8-0.6
			c0.3,0.1,0.6,0.4,0.7,0.7c0.1,0.3,0.1,0.5,0.2,0.8c0.1,0.1,0.2,0.1,0.3,0C708.8,135.9,708,134.9,707.3,134.7z"/>
		<path class="st2" d="M716.9,134.4c-0.8-0.1-2.4,0.4-2.2,1.5c0,0.1,0.1,0.1,0.1,0.1c0.7-0.3,1-1,1.9-0.8c0.9,0.2,1.1,1,1.4,1.7
			c0.1,0.2,0.3,0.2,0.4,0C719.1,135.8,717.9,134.6,716.9,134.4z"/>
		<path class="st2" d="M725.6,134.3c-0.9-0.1-2.3,0.7-1.8,1.8c0.1,0.1,0.3,0.1,0.3,0c0.2-0.3,0.3-0.7,0.6-0.9c0.4-0.3,1-0.2,1.4,0.1
			c0.6,0.4,0.7,1.1,0.9,1.7c0.1,0.2,0.4,0.2,0.4,0C727.8,135.8,726.7,134.5,725.6,134.3z"/>
		<g>
			<line class="st26" x1="739.6" y1="153.2" x2="739.6" y2="165.7"/>
			<line class="st26" x1="745.8" y1="159.5" x2="733.4" y2="159.5"/>
		</g>
		<circle class="st27" cx="750.6" cy="149.8" r="3.1"/>
		<g>
			<line class="st28" x1="827.1" y1="215.2" x2="818.3" y2="224"/>
			<line class="st28" x1="827.1" y1="224" x2="818.3" y2="215.2"/>
		</g>
		<circle class="st29" cx="810.5" cy="222.7" r="3.1"/>
		<circle class="st29" cx="822.1" cy="230.8" r="2.1"/>
		<g>
			<line class="st28" x1="718.4" y1="256.6" x2="727.2" y2="265.4"/>
			<line class="st28" x1="718.4" y1="265.4" x2="727.2" y2="256.6"/>
		</g>
		<circle class="st29" cx="734.9" cy="264.1" r="3.1"/>
		<circle class="st27" cx="723.4" cy="272.2" r="2.1"/>
		<g>
			<g>
				<g>
					<path class="st9" d="M773.8,195.7C773.8,195.7,773.8,195.7,773.8,195.7c0,0.1,0,0.1,0,0.2c0,0.1,0,0.2-0.1,0.3
						c-0.1,0.4-0.2,0.8-0.3,1.2c0,0.1-0.1,0.2-0.1,0.3c0,0,0,0.1,0,0.1c0,0,0,0,0,0c-0.1,0.3-0.3,0.7-0.4,1c0,0.1-0.1,0.1-0.1,0.2
						c-0.4,2.4-2.1,4.2-4.1,4.2c-0.5,0-0.9-0.1-1.2-0.4c-0.7-0.7-0.7-2.5-0.7-4.5l0-0.5l0-0.5c0-2,0-3.9,0.7-4.6
						c0,0,0.1-0.1,0.1-0.1c0.1-0.5,0.2-1,0.4-1.4c-0.6,0.1-1,0.3-1.4,0.7c-1.1,1.1-1.1,3.1-1.1,5.4l0,0.5l0,0.5c0,2.3,0,4.3,1.1,5.3
						c0.5,0.5,1.2,0.7,2,0.7c3,0,5.4-3,5.4-6.6C774,197,773.9,196.3,773.8,195.7z"/>
				</g>
			</g>
			<g>
				<g>
					<path class="st9" d="M796.4,197.3c0-2.3,0-4.4-1.1-5.4c-0.1-0.1-0.1-0.1-0.2-0.2c-0.1,0.4-0.1,0.7-0.2,1.1
						c0,0.1-0.1,0.2-0.2,0.3c0.5,0.9,0.5,2.5,0.5,4.3l0,0.5l0,0.5c0,2,0,3.8-0.7,4.5c-0.3,0.3-0.7,0.4-1.2,0.4c-2.2,0-4-2.2-4.2-5
						c-0.1-0.1-0.2-0.1-0.2-0.2c-0.3-0.5-0.6-1-0.8-1.6c0,0,0,0,0,0c-0.1,0.5-0.1,0.9-0.1,1.4c0,3.6,2.4,6.6,5.4,6.6
						c0.9,0,1.6-0.3,2-0.7c1.1-1.1,1.1-3,1.1-5.3l0-0.5L796.4,197.3z"/>
				</g>
			</g>
			<g>
				<path class="st9" d="M773,200.9l-0.1-1.2c0.1,0,6.1-0.7,7.4-5.5c0.1-0.2,0.3-0.4,0.5-0.4c0.2,0,0.5,0.1,0.6,0.4
					c0.1,0.2,2.2,5,7.5,5.1l0,1.2c-4.4-0.1-6.9-2.9-8-4.6C778.9,200.2,773.2,200.8,773,200.9z"/>
			</g>
			<g>
				<path class="st9" d="M794.9,193c-14.2-11.1-27.2-0.5-27.8-0.1l-0.8-0.9c0.1-0.1,14.3-11.7,29.3,0L794.9,193z"/>
			</g>
			<g>
				
					<rect x="772" y="180.4" transform="matrix(0.9523 -0.305 0.305 0.9523 -19.4774 244.4564)" class="st9" width="1.2" height="8.3"/>
			</g>
			<g>
				
					<rect x="779.1" y="179" transform="matrix(0.9983 -5.832279e-02 5.832279e-02 0.9983 -9.3481 45.7844)" class="st9" width="1.2" height="8"/>
			</g>
			<g>
				
					<rect x="782.4" y="182.9" transform="matrix(0.1406 -0.9901 0.9901 0.1406 494.0999 936.2338)" class="st9" width="7.9" height="1.2"/>
			</g>
			<g>
				
					<rect x="788.8" y="185.4" transform="matrix(0.3604 -0.9328 0.9328 0.3604 333.3945 858.263)" class="st9" width="7.6" height="1.2"/>
			</g>
			<g>
				<path class="st9" d="M798.4,225.4c-0.1,0-0.2,0-0.3,0l0.1-1.2c1,0.1,1.7-0.2,2.3-0.8c1.3-1.5,1.1-4.8,0.9-6.1l-6.3-15.1l1.1-0.5
					l6.3,15.2c0,0,0,0.1,0,0.1c0,0.2,0.8,4.8-1.2,7.1C800.6,225,799.6,225.4,798.4,225.4z"/>
			</g>
			<polyline class="st30" points="771.9,180.4 767.1,152.9 779.1,178.7 			"/>
			<polyline class="st30" points="788.8,180.4 793.6,152.9 781.6,178.7 			"/>
			<polygon class="st31" points="767.2,184.1 770.5,182.4 772.4,187.7 770,189 			"/>
			<path class="st31" d="M772.8,181"/>
			<path class="st31" d="M772.9,181.1l1.7,6c0,0,2.9-0.6,4.2-0.7l-0.5-6.4C778.3,180,775,180.4,772.9,181.1z"/>
			<path class="st31" d="M780.5,179.8l0.4,6.4c0,0,2.7,0,4.1,0.2l0.6-6.1c0,0-2.2-0.4-5.1-0.4"/>
			<path class="st31" d="M787.8,180.8l-0.8,6.1c0,0,2.4,0.8,3.6,1.5l2.1-5.4C792.6,183,791.5,182.1,787.8,180.8z"/>
			<path class="st31" d="M794.5,184.2l-2.1,5.2l2.5,1.5l2.4-4.1C797.2,186.8,795.3,184.5,794.5,184.2z"/>
			<polygon class="st31" points="763.8,187.2 765.3,185.6 768.2,190.2 766.6,191.4 			"/>
			<polyline class="st32" points="773,179.7 770.7,165.2 777.6,178.8 			"/>
			<polyline class="st32" points="769.9,180.9 759.8,172.7 766.9,182.4 			"/>
			<polyline class="st32" points="783.2,178.7 790.2,163.5 787.2,179.2 			"/>
			<polyline class="st32" points="791.1,180.7 801.2,172.2 794.2,182.2 			"/>
			<polyline class="st32" points="796.7,184.2 805.4,182.4 798,186.2 			"/>
			<polyline class="st32" points="764.7,184.1 755.1,182.6 762.9,186.1 			"/>
			<path class="st33" d="M702.7,144.9h27.2v-3.6h-27.1C702.8,141.3,702.8,144.9,702.7,144.9z"/>
			<line class="st33" x1="702.8" y1="141.3" x2="702.8" y2="130.3"/>
			<line class="st33" x1="729.9" y1="141.3" x2="729.9" y2="130.8"/>
			<g>
				<polyline class="st33" points="703,129.8 708.4,130.9 713.7,129.8 719.1,130.9 724.5,129.8 729.9,130.9 				"/>
			</g>
			<circle class="st33" cx="706.7" cy="136" r="2.2"/>
			<circle class="st33" cx="716.5" cy="136" r="2.2"/>
			<circle class="st33" cx="725.4" cy="136" r="2.2"/>
			<path class="st34" d="M705.8,129.8"/>
			<g>
				<path class="st9" d="M765.8,226.5c7.6,9.6,27.4,6.9,34.4,3.6c0.5,0.1,2.3,0.4,2.4,1.6c0,0.2,0,1.2,0,2.4
					c0,24.3,2.1,47.1,6.4,67.8h1.2c-4.3-20.6-6.5-43.4-6.5-67.7c0-1.6,0-2.3,0-2.6c-0.3-2.4-3.5-2.7-3.7-2.7c-0.1,0-0.2,0-0.3,0.1
					c-6.4,3.1-26,5.9-33.1-3.1c-7.7-9.9-12.1-6.9-12.3-6.7l0.7,1C755.2,220,758.9,217.6,765.8,226.5z"/>
			</g>
			<g>
				<path class="st30" d="M792.4,232.2"/>
			</g>
			<g>
				<path class="st9" d="M752.4,280.4C752.3,280.4,752.3,280.4,752.4,280.4c-0.3,0-0.5-0.2-0.5-0.3c-7.4-16,0-25.3,0.4-25.7
					c0,0,0.1-0.1,0.1-0.1c27.6-22.2,42.3-23.7,43-23.7l0.1,1.2c-0.1,0-15.1,1.5-42.3,23.4c-0.5,0.7-6.7,9.4-0.5,23.6l46.9-49.5
					l-7-18.6l1.1-0.4l7.2,18.9c0.1,0.2,0,0.5-0.1,0.6l-47.7,50.4C752.7,280.3,752.5,280.4,752.4,280.4z"/>
			</g>
			<path class="st9" d="M753,279.8l-1.2,0.1c0.1,2.6,0.2,9.9-1.5,11.4c-1.5,1.4-2.4,6.7-2.9,10.6h0.6c0,0.2-0.1,0.3-0.1,0.5
				c-0.1,0.5-0.4,1,0,1.4c0.1,0.1,0.3,0.1,0.4,0.1c0.5-0.3,0.4-0.8,0.5-1.3c0.1-0.6,0.2-1.2,0.3-1.7c0-0.2-0.1-0.4-0.2-0.4
				c0.6-3.7,1.4-7.3,2.3-8.2C753.5,289.9,753,280.8,753,279.8z"/>
			<g>
				<path class="st9" d="M766.1,301.9c3.5-3.5,7.5-7.3,9.3-8.3c3.5-1.9,12.2-10.6,11.1-28.4c-1-15.5,14-30.2,16.7-32.7
					c1.4,1.5,6.5,7.1,8.8,13.8l1.1-0.4c-2.7-8-9.2-14.4-9.5-14.6c-0.2-0.2-0.6-0.2-0.8,0c-0.8,0.7-18.7,16.6-17.6,34
					c1.1,17.2-7.2,25.5-10.5,27.3c-2.1,1.1-6.7,5.6-10.4,9.3H766.1z"/>
			</g>
			<path class="st9" d="M801.7,303.5c-0.3-0.5-0.6-1.1-0.8-1.6c-0.2-0.5-0.2-0.8-0.5-1.2c-1.8-11.2,0-25.7,0.1-25.9
				c0-0.3-0.2-0.6-0.5-0.7c-4.7-0.9-5-10.1-5-10.2c0-0.3-0.2-0.5-0.4-0.6c-0.2-0.1-0.5,0-0.7,0.2c-1.8,2.7-8.2,4.7-8.2,4.7l0.4,1.1
				c0.2-0.1,5.3-1.7,7.9-4.1c0.3,2.7,1.4,8.6,5.4,9.8c-0.3,2.8-1.7,15.7,0,26c-0.4,1.6,2,4.2,2.8,5.2c0.1,0.2,0.3,0.1,0.4-0.1
				C802.5,305.3,802.1,304.4,801.7,303.5z"/>
			<g>
				<path class="st9" d="M794.3,264.5c-0.1,0-0.1,0-0.2,0c-0.3-0.1-0.5-0.4-0.4-0.8c1.4-4,1.1-9.3,1.1-9.4c0-0.3,0.2-0.6,0.6-0.6
					c0.3,0,0.6,0.2,0.6,0.6c0,0.2,0.3,5.6-1.1,9.8C794.8,264.4,794.6,264.5,794.3,264.5z"/>
			</g>
			<g>
				<path class="st9" d="M799.8,275.5c-0.1,0-0.2,0-0.3-0.1c-0.3-0.2-0.4-0.5-0.2-0.8c1.1-1.9,0.6-9.9,0.3-12.8
					c0-0.3,0.2-0.6,0.5-0.6c0.3,0,0.6,0.2,0.6,0.5c0.1,1.1,1.1,11-0.5,13.6C800.2,275.4,800,275.5,799.8,275.5z"/>
			</g>
			<g>
				<path class="st9" d="M752.6,255.3c0,0-0.1,0-0.1,0c-6.2-1.5-8.1-5.2-8.5-6.3c-0.5-1.4-0.5-2.6,0.1-3.4c0.9-1.3,1.4-6.9-0.1-9.6
					c-1.7-3-1.4-7.8-1.4-8c0-0.3,0.3-0.6,0.6-0.6c0.3,0,0.6,0.3,0.6,0.6c0,0-0.3,4.6,1.3,7.3c1.8,3.1,1.3,9.2,0.1,10.9
					c-0.3,0.3-0.3,1.2,0.1,2.3c0.4,1,2,4.3,7.7,5.6c0.3,0.1,0.5,0.4,0.4,0.7C753.2,255.1,752.9,255.3,752.6,255.3z"/>
			</g>
			<g>
				<path class="st9" d="M758.7,250.7c-0.2,0-0.3-0.1-0.4-0.2c-2.9-3.1,0.7-8.1,0.9-8.3c0.2-0.3,0.6-0.3,0.8-0.1
					c0.3,0.2,0.3,0.6,0.1,0.8c0,0-3.2,4.3-1,6.7c0.2,0.2,0.2,0.6,0,0.8C759,250.6,758.9,250.7,758.7,250.7z"/>
			</g>
			<path class="st9" d="M790.2,301.6c1.1-12.7-0.3-33-0.4-34l-1.2,0.1c0,0.3,1.4,20.4,0.4,33.3c-0.1,0.1-0.1,0.2-0.1,0.3
				c0,0.1,0,0.2,0,0.3c0,0.1,0,0.3,0,0.4h0.1c0,0.4,0.1,0.8,0.2,1.2c0,0.1,0,0.1,0,0.2c0,0.4,0.4,0.5,0.7,0.4c0.3,0,0.6-0.3,0.6-0.7
				c0-0.3,0-0.7-0.1-1C790.4,301.8,790.3,301.7,790.2,301.6z"/>
			<path class="st9" d="M757.4,293.5c3.6-3.9,35.8-47.7,37.6-51.8l-1.1-0.5c-1.8,4-33.7,47.6-37.4,51.5c-2.5,2.7-2.4,6.7-2,9.1h0.1
				c0,0.1,0,0.1,0,0.2c0,0.5,0,1,0.2,1.5c0,0.1,0.1,0.1,0.1,0.1c0,0.1,0,0.1,0,0.2c0,0.3,0.5,0.3,0.5,0c0-0.1,0-0.2,0-0.3
				c0,0,0,0,0,0c0.2-0.5,0.2-0.9,0.2-1.4c0-0.1,0-0.2,0-0.3h0.1c0-0.2-0.1-0.3-0.1-0.5c0-0.2,0-0.4,0-0.6c0,0,0,0,0,0c0,0,0,0,0,0
				c0,0,0-0.1,0-0.1c0,0,0,0,0,0c0-0.1-0.1-0.2-0.1-0.3C755.3,298.1,755.6,295.4,757.4,293.5z"/>
			<g>
				<path class="st9" d="M744.6,246.5c-0.2,0-0.3-0.1-0.5-0.2l-16.9-20.7c-1.7-2-1.5-5,0.3-6.9l12.6-12.9c1.1-1.1,2.5-1.7,4-1.6
					c1.5,0.1,2.9,0.8,3.8,2.1l2.8,3.8c0.1,0.1,9.1,10.5,2.1,23.7c-0.2,0.3-0.5,0.4-0.8,0.2c-0.3-0.2-0.4-0.5-0.2-0.8
					c6.6-12.5-1.9-22.3-2-22.4L747,207c-0.7-0.9-1.8-1.5-2.9-1.6c-1.2-0.1-2.3,0.4-3.1,1.2l-12.6,12.9c-1.4,1.5-1.5,3.7-0.2,5.3
					l16.9,20.7c0.2,0.3,0.2,0.6-0.1,0.8C744.8,246.5,744.7,246.5,744.6,246.5z"/>
			</g>
			<g>
				<path class="st9" d="M730.7,229.5l-0.7-1c0.2-0.1,18-12.9,18.2-20.3l1.2,0C749.2,216.3,731.5,229,730.7,229.5z"/>
			</g>
			<g>
				<path class="st9" d="M781,225.7c-3.4,0-6.2-1.1-8.2-3.4c-5.7-6.2-4.2-18.5-4.1-19.1l1.2,0.1c0,0.1-1.5,12.3,3.8,18.1
					c1.9,2.1,4.6,3.1,7.9,3c3.1-0.1,5.6-1.3,7.4-3.4c4.9-5.9,3.1-17.6,3-17.7l1.2-0.2c0.1,0.5,1.9,12.3-3.3,18.7
					c-2,2.4-4.8,3.7-8.2,3.9C781.4,225.7,781.2,225.7,781,225.7z"/>
			</g>
			<g>
				
					<rect x="768.4" y="225.9" transform="matrix(0.3594 -0.9332 0.9332 0.3594 283.3801 865.7136)" class="st9" width="7.8" height="1.2"/>
			</g>
			<g>
				
					<rect x="753.9" y="210.4" transform="matrix(0.4131 -0.9107 0.9107 0.4131 255.7802 818.8529)" class="st9" width="18.5" height="1.2"/>
			</g>
			<g>
				
					<rect x="789.8" y="222.2" transform="matrix(0.9633 -0.2683 0.2683 0.9633 -31.9898 220.436)" class="st9" width="1.2" height="10"/>
			</g>
			<g>
				<path class="st30" d="M772.1,196.3"/>
			</g>
			<g>
				
					<rect x="759.6" y="216.9" transform="matrix(0.2696 -0.963 0.963 0.2696 350.9131 897.6276)" class="st9" width="15.2" height="1.2"/>
			</g>
			<g>
				<path class="st9" d="M732.4,227.5c0,0-0.6,1.7,0.1,3.2l-1.8-1.5l1.1-1.2"/>
			</g>
			<g>
				<path class="st9" d="M828.3,266.5c-0.3,0.2-0.6,0.2-0.8,0c-0.1,0-0.1,0-0.2,0.1c-0.1,0-0.2,0-0.3,0l-10.2,16.3
					c-1,1.6-3.1,2.1-4.7,1.1l-5.7-3.5l-0.6,1l5.7,3.5c0.7,0.5,1.6,0.7,2.4,0.7c1.5,0,3-0.8,3.9-2.2l10.8-17.2
					C828.5,266.4,828.4,266.5,828.3,266.5z"/>
				<path class="st9" d="M836,252c-0.3-1.2-1-2.2-2.1-2.9l-13.6-8.3c-2.1-1.3-5-0.6-6.3,1.5l-10.5,17l1,0.6l10.5-17
					c1-1.6,3.1-2.1,4.7-1.1l13.6,8.3c0.8,0.5,1.3,1.2,1.5,2.1c0.2,0.9,0.1,1.8-0.4,2.6l-1.5,2.4c0.4,0.1,0.7,0.3,0.7,0.8
					c0,0.1,0,0.2,0,0.4l1.9-3C836.1,254.4,836.3,253.2,836,252z"/>
			</g>
			<g>
				<path class="st9" d="M809.4,298.7l-0.6-1c6.1-3.6,6.4-13,6.4-13.1l1.2,0C816.4,285,816.1,294.7,809.4,298.7z"/>
			</g>
			<g>
				<path class="st9" d="M809.1,299.4c-0.1,0-0.2,0-0.2,0l0.1-1.2c0.1,0,5.5,0.2,9.7-4.2c4.2-4.4,5.9-11.6,5.1-21.5l1.2-0.1
					c0.9,10.3-1,17.8-5.4,22.4C815.3,299.1,810.3,299.4,809.1,299.4z"/>
			</g>
			<g>
				<path class="st30" d="M765.4,194.8"/>
			</g>
			<g>
				<path class="st9" d="M766,193.2l-3.9-5.6c-0.1-0.2-0.1-0.4,0-0.6c0.2-0.3,4.5-8.4,18-8.7c13.5-0.3,18.7,7.9,18.9,8.3
					c0.1,0.2,0.1,0.4,0,0.6l-3.2,5.3l-1-0.6l3-5c-1.1-1.4-6.3-7.7-17.7-7.4c-11.3,0.3-15.9,6.4-16.8,7.8l3.6,5.3L766,193.2z"/>
			</g>
			<g>
				
					<rect x="766.9" y="183" transform="matrix(0.8553 -0.5182 0.5182 0.8553 14.1268 424.7809)" class="st9" width="1.2" height="8.3"/>
			</g>
			<line class="st30" x1="816.4" y1="244.2" x2="828.1" y2="251.9"/>
			<line class="st30" x1="814.5" y1="246.9" x2="826.2" y2="254.6"/>
			<line class="st30" x1="812.6" y1="249.8" x2="824.3" y2="257.5"/>
			<polyline class="st30" points="762.6,187.2 746.2,179.9 765.9,183.2 			"/>
			<polyline class="st30" points="766.1,183.4 752.4,164.9 771.5,180.5 			"/>
			<polyline class="st30" points="798.3,187.2 814.7,179.9 795,183.2 			"/>
			<polyline class="st30" points="794.8,183.4 808.5,164.9 789.4,180.5 			"/>
			<path class="st9" d="M748.4,210.8c0,0,0.8-1,2.3,0.1s-1.8-2-1.8-2l-1.1,2.6"/>
			<path class="st9" d="M773.8,223.4c0,0,0.8,5.1,7.4,5.5c6.6,0.4,8.2-7.2,8.2-7.2l-2.1,2l-2.2,1.2l-2.2,0.1l-2.1,0.5l-2.4-0.3"/>
			<path class="st9" d="M744.7,248.8"/>
			<circle class="st9" cx="775" cy="205.3" r="1.4"/>
			<circle class="st9" cx="786.2" cy="205.3" r="1.4"/>
			<path class="st33" d="M773.1,203.3c0,0,2.1-1.7,3.8,0.2"/>
			<path class="st33" d="M784.3,203.3c0,0,2.1-1.7,3.8,0.2"/>
			<path class="st33" d="M729.1,217.8c0,0-10.1-17.2-10.1-49.9"/>
			<path class="st33" d="M740.7,205.9c-4.1-7.8-13.5-34.2-13.8-39.4c-0.3-5.2-5.2-11.8-5.2-11.8s-2.5-2.9-4.3-1.6
				c-1.8,1.4,0.9,3.2,2.1,3.4c1.2,0.2,1.3,3.1,1.4,3.6c0.1,0.5-3.3,6.8,3.2,9.2"/>
			<path class="st33" d="M777.2,215.3c0,0,3.1,2.9,7.2-0.1"/>
			<line class="st33" x1="779.3" y1="210.3" x2="781.8" y2="210.3"/>
			<g>
				<path class="st9" d="M720.1,153.5l1.1-8.3l-1.2-0.1l-1,8.2C719.4,153.2,719.8,153.3,720.1,153.5z"/>
				<path class="st9" d="M711.6,154.6l-0.8-9.6l-1.2,0.1l0.8,9.8C710.7,154.5,711.2,154.4,711.6,154.6z"/>
				<path class="st9" d="M718.6,155.9l-1.3,9.8c-0.1,0.9-0.9,1.6-1.8,1.6h-1.3c-0.7,0-1.3-0.4-1.6-1c0,0-0.1,0.1-0.1,0.1
					c-0.2,0.2-0.5,0.4-0.8,0.5c0,0-0.1,0-0.1,0c0.5,0.9,1.5,1.5,2.6,1.5h1.3c1.5,0,2.8-1.1,3-2.6l1.2-9.1
					C719.3,156.6,719,156.3,718.6,155.9z"/>
			</g>
			<path class="st9" d="M749.2,254.1c0,0,1.7,2,1.3,3c-0.4,1.1,1-0.7,1-0.7l0.8-1.5l-3.3-1.6"/>
			<ellipse class="st33" cx="711.1" cy="160.8" rx="3.2" ry="6.6"/>
			
				<ellipse transform="matrix(0.5762 -0.8173 0.8173 0.5762 137.8378 789.1348)" class="st33" cx="829.8" cy="261.7" rx="5.8" ry="3.5"/>
			<path class="st33" d="M717.4,167.6c0,0,1.2,1,1.6,0.9"/>
			<line class="st33" x1="710.6" y1="148.3" x2="720.1" y2="148.3"/>
			<path class="st33" d="M747.6,259.5c0,0-2.9,9.1,1.3,17.8"/>
			<line class="st33" x1="799.9" y1="206.8" x2="803.8" y2="215.7"/>
			<path class="st33" d="M727,159.5c0,0,1.8,2.2,2.3,6.4"/>
			<path class="st33" d="M824.5,289.6c0,0-1.9,5.6-5.2,7.6"/>
		</g>
		<path class="st33" d="M707.3,130.3c0,0-2.8-4.6,0-7.7c2.8-3.2,6.3-5.1,7.5-6.9c1.1-1.8,0.7-7,0.7-7s9.7,9.4,11.3,13.4
			c1.7,4-0.3,7.6-0.3,7.6"/>
	</g>
	<line class="st17" x1="888.7" y1="180.2" x2="806.8" y2="132.8"/>
	<line class="st17" x1="892.9" y1="82.6" x2="974.8" y2="130.1"/>
	<path class="st17" d="M888.7,349.6"/>
	<g>
		<circle class="st11" cx="339.4" cy="57.8" r="49.7"/>
		<path class="st11" d="M293,74.3l44.9,98.2c2.9,6.4,12.1,5.9,14.4-0.7l35.5-102"/>
		<circle class="st2" cx="339.4" cy="57.8" r="25.1"/>
		<circle class="st35" cx="339.4" cy="57.8" r="30.4"/>
	</g>
	<circle class="st11" cx="881.5" cy="46.5" r="41.6"/>
	<path class="st11" d="M842.6,60.3l37.7,82.3c2.4,5.3,10.1,5,12-0.6l29.7-85.5"/>
	<circle class="st2" cx="881.5" cy="46.5" r="21"/>
	<circle class="st36" cx="881.5" cy="46.5" r="25.5"/>
	<circle class="st11" cx="369.5" cy="440.2" r="36.7"/>
	<path class="st11" d="M335.2,452.4l33.2,72.5c2.1,4.7,8.9,4.4,10.6-0.5l26.2-75.3"/>
	<circle class="st2" cx="369.5" cy="440.2" r="18.5"/>
	<circle class="st37" cx="369.5" cy="440.2" r="22.4"/>
</g>
</svg>
