<?xml version="1.0" encoding="utf-8"?>
<!-- Generator: Adobe Illustrator 23.0.3, SVG Export Plug-In . SVG Version: 6.00 Build 0)  -->
<svg version="1.1" id="Layer_1" xmlns="http://www.w3.org/2000/svg" xmlns:xlink="http://www.w3.org/1999/xlink" x="0px" y="0px"
	 viewBox="0 0 106 105" style="enable-background:new 0 0 106 105;" xml:space="preserve">
<style type="text/css">
	.st0{fill:#91E0B5;}
	.st1{fill:#FFFFFF;}
	.st2{display:none;}
	.st3{display:inline;}
	.st4{fill:#48CC83;}
	.st5{display:inline;fill:#48CC83;}
	.st6{display:none;fill:#48CC83;}
</style>
<g>
	
		<image style="overflow:visible;opacity:5.000000e-02;enable-background:new    ;" width="106" height="106" xlink:href="E2FD738C.png"  transform="matrix(1 0 0 1 4 3)">
	</image>
	<g>
		<circle class="st0" cx="49.5" cy="49.4" r="37.5"/>
	</g>
</g>
<circle class="st1" cx="49.5" cy="49.4" r="27.6"/>
<g class="st2">
	<g class="st3">
		<path class="st4" d="M49.4,63.1c-4.4,0-8.7,0-13.1,0c-2,0-3.1-1.1-3.1-3.1c0-2,0-4.1,0-6.1c0-1.8,1.2-2.9,2.9-2.9
			c2.4,0,4.8,0,7.2,0c0.4,0,0.6-0.1,0.5-0.6c0-1.7,0-3.5,0-5.2c0-0.4-0.1-0.5-0.5-0.5c-0.9,0-1.8,0-2.7,0c-1.2,0-2-0.5-2.5-1.5
			c-0.5-1-0.2-2,0.5-2.8c2.9-3,5.9-5.9,8.9-8.8c1.1-1,2.6-1,3.6,0c3,2.9,5.9,5.9,8.8,8.8c0.8,0.8,1,1.8,0.6,2.8
			c-0.5,1-1.3,1.6-2.5,1.6c-0.9,0-1.8,0-2.7,0c-0.4,0-0.5,0.1-0.5,0.5c0,1.7,0,3.5,0,5.2c0,0.4,0.1,0.5,0.5,0.5c2.4,0,4.7,0,7.1,0
			c1.9,0,3,1.1,3,3c0,2,0,4.1,0,6.1c0,1.9-1.1,3-3,3C58.2,63.1,53.8,63.1,49.4,63.1z M53,48.7c0-1.8,0-3.6,0-5.4
			c0-0.5,0.2-0.6,0.7-0.6c1.5,0,3,0,4.5,0c0.2,0,0.5,0,0.6-0.2c0.1-0.3,0-0.5-0.1-0.7c-0.1-0.1-0.2-0.2-0.2-0.2
			c-2.8-2.8-5.5-5.5-8.3-8.3c-0.5-0.5-0.7-0.5-1.2,0c-1.1,1.1-2.1,2.1-3.2,3.2c-1.7,1.7-3.4,3.4-5.1,5.1c-0.3,0.3-0.6,0.5-0.4,1
			c0.2,0.4,0.6,0.3,0.9,0.3c1.4,0,2.7,0,4.1,0c0.6,0,0.7,0.1,0.7,0.7c0,3.5,0,7,0,10.4c0,1.1,0.1,1.2,1.2,1.2c1.7,0,3.4,0,5.1,0
			c0.7,0,0.9-0.2,0.9-0.9C53,52.3,53,50.5,53,48.7z M49.4,61.1c4.3,0,8.7,0,13,0c0.9,0,1.2-0.3,1.2-1.2c0-1.9,0-3.8,0-5.8
			c0-0.9-0.3-1.2-1.2-1.2c-2,0-4,0-5.9,0c-0.5,0-1-0.2-1.3,0.1c-0.3,0.3-0.1,0.9-0.1,1.4c0,0,0,0.1,0,0.1c0,1.4-1.1,2.4-2.5,2.4
			c-2.1,0-4.1,0-6.2,0c-0.9,0-1.6-0.4-2.1-1.2c-0.5-0.7-0.4-1.5-0.4-2.3c0-0.5-0.2-0.6-0.6-0.6c-2.3,0-4.5,0-6.8,0
			c-0.9,0-1.2,0.3-1.2,1.2c0,1.9,0,3.8,0,5.7c0,1,0.3,1.3,1.3,1.3C40.8,61.1,45.1,61.1,49.4,61.1z"/>
		<path class="st4" d="M56.5,59.3c-0.7,0-1.3-0.6-1.3-1.3c0-0.6,0.7-1.3,1.3-1.3c0.7,0,1.2,0.6,1.2,1.3
			C57.7,58.7,57.1,59.3,56.5,59.3z"/>
		<path class="st4" d="M60.5,59.3c-0.7,0-1.3-0.6-1.3-1.3c0-0.6,0.7-1.3,1.3-1.3c0.7,0,1.2,0.6,1.2,1.3
			C61.8,58.7,61.2,59.3,60.5,59.3z"/>
	</g>
</g>
<g class="st2">
	<g class="st3">
		<path class="st4" d="M49.3,63.1c-4.9,0-9.9,0-14.8,0c-1.5,0-2.5-0.6-3.2-1.9c-3.9-7.7-2.8-16.6,2.9-23c3.6-4,8.2-6.3,13.7-6.7
			c6-0.4,11.3,1.5,15.5,5.7c4.6,4.5,6.6,10.1,6.1,16.5c-0.2,2.9-1.2,5.6-2.5,8.1c-0.6,1.1-1.6,1.3-2.7,1.3
			C59.3,63.1,54.3,63.1,49.3,63.1z M49.2,60.7C49.2,60.7,49.2,60.7,49.2,60.7c4.9,0,9.8,0,14.7,0c0.6,0,1.1-0.1,1.4-0.7
			c1.9-3.8,2.5-7.8,1.7-11.9c-1.7-8.8-10.1-15.3-19.4-14.4c-5.1,0.5-9.3,2.8-12.4,6.7c-4.6,5.9-5.1,12.5-2,19.3
			c0.3,0.7,0.8,1,1.6,0.9C39.6,60.7,44.4,60.7,49.2,60.7z"/>
		<path class="st4" d="M49.3,58.4c-2.1,0-3.8-1.3-4.3-3.2c-0.5-2.1,0.3-4.2,2.1-5.2c1.8-1,4.2-0.7,5.5,0.9c0.9,1.1,1.7,1.1,2.9,0.9
			c2.2-0.5,4.4-0.8,6.6-1.1c0.2,0,0.4,0,0.5,0c0.7-0.1,1.3,0.2,1.4,0.9c0.1,0.7-0.3,1.1-1,1.3c-1.1,0.2-2.2,0.4-3.3,0.6
			c-1.8,0.3-3.5,0.6-5.3,0.9c-0.5,0.1-0.6,0.2-0.7,0.7C53.1,57.2,51.5,58.4,49.3,58.4z M47.1,53.9c0,1.3,1.1,2.3,2.3,2.3
			c1.1,0,2.1-1.1,2.2-2.2c0-1.2-1-2.2-2.1-2.3C48.1,51.7,47.1,52.7,47.1,53.9z"/>
		<path class="st4" d="M58.9,43.7c-1,0-1.7-0.8-1.7-1.7c0-0.9,0.9-1.7,1.8-1.7c0.9,0,1.7,0.8,1.7,1.7C60.6,43.1,59.9,43.8,58.9,43.7
			z"/>
		<path class="st4" d="M39.7,43.7c-1,0-1.7-0.7-1.7-1.6c0-0.9,0.8-1.7,1.7-1.7c0.9,0,1.7,0.8,1.7,1.7C41.5,43,40.7,43.7,39.7,43.7z"
			/>
		<path class="st4" d="M47.7,38.1c0-0.9,0.7-1.6,1.6-1.7c0.9,0,1.8,0.8,1.8,1.7c0,0.8-0.9,1.7-1.7,1.7
			C48.4,39.9,47.7,39.1,47.7,38.1z"/>
		<path class="st4" d="M34.1,51.7c0-1,0.7-1.7,1.6-1.7c0.9,0,1.7,0.9,1.7,1.7c0,0.8-0.9,1.7-1.8,1.7C34.9,53.4,34.2,52.6,34.1,51.7z
			"/>
	</g>
</g>
<g class="st2">
	<path class="st5" d="M49.9,65.2c-4.2,0-8.5,0-12.7,0c-2,0-2.8-0.8-2.7-2.8c0.1-4.1,3.8-7.8,7.9-8.2c1.3-0.1,2.5,0,3.7,0.4
		c2.6,0.8,5.3,0.8,7.9,0c3.2-0.9,6.1-0.4,8.6,1.8c2,1.8,3.1,4.1,3,6.8c0,1.3-1,2.1-2.4,2.1C58.7,65.2,54.3,65.2,49.9,65.2z M50,62.9
		c4.1,0,8.1,0,12.2,0c1.1,0,1.3-0.2,1.1-1.3c-1.1-4.3-5.2-6-8.2-5c-3.3,1.1-6.6,1.1-10,0c-3-1-7.2,0.8-8.2,5c-0.3,1,0,1.3,1,1.3
		C41.9,62.9,45.9,62.9,50,62.9z"/>
	<path class="st5" d="M52.5,51.9c-1.2,0-2.3,0-3.5,0c-1.4,0-2.3-0.9-2.3-2.2c0-1.4,0.9-2.2,2.4-2.3c0.6,0,1.3,0,1.9,0
		c1.1,0,1.9,0.5,2.2,1.6c0.2,0.5,0.4,0.6,0.8,0.6c5.2,0.4,7.5-2.8,7.1-7.5c-0.5-5.1-4-9.1-9.1-10c-6.5-1.2-12,3.4-12.9,9.1
		c-0.1,0.9-0.2,1.7-0.2,2.6c0,0.8-0.2,1.3-1.1,1.4c-0.9,0-1.2-0.6-1.2-1.3c-0.1-1.6,0.1-3.2,0.6-4.7c1.9-5.3,5.6-8.5,11.2-9.4
		c5.7-0.9,11.9,2.8,14,8.3c1.3,3.3,1.7,6.6,0,9.8c-1.3,2.6-3.6,3.9-6.5,4.1C54.8,51.9,53.7,51.9,52.5,51.9
		C52.5,51.9,52.5,51.9,52.5,51.9z"/>
	<path class="st5" d="M55,47.4c0.8-1,1.2-2.1,1.5-3.2c0.8-3.6-2-7.2-5.4-7.7c-3.9-0.6-7.4,2.1-7.8,5.9c-0.1,1.4,0,2.9,0.9,3.9
		c1.1,1.2,0.2,2.2,0.1,3.5c-2.4-2.1-3.5-4.6-3.2-7.6c0.4-4.1,2.6-6.6,6.5-7.8c4.3-1.3,9.1,1.2,10.7,5.5c0.6,1.6,0.7,3.3,0.3,5
		C58.2,46.7,57.1,47.5,55,47.4z"/>
</g>
<g class="st2">
	<path class="st5" d="M30.5,50.6c0-3,0-6.1,0-9.1c0-1.8,1-2.6,2.7-2.1c4.8,1.4,9.6,0.5,14.3-0.6c3.5-0.8,7-1.8,10.6-2.2
		c3.1-0.3,6.2-0.1,9.1,1c1.3,0.5,1.7,1,1.7,2.4c0,6.1,0,12.2,0,18.4c0,1.5-1,2.5-2.4,2.1c-4.9-1.5-9.7-0.7-14.6,0.5
		c-3.5,0.8-7,1.8-10.6,2.2c-3.1,0.4-6.2,0.2-9.2-1c-1.2-0.5-1.6-1-1.6-2.3C30.5,56.7,30.5,53.7,30.5,50.6z M66.9,48.2
		C66.9,48.2,66.9,48.2,66.9,48.2c0-0.9,0-1.8,0-2.7c0.1-1-0.1-1.6-1.3-1.5c-0.3,0-0.7-0.2-1-0.3c-2-0.9-3-2.5-3.4-4.6
		c-0.1-0.3,0-0.7-0.5-0.7c-1.8,0.2-3.6,0.2-5.4,0.6c-3.7,0.8-7.3,1.9-11.1,2.6c-1.6,0.3-3.2,0.5-4.8,0.5c-0.8,0-1.3,0.1-1.5,1.1
		c-0.6,2.5-2.3,3.9-4.8,4.3c-0.4,0.1-0.7,0.1-0.7,0.6c0,2.3,0,4.7,0,7c0,0.4,0.1,0.6,0.6,0.6c2.8,0.4,4.5,2.1,5,4.8
		c0.1,0.8,0.5,0.9,1.1,0.8c2.2-0.1,4.5-0.5,6.7-1c4.8-1.1,9.6-2.7,14.6-2.7c0.5,0,0.8-0.3,1-0.9c0.6-2.5,2.3-4,4.8-4.4
		c0.6-0.1,0.7-0.3,0.7-0.8C66.9,50.4,66.9,49.3,66.9,48.2z M32.5,43.2c0,0.5,0,1,0,1.4c0,0.9,0.2,1,1.1,0.8c1.1-0.3,1.8-1,2.3-2
		c0.6-1.1,0.4-1.4-0.8-1.7c-0.2,0-0.4-0.1-0.6-0.1c-0.6,0-1.4-0.6-1.8-0.2C32.2,41.8,32.6,42.6,32.5,43.2z M66.9,56.5
		c0-0.6,0-1.1,0-1.6c0-0.7-0.2-0.8-0.8-0.6c-1.2,0.3-2,1.1-2.5,2.1c-0.6,1-0.4,1.3,0.7,1.5c0.2,0,0.4,0.1,0.6,0.1
		c0.6,0,1.4,0.6,1.8,0.3C67.2,57.9,66.8,57,66.9,56.5z M67,40.8c0-1.3,0-1.3-0.4-1.5c-0.9-0.4-1.9-0.6-2.9-0.8
		c-0.4-0.1-0.5,0.1-0.5,0.4c0,1.3,1.9,3.1,3.2,3.2c0.4,0,0.6-0.1,0.6-0.6C67,41.3,67,41.1,67,40.8z M32.4,59.1
		c-0.2,0.8,0.2,1.2,1.1,1.4c0.7,0.2,1.4,0.3,2.1,0.5c0.7,0.2,0.7-0.2,0.5-0.6c-0.4-1.1-1-2-2.1-2.5C32.7,57.3,32.4,57.5,32.4,59.1z"
		/>
	<path class="st5" d="M55.4,50.5c0,1.6-0.8,3.7-2.7,5c-2.8,1.9-5.8,1.2-7.6-1.7c-1.9-2.9-1.4-6.9,1-9.2c2.3-2.2,6-1.8,7.9,0.8
		C55,46.7,55.4,48.1,55.4,50.5z M49.7,45c-1.1,0-1.9,0.5-2.6,1.3c-1.4,1.6-1.6,4.3-0.6,6.2c1.1,2.1,3.6,2.8,5.3,1.4
		c1.9-1.6,2.3-5,0.9-7.1C51.9,45.8,51,45.1,49.7,45z"/>
</g>
<g class="st2">
	<path class="st5" d="M54.4,41.6c-1.7,0-1.7,0-1.7-1.7c0-1.9,0-1.9,1.9-1.9c1.6,0,1.7,0.1,1.7,1.7c0,0,0,0.1,0,0.1
		C56.2,41.6,56.2,41.6,54.4,41.6z"/>
	<path class="st5" d="M38.1,43.4c1.8,0,1.8,0,1.8,1.8c0,1.8,0,1.8-1.8,1.8c-0.3,0-0.6,0-0.9,0c-0.6,0-0.9-0.3-0.9-1
		c0-0.3,0-0.5,0-0.8C36.3,43.4,36.3,43.4,38.1,43.4z"/>
	<path class="st5" d="M41.7,45.2c0-1.7,0-1.7,1.8-1.7c1.8,0,1.8,0,1.8,1.8c0,0.2,0,0.5,0,0.7c0,0.7-0.3,1.1-1.1,1.1
		c-0.2,0-0.5,0-0.7,0C41.7,47.1,41.7,47.1,41.7,45.2z"/>
	<path class="st5" d="M52.6,45.2c0-1.8,0-1.8,1.8-1.8c1.9,0,1.9,0,1.8,1.9c0,0.4,0,0.8-0.1,1.2c-0.1,0.5-0.6,0.6-1,0.5
		c-0.8-0.1-1.8,0.4-2.4-0.4C52.5,46.3,52.6,45.7,52.6,45.2z"/>
	<path class="st5" d="M39.9,50.7c0,1.7,0,1.7-1.7,1.7c-1.9,0-1.9,0-1.9-1.9c0-1.6,0.1-1.7,1.7-1.7C39.9,48.8,39.9,48.8,39.9,50.7z"
		/>
	<path class="st5" d="M43.5,52.4c-1.9,0-1.8,0.1-1.8-1.8c0-1.8,0-1.8,1.8-1.8c0.3,0,0.6,0,0.9,0c0.7,0,1,0.3,1,1c0,0.3,0,0.5,0,0.8
		C45.4,52.4,45.4,52.4,43.5,52.4z"/>
	<path class="st5" d="M54.4,52.4c-1.8,0-1.8,0-1.8-1.8c0-1.8,0-1.8,1.8-1.8c0.3,0,0.6,0,0.9,0c0.5,0,0.8,0.3,0.9,0.9
		c0,0.3,0,0.6,0,0.9C56.2,52.4,56.2,52.4,54.4,52.4z"/>
	<path class="st5" d="M61.6,52.4c-1.7,0-1.7,0-1.7-1.7c0-1.9,0-1.9,1.9-1.9c1.6,0,1.7,0.1,1.7,1.7c0,0,0,0.1,0,0.1
		C63.5,52.4,63.5,52.4,61.6,52.4z"/>
	<path class="st5" d="M38.1,54.3c1.8,0,1.8,0,1.8,1.8c0,1.8,0,1.8-1.8,1.8c-0.3,0-0.6,0-0.9,0c-0.5,0-0.8-0.3-0.9-0.9
		c0-0.3,0-0.6,0-0.9C36.3,54.3,36.3,54.3,38.1,54.3z"/>
	<path class="st5" d="M41.7,56.1c0-1.8,0-1.8,1.8-1.8c1.9,0,1.9,0,1.8,1.8c0,0.3,0,0.6,0,0.9c0,0.5-0.3,0.8-0.9,0.9
		c-0.3,0-0.6,0-0.9,0C41.7,57.9,41.7,57.9,41.7,56.1z"/>
	<path class="st5" d="M61.6,54.3c1.9,0,1.9,0,1.8,1.9c0,0.4,0,0.8-0.1,1.2c-0.1,0.5-0.6,0.6-1,0.5c-0.8-0.1-1.9,0.5-2.4-0.4
		c-0.4-0.8-0.2-1.9-0.1-2.8c0-0.3,0.3-0.4,0.6-0.4C60.9,54.3,61.3,54.3,61.6,54.3z"/>
</g>
<path class="st6" d="M31.8,50.9c0-3.4,0-6.9,0-10.3c0-1.2,0.5-1.8,1.8-1.8c0.9,0,1.8,0,2.8,0c0.7,0,0.9-0.2,0.9-0.9
	c0-1.2,0-2.4,0-3.5c0-0.7,0.2-1,0.9-1c0.7,0,1,0.3,0.9,1c0,1.3,0,2.5,0,3.8c0,0.5,0.2,0.7,0.7,0.6c0.9-0.1,2.1,0.4,2.8-0.2
	c0.6-0.5,0.1-1.7,0.2-2.6c0-0.5,0-1.1,0-1.6c-0.1-0.7,0.2-1,0.9-1c0.7,0,1,0.3,1,1c0,1.2,0,2.4,0,3.6c0,0.6,0.1,0.8,0.8,0.8
	c0.7,0,1.4,0,2.2,0c0.5,0,0.6-0.2,0.6-0.6c0-1,0-2,0-3c0-1.2,0.5-1.7,1.7-1.7c3.1,0,6.2,0,9.3,0c1.2,0,1.7,0.5,1.7,1.7
	c0,2.8,0,5.6,0,8.4c0,0.6,0.2,0.8,0.8,0.8c1.6,0,3.2,0,4.8,0c1.2,0,1.7,0.5,1.7,1.7c0,5.1,0,10.3,0,15.4c0,0.7-0.1,1-0.9,1
	c-0.8,0-1-0.3-1-1c0-4.6,0-9.3,0-13.9c0-1.5,0.2-1.3-1.4-1.4c-1.6,0-3.3,0-4.9,0c-0.7,0-1-0.2-0.9-0.9c0-3,0-6,0-9.1
	c0-0.7-0.2-0.9-0.9-0.9c-2.4,0-4.8,0-7.2,0c-0.7,0-0.9,0.2-0.9,0.9c0,1.2,0,2.5,0,3.7c0,0.7-0.2,0.8-0.8,0.8c-4.8,0-9.6,0-14.4,0
	c-0.8,0-1.1,0.2-1,1c0,6.5,0,13.1,0,19.6c0,0.7-0.1,1.2-1,1.2c-0.7,0-0.9-0.3-0.9-1C31.8,58,31.8,54.5,31.8,50.9z"/>
<g>
	<path class="st4" d="M63.8,40.7c0-2.1,0-4.2,0-6.3c0-0.8,0.1-1.4,1.1-1.4c1,0,1.2,0.3,1.2,1.4c0,3.1,0,6.1,0,9.2
		c0,1.4-0.2,1.6-1.6,1.6c-3.1,0-6.2,0-9.3,0c-0.8,0-1.4-0.1-1.4-1.1c0-1.1,0.6-1.2,1.5-1.2c2,0,4,0,6,0c0.7,0,0.8-0.1,0.4-0.8
		c-3.1-4.9-7.6-7.3-13.4-6.9c-6.6,0.5-11.7,5.6-12.7,11.8c-0.1,0.4-0.1,0.7-0.2,1.1c-0.1,1.1-0.4,1.3-1.4,1.2c-1,0-0.9-0.7-0.8-1.4
		c0.5-5.4,3-9.6,7.6-12.5c6.4-4.1,14.8-3.2,20.2,2.1C62,38.6,62.9,39.6,63.8,40.7z"/>
	<path class="st4" d="M35.5,58.1c0,2.2,0,4.4,0,6.5c0,0.8-0.4,1.2-1.1,1.2c-0.6,0-1.1-0.2-1.1-1c0-3.4,0-6.9,0-10.3c0-0.7,0.3-1,1-1
		c3.4,0,6.7,0,10.1,0c0.8,0,1.1,0.4,1.1,1.1c0,0.8-0.4,1.1-1.2,1.1c-2.1,0-4.2,0-6.2,0c-0.2,0-0.6-0.1-0.7,0.1
		c-0.1,0.2,0.1,0.4,0.3,0.6c4.3,7.1,13.5,9.1,20.3,4.3c3.6-2.5,5.5-6.1,5.9-10.4c0.1-0.8,0.4-1.1,1.2-1.1c0.8,0,1.1,0.3,1.1,1.1
		c-0.1,2.7-0.9,5.1-2.3,7.3c-3,4.9-7.4,7.6-13.2,8c-4.5,0.3-8.4-1.1-11.7-4.1C37.6,60.6,36.6,59.4,35.5,58.1z"/>
</g>
</svg>
