<?xml version="1.0" encoding="utf-8"?>
<!-- Generator: Adobe Illustrator 23.0.3, SVG Export Plug-In . SVG Version: 6.00 Build 0)  -->
<svg version="1.1" id="Layer_1" xmlns="http://www.w3.org/2000/svg" xmlns:xlink="http://www.w3.org/1999/xlink" x="0px" y="0px"
	 viewBox="0 0 106 105" style="enable-background:new 0 0 106 105;" xml:space="preserve">
<style type="text/css">
	.st0{fill:#91E0B5;}
	.st1{fill:#FFFFFF;}
	.st2{fill:#48CC83;}
</style>
<g>
	
		<image style="overflow:visible;opacity:5.000000e-02;enable-background:new    ;" width="106" height="106" xlink:href="E2FD738C.png"  transform="matrix(1 0 0 1 4 3)">
	</image>
	<g>
		<circle class="st0" cx="49.5" cy="49.4" r="37.5"/>
	</g>
</g>
<circle class="st1" cx="49.5" cy="49.4" r="27.6"/>
<g>
	<g>
		<path class="st2" d="M49.4,63.1c-4.4,0-8.7,0-13.1,0c-2,0-3.1-1.1-3.1-3.1c0-2,0-4.1,0-6.1c0-1.8,1.2-2.9,2.9-2.9
			c2.4,0,4.8,0,7.2,0c0.4,0,0.6-0.1,0.5-0.6c0-1.7,0-3.5,0-5.2c0-0.4-0.1-0.5-0.5-0.5c-0.9,0-1.8,0-2.7,0c-1.2,0-2-0.5-2.5-1.5
			c-0.5-1-0.2-2,0.5-2.8c2.9-3,5.9-5.9,8.9-8.8c1.1-1,2.6-1,3.6,0c3,2.9,5.9,5.9,8.8,8.8c0.8,0.8,1,1.8,0.6,2.8
			c-0.5,1-1.3,1.6-2.5,1.6c-0.9,0-1.8,0-2.7,0c-0.4,0-0.5,0.1-0.5,0.5c0,1.7,0,3.5,0,5.2c0,0.4,0.1,0.5,0.5,0.5c2.4,0,4.7,0,7.1,0
			c1.9,0,3,1.1,3,3c0,2,0,4.1,0,6.1c0,1.9-1.1,3-3,3C58.2,63.1,53.8,63.1,49.4,63.1z M53,48.7c0-1.8,0-3.6,0-5.4
			c0-0.5,0.2-0.6,0.7-0.6c1.5,0,3,0,4.5,0c0.2,0,0.5,0,0.6-0.2c0.1-0.3,0-0.5-0.1-0.7c-0.1-0.1-0.2-0.2-0.2-0.2
			c-2.8-2.8-5.5-5.5-8.3-8.3c-0.5-0.5-0.7-0.5-1.2,0c-1.1,1.1-2.1,2.1-3.2,3.2c-1.7,1.7-3.4,3.4-5.1,5.1c-0.3,0.3-0.6,0.5-0.4,1
			c0.2,0.4,0.6,0.3,0.9,0.3c1.4,0,2.7,0,4.1,0c0.6,0,0.7,0.1,0.7,0.7c0,3.5,0,7,0,10.4c0,1.1,0.1,1.2,1.2,1.2c1.7,0,3.4,0,5.1,0
			c0.7,0,0.9-0.2,0.9-0.9C53,52.3,53,50.5,53,48.7z M49.4,61.1c4.3,0,8.7,0,13,0c0.9,0,1.2-0.3,1.2-1.2c0-1.9,0-3.8,0-5.8
			c0-0.9-0.3-1.2-1.2-1.2c-2,0-4,0-5.9,0c-0.5,0-1-0.2-1.3,0.1c-0.3,0.3-0.1,0.9-0.1,1.4c0,0,0,0.1,0,0.1c0,1.4-1.1,2.4-2.5,2.4
			c-2.1,0-4.1,0-6.2,0c-0.9,0-1.6-0.4-2.1-1.2c-0.5-0.7-0.4-1.5-0.4-2.3c0-0.5-0.2-0.6-0.6-0.6c-2.3,0-4.5,0-6.8,0
			c-0.9,0-1.2,0.3-1.2,1.2c0,1.9,0,3.8,0,5.7c0,1,0.3,1.3,1.3,1.3C40.8,61.1,45.1,61.1,49.4,61.1z"/>
		<path class="st2" d="M56.5,59.3c-0.7,0-1.3-0.6-1.3-1.3c0-0.6,0.7-1.3,1.3-1.3c0.7,0,1.2,0.6,1.2,1.3
			C57.7,58.7,57.1,59.3,56.5,59.3z"/>
		<path class="st2" d="M60.5,59.3c-0.7,0-1.3-0.6-1.3-1.3c0-0.6,0.7-1.3,1.3-1.3c0.7,0,1.2,0.6,1.2,1.3
			C61.8,58.7,61.2,59.3,60.5,59.3z"/>
	</g>
</g>
</svg>
