<?xml version="1.0" encoding="utf-8"?>
<!-- Generator: Adobe Illustrator 23.0.3, SVG Export Plug-In . SVG Version: 6.00 Build 0)  -->
<svg version="1.1" id="Layer_1" xmlns="http://www.w3.org/2000/svg" xmlns:xlink="http://www.w3.org/1999/xlink" x="0px" y="0px"
	 viewBox="0 0 121 61" style="enable-background:new 0 0 121 61;" xml:space="preserve">
<style type="text/css">
	.st0{fill-rule:evenodd;clip-rule:evenodd;fill:#455A64;}
	.st1{fill-rule:evenodd;clip-rule:evenodd;fill:#CF2F2D;}
	.st2{fill:#FCB215;}
	.st3{fill:#D12C30;}
	.st4{fill:#58BD7F;}
	.st5{fill:#3799D4;}
</style>
<g>
	<path class="st0" d="M58.9,58c0.2,0,0.4,0,0.5,0c0,0.3,0,1.2-0.1,1.7h-2.3v-0.3c0-0.8,0-1.5,0-2.3c0.1-3.6,0-7.3-0.2-10.9l0-0.5
		h1.8l0,0.4C58.9,50.1,59,54,58.9,58z"/>
	<path class="st0" d="M53.9,57.4L53.9,57.4L53.9,57.4l0-0.1c0.1-2,0.1-4,0-6v0c0-0.5-0.1-0.5-0.5-0.5h0h-5.9h0h0
		c-0.4,0-0.5,0.1-0.5,0.5c0,0.4,0,0,0,0c-0.1,2-0.1,4.1,0,6.1v0c0,0.4,0.1,0.5,0.5,0.5c0.4,0,0,0,0.1,0l0,0h5.8h0
		C53.9,57.9,53.9,57.9,53.9,57.4L53.9,57.4L53.9,57.4z M45.3,58.9L45.3,58.9L45.3,58.9c-0.2-3-0.2-6,0-9.1l0,0
		c0.1-0.4,0.3-0.6,0.7-0.7l0,0h0.1h8.8h0c0.4,0,0.7,0.3,0.8,0.7l0,0l0,0c0,0,0,0,0,0.1c0.1,2.5,0.2,4.9,0.1,7.4c0,0.5,0,1-0.1,1.4v0
		c0,0,0,0.1,0,0.1v0h0c0,0.4-0.4,0.7-0.8,0.7v0h0h-8.7l0,0l0,0C45.7,59.6,45.3,59.3,45.3,58.9z"/>
	<path class="st0" d="M11.2,50.1C11.2,50,11.2,50,11.2,50.1c0-0.5-0.4-0.9-0.8-0.9c0,0,0,0-0.1,0H5.4l-0.1,0.1
		c-0.3,0.3-0.8,0.7-1.1,0.9c-0.2,0.2-0.5,0.4-0.7,0.6c0-0.3,0-0.6,0-0.8l0-0.7H1.7l0,0.8c0.2,3,0.2,5.9,0,8.9l0,0.7h1.8l0-0.6
		c0.1-1.4,0.1-2.7,0.1-4.1c0-0.6,0-1.3,0-1.9l2.7-2.1h2.5l0,0l0,0c0.5,0,0.5,0.1,0.5,0.5l0,0v0l0,0c-0.1,2.5-0.1,5,0.1,7.6l0,0.6
		h1.8l0-0.7c-0.1-2-0.1-4-0.1-6l2.6-2.1h2.7l0,0l0,0c0.5,0,0.5,0.1,0.5,0.5l0,0v0l0,0c-0.1,2.5-0.1,5,0.1,7.6l0,0.6h1.8l0-0.7
		c-0.2-2.9-0.2-5.9,0-8.8c0,0,0-0.1,0-0.1c0-0.4-0.4-0.8-0.8-0.8c0,0,0,0-0.1,0h-5.1l-0.1,0.1c-0.3,0.3-0.8,0.7-1.1,0.9
		c-0.2,0.1-0.3,0.3-0.5,0.4L11.2,50.1z"/>
	<path class="st0" d="M69.5,57.4L69.5,57.4L69.5,57.4l0-0.1c0-0.3,0-0.5,0-0.8h1.8c0,0.3,0,0.6,0,0.9c0,0.5,0,1-0.1,1.4v0
		c0,0,0,0.1,0,0.1l0,0c0,0.4-0.4,0.7-0.8,0.7l0,0h0h-8.7l0,0l0,0c-0.4,0-0.7-0.3-0.8-0.7l0,0c-0.2-3-0.2-6,0-9.1l0,0
		c0.1-0.4,0.3-0.6,0.7-0.7l0,0h0.1h8.8h0c0.4,0,0.7,0.3,0.8,0.7l0,0l0,0c0,0,0,0,0,0.1c0.1,1.4,0.1,2.8,0.1,4.1c0,0.3,0,0.6,0,0.9
		h-0.5h-0.3h-1h-7c0,0.8,0,1.7,0.1,2.5v0c0,0.5,0.1,0.5,0.5,0.5s0,0,0.1,0l0,0H69h0C69.4,57.9,69.5,57.9,69.5,57.4L69.5,57.4
		L69.5,57.4z M69.5,53.1L69.5,53.1c0-0.6,0-1.2,0-1.8v0c0-0.5-0.1-0.5-0.5-0.5h0h-5.9h0h0c-0.5,0-0.5,0-0.5,0.5c0,0.5,0,0,0,0
		c0,0.6,0,1.2,0,1.8H69.5z"/>
	<path class="st0" d="M33.5,57.4L33.5,57.4L33.5,57.4l0-0.1c0-0.3,0-0.5,0-0.8h1.8c0,0.3,0,0.6,0,0.9c0,0.5,0,1-0.1,1.4v0
		c0,0,0,0.1,0,0.1v0h0c0,0.4-0.4,0.7-0.8,0.7v0h0h-8.7l0,0l0,0c-0.4,0-0.7-0.3-0.8-0.7l0,0c-0.2-3-0.2-6,0-9l0,0
		c0.1-0.4,0.3-0.6,0.7-0.7l0,0h0.1h8.7l0,0h0c0.4,0,0.7,0.3,0.8,0.7l0,0l0,0c0,0,0,0,0,0.1c0,0.7,0,0.8,0.1,1.5h-1.8l0-0.1v0
		c0-0.5-0.1-0.5-0.5-0.5h0l0,0h-5.8h0h0c-0.4,0-0.5,0.1-0.5,0.5c0,0.4,0,0,0,0c-0.1,2-0.1,4,0,6.1v0c0,0.4,0.1,0.5,0.5,0.5
		c0.4,0,0,0,0.1,0l0,0H33h0C33.4,58,33.5,57.9,33.5,57.4L33.5,57.4z"/>
	<path class="st0" d="M75,51.3L75,51.3L75,51.3l0,0.1c0,0.3,0,0.5,0,0.8h-1.8c0-0.3,0-0.6,0-0.9c0-0.5,0-1,0.1-1.4v0
		c0,0,0-0.1,0-0.1l0,0l0,0c0-0.4,0.4-0.7,0.8-0.7l0,0h0h8.7l0,0l0,0c0.4,0,0.7,0.3,0.8,0.7l0,0c0.2,3,0.2,6,0,9.1l0,0
		c-0.1,0.4-0.3,0.6-0.7,0.7l0,0h-0.1h-8.8l0,0h0c-0.4,0-0.7-0.3-0.8-0.7l0,0l0,0c0,0,0,0,0-0.1c-0.1-1.4-0.1-2.8-0.1-4.1
		c0-0.3,0-0.6,0-0.9h0.5H74h1h7c0-0.8,0-1.7-0.1-2.5v0c0-0.5-0.1-0.5-0.5-0.5c-0.4,0,0,0-0.1,0l0,0h-5.8h0
		C75.1,50.8,75,50.8,75,51.3L75,51.3L75,51.3z M74.9,55.6c0,0.6,0,1.2,0,1.8v0c0,0.5,0.1,0.5,0.5,0.5h0l0,0h5.9h0h0
		c0.5,0,0.5,0,0.5-0.5c0-0.5,0,0,0,0c0-0.6,0-1.2,0-1.8H74.9z"/>
	<path class="st0" d="M44.1,49.1h-3.5h-0.5L40,49.2c-0.3,0.3-0.8,0.7-1.1,0.9c-0.2,0.2-0.5,0.4-0.7,0.6c0-0.5,0-1-0.1-1.6h-1.9
		c0.1,2.6,0.1,5.3,0.1,7.9c0,0.8,0,1.5,0,2.3v0.3l1.8,0l0,0h0.1l0-0.6c0.1-1.4,0.1-2.8,0.1-4.1c0-0.6,0-1.3,0-1.9l2.7-2.1h3.1V49.1z
		"/>
	<g>
		<path class="st0" d="M21.3,51.5l-0.7-0.3l0.9-2.2l1.5,0.4l0,0.4c0.2,2.9,0.2,5.8,0,8.6c0,0.3,0,0.5,0,0.8l0,0.3h-1.8l0-0.3
			c0-0.3,0-0.5,0-0.8C21.4,56.1,21.4,53.8,21.3,51.5z"/>
		<path class="st1" d="M21,47.6c0-0.4,0-0.8-0.1-1.3c0-0.4,0-0.6,0.4-0.6h1.4c0.3,0,0.4,0,0.4,0.5c0,0.4,0,0.9,0.1,1.3
			c0,0.2,0.1,0.4-0.3,0.3h-1.5C21,47.9,21,47.9,21,47.6z"/>
	</g>
	<path class="st0" d="M118,51.4L118,51.4L118,51.4l0,0.1c0,0.3,0,0.5,0,0.8h1.8c0-0.3,0-0.6,0-0.9c0-0.5,0-1-0.1-1.4v0
		c0,0,0-0.1,0-0.1l0,0c0-0.4-0.4-0.7-0.8-0.7l0,0h0h-8.7l0,0l0,0c-0.4,0-0.7,0.3-0.8,0.7l0,0c-0.1,1.9-0.1,3.8-0.1,5.7h1.8h2.6h4.4
		l0,0c0,0.6,0,1.2,0,1.8v0c0,0.5-0.1,0.5-0.5,0.5h0h-5.9h0h0c-0.5,0-0.5,0-0.5-0.5c0-0.5,0,0,0,0l0-0.3h-1.8c0,0.6,0,1.2,0.1,1.8
		l0,0c0.1,0.4,0.3,0.6,0.7,0.7l0,0h0.1h8.8h0c0.4,0,0.7-0.3,0.8-0.7l0,0l0,0c0,0,0,0,0-0.1c0.1-1.4,0.1-2.8,0.1-4.1
		c0-0.3,0-0.6,0-0.9h-0.5H119h-1h-7c0-0.8,0-1.7,0.1-2.5v0c0-0.5,0.1-0.5,0.5-0.5c0.4,0,0,0,0.1,0l0,0h5.8h0
		C117.9,50.8,118,50.9,118,51.4L118,51.4z"/>
	<path class="st0" d="M87.4,50.8L87.4,50.8L87.4,50.8L87.4,50.8c-0.4,0-0.5,0.1-0.4,0.5c0.1,0.4,0,0,0,0c0.4,2,0.8,4.1,1.3,6.1l0,0
		c0.1,0.4,0.2,0.5,0.6,0.5c0.4,0,0,0,0.1,0l0,0h0.2h0.2H92l0,0c0,0-0.4,0,0.1,0c0.4,0,0.5-0.1,0.6-0.5l0,0c0.5-2,0.9-4.1,1.3-6.1
		c0,0-0.1,0.4,0,0c0.1-0.4,0-0.5-0.4-0.5h0h0l0,0l0.1-1.6h1.7h0.1l0,0c0.4,0,0.6,0.3,0.6,0.7l0,0c-0.5,3-1.1,6-1.9,9.1l0,0l0,0
		c-0.1,0.4-0.5,0.7-0.9,0.7l0,0l0,0h-3.7h-0.1h-1.5l0,0l0,0c-0.4,0-0.8-0.3-0.9-0.7l0,0l0,0c-0.8-3-1.4-6-1.9-9.1l0,0
		c0-0.4,0.2-0.6,0.6-0.7l0,0h0.1h1.7L87.4,50.8z"/>
	<path class="st0" d="M105.8,57.4L105.8,57.4L105.8,57.4l0-0.1c0-0.3,0-0.5,0-0.8h1.8c0,0.3,0,0.6,0,0.9c0,0.5,0,1-0.1,1.4v0
		c0,0,0,0.1,0,0.1l0,0c0,0.4-0.4,0.7-0.8,0.7l0,0h0H98l0,0l0,0c-0.4,0-0.7-0.3-0.8-0.7l0,0c-0.2-3-0.2-6,0-9.1l0,0
		c0.1-0.4,0.3-0.6,0.7-0.7l0,0h0.1h8.8h0c0.4,0,0.7,0.3,0.8,0.7l0,0l0,0c0,0,0,0,0,0.1c0.1,1.4,0.1,2.8,0.1,4.1c0,0.3,0,0.6,0,0.9
		h-0.5h-0.3h-1h-7c0,0.8,0,1.7,0.1,2.5v0c0,0.5,0.1,0.5,0.5,0.5c0.4,0,0,0,0.1,0l0,0h5.8h0C105.7,57.9,105.8,57.9,105.8,57.4
		L105.8,57.4L105.8,57.4z M105.8,53.1L105.8,53.1c0-0.6,0-1.2,0-1.8v0c0-0.5-0.1-0.5-0.5-0.5h0h-5.9h0h0c-0.5,0-0.5,0-0.5,0.5
		c0,0.5,0,0,0,0c0,0.6,0,1.2,0,1.8H105.8z"/>
</g>
<g>
	<polygon class="st2" points="60.4,25.3 60.4,25.3 50,19.2 50,31.1 60.4,37.2 60.4,37.2 84.4,22 84.4,9.6 	"/>
	<g id="Polygon_1_2_">
		<polygon class="st3" points="84.3,23.6 72,31.2 84.5,38.7 		"/>
	</g>
	<g id="Rectangle_3_2_">
		<polygon class="st4" points="73.7,2 50,17.9 60.4,24 83.7,8.6 		"/>
	</g>
	<polygon class="st5" points="61.2,8.7 49.5,1.6 37.1,9.6 37.1,39.7 48.8,31.6 48.8,17.1 	"/>
</g>
</svg>
